<?xml version="1.0" encoding="UTF-8" standalone="no"?>
<svg
   xmlns:dc="http://purl.org/dc/elements/1.1/"
   xmlns:cc="http://creativecommons.org/ns#"
   xmlns:rdf="http://www.w3.org/1999/02/22-rdf-syntax-ns#"
   xmlns:svg="http://www.w3.org/2000/svg"
   xmlns="http://www.w3.org/2000/svg"
   xmlns:sodipodi="http://sodipodi.sourceforge.net/DTD/sodipodi-0.dtd"
   xmlns:inkscape="http://www.inkscape.org/namespaces/inkscape"
   version="1.1"
   id="svg2"
   xml:space="preserve"
   width="1116.7445"
   height="138.65242"
   viewBox="0 0 1116.7445 138.65241"
   sodipodi:docname="advising.svg"
   inkscape:version="0.92.2 (5c3e80d, 2017-08-06)"
   inkscape:export-filename="C:\xampp\htdocs\FTLS\FYI.png"
   inkscape:export-xdpi="83.085457"
   inkscape:export-ydpi="83.085457"><metadata
     id="metadata8"><rdf:RDF><cc:Work
         rdf:about=""><dc:format>image/svg+xml</dc:format><dc:type
           rdf:resource="http://purl.org/dc/dcmitype/StillImage" /><dc:title></dc:title></cc:Work></rdf:RDF></metadata><defs
     id="defs6" /><sodipodi:namedview
     pagecolor="#ffffff"
     bordercolor="#666666"
     borderopacity="1"
     objecttolerance="10"
     gridtolerance="10"
     guidetolerance="10"
     inkscape:pageopacity="0"
     inkscape:pageshadow="2"
     inkscape:window-width="1920"
     inkscape:window-height="1017"
     id="namedview4"
     showgrid="false"
     inkscape:zoom="0.89835075"
     inkscape:cx="535.50566"
     inkscape:cy="171.99594"
     inkscape:window-x="1912"
     inkscape:window-y="-8"
     inkscape:window-maximized="1"
     inkscape:current-layer="g10"
     showborder="false"
     fit-margin-top="0"
     fit-margin-left="0"
     fit-margin-right="0"
     fit-margin-bottom="0"
     showguides="true"
     inkscape:guide-bbox="true"><sodipodi:guide
       position="164.03737,187.03326"
       orientation="1,0"
       id="guide1439"
       inkscape:locked="false" /></sodipodi:namedview><g
     inkscape:groupmode="layer"
     id="layer1"
     inkscape:label="outline"
     style="display:none;opacity:0.125"
     transform="translate(260.19213,244.43772)"
     sodipodi:insensitive="true"><rect
       style="opacity:1;fill:none;fill-opacity:1;stroke:#000000;stroke-width:5.27622032;stroke-miterlimit:4;stroke-dasharray:none;stroke-opacity:1"
       id="rect208"
       width="1111.4683"
       height="133.37621"
       x="-257.55402"
       y="-241.79961" /><rect
       style="opacity:1;fill:none;fill-opacity:1;stroke:#000000;stroke-width:5.27622032;stroke-miterlimit:4;stroke-dasharray:none;stroke-opacity:1"
       id="rect1031"
       width="124.1778"
       height="107.31411"
       x="-243.75648"
       y="-230.30167" /><path
       style="fill:none;stroke:#000000;stroke-width:1px;stroke-linecap:butt;stroke-linejoin:miter;stroke-opacity:1"
       d="m -104.24805,-124.52054 938.23246,1.53306"
       id="path1033"
       inkscape:connector-curvature="0"
       sodipodi:nodetypes="cc" /></g><g
     id="g10"
     inkscape:groupmode="layer"
     inkscape:label="Academic Advising"
     transform="matrix(1.3333333,0,0,-1.3333333,260.19213,1311.1044)"
     style="display:inline"><flowRoot
       xml:space="preserve"
       id="flowRoot1358"
       style="font-style:normal;font-weight:normal;font-size:40px;line-height:1.25;font-family:sans-serif;letter-spacing:0px;word-spacing:0px;fill:#000000;fill-opacity:1;stroke:none"><flowRegion
         id="flowRegion1360"><rect
           id="rect1362"
           width="364.67142"
           height="151.20522"
           x="85.386475"
           y="234.14859" /></flowRegion><flowPara
         id="flowPara1364" /></flowRoot><flowRoot
       xml:space="preserve"
       id="flowRoot1366"
       style="font-style:normal;font-weight:normal;font-size:40px;line-height:1.25;font-family:sans-serif;letter-spacing:0px;word-spacing:0px;fill:#000000;fill-opacity:1;stroke:none"><flowRegion
         id="flowRegion1368"><rect
           id="rect1370"
           width="663.52411"
           height="158.32076"
           x="78.270935"
           y="200.34978" /></flowRegion><flowPara
         id="flowPara1372" /></flowRoot><g
       aria-label="Academic Advising"
       transform="matrix(0.52193009,0,0,-0.52193009,-144.19278,1154.6167)"
       style="font-style:normal;font-weight:normal;font-size:40px;line-height:1.25;font-family:sans-serif;letter-spacing:0px;word-spacing:0px;fill:#000000;fill-opacity:1;stroke:none"
       id="flowRoot1382"><path
         d="m 154.59446,396.21152 h 5.86016 l 18.05199,48.96938 h -7.4094 l -13.57267,-39.50556 -13.57267,39.50556 h -7.40939 z m -9.73325,31.69201 h 25.76449 v 6.53375 h -25.76449 z"
         style="font-style:normal;font-variant:normal;font-weight:normal;font-stretch:normal;font-size:68.97475433px;font-family:Bahnschrift;-inkscape-font-specification:Bahnschrift"
         id="path1207" /><path
         d="m 199.42132,445.68609 q -4.78243,0 -8.18402,-1.78499 -3.36791,-1.78499 -5.1529,-5.18658 -1.78499,-3.40159 -1.78499,-8.2177 v -5.75912 q 0,-4.74875 1.78499,-8.11666 1.78499,-3.3679 5.1529,-5.11922 3.40159,-1.78499 8.18402,-1.78499 2.728,0 5.11922,0.67358 2.42489,0.63991 4.3446,1.88603 1.91971,1.24613 3.19951,3.03112 v 0 l -4.95082,4.44564 v 0 q -1.48188,-1.68396 -3.46895,-2.59329 -1.98706,-0.90934 -4.14252,-0.90934 -3.97414,0 -6.16328,2.22282 -2.18914,2.22282 -2.18914,6.26431 v 5.75912 q 0,4.14253 2.15546,6.39903 2.18914,2.2565 6.19696,2.2565 2.18914,0 4.1762,-0.9767 1.98707,-0.97669 3.43527,-2.76168 v 0 l 4.95082,4.78243 v 0 q -1.31348,1.75131 -3.23319,2.99744 -1.91971,1.21244 -4.3446,1.85235 -2.39122,0.6399 -5.08554,0.6399 z"
         style="font-style:normal;font-variant:normal;font-weight:normal;font-stretch:normal;font-size:68.97475433px;font-family:Bahnschrift;-inkscape-font-specification:Bahnschrift"
         id="path1209" /><path
         d="m 239.39838,423.02007 q 0,-3.43527 -1.85235,-5.3213 -1.81867,-1.9197 -5.18658,-1.9197 -2.0881,0 -4.10884,0.6399 -1.98707,0.6399 -3.53631,1.78499 l -5.01818,-3.43527 q 1.98707,-2.39121 5.22026,-3.7047 3.26687,-1.34716 7.241,-1.34716 4.3446,0 7.44308,1.54924 3.09847,1.51556 4.71507,4.44564 1.61659,2.8964 1.61659,7.00525 v 22.46394 h -6.53374 z m -8.55448,22.66602 q -6.46639,0 -9.6659,-2.66065 -3.19951,-2.69433 -3.19951,-8.15034 0,-5.18657 2.93008,-7.77986 2.93008,-2.59329 8.85759,-2.59329 h 9.93533 l 0.47151,5.52337 h -10.37316 q -2.69432,0 -4.04149,1.21244 -1.31348,1.17877 -1.31348,3.63734 0,2.66065 1.75131,3.94046 1.78499,1.2798 5.38866,1.2798 3.94045,0 5.86015,-0.84198 1.95339,-0.84197 1.95339,-2.62696 l 0.70726,4.91714 q -0.90933,1.41452 -2.2565,2.32386 -1.31348,0.90933 -3.06479,1.34716 -1.75131,0.47151 -3.94045,0.47151 z"
         style="font-style:normal;font-variant:normal;font-weight:normal;font-stretch:normal;font-size:68.97475433px;font-family:Bahnschrift;-inkscape-font-specification:Bahnschrift"
         id="path1211" /><path
         d="m 276.31066,396.21152 h 6.87053 v 48.96938 h -6.87053 z m -8.79024,49.57561 q -3.83942,0 -6.56742,-1.65028 -2.69433,-1.68395 -4.10885,-4.88347 -1.41452,-3.19951 -1.41452,-7.67883 v -7.7125 q 0,-4.513 1.38084,-7.71251 1.38084,-3.19952 4.00781,-4.84979 2.66065,-1.68396 6.36534,-1.68396 3.09848,0 5.65809,1.6166 2.59329,1.6166 4.17621,4.54668 l -0.70726,7.13996 q 0,-2.22282 -0.8083,-3.80574 -0.8083,-1.58291 -2.35754,-2.39121 -1.51556,-0.84198 -3.7047,-0.84198 -3.40158,0 -5.28761,2.12179 -1.85235,2.12178 -1.85235,5.96119 v 7.61147 q 0,3.80574 1.85235,5.89384 1.88603,2.05443 5.28761,2.05443 2.18914,0 3.7047,-0.84198 1.54924,-0.87566 2.35754,-2.49225 0.8083,-1.6166 0.8083,-3.8731 l 0.4715,7.37572 q -1.04405,2.59329 -3.43526,4.3446 -2.35754,1.75132 -5.82648,1.75132 z"
         style="font-style:normal;font-variant:normal;font-weight:normal;font-stretch:normal;font-size:68.97475433px;font-family:Bahnschrift;-inkscape-font-specification:Bahnschrift"
         id="path1213" /><path
         d="m 307.93531,445.68609 q -4.84979,0 -8.28505,-1.81867 -3.43527,-1.81867 -5.25394,-5.3213 -1.78499,-3.5363 -1.78499,-8.5208 v -3.94046 q 0,-5.18657 1.71763,-8.85759 1.75131,-3.67102 5.05186,-5.59073 3.30055,-1.91971 7.94827,-1.91971 4.37828,0 7.47675,2.18914 3.09848,2.18914 4.71507,6.33167 1.65028,4.14253 1.65028,9.93533 v 2.29017 h -23.57536 v -5.52336 h 17.04162 v 0 q -0.30312,-4.27725 -2.22282,-6.63478 -1.88603,-2.39122 -5.08554,-2.39122 -3.90678,0 -6.06224,2.55961 -2.12178,2.55961 -2.12178,7.241 v 4.44564 q 0,4.3446 2.29018,6.66846 2.29017,2.32386 6.50006,2.32386 2.0881,0 4.14253,-0.84198 2.05442,-0.84198 3.67102,-2.35754 v 0 l 4.51299,4.513 v 0 q -2.59329,2.49225 -5.82648,3.8731 -3.23319,1.34716 -6.50006,1.34716 z"
         style="font-style:normal;font-variant:normal;font-weight:normal;font-stretch:normal;font-size:68.97475433px;font-family:Bahnschrift;-inkscape-font-specification:Bahnschrift"
         id="path1215" /><path
         d="m 372.43074,423.99676 q 0,-3.7047 -1.91971,-5.72544 -1.9197,-2.02075 -5.38865,-2.02075 -3.19951,0 -4.95082,1.95339 -1.75132,1.95339 -1.75132,5.52337 l -1.38084,-6.73582 q 1.65028,-3.46894 4.3446,-5.35497 2.72801,-1.91971 5.99488,-1.91971 3.77206,0 6.4327,1.68396 2.69433,1.65027 4.07517,4.84978 1.41452,3.19952 1.41452,7.71251 v 21.21782 h -6.87053 z m -41.76206,-13.77474 h 6.87053 v 34.95888 h -6.87053 z m 20.88103,13.77474 q 0,-3.7047 -1.81867,-5.72544 -1.81867,-2.02075 -5.1529,-2.02075 -3.36791,0 -5.22026,1.78499 -1.81867,1.785 -1.81867,5.01819 l -0.70726,-6.73582 q 1.6166,-3.16583 4.20989,-4.88347 2.62697,-1.71763 5.7928,-1.71763 3.67102,0 6.26431,1.68396 2.59329,1.65027 3.94045,4.84978 1.38084,3.19952 1.38084,7.71251 v 21.21782 h -6.87053 z"
         style="font-style:normal;font-variant:normal;font-weight:normal;font-stretch:normal;font-size:68.97475433px;font-family:Bahnschrift;-inkscape-font-specification:Bahnschrift"
         id="path1217" /><path
         d="m 389.80915,396.21152 h 6.87054 v 6.87053 h -6.87054 z m 0,14.0105 h 6.87054 v 34.95888 h -6.87054 z"
         style="font-style:normal;font-variant:normal;font-weight:normal;font-stretch:normal;font-size:68.97475433px;font-family:Bahnschrift;-inkscape-font-specification:Bahnschrift"
         id="path1219" /><path
         d="m 421.29908,445.68609 q -4.78243,0 -8.18402,-1.78499 -3.36791,-1.78499 -5.1529,-5.18658 -1.78499,-3.40159 -1.78499,-8.2177 v -5.75912 q 0,-4.74875 1.78499,-8.11666 1.78499,-3.3679 5.1529,-5.11922 3.40159,-1.78499 8.18402,-1.78499 2.728,0 5.11922,0.67358 2.42489,0.63991 4.3446,1.88603 1.9197,1.24613 3.19951,3.03112 v 0 l -4.95082,4.44564 v 0 q -1.48188,-1.68396 -3.46895,-2.59329 -1.98707,-0.90934 -4.14253,-0.90934 -3.97413,0 -6.16327,2.22282 -2.18914,2.22282 -2.18914,6.26431 v 5.75912 q 0,4.14253 2.15546,6.39903 2.18914,2.2565 6.19695,2.2565 2.18914,0 4.17621,-0.9767 1.98706,-0.97669 3.43527,-2.76168 v 0 l 4.95082,4.78243 v 0 q -1.31348,1.75131 -3.23319,2.99744 -1.91971,1.21244 -4.3446,1.85235 -2.39122,0.6399 -5.08554,0.6399 z"
         style="font-style:normal;font-variant:normal;font-weight:normal;font-stretch:normal;font-size:68.97475433px;font-family:Bahnschrift;-inkscape-font-specification:Bahnschrift"
         id="path1221" /><path
         d="m 474.14155,396.21152 h 5.86016 l 18.05199,48.96938 h -7.4094 l -13.57267,-39.50556 -13.57267,39.50556 h -7.4094 z m -9.73325,31.69201 h 25.76449 v 6.53375 H 464.4083 Z"
         style="font-style:normal;font-variant:normal;font-weight:normal;font-stretch:normal;font-size:68.97475433px;font-family:Bahnschrift;-inkscape-font-specification:Bahnschrift"
         id="path1223" /><path
         d="m 524.72754,396.21152 h 6.87053 v 48.96938 h -6.87053 z m -8.79024,49.57561 q -3.83941,0 -6.56742,-1.65028 -2.69433,-1.68395 -4.10885,-4.88347 -1.41452,-3.19951 -1.41452,-7.67883 v -7.7125 q 0,-4.513 1.38084,-7.71251 1.38085,-3.19952 4.00781,-4.84979 2.66065,-1.68396 6.36535,-1.68396 3.09848,0 5.65809,1.6166 2.59328,1.6166 4.1762,4.54668 l -0.70726,7.13996 q 0,-2.22282 -0.8083,-3.80574 -0.8083,-1.58291 -2.35753,-2.39121 -1.51556,-0.84198 -3.7047,-0.84198 -3.40159,0 -5.28762,2.12179 -1.85235,2.12178 -1.85235,5.96119 v 7.61147 q 0,3.80574 1.85235,5.89384 1.88603,2.05443 5.28762,2.05443 2.18914,0 3.7047,-0.84198 1.54923,-0.87566 2.35753,-2.49225 0.8083,-1.6166 0.8083,-3.8731 l 0.47151,7.37572 q -1.04405,2.59329 -3.43527,4.3446 -2.35753,1.75132 -5.82648,1.75132 z"
         style="font-style:normal;font-variant:normal;font-weight:normal;font-stretch:normal;font-size:68.97475433px;font-family:Bahnschrift;-inkscape-font-specification:Bahnschrift"
         id="path1225" /><path
         d="m 562.6165,410.22202 h 7.17365 l -13.13484,34.95888 h -5.18658 l -13.13484,-34.95888 h 7.17364 l 8.55449,24.9562 z"
         style="font-style:normal;font-variant:normal;font-weight:normal;font-stretch:normal;font-size:68.97475433px;font-family:Bahnschrift;-inkscape-font-specification:Bahnschrift"
         id="path1227" /><path
         d="m 576.52595,396.21152 h 6.87053 v 6.87053 h -6.87053 z m 0,14.0105 h 6.87053 v 34.95888 h -6.87053 z"
         style="font-style:normal;font-variant:normal;font-weight:normal;font-stretch:normal;font-size:68.97475433px;font-family:Bahnschrift;-inkscape-font-specification:Bahnschrift"
         id="path1229" /><path
         d="m 606.26459,445.68609 q -3.09847,0 -5.82648,-0.60623 -2.69433,-0.60622 -5.05186,-1.81867 -2.35754,-1.21244 -4.3446,-3.03111 v 0 l 4.07517,-5.01819 v 0 q 2.82904,2.15547 5.6244,3.2332 2.79537,1.07773 5.52337,1.07773 4.07517,0 6.09591,-1.24613 2.05443,-1.2798 2.05443,-3.80574 0,-1.68395 -1.11141,-2.52593 -1.11141,-0.84197 -2.76169,-1.11141 -1.65027,-0.30311 -4.64771,-0.53886 -0.26943,0 -0.57254,0 -0.30311,-0.0337 -0.57255,-0.0674 -0.13471,0 -0.26943,0 -0.13472,-0.0337 -0.26943,-0.0337 -3.40159,-0.26943 -5.75913,-0.97669 -2.35753,-0.74094 -3.94045,-2.72801 -1.54923,-1.98706 -1.54923,-5.69176 0,-3.7047 1.51555,-6.16327 1.51556,-2.45858 4.513,-3.67102 2.99744,-1.24613 7.51043,-1.24613 2.72801,0 5.18658,0.50519 2.49225,0.50518 4.74875,1.51556 2.2565,0.97669 4.3446,2.49225 v 0 l -4.14252,5.01818 v 0 q -2.62697,-1.68395 -5.18658,-2.52593 -2.52593,-0.84198 -4.95083,-0.84198 -3.50262,0 -5.25393,1.21245 -1.75131,1.17877 -1.75131,3.56998 0,1.41452 0.97669,2.12178 1.01037,0.70727 2.52593,0.94302 1.51556,0.23575 4.31092,0.40415 0.20208,0.0337 0.40415,0.0337 0.23576,0 0.47151,0.0337 0.10104,0 0.20207,0 0.10104,0 0.20208,0.0337 3.67102,0.23576 6.23063,0.9767 2.59329,0.74094 4.3446,2.93008 1.75131,2.18914 1.75131,6.33166 0,3.77206 -1.61659,6.26431 -1.6166,2.45858 -4.88347,3.7047 -3.23319,1.24613 -8.15034,1.24613 z"
         style="font-style:normal;font-variant:normal;font-weight:normal;font-stretch:normal;font-size:68.97475433px;font-family:Bahnschrift;-inkscape-font-specification:Bahnschrift"
         id="path1231" /><path
         d="m 629.7389,396.21152 h 6.87054 v 6.87053 h -6.87054 z m 0,14.0105 h 6.87054 v 34.95888 h -6.87054 z"
         style="font-style:normal;font-variant:normal;font-weight:normal;font-stretch:normal;font-size:68.97475433px;font-family:Bahnschrift;-inkscape-font-specification:Bahnschrift"
         id="path1233" /><path
         d="m 647.11732,410.22202 h 6.87053 v 34.95888 h -6.87053 z m 21.21782,13.77474 q 0,-3.7047 -1.91971,-5.72544 -1.9197,-2.02075 -5.38865,-2.02075 -3.36791,0 -5.22026,1.78499 -1.81867,1.785 -1.81867,5.01819 l -0.70726,-6.73582 q 1.6166,-3.16583 4.20989,-4.88347 2.62697,-1.71763 5.7928,-1.71763 5.69176,0 8.79024,3.73838 3.13215,3.7047 3.13215,10.50787 v 21.21782 h -6.87053 z"
         style="font-style:normal;font-variant:normal;font-weight:normal;font-stretch:normal;font-size:68.97475433px;font-family:Bahnschrift;-inkscape-font-specification:Bahnschrift"
         id="path1235" /><path
         d="m 697.36648,459.39347 q -3.94045,0 -7.07261,-1.48188 -3.09847,-1.4482 -4.81611,-4.10884 v 0 l 4.64772,-4.20989 v 0 q 1.34716,1.85235 3.19951,2.86272 1.88603,1.01038 3.94045,1.01038 3.94045,0 6.09592,-2.18914 2.15546,-2.15547 2.15546,-6.1296 v -34.9252 h 6.87053 v 33.91483 q 0,4.81611 -1.78499,8.25138 -1.75131,3.43526 -5.11922,5.22025 -3.36791,1.78499 -8.11666,1.78499 z m -0.6399,-13.60634 q -3.83942,0 -6.56742,-1.65028 -2.69433,-1.68395 -4.10885,-4.88347 -1.41452,-3.19951 -1.41452,-7.67883 v -7.7125 q 0,-4.513 1.38084,-7.71251 1.38084,-3.19952 4.00781,-4.84979 2.66065,-1.68396 6.36535,-1.68396 3.09847,0 5.65808,1.6166 2.59329,1.6166 4.17621,4.54668 l -0.70726,7.13996 q 0,-2.22282 -0.8083,-3.80574 -0.8083,-1.58291 -2.35754,-2.39121 -1.51556,-0.84198 -3.7047,-0.84198 -3.40158,0 -5.28761,2.12179 -1.85235,2.12178 -1.85235,5.96119 v 7.61147 q 0,3.80574 1.85235,5.89384 1.88603,2.05443 5.28761,2.05443 2.18914,0 3.7047,-0.84198 1.54924,-0.87566 2.35754,-2.49225 0.8083,-1.6166 0.8083,-3.8731 l 0.4715,7.37572 q -1.04405,2.59329 -3.43526,4.3446 -2.35754,1.75132 -5.82648,1.75132 z"
         style="font-style:normal;font-variant:normal;font-weight:normal;font-stretch:normal;font-size:68.97475433px;font-family:Bahnschrift;-inkscape-font-specification:Bahnschrift"
         id="path1237" /></g><g
       transform="matrix(1.0840278,0,0,1.0840278,-553.94831,758.91637)"
       id="g1592"><path
         d="m 377.062,177.368 c -9.67,0 -17.536,-5.548 -17.536,-12.368 0,-3.166 1.714,-6.185 4.825,-8.499 0.303,-0.225 0.419,-0.623 0.285,-0.976 l -2.79,-7.383 8.032,3.68 c 1.595,0.73 3.385,1.038 5.186,0.893 0.66,-0.054 1.332,-0.081 1.998,-0.081 9.67,0 17.536,5.548 17.536,12.366 0,6.82 -7.866,12.368 -17.536,12.368 z M 360.33,145.676 c -0.209,0 -0.417,0.078 -0.577,0.227 -0.25,0.234 -0.334,0.595 -0.213,0.915 l 3.296,8.72 c -3.229,2.59 -4.999,5.93 -4.999,9.462 0,7.751 8.624,14.055 19.225,14.055 10.601,0 19.225,-6.304 19.225,-14.055 0,-7.75 -8.624,-14.054 -19.225,-14.054 -0.712,0 -1.43,0.029 -2.135,0.087 -1.514,0.122 -3.014,-0.135 -4.346,-0.746 l -9.9,-4.535 c -0.112,-0.051 -0.231,-0.076 -0.351,-0.076"
         style="fill:#000000;fill-opacity:1;fill-rule:nonzero;stroke:none;stroke-width:0.1"
         id="path350"
         inkscape:connector-curvature="0" /><path
         d="m 410.266,141.333 c -0.119,0 -0.239,0.025 -0.352,0.077 l -8.518,3.901 c -1.32,0.605 -2.752,0.866 -4.143,0.761 -1.884,-0.146 -3.814,-0.062 -5.646,0.244 -0.459,0.077 -0.77,0.512 -0.693,0.972 0.077,0.461 0.518,0.77 0.971,0.693 1.697,-0.283 3.487,-0.362 5.238,-0.226 1.674,0.132 3.395,-0.184 4.976,-0.909 l 6.651,-3.047 -2.388,6.322 c -0.134,0.352 -0.018,0.751 0.285,0.976 2.731,2.031 4.235,4.678 4.235,7.453 0,5.988 -6.926,10.86 -15.439,10.86 -0.039,0 -0.077,0 -0.117,-0.001 0.638,-1.416 0.961,-2.893 0.961,-4.409 0,-6.014 -5.207,-11.311 -12.844,-13.263 1.27,-1.105 2.839,-2.032 4.61,-2.716 0.435,-0.168 0.651,-0.657 0.483,-1.091 -0.168,-0.436 -0.659,-0.651 -1.092,-0.484 -2.554,0.988 -4.742,2.445 -6.327,4.215 -0.204,0.227 -0.269,0.545 -0.171,0.834 0.097,0.289 0.342,0.501 0.642,0.559 7.66,1.446 13.01,6.359 13.01,11.946 0,1.65 -0.459,3.255 -1.363,4.771 -0.151,0.253 -0.158,0.565 -0.022,0.825 0.137,0.261 0.399,0.431 0.693,0.45 0.542,0.035 1.045,0.052 1.537,0.052 9.444,0 17.128,-5.629 17.128,-12.548 0,-3.141 -1.562,-6.108 -4.411,-8.415 l 2.895,-7.66 c 0.121,-0.32 0.037,-0.681 -0.213,-0.915 -0.159,-0.149 -0.366,-0.227 -0.576,-0.227"
         style="fill:#000000;fill-opacity:1;fill-rule:nonzero;stroke:none;stroke-width:0.1"
         id="path352"
         inkscape:connector-curvature="0" /><path
         d="m 379.226,164.529 c 0,-1.195 -0.969,-2.163 -2.164,-2.163 -1.194,0 -2.163,0.968 -2.163,2.163 0,1.195 0.969,2.164 2.163,2.164 1.195,0 2.164,-0.969 2.164,-2.164"
         style="fill:#000000;fill-opacity:1;fill-rule:nonzero;stroke:none;stroke-width:0.1"
         id="path354"
         inkscape:connector-curvature="0" /><path
         d="m 388.117,164.529 c 0,-1.195 -0.969,-2.163 -2.164,-2.163 -1.195,0 -2.164,0.968 -2.164,2.163 0,1.195 0.969,2.164 2.164,2.164 1.195,0 2.164,-0.969 2.164,-2.164"
         style="fill:#000000;fill-opacity:1;fill-rule:nonzero;stroke:none;stroke-width:0.1"
         id="path356"
         inkscape:connector-curvature="0" /><path
         d="m 396.905,158.379 c 0,-1.195 -0.969,-2.164 -2.163,-2.164 -1.196,0 -2.164,0.969 -2.164,2.164 0,1.194 0.968,2.163 2.164,2.163 1.194,0 2.163,-0.969 2.163,-2.163"
         style="fill:#000000;fill-opacity:1;fill-rule:nonzero;stroke:none;stroke-width:0.1"
         id="path358"
         inkscape:connector-curvature="0" /><path
         d="m 404.884,158.379 c 0,-1.195 -0.968,-2.164 -2.163,-2.164 -1.195,0 -2.164,0.969 -2.164,2.164 0,1.194 0.969,2.163 2.164,2.163 1.195,0 2.163,-0.969 2.163,-2.163"
         style="fill:#000000;fill-opacity:1;fill-rule:nonzero;stroke:none;stroke-width:0.1"
         id="path360"
         inkscape:connector-curvature="0" /><path
         d="m 370.335,164.529 c 0,-1.195 -0.968,-2.163 -2.164,-2.163 -1.194,0 -2.163,0.968 -2.163,2.163 0,1.195 0.969,2.164 2.163,2.164 1.196,0 2.164,-0.969 2.164,-2.164"
         style="fill:#000000;fill-opacity:1;fill-rule:nonzero;stroke:none;stroke-width:0.1"
         id="path362"
         inkscape:connector-curvature="0" /></g></g></svg>