<?xml version="1.0" encoding="UTF-8" standalone="no"?>
<svg
   xmlns:dc="http://purl.org/dc/elements/1.1/"
   xmlns:cc="http://creativecommons.org/ns#"
   xmlns:rdf="http://www.w3.org/1999/02/22-rdf-syntax-ns#"
   xmlns:svg="http://www.w3.org/2000/svg"
   xmlns="http://www.w3.org/2000/svg"
   xmlns:sodipodi="http://sodipodi.sourceforge.net/DTD/sodipodi-0.dtd"
   xmlns:inkscape="http://www.inkscape.org/namespaces/inkscape"
   version="1.1"
   id="svg2"
   xml:space="preserve"
   width="1116.7445"
   height="138.65242"
   viewBox="0 0 1116.7445 138.65241"
   sodipodi:docname="Peer.svg"
   inkscape:version="0.92.2 (5c3e80d, 2017-08-06)"
   inkscape:export-filename="C:\xampp\htdocs\FTLS\FYI.png"
   inkscape:export-xdpi="83.085457"
   inkscape:export-ydpi="83.085457"><metadata
     id="metadata8"><rdf:RDF><cc:Work
         rdf:about=""><dc:format>image/svg+xml</dc:format><dc:type
           rdf:resource="http://purl.org/dc/dcmitype/StillImage" /><dc:title></dc:title></cc:Work></rdf:RDF></metadata><defs
     id="defs6" /><sodipodi:namedview
     pagecolor="#ffffff"
     bordercolor="#666666"
     borderopacity="1"
     objecttolerance="10"
     gridtolerance="10"
     guidetolerance="10"
     inkscape:pageopacity="0"
     inkscape:pageshadow="2"
     inkscape:window-width="1920"
     inkscape:window-height="1017"
     id="namedview4"
     showgrid="false"
     inkscape:zoom="1.2894624"
     inkscape:cx="275.36845"
     inkscape:cy="69.32621"
     inkscape:window-x="1912"
     inkscape:window-y="-8"
     inkscape:window-maximized="1"
     inkscape:current-layer="g1437"
     showborder="false"
     fit-margin-top="0"
     fit-margin-left="0"
     fit-margin-right="0"
     fit-margin-bottom="0"
     showguides="true"
     inkscape:guide-bbox="true"><sodipodi:guide
       position="164.03737,187.03326"
       orientation="1,0"
       id="guide1439"
       inkscape:locked="false" /></sodipodi:namedview><g
     inkscape:groupmode="layer"
     id="layer1"
     inkscape:label="outline"
     style="display:inline;opacity:0"
     transform="translate(260.19213,244.43772)"
     sodipodi:insensitive="true"><rect
       style="opacity:1;fill:none;fill-opacity:1;stroke:#000000;stroke-width:5.27622032;stroke-miterlimit:4;stroke-dasharray:none;stroke-opacity:1"
       id="rect208"
       width="1111.4683"
       height="133.37621"
       x="-257.55402"
       y="-241.79961" /><rect
       style="opacity:1;fill:none;fill-opacity:1;stroke:#000000;stroke-width:5.27622032;stroke-miterlimit:4;stroke-dasharray:none;stroke-opacity:1"
       id="rect1031"
       width="124.1778"
       height="107.31411"
       x="-243.75648"
       y="-230.30167" /><path
       style="fill:none;stroke:#000000;stroke-width:1px;stroke-linecap:butt;stroke-linejoin:miter;stroke-opacity:1"
       d="m -104.24805,-124.52054 938.23246,1.53306"
       id="path1033"
       inkscape:connector-curvature="0"
       sodipodi:nodetypes="cc" /></g><g
     style="display:inline"
     transform="matrix(1.3333333,0,0,-1.3333333,260.19213,1311.1044)"
     inkscape:label="Peer mentor"
     inkscape:groupmode="layer"
     id="g1437"><flowRoot
       style="font-style:normal;font-weight:normal;font-size:40px;line-height:1.25;font-family:sans-serif;letter-spacing:0px;word-spacing:0px;fill:#000000;fill-opacity:1;stroke:none"
       id="flowRoot1053"
       xml:space="preserve"><flowRegion
         id="flowRegion1049"><rect
           y="234.14859"
           x="85.386475"
           height="151.20522"
           width="364.67142"
           id="rect1047" /></flowRegion><flowPara
         id="flowPara1051" /></flowRoot><flowRoot
       style="font-style:normal;font-weight:normal;font-size:40px;line-height:1.25;font-family:sans-serif;letter-spacing:0px;word-spacing:0px;fill:#000000;fill-opacity:1;stroke:none"
       id="flowRoot1061"
       xml:space="preserve"><flowRegion
         id="flowRegion1057"><rect
           y="200.34978"
           x="78.270935"
           height="158.32076"
           width="663.52411"
           id="rect1055" /></flowRegion><flowPara
         id="flowPara1059" /></flowRoot><g
       aria-label="Peer  Mentoring"
       transform="matrix(0.52193009,0,0,-0.52193009,-145.19073,1155.2743)"
       style="font-style:normal;font-weight:normal;font-size:40px;line-height:1.25;font-family:sans-serif;letter-spacing:0px;word-spacing:0px;fill:#000000;fill-opacity:1;stroke:none"
       id="flowRoot1077"><path
         d="m 144.79385,419.65216 h 15.66077 q 2.22282,0 3.90678,-1.04405 1.68395,-1.04405 2.59328,-2.96376 0.94302,-1.91971 0.94302,-4.41196 v 0 q 0,-2.52593 -0.94302,-4.44564 -0.90933,-1.91971 -2.59328,-2.96376 -1.68396,-1.07773 -3.90678,-1.07773 h -15.66077 v -6.53374 h 15.42502 q 4.37828,0 7.71251,1.88603 3.33423,1.85235 5.1529,5.25394 1.85235,3.40158 1.85235,7.8809 v 0 q 0,4.47932 -1.85235,7.8809 -1.81867,3.36791 -5.1529,5.22026 -3.33423,1.85235 -7.71251,1.85235 h -15.42502 z m -3.5363,-23.44064 h 6.87053 v 48.96938 h -6.87053 z"
         style="font-style:normal;font-variant:normal;font-weight:normal;font-stretch:normal;font-size:68.97475433px;font-family:Bahnschrift;-inkscape-font-specification:Bahnschrift"
         id="path1207" /><path
         d="m 194.90832,445.68609 q -4.84979,0 -8.28505,-1.81867 -3.43527,-1.81867 -5.25394,-5.3213 -1.78499,-3.5363 -1.78499,-8.5208 v -3.94046 q 0,-5.18657 1.71763,-8.85759 1.75131,-3.67102 5.05186,-5.59073 3.30055,-1.91971 7.94827,-1.91971 4.37828,0 7.47675,2.18914 3.09848,2.18914 4.71507,6.33167 1.65028,4.14253 1.65028,9.93533 v 2.29017 h -23.57536 v -5.52336 h 17.04162 v 0 q -0.30312,-4.27725 -2.22282,-6.63478 -1.88603,-2.39122 -5.08554,-2.39122 -3.90678,0 -6.06224,2.55961 -2.12178,2.55961 -2.12178,7.241 v 4.44564 q 0,4.3446 2.29018,6.66846 2.29017,2.32386 6.50006,2.32386 2.0881,0 4.14253,-0.84198 2.05442,-0.84198 3.67102,-2.35754 v 0 l 4.51299,4.513 v 0 q -2.59329,2.49225 -5.82648,3.8731 -3.23319,1.34716 -6.50006,1.34716 z"
         style="font-style:normal;font-variant:normal;font-weight:normal;font-stretch:normal;font-size:68.97475433px;font-family:Bahnschrift;-inkscape-font-specification:Bahnschrift"
         id="path1209" /><path
         d="m 231.95531,445.68609 q -4.84979,0 -8.28506,-1.81867 -3.43526,-1.81867 -5.25393,-5.3213 -1.785,-3.5363 -1.785,-8.5208 v -3.94046 q 0,-5.18657 1.71764,-8.85759 1.75131,-3.67102 5.05186,-5.59073 3.30055,-1.91971 7.94826,-1.91971 4.37828,0 7.47676,2.18914 3.09847,2.18914 4.71507,6.33167 1.65027,4.14253 1.65027,9.93533 v 2.29017 h -23.57535 v -5.52336 h 17.04161 v 0 q -0.30311,-4.27725 -2.22282,-6.63478 -1.88603,-2.39122 -5.08554,-2.39122 -3.90677,0 -6.06223,2.55961 -2.12178,2.55961 -2.12178,7.241 v 4.44564 q 0,4.3446 2.29017,6.66846 2.29018,2.32386 6.50007,2.32386 2.0881,0 4.14252,-0.84198 2.05443,-0.84198 3.67102,-2.35754 v 0 l 4.513,4.513 v 0 q -2.59329,2.49225 -5.82648,3.8731 -3.23319,1.34716 -6.50006,1.34716 z"
         style="font-style:normal;font-variant:normal;font-weight:normal;font-stretch:normal;font-size:68.97475433px;font-family:Bahnschrift;-inkscape-font-specification:Bahnschrift"
         id="path1211" /><path
         d="m 254.68869,410.22202 h 6.87053 v 34.95888 h -6.87053 z m 19.23075,8.28505 q -0.90933,-1.11141 -2.29018,-1.68395 -1.38084,-0.57255 -3.19951,-0.57255 -3.26687,0 -5.08554,1.81867 -1.78499,1.78499 -1.78499,4.98451 l -0.70726,-6.73582 q 1.61659,-3.13215 4.1762,-4.84979 2.55961,-1.75131 5.65809,-1.75131 2.39121,0 4.31092,0.70726 1.95339,0.67358 3.40159,2.02075 z"
         style="font-style:normal;font-variant:normal;font-weight:normal;font-stretch:normal;font-size:68.97475433px;font-family:Bahnschrift;-inkscape-font-specification:Bahnschrift"
         id="path1213" /><path
         d="m 357.24148,396.21152 h 6.4327 v 48.96938 h -6.70214 v -36.67652 l 0.33679,2.15547 -12.05711,27.71788 h -4.78243 l -12.05711,-27.0443 0.33679,-2.82905 v 36.67652 h -6.70213 v -48.96938 h 6.4327 l 14.38097,32.33192 z"
         style="font-style:normal;font-variant:normal;font-weight:normal;font-stretch:normal;font-size:68.97475433px;font-family:Bahnschrift;-inkscape-font-specification:Bahnschrift"
         id="path1215" /><path
         d="m 389.43868,445.68609 q -4.84979,0 -8.28505,-1.81867 -3.43527,-1.81867 -5.25394,-5.3213 -1.78499,-3.5363 -1.78499,-8.5208 v -3.94046 q 0,-5.18657 1.71763,-8.85759 1.75132,-3.67102 5.05186,-5.59073 3.30055,-1.91971 7.94827,-1.91971 4.37828,0 7.47675,2.18914 3.09848,2.18914 4.71507,6.33167 1.65028,4.14253 1.65028,9.93533 v 2.29017 H 379.0992 v -5.52336 h 17.04162 v 0 q -0.30311,-4.27725 -2.22282,-6.63478 -1.88603,-2.39122 -5.08554,-2.39122 -3.90678,0 -6.06224,2.55961 -2.12178,2.55961 -2.12178,7.241 v 4.44564 q 0,4.3446 2.29018,6.66846 2.29018,2.32386 6.50006,2.32386 2.0881,0 4.14253,-0.84198 2.05442,-0.84198 3.67102,-2.35754 v 0 l 4.51299,4.513 v 0 q -2.59329,2.49225 -5.82648,3.8731 -3.23319,1.34716 -6.50006,1.34716 z"
         style="font-style:normal;font-variant:normal;font-weight:normal;font-stretch:normal;font-size:68.97475433px;font-family:Bahnschrift;-inkscape-font-specification:Bahnschrift"
         id="path1217" /><path
         d="m 412.17207,410.22202 h 6.87053 v 34.95888 h -6.87053 z m 21.21782,13.77474 q 0,-3.7047 -1.91971,-5.72544 -1.91971,-2.02075 -5.38865,-2.02075 -3.36791,0 -5.22026,1.78499 -1.81867,1.785 -1.81867,5.01819 l -0.70726,-6.73582 q 1.6166,-3.16583 4.20989,-4.88347 2.62696,-1.71763 5.7928,-1.71763 5.69176,0 8.79024,3.73838 3.13215,3.7047 3.13215,10.50787 v 21.21782 h -6.87053 z"
         style="font-style:normal;font-variant:normal;font-weight:normal;font-stretch:normal;font-size:68.97475433px;font-family:Bahnschrift;-inkscape-font-specification:Bahnschrift"
         id="path1219" /><path
         d="m 459.79426,445.3493 q -4.24356,0 -6.23063,-2.32386 -1.95339,-2.35753 -1.95339,-6.93789 v -36.03661 h 6.87054 v 36.10397 q 0,1.2798 0.50518,1.98706 0.50519,0.67359 1.48188,0.67359 h 3.30055 v 6.53374 z m -11.78768,-35.12728 h 15.76181 v 6.19695 h -15.76181 z"
         style="font-style:normal;font-variant:normal;font-weight:normal;font-stretch:normal;font-size:68.97475433px;font-family:Bahnschrift;-inkscape-font-specification:Bahnschrift"
         id="path1221" /><path
         d="m 486.60283,445.68609 q -4.54667,0 -7.77987,-1.78499 -3.23319,-1.78499 -4.95082,-5.18658 -1.68395,-3.43527 -1.68395,-8.25138 v -5.69176 q 0,-4.74875 1.68395,-8.11666 1.71763,-3.40158 4.95082,-5.1529 3.2332,-1.78499 7.77987,-1.78499 4.54668,0 7.77987,1.78499 3.23319,1.75132 4.91715,5.1529 1.71763,3.36791 1.71763,8.11666 v 5.7928 q 0,4.78243 -1.71763,8.18402 -1.68396,3.36791 -4.91715,5.1529 -3.23319,1.78499 -7.77987,1.78499 z m 0,-6.53374 q 3.60366,0 5.55705,-2.2565 1.98707,-2.2565 1.98707,-6.33167 v -5.7928 q 0,-4.07517 -1.98707,-6.29799 -1.95339,-2.22282 -5.55705,-2.22282 -3.60366,0 -5.59072,2.22282 -1.95339,2.22282 -1.95339,6.29799 v 5.7928 q 0,4.07517 1.95339,6.33167 1.98706,2.2565 5.59072,2.2565 z"
         style="font-style:normal;font-variant:normal;font-weight:normal;font-stretch:normal;font-size:68.97475433px;font-family:Bahnschrift;-inkscape-font-specification:Bahnschrift"
         id="path1223" /><path
         d="m 510.7844,410.22202 h 6.87054 v 34.95888 h -6.87054 z m 19.23076,8.28505 q -0.90934,-1.11141 -2.29018,-1.68395 -1.38084,-0.57255 -3.19951,-0.57255 -3.26687,0 -5.08554,1.81867 -1.78499,1.78499 -1.78499,4.98451 l -0.70726,-6.73582 q 1.61659,-3.13215 4.1762,-4.84979 2.55961,-1.75131 5.65809,-1.75131 2.39121,0 4.31092,0.70726 1.95339,0.67358 3.40159,2.02075 z"
         style="font-style:normal;font-variant:normal;font-weight:normal;font-stretch:normal;font-size:68.97475433px;font-family:Bahnschrift;-inkscape-font-specification:Bahnschrift"
         id="path1225" /><path
         d="m 540.28727,396.21152 h 6.87054 v 6.87053 h -6.87054 z m 0,14.0105 h 6.87054 v 34.95888 h -6.87054 z"
         style="font-style:normal;font-variant:normal;font-weight:normal;font-stretch:normal;font-size:68.97475433px;font-family:Bahnschrift;-inkscape-font-specification:Bahnschrift"
         id="path1227" /><path
         d="m 557.66569,410.22202 h 6.87053 v 34.95888 h -6.87053 z m 21.21782,13.77474 q 0,-3.7047 -1.91971,-5.72544 -1.9197,-2.02075 -5.38865,-2.02075 -3.36791,0 -5.22026,1.78499 -1.81867,1.785 -1.81867,5.01819 l -0.70726,-6.73582 q 1.6166,-3.16583 4.20989,-4.88347 2.62697,-1.71763 5.7928,-1.71763 5.69176,0 8.79024,3.73838 3.13215,3.7047 3.13215,10.50787 v 21.21782 h -6.87053 z"
         style="font-style:normal;font-variant:normal;font-weight:normal;font-stretch:normal;font-size:68.97475433px;font-family:Bahnschrift;-inkscape-font-specification:Bahnschrift"
         id="path1229" /><path
         d="m 607.91488,459.39347 q -3.94045,0 -7.07261,-1.48188 -3.09847,-1.4482 -4.8161,-4.10884 v 0 l 4.64771,-4.20989 v 0 q 1.34716,1.85235 3.19951,2.86272 1.88603,1.01038 3.94045,1.01038 3.94046,0 6.09592,-2.18914 2.15546,-2.15547 2.15546,-6.1296 v -34.9252 h 6.87053 v 33.91483 q 0,4.81611 -1.78499,8.25138 -1.75131,3.43526 -5.11922,5.22025 -3.36791,1.78499 -8.11666,1.78499 z m -0.6399,-13.60634 q -3.83942,0 -6.56742,-1.65028 -2.69433,-1.68395 -4.10885,-4.88347 -1.41452,-3.19951 -1.41452,-7.67883 v -7.7125 q 0,-4.513 1.38084,-7.71251 1.38084,-3.19952 4.00781,-4.84979 2.66065,-1.68396 6.36535,-1.68396 3.09847,0 5.65808,1.6166 2.59329,1.6166 4.17621,4.54668 l -0.70726,7.13996 q 0,-2.22282 -0.8083,-3.80574 -0.8083,-1.58291 -2.35754,-2.39121 -1.51555,-0.84198 -3.70469,-0.84198 -3.40159,0 -5.28762,2.12179 -1.85235,2.12178 -1.85235,5.96119 v 7.61147 q 0,3.80574 1.85235,5.89384 1.88603,2.05443 5.28762,2.05443 2.18914,0 3.70469,-0.84198 1.54924,-0.87566 2.35754,-2.49225 0.8083,-1.6166 0.8083,-3.8731 l 0.4715,7.37572 q -1.04405,2.59329 -3.43526,4.3446 -2.35754,1.75132 -5.82648,1.75132 z"
         style="font-style:normal;font-variant:normal;font-weight:normal;font-stretch:normal;font-size:68.97475433px;font-family:Bahnschrift;-inkscape-font-specification:Bahnschrift"
         id="path1231" /></g><g
       id="g1419"
       transform="matrix(1.7952273,0,0,1.7952273,-676.04351,351.62243)"><g
         transform="matrix(0.64752268,0,0,0.64752268,-49.790482,217.50256)"
         id="g1407"><path
           inkscape:connector-curvature="0"
           id="path1399"
           style="fill:#000000;fill-opacity:1;fill-rule:nonzero;stroke:none;stroke-width:0.1"
           d="m 517.98489,184.88776 c -1.898,0 -3.441,-1.544 -3.441,-3.441 0,-1.897 1.543,-3.441 3.441,-3.441 1.897,0 3.44,1.544 3.44,3.441 0,1.897 -1.543,3.441 -3.44,3.441 z m 0,-8.57 c -2.828,0 -5.128,2.301 -5.128,5.129 0,2.828 2.3,5.129 5.128,5.129 2.828,0 5.128,-2.301 5.128,-5.129 0,-2.828 -2.3,-5.129 -5.128,-5.129" /><path
           inkscape:connector-curvature="0"
           id="path1401"
           style="fill:#000000;fill-opacity:1;fill-rule:nonzero;stroke:none;stroke-width:0.1"
           d="m 512.733,157.03 c -0.466,0 -0.844,0.379 -0.844,0.845 v 11.76 c 0,0.467 0.378,0.844 0.844,0.844 0.467,0 0.845,-0.377 0.845,-0.844 v -11.76 c 0,-0.466 -0.378,-0.845 -0.845,-0.845" /><path
           inkscape:connector-curvature="0"
           id="path1403"
           style="fill:#000000;fill-opacity:1;fill-rule:nonzero;stroke:none;stroke-width:0.1"
           d="m 523.74789,131.74076 h -4.335 c -0.467,0 -0.844,0.378 -0.844,0.844 v 17.776 c 0,0.171 -0.076,0.334 -0.207,0.445 -0.077,0.066 -0.239,0.172 -0.482,0.13 -0.269,-0.043 -0.479,-0.33 -0.479,-0.652 v -17.699 c 0,-0.466 -0.377,-0.844 -0.844,-0.844 h -4.336 c -0.466,0 -0.844,0.378 -0.844,0.844 v 21.645 c -0.584,-0.262 -1.247,-0.323 -1.897,-0.16 -1.255,0.316 -2.132,1.485 -2.132,2.843 v 13.615 c 0,2.375 1.932,4.308 4.307,4.308 h 1.621 c 0.466,0 0.843,-0.377 0.843,-0.844 0,-0.466 -0.377,-0.844 -0.843,-0.844 h -1.621 c -1.444,0 -2.62,-1.175 -2.62,-2.62 v -13.615 c 0,-0.574 0.36,-1.081 0.856,-1.206 0.373,-0.094 0.742,-0.02 1.035,0.208 0.286,0.224 0.451,0.561 0.451,0.924 0,0.466 0.378,0.844 0.844,0.844 0.467,0 0.845,-0.378 0.845,-0.844 v -23.41 h 2.647 v 16.855 c 0,1.146 0.814,2.142 1.896,2.319 0.669,0.107 1.338,-0.079 1.846,-0.511 0.51,-0.432 0.802,-1.063 0.802,-1.731 v -16.932 h 2.647 v 35.171 c 0,0.337 0.202,0.642 0.511,0.775 0.309,0.133 0.669,0.07 0.914,-0.163 l 6.518,-6.182 c 0.287,-0.272 0.663,-0.422 1.059,-0.422 h 6.277 c 0.653,0 1.184,0.531 1.184,1.184 0,0.645 -0.525,1.177 -1.171,1.184 l -4.969,0.064 c -0.933,0.011 -1.816,0.425 -2.421,1.137 l -5.265,6.194 c -0.459,0.478 -1.149,0.773 -1.86,0.773 h -2.126 c -0.466,0 -0.844,0.377 -0.844,0.844 0,0.465 0.378,0.844 0.844,0.844 h 2.126 c 1.17,0 2.304,-0.485 3.113,-1.33 l 5.299,-6.232 c 0.288,-0.339 0.709,-0.537 1.155,-0.542 l 4.969,-0.064 c 1.564,-0.018 2.839,-1.306 2.839,-2.872 0,-1.584 -1.289,-2.872 -2.873,-2.872 h -6.277 c -0.831,0 -1.619,0.314 -2.221,0.885 l -5.092,4.831 v -34.051 c 0,-0.466 -0.378,-0.844 -0.845,-0.844" /><path
           inkscape:connector-curvature="0"
           id="path1405"
           style="fill:#000000;fill-opacity:1;fill-rule:nonzero;stroke:none;stroke-width:0.1"
           d="m 537.30889,131.74076 h -29.117 c -0.466,0 -0.844,0.378 -0.844,0.844 0,0.466 0.378,0.844 0.844,0.844 h 29.117 c 0.466,0 0.843,-0.378 0.843,-0.844 0,-0.466 -0.377,-0.844 -0.843,-0.844" /></g><g
         id="g1417"
         transform="matrix(-0.64752268,0,0,0.64752268,652.4016,217.00896)"><path
           d="m 518.497,185.924 c -1.898,0 -3.441,-1.544 -3.441,-3.441 0,-1.897 1.543,-3.441 3.441,-3.441 1.897,0 3.44,1.544 3.44,3.441 0,1.897 -1.543,3.441 -3.44,3.441 z m 0,-8.57 c -2.828,0 -5.128,2.301 -5.128,5.129 0,2.828 2.3,5.129 5.128,5.129 2.828,0 5.128,-2.301 5.128,-5.129 0,-2.828 -2.3,-5.129 -5.128,-5.129"
           style="fill:#000000;fill-opacity:1;fill-rule:nonzero;stroke:none;stroke-width:0.1"
           id="path1409"
           inkscape:connector-curvature="0" /><path
           d="m 512.733,157.03 c -0.466,0 -0.844,0.379 -0.844,0.845 v 11.76 c 0,0.467 0.378,0.844 0.844,0.844 0.467,0 0.845,-0.377 0.845,-0.844 v -11.76 c 0,-0.466 -0.378,-0.845 -0.845,-0.845"
           style="fill:#000000;fill-opacity:1;fill-rule:nonzero;stroke:none;stroke-width:0.1"
           id="path1411"
           inkscape:connector-curvature="0" /><path
           d="m 524.26,132.777 h -4.335 c -0.467,0 -0.844,0.378 -0.844,0.844 v 17.776 c 0,0.171 -0.076,0.334 -0.207,0.445 -0.077,0.066 -0.239,0.172 -0.482,0.13 -0.269,-0.043 -0.479,-0.33 -0.479,-0.652 v -17.699 c 0,-0.466 -0.377,-0.844 -0.844,-0.844 h -4.336 c -0.466,0 -0.844,0.378 -0.844,0.844 v 21.645 c -0.584,-0.262 -1.247,-0.323 -1.897,-0.16 -1.255,0.316 -2.132,1.485 -2.132,2.843 v 13.615 c 0,2.375 1.932,4.308 4.307,4.308 h 1.621 c 0.466,0 0.843,-0.377 0.843,-0.844 0,-0.466 -0.377,-0.844 -0.843,-0.844 h -1.621 c -1.444,0 -2.62,-1.175 -2.62,-2.62 v -13.615 c 0,-0.574 0.36,-1.081 0.856,-1.206 0.373,-0.094 0.742,-0.02 1.035,0.208 0.286,0.224 0.451,0.561 0.451,0.924 0,0.466 0.378,0.844 0.844,0.844 0.467,0 0.845,-0.378 0.845,-0.844 v -23.41 h 2.647 v 16.855 c 0,1.146 0.814,2.142 1.896,2.319 0.669,0.107 1.338,-0.079 1.846,-0.511 0.51,-0.432 0.802,-1.063 0.802,-1.731 v -16.932 h 2.647 v 35.171 c 0,0.337 0.202,0.642 0.511,0.775 0.309,0.133 0.669,0.07 0.914,-0.163 l 6.518,-6.182 c 0.287,-0.272 0.663,-0.422 1.059,-0.422 h 6.277 c 0.653,0 1.184,0.531 1.184,1.184 0,0.645 -0.525,1.177 -1.171,1.184 l -4.969,0.064 c -0.933,0.011 -1.816,0.425 -2.421,1.137 l -5.265,6.194 c -0.459,0.478 -1.149,0.773 -1.86,0.773 h -2.126 c -0.466,0 -0.844,0.377 -0.844,0.844 0,0.465 0.378,0.844 0.844,0.844 h 2.126 c 1.17,0 2.304,-0.485 3.113,-1.33 l 5.299,-6.232 c 0.288,-0.339 0.709,-0.537 1.155,-0.542 l 4.969,-0.064 c 1.564,-0.018 2.839,-1.306 2.839,-2.872 0,-1.584 -1.289,-2.872 -2.873,-2.872 h -6.277 c -0.831,0 -1.619,0.314 -2.221,0.885 l -5.092,4.831 v -34.051 c 0,-0.466 -0.378,-0.844 -0.845,-0.844"
           style="fill:#000000;fill-opacity:1;fill-rule:nonzero;stroke:none;stroke-width:0.1"
           id="path1413"
           inkscape:connector-curvature="0" /><path
           d="m 537.821,132.777 h -29.117 c -0.466,0 -0.844,0.378 -0.844,0.844 0,0.466 0.378,0.844 0.844,0.844 h 29.117 c 0.466,0 0.843,-0.378 0.843,-0.844 0,-0.466 -0.377,-0.844 -0.843,-0.844"
           style="fill:#000000;fill-opacity:1;fill-rule:nonzero;stroke:none;stroke-width:0.1"
           id="path1415"
           inkscape:connector-curvature="0" /></g></g></g></svg>