<?xml version="1.0" encoding="UTF-8" standalone="no"?>
<svg
   xmlns:dc="http://purl.org/dc/elements/1.1/"
   xmlns:cc="http://creativecommons.org/ns#"
   xmlns:rdf="http://www.w3.org/1999/02/22-rdf-syntax-ns#"
   xmlns:svg="http://www.w3.org/2000/svg"
   xmlns="http://www.w3.org/2000/svg"
   xmlns:sodipodi="http://sodipodi.sourceforge.net/DTD/sodipodi-0.dtd"
   xmlns:inkscape="http://www.inkscape.org/namespaces/inkscape"
   version="1.1"
   id="svg2"
   xml:space="preserve"
   width="1116.7445"
   height="138.65242"
   viewBox="0 0 1116.7445 138.65241"
   sodipodi:docname="awards.svg"
   inkscape:version="0.92.2 (5c3e80d, 2017-08-06)"
   inkscape:export-filename="C:\xampp\htdocs\FTLS\FYI.png"
   inkscape:export-xdpi="83.085457"
   inkscape:export-ydpi="83.085457"><metadata
     id="metadata8"><rdf:RDF><cc:Work
         rdf:about=""><dc:format>image/svg+xml</dc:format><dc:type
           rdf:resource="http://purl.org/dc/dcmitype/StillImage" /><dc:title /></cc:Work></rdf:RDF></metadata><defs
     id="defs6" /><sodipodi:namedview
     pagecolor="#ffffff"
     bordercolor="#666666"
     borderopacity="1"
     objecttolerance="10"
     gridtolerance="10"
     guidetolerance="10"
     inkscape:pageopacity="0"
     inkscape:pageshadow="2"
     inkscape:window-width="1920"
     inkscape:window-height="1017"
     id="namedview4"
     showgrid="false"
     inkscape:zoom="1.0843875"
     inkscape:cx="569.03012"
     inkscape:cy="116.40643"
     inkscape:window-x="-8"
     inkscape:window-y="-8"
     inkscape:window-maximized="1"
     inkscape:current-layer="g10"
     showborder="true"
     fit-margin-top="0"
     fit-margin-left="0"
     fit-margin-right="0"
     fit-margin-bottom="0"
     showguides="true"
     inkscape:guide-bbox="true"><sodipodi:guide
       position="164.03737,187.03326"
       orientation="1,0"
       id="guide1439"
       inkscape:locked="false" /></sodipodi:namedview><g
     inkscape:groupmode="layer"
     id="layer1"
     inkscape:label="outline"
     style="display:none;opacity:0.125"
     transform="translate(260.19213,244.43772)"
     sodipodi:insensitive="true"><rect
       style="opacity:1;fill:none;fill-opacity:1;stroke:#000000;stroke-width:5.27622032;stroke-miterlimit:4;stroke-dasharray:none;stroke-opacity:1"
       id="rect208"
       width="1111.4683"
       height="133.37621"
       x="-257.55402"
       y="-241.79961" /><rect
       style="opacity:1;fill:none;fill-opacity:1;stroke:#000000;stroke-width:5.27622032;stroke-miterlimit:4;stroke-dasharray:none;stroke-opacity:1"
       id="rect1031"
       width="124.1778"
       height="107.31411"
       x="-243.75648"
       y="-230.30167" /><path
       style="fill:none;stroke:#000000;stroke-width:1px;stroke-linecap:butt;stroke-linejoin:miter;stroke-opacity:1"
       d="m -104.24805,-124.52054 938.23246,1.53306"
       id="path1033"
       inkscape:connector-curvature="0"
       sodipodi:nodetypes="cc" /></g><g
     id="g10"
     inkscape:groupmode="layer"
     inkscape:label="Academic Advising"
     transform="matrix(1.3333333,0,0,-1.3333333,260.19213,1311.1044)"
     style="display:inline"><flowRoot
       xml:space="preserve"
       id="flowRoot1358"
       style="font-style:normal;font-weight:normal;font-size:40px;line-height:1.25;font-family:sans-serif;letter-spacing:0px;word-spacing:0px;fill:#000000;fill-opacity:1;stroke:none"><flowRegion
         id="flowRegion1360"><rect
           id="rect1362"
           width="364.67142"
           height="151.20522"
           x="85.386475"
           y="234.14859" /></flowRegion><flowPara
         id="flowPara1364" /></flowRoot><flowRoot
       xml:space="preserve"
       id="flowRoot1366"
       style="font-style:normal;font-weight:normal;font-size:40px;line-height:1.25;font-family:sans-serif;letter-spacing:0px;word-spacing:0px;fill:#000000;fill-opacity:1;stroke:none"><flowRegion
         id="flowRegion1368"><rect
           id="rect1370"
           width="663.52411"
           height="158.32076"
           x="78.270935"
           y="200.34978" /></flowRegion><flowPara
         id="flowPara1372" /></flowRoot><g
       aria-label="Awards"
       transform="scale(1,-1)"
       style="font-style:normal;font-weight:normal;font-size:37.00810242px;line-height:1.25;font-family:sans-serif;letter-spacing:0px;word-spacing:0px;fill:#000000;fill-opacity:1;stroke:none;stroke-width:0.92520249"
       id="text1392"><path
         d="m -64.764109,-948.27461 h 3.144243 l 9.685714,26.2743 h -3.97548 l -7.282356,-21.19653 -7.282356,21.19653 h -3.975479 z m -5.222335,17.00421 h 13.823827 v 3.50565 h -13.823827 z"
         style="font-style:normal;font-variant:normal;font-weight:normal;font-stretch:normal;font-family:Bahnschrift;-inkscape-font-specification:Bahnschrift;stroke-width:0.92520249"
         id="path852" /><path
         d="m -50.416242,-940.75734 h 3.848987 l 3.324947,13.39014 4.680224,-13.39014 h 2.565991 l 4.680224,13.39014 3.324947,-13.39014 h 3.848987 l -5.782516,18.75703 h -2.782836 l -4.571802,-12.95645 -4.571801,12.95645 h -2.782836 z"
         style="font-style:normal;font-variant:normal;font-weight:normal;font-stretch:normal;font-family:Bahnschrift;-inkscape-font-specification:Bahnschrift;stroke-width:0.92520249"
         id="path854" /><path
         d="m -9.5772221,-933.8906 q 0,-1.84318 -0.9938699,-2.85512 -0.9758,-1.03001 -2.782836,-1.03001 -1.120362,0 -2.204584,0.34334 -1.066152,0.34333 -1.897388,0.95772 l -2.692484,-1.84317 q 1.066151,-1.283 2.800906,-1.98774 1.752825,-0.72282 3.885128,-0.72282 2.331077,0 3.9935501,0.83124 1.6624733,0.81317 2.5298507,2.38529 0.8673774,1.55405 0.8673774,3.75863 v 12.05293 h -3.5056503 z m -4.5898719,12.16135 q -3.46951,0 -5.186194,-1.42756 -1.716685,-1.44563 -1.716685,-4.37303 0,-2.78283 1.572122,-4.17425 1.572121,-1.39142 4.752505,-1.39142 h 5.3307571 l 0.2529851,2.96354 h -5.5656712 q -1.445629,0 -2.168444,0.65053 -0.704744,0.63247 -0.704744,1.9516 0,1.42756 0.939659,2.11424 0.957729,0.68667 2.891258,0.68667 2.114232,0 3.144243,-0.45176 1.0480809,-0.45176 1.0480809,-1.40949 l 0.3794776,2.63828 q -0.4878998,0.75895 -1.2107145,1.24685 -0.704744,0.4879 -1.644403,0.72282 -0.939659,0.25298 -2.114232,0.25298 z"
         style="font-style:normal;font-variant:normal;font-weight:normal;font-stretch:normal;font-family:Bahnschrift;-inkscape-font-specification:Bahnschrift;stroke-width:0.92520249"
         id="path856" /><path
         d="M -0.43361688,-940.75734 H 3.2527371 v 18.75703 h -3.68635398 z m 10.31817698,4.44531 q -0.4878998,-0.59632 -1.2287846,-0.90352 -0.7408849,-0.3072 -1.7166845,-0.3072 -1.7528251,0 -2.7286247,0.9758 -0.9577292,0.95773 -0.9577292,2.67442 l -0.3794776,-3.61408 q 0.8673774,-1.68054 2.2407249,-2.60213 1.3733476,-0.93966 3.0358209,-0.93966 1.2829958,0 2.3130067,0.37948 1.048081,0.36141 1.825106,1.08422 z"
         style="font-style:normal;font-variant:normal;font-weight:normal;font-stretch:normal;font-family:Bahnschrift;-inkscape-font-specification:Bahnschrift;stroke-width:0.92520249"
         id="path858" /><path
         d="m 25.696128,-948.27461 h 3.686354 v 26.2743 h -3.686354 z m -4.716364,26.59957 q -2.060022,0 -3.523721,-0.88545 -1.445629,-0.90351 -2.204584,-2.6202 -0.758956,-1.71668 -0.758956,-4.12004 v -4.13811 q 0,-2.42143 0.740885,-4.13812 0.740885,-1.71668 2.150373,-2.60213 1.427559,-0.90352 3.415299,-0.90352 1.662473,0 3.035821,0.86738 1.391418,0.86738 2.240725,2.4395 l -0.379478,3.83092 q 0,-1.19265 -0.433688,-2.04196 -0.433689,-0.8493 -1.264926,-1.28299 -0.813166,-0.45176 -1.98774,-0.45176 -1.825106,0 -2.837047,1.13843 -0.99387,1.13844 -0.99387,3.19846 v 4.0839 q 0,2.04195 0.99387,3.16231 1.011941,1.10229 2.837047,1.10229 1.174574,0 1.98774,-0.45176 0.831237,-0.46982 1.264926,-1.3372 0.433688,-0.86738 0.433688,-2.07809 l 0.252985,3.95741 q -0.560181,1.39141 -1.843177,2.33107 -1.264925,0.93966 -3.126172,0.93966 z"
         style="font-style:normal;font-variant:normal;font-weight:normal;font-stretch:normal;font-family:Bahnschrift;-inkscape-font-specification:Bahnschrift;stroke-width:0.92520249"
         id="path860" /><path
         d="m 41.616114,-921.72925 q -1.662473,0 -3.126173,-0.32527 -1.445629,-0.32526 -2.710554,-0.9758 -1.264926,-0.65053 -2.331077,-1.62633 v 0 l 2.186514,-2.69248 v 0 q 1.51791,1.1565 3.01775,1.73475 1.499841,0.57825 2.96354,0.57825 2.186514,0 3.270735,-0.6686 1.102293,-0.68667 1.102293,-2.04195 0,-0.90352 -0.596322,-1.35528 -0.596322,-0.45176 -1.48177,-0.59632 -0.885448,-0.16263 -2.49371,-0.28913 -0.144563,0 -0.307196,0 -0.162634,-0.0181 -0.307196,-0.0361 -0.07228,0 -0.144563,0 -0.07228,-0.0181 -0.144563,-0.0181 -1.825107,-0.14456 -3.090032,-0.52404 -1.264926,-0.39754 -2.114233,-1.4637 -0.831236,-1.06615 -0.831236,-3.05389 0,-1.98774 0.813166,-3.30687 0.813166,-1.31914 2.421429,-1.96967 1.608262,-0.66861 4.02969,-0.66861 1.4637,0 2.782836,0.27106 1.337207,0.27105 2.547921,0.81316 1.210715,0.52405 2.331077,1.33721 v 0 l -2.222654,2.69249 v 0 q -1.409489,-0.90352 -2.782836,-1.35528 -1.355277,-0.45176 -2.656344,-0.45176 -1.879317,0 -2.818976,0.65053 -0.939659,0.63247 -0.939659,1.91546 0,0.75896 0.524041,1.13843 0.54211,0.37948 1.355277,0.50597 0.813166,0.1265 2.313006,0.21685 0.108422,0.0181 0.216844,0.0181 0.126493,0 0.252986,0.0181 0.05421,0 0.108422,0 0.05421,0 0.108422,0.0181 1.969669,0.12649 3.343017,0.52404 1.391418,0.39755 2.331077,1.57212 0.939659,1.17457 0.939659,3.39723 0,2.02388 -0.867378,3.36109 -0.867377,1.31913 -2.620202,1.98774 -1.734755,0.6686 -4.373028,0.6686 z"
         style="font-style:normal;font-variant:normal;font-weight:normal;font-stretch:normal;font-family:Bahnschrift;-inkscape-font-specification:Bahnschrift;stroke-width:0.92520249"
         id="path862" /></g><g
       style="display:inline;stroke:#000000;stroke-width:0.24572258;stroke-miterlimit:4;stroke-dasharray:none;stroke-opacity:1"
       transform="matrix(0.69590677,0,0,0.69590677,-417.43781,861.92612)"
       id="g1355"><path
         d="m 400.076,87.6871 c 1.106,0 2.202,-0.309 3.172,-0.8941 0.815,-0.5399 1.724,-0.818 2.651,-0.818 1.738,0 3.294,0.9621 4.064,2.5109 1.055,2.0879 3.277,3.3903 5.606,3.1954 0.077,-0.0043 0.167,-0.0071 0.256,-0.0071 1.241,0 2.449,0.5227 3.313,1.436 0.867,0.9148 1.306,2.1187 1.236,3.3878 -0.192,2.277 1.091,4.534 3.195,5.596 1.073,0.57 1.861,1.572 2.206,2.816 0.366,1.315 0.176,2.734 -0.52,3.895 -1.196,1.993 -1.195,4.368 10e-4,6.35 0.774,1.161 1.015,2.551 0.673,3.836 -0.335,1.266 -1.173,2.289 -2.358,2.882 -2.106,1.052 -3.391,3.305 -3.195,5.604 0.07,1.23 -0.384,2.471 -1.249,3.387 -0.929,0.984 -2.191,1.496 -3.575,1.42 -0.136,-0.012 -0.292,-0.018 -0.447,-0.018 -2.137,0 -4.155,1.26 -5.14,3.211 -0.78,1.469 -2.378,2.39 -4.164,2.39 -0.905,0 -1.787,-0.243 -2.555,-0.704 -1.935,-1.168 -4.402,-1.169 -6.342,10e-4 -0.779,0.518 -1.653,0.783 -2.553,0.783 -1.733,0 -3.371,-0.974 -4.171,-2.482 -1.051,-2.078 -3.285,-3.378 -5.6,-3.179 -0.069,0.004 -0.156,0.006 -0.243,0.006 -1.245,0 -2.455,-0.523 -3.321,-1.437 -0.869,-0.917 -1.309,-2.124 -1.241,-3.398 0.198,-2.278 -1.086,-4.531 -3.195,-5.584 -1.069,-0.572 -1.858,-1.577 -2.205,-2.822 -0.366,-1.316 -0.179,-2.737 0.514,-3.899 1.205,-1.979 1.206,-4.354 -0.003,-6.35 -0.77,-1.16 -1.006,-2.55 -0.662,-3.836 0.338,-1.264 1.174,-2.283 2.355,-2.87 2.109,-1.064 3.392,-3.3222 3.194,-5.6179 -0.069,-1.2242 0.387,-2.4621 1.252,-3.3781 0.93,-0.9852 2.224,-1.502 3.574,-1.4168 0.134,0.0098 0.284,0.0156 0.432,0.0156 2.146,0 4.169,-1.2597 5.155,-3.209 0.783,-1.4718 2.382,-2.3949 4.169,-2.3949 0.902,0 1.785,0.2422 2.552,0.7 0.967,0.5832 2.064,0.8922 3.169,0.8922 z m 5.823,-3.0121 c -1.184,0 -2.341,0.352 -3.346,1.0191 -1.487,0.8969 -3.444,0.911 -4.977,-0.014 -0.972,-0.5789 -2.085,-0.8852 -3.221,-0.8852 -2.268,0 -4.309,1.186 -5.324,3.0981 -0.825,1.6308 -2.543,2.6308 -4.343,2.4929 -0.13,-0.0078 -0.245,-0.0109 -0.359,-0.0109 -1.624,-8e-4 -3.133,0.65 -4.249,1.8309 -1.11,1.1761 -1.694,2.7671 -1.603,4.364 0.154,1.7922 -0.843,3.5381 -2.48,4.3641 -1.517,0.753 -2.594,2.067 -3.029,3.696 -0.441,1.646 -0.141,3.421 0.821,4.868 0.938,1.55 0.938,3.421 -0.014,4.983 -0.877,1.472 -1.113,3.263 -0.652,4.918 0.442,1.59 1.458,2.879 2.86,3.628 1.627,0.813 2.646,2.594 2.496,4.339 -0.089,1.656 0.477,3.205 1.593,4.383 1.188,1.253 2.876,1.936 4.601,1.833 0.138,-0.011 0.256,-0.016 0.374,-0.016 1.649,0 3.211,0.98 3.978,2.496 1.031,1.94 3.118,3.185 5.326,3.185 1.157,0 2.281,-0.341 3.25,-0.985 1.484,-0.895 3.442,-0.91 4.975,0.015 0.971,0.582 2.085,0.89 3.225,0.89 2.268,0 4.306,-1.186 5.318,-3.093 0.828,-1.637 2.56,-2.642 4.342,-2.493 0.132,0.008 0.242,0.011 0.352,0.011 1.629,0 3.142,-0.652 4.259,-1.835 1.11,-1.176 1.693,-2.77 1.6,-4.372 -0.15,-1.764 0.871,-3.545 2.48,-4.35 1.524,-0.761 2.601,-2.079 3.034,-3.711 0.436,-1.645 0.132,-3.419 -0.832,-4.866 -0.929,-1.538 -0.928,-3.411 0.016,-4.985 0.878,-1.464 1.118,-3.254 0.658,-4.911 -0.442,-1.59 -1.458,-2.877 -2.861,-3.623 -1.647,-0.831 -2.646,-2.5769 -2.496,-4.3511 0.091,-1.6488 -0.474,-3.1938 -1.589,-4.3707 -1.189,-1.2563 -2.883,-1.9453 -4.604,-1.832 -0.129,0.0097 -0.244,0.0136 -0.357,0.0136 -1.662,0 -3.23,-0.9789 -3.996,-2.4949 -0.988,-1.9898 -2.991,-3.2289 -5.226,-3.2289"
         style="fill:#100f0d;fill-opacity:1;fill-rule:nonzero;stroke:#000000;stroke-width:0.24572258;stroke-miterlimit:4;stroke-dasharray:none;stroke-opacity:1"
         id="path498"
         inkscape:connector-curvature="0" /><path
         d="m 400.076,129.995 c -9.931,0 -18.012,-8.08 -18.012,-18.012 0,-9.931 8.081,-18.01 18.012,-18.01 9.931,0 18.009,8.079 18.009,18.01 0,9.932 -8.078,18.012 -18.009,18.012 z m 0,-37.3231 c -10.648,0 -19.312,8.6631 -19.312,19.3111 0,10.649 8.664,19.313 19.312,19.313 10.648,0 19.31,-8.664 19.31,-19.313 0,-10.648 -8.662,-19.3111 -19.31,-19.3111"
         style="fill:#100f0d;fill-opacity:1;fill-rule:nonzero;stroke:#000000;stroke-width:0.24572258;stroke-miterlimit:4;stroke-dasharray:none;stroke-opacity:1"
         id="path500"
         inkscape:connector-curvature="0" /><path
         d="m 406.103,101.982 h 0.061 c 0,0.019 0,0.039 0,0.061 l -1.048,6.822 c -0.031,0.204 0.036,0.41 0.183,0.557 l 4.786,4.798 c -0.005,0.009 -0.007,0.084 -0.007,0.151 l -6.558,1.049 c -0.209,0.033 -0.389,0.167 -0.482,0.357 l -2.963,6.107 -2.961,-6.106 c -0.093,-0.191 -0.272,-0.325 -0.481,-0.358 l -6.386,-1.028 c -0.032,-0.027 -0.066,-0.052 -0.101,-0.079 l 4.708,-4.715 c 0.146,-0.147 0.213,-0.354 0.182,-0.559 l -1.068,-6.923 v 0 l 5.797,3.16 c 0.199,0.111 0.439,0.107 0.635,-0.006 z m 0.54,-1.3 h -0.714 c -0.115,0 -0.226,0.03 -0.325,0.087 l -5.537,3.192 -5.473,-2.984 c -0.435,-0.346 -1.176,-0.31 -1.555,0.088 -0.144,0.135 -0.642,0.603 -0.343,1.336 l 1.005,6.511 -4.437,4.445 c -0.25,0.118 -0.49,0.412 -0.49,1.106 0,0.445 0.345,0.704 0.573,0.875 0.052,0.041 0.109,0.079 0.149,0.121 0.098,0.099 0.225,0.164 0.361,0.187 l 6.235,1.003 2.869,5.916 c 0.032,0.068 0.076,0.128 0.129,0.181 0.235,0.232 0.55,0.54 0.986,0.54 0.367,0 1.018,-0.275 1.153,-0.803 l 2.832,-5.834 6.204,-0.998 c 0.54,-0.036 1.113,-0.513 1.113,-1.188 0,-0.241 0,-0.805 -0.384,-1.172 l -4.543,-4.555 1.006,-6.595 c 0.008,-0.354 0.008,-0.886 -0.343,-1.255 -0.122,-0.13 -0.293,-0.204 -0.471,-0.204"
         style="fill:#100f0d;fill-opacity:1;fill-rule:nonzero;stroke:#000000;stroke-width:0.24572258;stroke-miterlimit:4;stroke-dasharray:none;stroke-opacity:1"
         id="path502"
         inkscape:connector-curvature="0" /><path
         d="m 382.577,71.35 c 0.259,0 0.5,-0.1559 0.602,-0.4051 l 3.523,-8.6187 11.838,23.809 c -0.332,-0.1141 -0.653,-0.2653 -0.96,-0.452 -0.976,-0.582 -2.089,-0.8883 -3.224,-0.8883 0,0 0,0 -10e-4,0 -2.269,0 -4.309,1.186 -5.324,3.0981 -0.825,1.6308 -2.543,2.6308 -4.343,2.4929 -0.227,-0.014 -0.415,-0.016 -0.611,-0.0058 l -10.667,-21.4512 9,2.3981 c 0.056,0.0152 0.111,0.023 0.167,0.023 z m 4.068,-11.25 c -0.008,0 -0.016,0.0012 -0.024,0.0012 -0.256,0.0078 -0.481,0.1668 -0.578,0.4027 l -3.851,9.4203 -9.831,-2.6203 c -0.24,-0.0648 -0.502,0.016 -0.665,0.2102 -0.162,0.1929 -0.197,0.4629 -0.092,0.691 l 0.077,0.164 11.428,22.984 c 0.123,0.2469 0.392,0.3867 0.662,0.3551 0.272,-0.0332 0.55,-0.0434 0.829,-0.025 0.133,0.0098 0.283,0.0156 0.431,0.0156 2.146,0 4.169,-1.2597 5.155,-3.209 0.782,-1.4718 2.382,-2.3949 4.169,-2.3949 10e-4,0 10e-4,0 10e-4,0 0.901,0 1.784,0.2422 2.551,0.7 0.842,0.516 1.774,0.8121 2.761,0.8781 0.251,0.0149 0.456,-0.0949 0.584,-0.2878 0.129,-0.1954 0.144,-0.443 0.041,-0.6512 L 387.227,60.4609 C 387.116,60.2391 386.891,60.1 386.645,60.1"
         style="fill:#100f0d;fill-opacity:1;fill-rule:nonzero;stroke:#000000;stroke-width:0.24572258;stroke-miterlimit:4;stroke-dasharray:none;stroke-opacity:1"
         id="path504"
         inkscape:connector-curvature="0" /><path
         d="m 401.621,86.132 11.829,-23.805 3.522,8.6179 c 0.123,0.3031 0.454,0.4633 0.768,0.3821 l 9.002,-2.3981 -10.67,21.4512 c -0.196,-0.0102 -0.393,-0.0071 -0.592,0.0039 -0.131,0.0109 -0.246,0.0148 -0.359,0.0148 -1.662,0 -3.23,-0.9789 -3.996,-2.4949 -0.988,-1.9898 -2.991,-3.2289 -5.226,-3.2289 -1.184,0 -2.341,0.352 -3.346,1.0191 -0.291,0.1789 -0.605,0.3258 -0.932,0.4379 z M 413.508,60.1 c -0.246,0 -0.472,0.1391 -0.582,0.3609 L 399.87,86.7352 c -0.103,0.2089 -0.088,0.4558 0.041,0.6507 0.13,0.193 0.373,0.2993 0.584,0.2871 0.968,-0.0652 1.921,-0.3699 2.757,-0.8832 0.811,-0.5367 1.72,-0.8148 2.647,-0.8148 1.738,0 3.294,0.9621 4.064,2.5109 1.055,2.0879 3.277,3.3903 5.606,3.1954 0.228,-0.0122 0.54,-0.0071 0.809,0.0269 0.28,0.0316 0.539,-0.1082 0.662,-0.3562 l 11.446,-23.0149 c 0.089,-0.1109 0.142,-0.2519 0.142,-0.4051 0,-0.3629 -0.319,-0.6968 -0.659,-0.6511 -0.065,0.0011 -0.119,0.007 -0.178,0.023 l -9.832,2.6203 -3.85,-9.4203 c -0.096,-0.2359 -0.322,-0.3949 -0.578,-0.4027 -0.008,0 -0.015,-0.0012 -0.023,-0.0012"
         style="fill:#100f0d;fill-opacity:1;fill-rule:nonzero;stroke:#000000;stroke-width:0.24572258;stroke-miterlimit:4;stroke-dasharray:none;stroke-opacity:1"
         id="path506"
         inkscape:connector-curvature="0" /></g></g></svg>