<?xml version="1.0" encoding="UTF-8" standalone="no"?>
<svg
   xmlns:dc="http://purl.org/dc/elements/1.1/"
   xmlns:cc="http://creativecommons.org/ns#"
   xmlns:rdf="http://www.w3.org/1999/02/22-rdf-syntax-ns#"
   xmlns:svg="http://www.w3.org/2000/svg"
   xmlns="http://www.w3.org/2000/svg"
   xmlns:sodipodi="http://sodipodi.sourceforge.net/DTD/sodipodi-0.dtd"
   xmlns:inkscape="http://www.inkscape.org/namespaces/inkscape"
   version="1.1"
   id="svg2"
   xml:space="preserve"
   width="1116.7445"
   height="138.65242"
   viewBox="0 0 1116.7445 138.65241"
   sodipodi:docname="curriculum.svg"
   inkscape:version="0.92.2 (5c3e80d, 2017-08-06)"
   inkscape:export-filename="C:\xampp\htdocs\FTLS\FYI.png"
   inkscape:export-xdpi="83.085457"
   inkscape:export-ydpi="83.085457"><metadata
     id="metadata8"><rdf:RDF><cc:Work
         rdf:about=""><dc:format>image/svg+xml</dc:format><dc:type
           rdf:resource="http://purl.org/dc/dcmitype/StillImage" /><dc:title /></cc:Work></rdf:RDF></metadata><defs
     id="defs6" /><sodipodi:namedview
     pagecolor="#ffffff"
     bordercolor="#666666"
     borderopacity="1"
     objecttolerance="10"
     gridtolerance="10"
     guidetolerance="10"
     inkscape:pageopacity="0"
     inkscape:pageshadow="2"
     inkscape:window-width="1920"
     inkscape:window-height="1017"
     id="namedview4"
     showgrid="false"
     inkscape:zoom="1.0843875"
     inkscape:cx="569.03012"
     inkscape:cy="116.40643"
     inkscape:window-x="-8"
     inkscape:window-y="-8"
     inkscape:window-maximized="1"
     inkscape:current-layer="g10"
     showborder="true"
     fit-margin-top="0"
     fit-margin-left="0"
     fit-margin-right="0"
     fit-margin-bottom="0"
     showguides="true"
     inkscape:guide-bbox="true"><sodipodi:guide
       position="164.03737,187.03326"
       orientation="1,0"
       id="guide1439"
       inkscape:locked="false" /></sodipodi:namedview><g
     inkscape:groupmode="layer"
     id="layer1"
     inkscape:label="outline"
     style="display:none;opacity:0.125"
     transform="translate(260.19213,244.43772)"
     sodipodi:insensitive="true"><rect
       style="opacity:1;fill:none;fill-opacity:1;stroke:#000000;stroke-width:5.27622032;stroke-miterlimit:4;stroke-dasharray:none;stroke-opacity:1"
       id="rect208"
       width="1111.4683"
       height="133.37621"
       x="-257.55402"
       y="-241.79961" /><rect
       style="opacity:1;fill:none;fill-opacity:1;stroke:#000000;stroke-width:5.27622032;stroke-miterlimit:4;stroke-dasharray:none;stroke-opacity:1"
       id="rect1031"
       width="124.1778"
       height="107.31411"
       x="-243.75648"
       y="-230.30167" /><path
       style="fill:none;stroke:#000000;stroke-width:1px;stroke-linecap:butt;stroke-linejoin:miter;stroke-opacity:1"
       d="m -104.24805,-124.52054 938.23246,1.53306"
       id="path1033"
       inkscape:connector-curvature="0"
       sodipodi:nodetypes="cc" /></g><g
     id="g10"
     inkscape:groupmode="layer"
     inkscape:label="Academic Advising"
     transform="matrix(1.3333333,0,0,-1.3333333,260.19213,1311.1044)"
     style="display:inline"><flowRoot
       xml:space="preserve"
       id="flowRoot1358"
       style="font-style:normal;font-weight:normal;font-size:40px;line-height:1.25;font-family:sans-serif;letter-spacing:0px;word-spacing:0px;fill:#000000;fill-opacity:1;stroke:none"><flowRegion
         id="flowRegion1360"><rect
           id="rect1362"
           width="364.67142"
           height="151.20522"
           x="85.386475"
           y="234.14859" /></flowRegion><flowPara
         id="flowPara1364" /></flowRoot><flowRoot
       xml:space="preserve"
       id="flowRoot1366"
       style="font-style:normal;font-weight:normal;font-size:40px;line-height:1.25;font-family:sans-serif;letter-spacing:0px;word-spacing:0px;fill:#000000;fill-opacity:1;stroke:none"><flowRegion
         id="flowRegion1368"><rect
           id="rect1370"
           width="663.52411"
           height="158.32076"
           x="78.270935"
           y="200.34978" /></flowRegion><flowPara
         id="flowPara1372" /></flowRoot><g
       aria-label="Curriculum Renewal"
       transform="scale(1,-1)"
       style="font-style:normal;font-weight:normal;font-size:37.00810242px;line-height:1.25;font-family:sans-serif;letter-spacing:0px;word-spacing:0px;fill:#000000;fill-opacity:1;stroke:none;stroke-width:0.92520249"
       id="text1392"><path
         d="m -63.31848,-921.72925 q -2.728625,0 -4.806717,-1.21071 -2.060021,-1.21072 -3.198454,-3.43337 -1.138433,-2.22266 -1.138433,-5.15006 v -7.21007 q 0,-2.9274 1.138433,-5.15005 1.138433,-2.22266 3.198454,-3.43337 2.078092,-1.22879 4.806717,-1.22879 2.258795,0 4.156183,0.9758 1.897388,0.95773 3.162314,2.72863 1.282995,1.77089 1.734754,4.10197 v 0 h -3.776705 v 0 q -0.343337,-1.22879 -1.156503,-2.18651 -0.795096,-0.9758 -1.879318,-1.49985 -1.084222,-0.52404 -2.240725,-0.52404 -1.608262,0 -2.818977,0.77703 -1.210714,0.77703 -1.879317,2.18651 -0.668604,1.39142 -0.668604,3.25267 v 7.21007 q 0,1.84318 0.668604,3.25267 0.668603,1.40949 1.879317,2.18651 1.210715,0.75896 2.818977,0.75896 1.174573,0 2.240725,-0.4879 1.084222,-0.4879 1.879318,-1.44563 0.813166,-0.95773 1.156503,-2.27687 v 0 h 3.776705 v 0 q -0.451759,2.33108 -1.734754,4.10198 -1.282996,1.77089 -3.180384,2.74669 -1.897388,0.95773 -4.138113,0.95773 z"
         style="font-style:normal;font-variant:normal;font-weight:normal;font-stretch:normal;font-family:Bahnschrift;-inkscape-font-specification:Bahnschrift;stroke-width:0.92520249"
         id="path69" /><path
         d="m -38.056114,-940.75734 h 3.668284 v 18.75703 h -3.668284 z m -7.625693,11.4024 q 0,1.96967 0.99387,3.05389 1.011941,1.06615 2.837047,1.06615 1.807037,0 2.800907,-0.95773 0.993869,-0.95773 0.993869,-2.72862 l 0.252986,3.92126 q -0.578252,1.39142 -1.879318,2.33108 -1.301066,0.93966 -3.198454,0.93966 -3.108103,0 -4.806717,-1.98774 -1.680543,-2.00581 -1.680543,-5.63795 v -11.4024 h 3.686353 z"
         style="font-style:normal;font-variant:normal;font-weight:normal;font-stretch:normal;font-family:Bahnschrift;-inkscape-font-specification:Bahnschrift;stroke-width:0.92520249"
         id="path71" /><path
         d="m -28.767945,-940.75734 h 3.686354 v 18.75703 h -3.686354 z m 10.318177,4.44531 q -0.487899,-0.59632 -1.228784,-0.90352 -0.740885,-0.3072 -1.716685,-0.3072 -1.752825,0 -2.728624,0.9758 -0.95773,0.95773 -0.95773,2.67442 l -0.379477,-3.61408 q 0.867377,-1.68054 2.240725,-2.60213 1.373347,-0.93966 3.035821,-0.93966 1.282995,0 2.313006,0.37948 1.048081,0.36141 1.825107,1.08422 z"
         style="font-style:normal;font-variant:normal;font-weight:normal;font-stretch:normal;font-family:Bahnschrift;-inkscape-font-specification:Bahnschrift;stroke-width:0.92520249"
         id="path73" /><path
         d="m -12.938309,-940.75734 h 3.686354 v 18.75703 h -3.686354 z m 10.318177,4.44531 q -0.4878997,-0.59632 -1.2287846,-0.90352 -0.7408849,-0.3072 -1.7166845,-0.3072 -1.7528251,0 -2.7286247,0.9758 -0.9577292,0.95773 -0.9577292,2.67442 l -0.3794776,-3.61408 q 0.8673774,-1.68054 2.2407249,-2.60213 1.3733476,-0.93966 3.0358209,-0.93966 1.2829958,0 2.3130064,0.37948 1.04808106,0.36141 1.82510665,1.08422 z"
         style="font-style:normal;font-variant:normal;font-weight:normal;font-stretch:normal;font-family:Bahnschrift;-inkscape-font-specification:Bahnschrift;stroke-width:0.92520249"
         id="path75" /><path
         d="m 2.8913267,-948.27461 h 3.6863539 v 3.68635 H 2.8913267 Z m 0,7.51727 h 3.6863539 v 18.75703 H 2.8913267 Z"
         style="font-style:normal;font-variant:normal;font-weight:normal;font-stretch:normal;font-family:Bahnschrift;-inkscape-font-specification:Bahnschrift;stroke-width:0.92520249"
         id="path77" /><path
         d="m 19.787119,-921.72925 q -2.565992,0 -4.391098,-0.95773 -1.807036,-0.95773 -2.764766,-2.78283 -0.957729,-1.82511 -0.957729,-4.40917 v -3.09004 q 0,-2.54792 0.957729,-4.35495 0.95773,-1.80704 2.764766,-2.7467 1.825106,-0.95773 4.391098,-0.95773 1.463699,0 2.746695,0.36141 1.301066,0.34334 2.331077,1.01194 1.03001,0.6686 1.716684,1.62633 v 0 l -2.656343,2.38529 v 0 q -0.795096,-0.90352 -1.861247,-1.39142 -1.066152,-0.4879 -2.222655,-0.4879 -2.132303,0 -3.306876,1.19265 -1.174574,1.19264 -1.174574,3.36108 v 3.09004 q 0,2.22265 1.156503,3.43337 1.174574,1.21071 3.324947,1.21071 1.174574,0 2.240725,-0.52404 1.066151,-0.52404 1.843177,-1.48177 v 0 l 2.656343,2.56599 v 0 q -0.704744,0.93966 -1.734755,1.60826 -1.03001,0.65054 -2.331076,0.99387 -1.282996,0.34334 -2.728625,0.34334 z"
         style="font-style:normal;font-variant:normal;font-weight:normal;font-stretch:normal;font-family:Bahnschrift;-inkscape-font-specification:Bahnschrift;stroke-width:0.92520249"
         id="path79" /><path
         d="m 41.525761,-940.75734 h 3.668284 v 18.75703 h -3.668284 z m -7.625693,11.4024 q 0,1.96967 0.99387,3.05389 1.011941,1.06615 2.837047,1.06615 1.807036,0 2.800906,-0.95773 0.99387,-0.95773 0.99387,-2.72862 l 0.252985,3.92126 q -0.578251,1.39142 -1.879317,2.33108 -1.301066,0.93966 -3.198454,0.93966 -3.108103,0 -4.806717,-1.98774 -1.680544,-2.00581 -1.680544,-5.63795 v -11.4024 h 3.686354 z"
         style="font-style:normal;font-variant:normal;font-weight:normal;font-stretch:normal;font-family:Bahnschrift;-inkscape-font-specification:Bahnschrift;stroke-width:0.92520249"
         id="path81" /><path
         d="m 54.500288,-926.84316 q 0,0.68667 0.289126,1.06615 0.307196,0.36141 0.849307,0.36141 h 1.734755 v 3.50565 h -2.168444 q -2.096162,0 -3.252665,-1.30107 -1.138433,-1.30107 -1.138433,-3.66828 v -21.39531 h 3.686354 z"
         style="font-style:normal;font-variant:normal;font-weight:normal;font-stretch:normal;font-family:Bahnschrift;-inkscape-font-specification:Bahnschrift;stroke-width:0.92520249"
         id="path83" /><path
         d="m 72.679074,-940.75734 h 3.668284 v 18.75703 h -3.668284 z m -7.625693,11.4024 q 0,1.96967 0.99387,3.05389 1.01194,1.06615 2.837047,1.06615 1.807036,0 2.800906,-0.95773 0.99387,-0.95773 0.99387,-2.72862 l 0.252985,3.92126 q -0.578252,1.39142 -1.879318,2.33108 -1.301066,0.93966 -3.198454,0.93966 -3.108102,0 -4.806716,-1.98774 -1.680544,-2.00581 -1.680544,-5.63795 v -11.4024 h 3.686354 z"
         style="font-style:normal;font-variant:normal;font-weight:normal;font-stretch:normal;font-family:Bahnschrift;-inkscape-font-specification:Bahnschrift;stroke-width:0.92520249"
         id="path85" /><path
         d="m 104.37448,-933.36656 q 0,-1.98774 -1.03001,-3.07196 -1.03001,-1.08423 -2.89126,-1.08423 -1.716682,0 -2.656341,1.04808 -0.939659,1.04809 -0.939659,2.96354 l -0.740885,-3.61407 q 0.885448,-1.86125 2.331077,-2.87319 1.463699,-1.03001 3.216528,-1.03001 2.02388,0 3.45144,0.90352 1.44562,0.88545 2.18651,2.60213 0.75895,1.71669 0.75895,4.13812 v 11.38432 h -3.68635 z m -22.407248,-7.39078 h 3.686353 v 18.75703 h -3.686353 z m 11.203624,7.39078 q 0,-1.98774 -0.975799,-3.07196 -0.9758,-1.08423 -2.764766,-1.08423 -1.807036,0 -2.800906,0.95773 -0.9758,0.95773 -0.9758,2.69249 l -0.379477,-3.61408 q 0.867377,-1.69861 2.258795,-2.6202 1.409488,-0.92159 3.108103,-0.92159 1.969669,0 3.361087,0.90352 1.391418,0.88545 2.114232,2.60213 0.740885,1.71669 0.740885,4.13812 v 11.38432 h -3.686354 z"
         style="font-style:normal;font-variant:normal;font-weight:normal;font-stretch:normal;font-family:Bahnschrift;-inkscape-font-specification:Bahnschrift;stroke-width:0.92520249"
         id="path87" /><path
         d="m 125.64331,-936.61923 h 8.9629 q 1.04808,0 1.86124,-0.50597 0.81317,-0.50597 1.24686,-1.42756 0.45176,-0.93966 0.45176,-2.15037 v 0 q 0,-1.21071 -0.45176,-2.1323 -0.43369,-0.93966 -1.24686,-1.44563 -0.79509,-0.50597 -1.86124,-0.50597 h -8.9629 v -3.50565 h 8.81833 q 2.27687,0 3.99355,0.93966 1.73476,0.93966 2.67442,2.67441 0.95773,1.71668 0.95773,3.97548 v 0 q 0,2.25879 -0.95773,3.99355 -0.95773,1.71668 -2.69249,2.65634 -1.71668,0.93966 -3.97548,0.93966 h -8.81833 z m -1.60827,-11.67345 h 3.68636 v 26.29237 h -3.68636 z m 8.76413,14.36594 3.66828,-0.83124 6.72218,12.75767 h -4.37303 z"
         style="font-style:normal;font-variant:normal;font-weight:normal;font-stretch:normal;font-family:Bahnschrift;-inkscape-font-specification:Bahnschrift;stroke-width:0.92520249"
         id="path89" /><path
         d="m 154.77273,-921.72925 q -2.60213,0 -4.44531,-0.9758 -1.84318,-0.9758 -2.81898,-2.85512 -0.95772,-1.89738 -0.95772,-4.5718 v -2.11423 q 0,-2.78284 0.92158,-4.75251 0.93966,-1.96967 2.71056,-2.99968 1.77089,-1.03001 4.2646,-1.03001 2.34915,0 4.01162,1.17458 1.66248,1.17457 2.52986,3.39722 0.88544,2.22266 0.88544,5.33076 v 1.22879 h -12.64925 v -2.96354 h 9.1436 v 0 q -0.16263,-2.29494 -1.19264,-3.55986 -1.01194,-1.283 -2.72863,-1.283 -2.09616,0 -3.25266,1.37335 -1.13843,1.37334 -1.13843,3.88513 v 2.38528 q 0,2.33108 1.22878,3.57793 1.22879,1.24686 3.48758,1.24686 1.12036,0 2.22266,-0.45176 1.10229,-0.45176 1.96966,-1.26492 v 0 l 2.42143,2.42142 v 0 q -1.39141,1.33721 -3.12617,2.0781 -1.73475,0.72281 -3.48758,0.72281 z"
         style="font-style:normal;font-variant:normal;font-weight:normal;font-stretch:normal;font-family:Bahnschrift;-inkscape-font-specification:Bahnschrift;stroke-width:0.92520249"
         id="path91" /><path
         d="m 166.97022,-940.75734 h 3.68636 v 18.75703 h -3.68636 z m 11.38433,7.39078 q 0,-1.98774 -1.03001,-3.07196 -1.03001,-1.08423 -2.89126,-1.08423 -1.80703,0 -2.8009,0.95773 -0.9758,0.95773 -0.9758,2.69249 l -0.37948,-3.61408 q 0.86738,-1.69861 2.25879,-2.6202 1.40949,-0.92159 3.10811,-0.92159 3.05389,0 4.71636,2.00581 1.68054,1.98774 1.68054,5.63796 v 11.38432 h -3.68635 z"
         style="font-style:normal;font-variant:normal;font-weight:normal;font-stretch:normal;font-family:Bahnschrift;-inkscape-font-specification:Bahnschrift;stroke-width:0.92520249"
         id="path93" /><path
         d="m 195.32263,-921.72925 q -2.60214,0 -4.44531,-0.9758 -1.84318,-0.9758 -2.81898,-2.85512 -0.95773,-1.89738 -0.95773,-4.5718 v -2.11423 q 0,-2.78284 0.92159,-4.75251 0.93966,-1.96967 2.71055,-2.99968 1.7709,-1.03001 4.26461,-1.03001 2.34915,0 4.01162,1.17458 1.66247,1.17457 2.52985,3.39722 0.88545,2.22266 0.88545,5.33076 v 1.22879 h -12.64925 v -2.96354 h 9.1436 v 0 q -0.16263,-2.29494 -1.19264,-3.55986 -1.01195,-1.283 -2.72863,-1.283 -2.09616,0 -3.25266,1.37335 -1.13844,1.37334 -1.13844,3.88513 v 2.38528 q 0,2.33108 1.22879,3.57793 1.22878,1.24686 3.48758,1.24686 1.12036,0 2.22265,-0.45176 1.10229,-0.45176 1.96967,-1.26492 v 0 l 2.42143,2.42142 v 0 q -1.39142,1.33721 -3.12617,2.0781 -1.73476,0.72281 -3.48758,0.72281 z"
         style="font-style:normal;font-variant:normal;font-weight:normal;font-stretch:normal;font-family:Bahnschrift;-inkscape-font-specification:Bahnschrift;stroke-width:0.92520249"
         id="path95" /><path
         d="m 205.17096,-940.75734 h 3.84899 l 3.32495,13.39014 4.68022,-13.39014 h 2.56599 l 4.68022,13.39014 3.32495,-13.39014 h 3.84899 l -5.78252,18.75703 h -2.78283 l -4.5718,-12.95645 -4.57181,12.95645 h -2.78283 z"
         style="font-style:normal;font-variant:normal;font-weight:normal;font-stretch:normal;font-family:Bahnschrift;-inkscape-font-specification:Bahnschrift;stroke-width:0.92520249"
         id="path97" /><path
         d="m 246.01,-933.8906 q 0,-1.84318 -0.99387,-2.85512 -0.9758,-1.03001 -2.78283,-1.03001 -1.12037,0 -2.20459,0.34334 -1.06615,0.34333 -1.89739,0.95772 l -2.69248,-1.84317 q 1.06615,-1.283 2.80091,-1.98774 1.75282,-0.72282 3.88512,-0.72282 2.33108,0 3.99355,0.83124 1.66248,0.81317 2.52985,2.38529 0.86738,1.55405 0.86738,3.75863 v 12.05293 H 246.01 Z m -4.58987,12.16135 q -3.46951,0 -5.1862,-1.42756 -1.71668,-1.44563 -1.71668,-4.37303 0,-2.78283 1.57212,-4.17425 1.57212,-1.39142 4.75251,-1.39142 h 5.33075 l 0.25299,2.96354 h -5.56567 q -1.44563,0 -2.16845,0.65053 -0.70474,0.63247 -0.70474,1.9516 0,1.42756 0.93966,2.11424 0.95773,0.68667 2.89126,0.68667 2.11423,0 3.14424,-0.45176 1.04808,-0.45176 1.04808,-1.40949 l 0.37948,2.63828 q -0.4879,0.75895 -1.21072,1.24685 -0.70474,0.4879 -1.6444,0.72282 -0.93966,0.25298 -2.11423,0.25298 z"
         style="font-style:normal;font-variant:normal;font-weight:normal;font-stretch:normal;font-family:Bahnschrift;-inkscape-font-specification:Bahnschrift;stroke-width:0.92520249"
         id="path99" /><path
         d="m 258.83994,-926.84316 q 0,0.68667 0.28913,1.06615 0.30719,0.36141 0.8493,0.36141 h 1.73476 v 3.50565 h -2.16844 q -2.09617,0 -3.25267,-1.30107 -1.13843,-1.30107 -1.13843,-3.66828 v -21.39531 h 3.68635 z"
         style="font-style:normal;font-variant:normal;font-weight:normal;font-stretch:normal;font-family:Bahnschrift;-inkscape-font-specification:Bahnschrift;stroke-width:0.92520249"
         id="path101" /></g><g
       style="display:inline"
       id="g1573"
       transform="matrix(0.76585727,0,0,0.76585727,-442.06463,556.19122)"><path
         inkscape:connector-curvature="0"
         id="path1541"
         style="fill:#100f0d;fill-opacity:1;fill-rule:nonzero;stroke:none;stroke-width:0.1"
         d="m 387.399,464.351 h 25.354 l -0.845,2.344 h -23.664 z m 26.298,-1.301 c -0.005,0 -0.012,0 -0.019,0 h -27.203 c -0.212,0 -0.411,0.103 -0.533,0.276 -0.121,0.174 -0.151,0.396 -0.079,0.594 l 1.313,3.645 c 0.093,0.259 0.337,0.431 0.611,0.431 h 24.578 c 0.275,0 0.519,-0.172 0.612,-0.431 l 1.262,-3.504 c 0.069,-0.104 0.109,-0.228 0.109,-0.361 0,-0.359 -0.291,-0.65 -0.651,-0.65" /><path
         inkscape:connector-curvature="0"
         id="path1543"
         style="fill:#100f0d;fill-opacity:1;fill-rule:nonzero;stroke:none;stroke-width:0.1"
         d="m 417.737,454.364 h 2.386 l -7.027,19.619 h -2.443 z m 3.309,-1.301 h -3.765 c -0.273,0 -0.518,0.172 -0.611,0.43 l -7.554,20.92 c -0.072,0.199 -0.042,0.421 0.079,0.594 0.122,0.174 0.321,0.277 0.533,0.277 h 3.826 c 0.274,0 0.519,-0.173 0.612,-0.431 l 7.492,-20.92 c 0.071,-0.199 0.041,-0.42 -0.081,-0.593 -0.121,-0.173 -0.319,-0.277 -0.531,-0.277" /><path
         inkscape:connector-curvature="0"
         id="path1545"
         style="fill:#100f0d;fill-opacity:1;fill-rule:nonzero;stroke:none;stroke-width:0.1"
         d="m 380.026,454.364 h 2.389 l 7.082,19.619 h -2.442 z m 2.845,-1.301 h -3.767 c -0.212,0 -0.411,0.104 -0.532,0.277 -0.122,0.173 -0.152,0.394 -0.081,0.593 l 7.493,20.92 c 0.093,0.258 0.338,0.431 0.613,0.431 h 3.826 c 0.212,0 0.41,-0.103 0.532,-0.277 0.121,-0.173 0.151,-0.395 0.079,-0.594 l -7.552,-20.92 c -0.092,-0.258 -0.337,-0.43 -0.611,-0.43" /><path
         inkscape:connector-curvature="0"
         id="path1547"
         style="fill:#100f0d;fill-opacity:1;fill-rule:nonzero;stroke:none;stroke-width:0.1"
         d="m 364.296,517.703 v -37.606 c 0,-2.744 2.068,-4.813 4.811,-4.813 h 61.936 c 2.743,0 4.811,2.069 4.811,4.813 v 37.606 z m 66.747,-43.72 h -61.936 c -3.484,0 -6.112,2.628 -6.112,6.114 v 38.257 c 0,0.359 0.291,0.65 0.651,0.65 h 72.858 c 0.359,0 0.65,-0.291 0.65,-0.65 v -38.257 c 0,-3.486 -2.628,-6.114 -6.111,-6.114" /><path
         inkscape:connector-curvature="0"
         id="path1549"
         style="fill:#100f0d;fill-opacity:1;fill-rule:nonzero;stroke:none;stroke-width:0.1"
         d="m 361.803,519.004 h 76.547 v 2.346 H 361.803 Z M 439,517.703 h -77.848 c -0.359,0 -0.65,0.291 -0.65,0.651 V 522 c 0,0.359 0.291,0.65 0.65,0.65 H 439 c 0.359,0 0.65,-0.291 0.65,-0.65 v -3.646 c 0,-0.36 -0.291,-0.651 -0.65,-0.651" /><path
         inkscape:connector-curvature="0"
         id="path1551"
         style="fill:#100f0d;fill-opacity:1;fill-rule:nonzero;stroke:none;stroke-width:0.1"
         d="m 398.898,522.65 h 2.348 l 0.008,1.171 c 0,0.727 -0.441,1.163 -1.178,1.163 -0.737,0 -1.178,-0.436 -1.178,-1.168 z m 2.994,-1.3 h -3.644 c -0.359,0 -0.65,0.291 -0.65,0.65 v 1.816 c 0,1.454 1.019,2.469 2.478,2.469 1.459,0 2.479,-1.015 2.479,-2.469 l -0.013,-1.821 c -0.003,-0.356 -0.293,-0.645 -0.65,-0.645" /><path
         inkscape:connector-curvature="0"
         id="path1553"
         style="fill:#100f0d;fill-opacity:1;fill-rule:nonzero;stroke:none;stroke-width:0.1"
         d="m 436.263,479.992 c -0.002,0 -0.003,0 -0.005,0 l -1.313,0.01 c -1.076,0.015 -1.948,0.903 -1.948,1.98 l 0.017,2.117 c -1.377,0.331 -2.702,0.858 -3.951,1.572 l -1.441,-1.423 c -0.371,-0.364 -0.861,-0.564 -1.384,-0.564 -0.006,0 -0.011,0 -0.018,0 -0.524,0.004 -1.012,0.211 -1.375,0.581 l -2.565,2.592 c -0.367,0.375 -0.566,0.87 -0.563,1.394 0.002,0.528 0.208,1.02 0.582,1.386 l 1.352,1.33 c -0.768,1.276 -1.338,2.637 -1.697,4.061 l -1.85,0.008 c -1.083,0.015 -1.96,0.9 -1.96,1.973 l 0.03,3.651 c 0,0.52 0.206,1.012 0.58,1.382 0.376,0.371 0.894,0.555 1.401,0.565 l 1.848,-0.009 c 0.376,1.424 0.962,2.779 1.747,4.039 l -1.337,1.345 c -0.757,0.769 -0.746,2.017 0.022,2.786 l 2.587,2.555 c 0.374,0.365 0.865,0.566 1.386,0.566 0.002,0 0.005,0 0.007,0 0.527,-0.002 1.021,-0.208 1.387,-0.582 l 1.422,-1.44 c 1.26,0.697 2.592,1.208 3.971,1.523 l 0.016,2.121 c 0,0.518 0.207,1.01 0.583,1.382 0.376,0.371 0.919,0.553 1.397,0.566 l 1.3,-0.011 c 0.36,-0.003 0.649,-0.297 0.646,-0.655 -0.003,-0.357 -0.294,-0.646 -0.651,-0.646 -0.002,0 -0.004,0 -0.005,0 l -1.302,0.011 c -0.134,-0.01 -0.344,-0.065 -0.472,-0.19 -0.126,-0.125 -0.195,-0.289 -0.195,-0.462 l -0.021,-2.651 c -0.003,-0.31 -0.224,-0.576 -0.529,-0.633 -1.58,-0.3 -3.1,-0.881 -4.516,-1.727 -0.257,-0.153 -0.585,-0.111 -0.796,0.102 l -1.775,1.798 c -0.122,0.125 -0.287,0.193 -0.465,0.194 0,0 -0.001,0 -0.002,0 -0.179,0 -0.346,-0.068 -0.473,-0.193 l -2.583,-2.551 c -0.263,-0.262 -0.271,-0.689 -0.015,-0.949 l 1.705,-1.715 c 0.219,-0.22 0.252,-0.565 0.078,-0.822 -0.941,-1.396 -1.605,-2.929 -1.974,-4.557 -0.068,-0.296 -0.331,-0.507 -0.634,-0.507 -10e-4,0 -0.002,0 -0.003,0 l -2.364,0.012 c -0.165,0.002 -0.351,-0.066 -0.477,-0.19 -0.125,-0.123 -0.193,-0.288 -0.193,-0.463 l -0.031,-3.651 c 0,-0.36 0.301,-0.661 0.671,-0.666 l 2.359,-0.011 c 0.305,-0.002 0.568,-0.216 0.632,-0.514 0.349,-1.624 0.995,-3.167 1.918,-4.588 0.169,-0.259 0.131,-0.602 -0.088,-0.819 l -1.727,-1.697 c -0.124,-0.121 -0.192,-0.284 -0.192,-0.463 -10e-4,-0.181 0.066,-0.349 0.19,-0.476 l 2.564,-2.592 c 0.123,-0.124 0.285,-0.192 0.46,-0.194 0.003,0 0.005,0 0.007,0 0.179,0 0.346,0.068 0.471,0.191 l 1.797,1.775 c 0.214,0.21 0.542,0.247 0.798,0.091 1.401,-0.864 2.913,-1.464 4.493,-1.783 0.305,-0.062 0.523,-0.33 0.521,-0.642 l -0.02,-2.637 c 0,-0.366 0.297,-0.67 0.661,-0.675 l 1.309,-0.01 c 0.359,-0.003 0.647,-0.296 0.645,-0.655 -0.003,-0.358 -0.294,-0.646 -0.65,-0.646" /><path
         inkscape:connector-curvature="0"
         id="path1555"
         style="fill:#100f0d;fill-opacity:1;fill-rule:nonzero;stroke:none;stroke-width:0.1"
         d="m 436.386,490.794 c -0.017,0 -0.033,0.001 -0.05,0.002 -4.171,0.311 -7.42,3.814 -7.397,7.975 0.035,4.154 3.326,7.617 7.493,7.884 0.35,0.026 0.668,-0.248 0.69,-0.606 0.024,-0.359 -0.248,-0.668 -0.606,-0.691 -3.492,-0.224 -6.248,-3.122 -6.276,-6.596 -0.02,-3.479 2.7,-6.408 6.194,-6.669 0.357,-0.028 0.626,-0.339 0.599,-0.697 -0.025,-0.341 -0.31,-0.602 -0.647,-0.602" /><path
         inkscape:connector-curvature="0"
         id="path1557"
         style="fill:#100f0d;fill-opacity:1;fill-rule:nonzero;stroke:none;stroke-width:0.1"
         d="m 379.555,506.902 c -6.004,-0.339 -10.785,-5.329 -10.785,-11.416 0,-6.307 5.129,-11.438 11.435,-11.438 6.088,0 11.079,4.782 11.418,10.788 h -11.418 c -0.359,0 -0.65,0.291 -0.65,0.65 z m 0.65,-24.155 c -7.022,0 -12.736,5.715 -12.736,12.739 0,7.022 5.714,12.735 12.736,12.735 0.359,0 0.65,-0.291 0.65,-0.651 v -11.433 h 11.436 c 0.359,0 0.65,-0.291 0.65,-0.651 0,-7.024 -5.713,-12.739 -12.736,-12.739" /><path
         inkscape:connector-curvature="0"
         id="path1559"
         style="fill:#100f0d;fill-opacity:1;fill-rule:nonzero;stroke:none;stroke-width:0.1"
         d="m 382.874,498.144 h 10.768 c -0.327,5.789 -4.979,10.442 -10.768,10.768 z m 11.436,-1.301 h -12.086 c -0.36,0 -0.651,0.291 -0.651,0.65 v 12.087 c 0,0.359 0.291,0.65 0.651,0.65 7.022,0 12.736,-5.713 12.736,-12.737 0,-0.359 -0.291,-0.65 -0.65,-0.65" /><path
         inkscape:connector-curvature="0"
         id="path1561"
         style="fill:#100f0d;fill-opacity:1;fill-rule:nonzero;stroke:none;stroke-width:0.1"
         d="m 413.808,482.769 h -34.029 c -0.359,0 -0.65,0.291 -0.65,0.65 0,0.359 0.291,0.65 0.65,0.65 h 34.029 c 0.359,0 0.65,-0.291 0.65,-0.65 0,-0.359 -0.291,-0.65 -0.65,-0.65" /><path
         inkscape:connector-curvature="0"
         id="path1563"
         style="fill:#100f0d;fill-opacity:1;fill-rule:nonzero;stroke:none;stroke-width:0.1"
         d="m 413.808,487.867 h -23.769 c -0.359,0 -0.65,0.291 -0.65,0.651 0,0.359 0.291,0.65 0.65,0.65 h 23.769 c 0.359,0 0.65,-0.291 0.65,-0.65 0,-0.36 -0.291,-0.651 -0.65,-0.651" /><path
         inkscape:connector-curvature="0"
         id="path1565"
         style="fill:#100f0d;fill-opacity:1;fill-rule:nonzero;stroke:none;stroke-width:0.1"
         d="m 413.808,492.258 h -21.527 c -0.359,0 -0.65,0.291 -0.65,0.65 0,0.36 0.291,0.651 0.65,0.651 h 21.527 c 0.359,0 0.65,-0.291 0.65,-0.651 0,-0.359 -0.291,-0.65 -0.65,-0.65" /><path
         inkscape:connector-curvature="0"
         id="path1567"
         style="fill:#100f0d;fill-opacity:1;fill-rule:nonzero;stroke:none;stroke-width:0.1"
         d="m 413.808,496.843 h -21.527 c -0.359,0 -0.65,0.291 -0.65,0.65 0,0.36 0.291,0.651 0.65,0.651 h 21.527 c 0.359,0 0.65,-0.291 0.65,-0.651 0,-0.359 -0.291,-0.65 -0.65,-0.65" /><path
         inkscape:connector-curvature="0"
         id="path1569"
         style="fill:#100f0d;fill-opacity:1;fill-rule:nonzero;stroke:none;stroke-width:0.1"
         d="m 413.808,501.307 h -20.397 c -0.359,0 -0.65,0.291 -0.65,0.65 0,0.359 0.291,0.65 0.65,0.65 h 20.397 c 0.359,0 0.65,-0.291 0.65,-0.65 0,-0.359 -0.291,-0.65 -0.65,-0.65" /><path
         inkscape:connector-curvature="0"
         id="path1571"
         style="fill:#100f0d;fill-opacity:1;fill-rule:nonzero;stroke:none;stroke-width:0.1"
         d="m 413.808,505.962 h -23.779 c -0.359,0 -0.65,0.291 -0.65,0.65 0,0.36 0.291,0.651 0.65,0.651 h 23.779 c 0.359,0 0.65,-0.291 0.65,-0.651 0,-0.359 -0.291,-0.65 -0.65,-0.65" /></g></g></svg>