<?xml version="1.0" encoding="UTF-8" standalone="no"?>
<svg
   xmlns:dc="http://purl.org/dc/elements/1.1/"
   xmlns:cc="http://creativecommons.org/ns#"
   xmlns:rdf="http://www.w3.org/1999/02/22-rdf-syntax-ns#"
   xmlns:svg="http://www.w3.org/2000/svg"
   xmlns="http://www.w3.org/2000/svg"
   xmlns:sodipodi="http://sodipodi.sourceforge.net/DTD/sodipodi-0.dtd"
   xmlns:inkscape="http://www.inkscape.org/namespaces/inkscape"
   version="1.1"
   id="svg2"
   xml:space="preserve"
   width="1116.7445"
   height="138.65242"
   viewBox="0 0 1116.7445 138.65241"
   sodipodi:docname="fye.svg"
   inkscape:version="0.92.2 (5c3e80d, 2017-08-06)"
   inkscape:export-filename="C:\xampp\htdocs\FTLS\FYI.png"
   inkscape:export-xdpi="83.085457"
   inkscape:export-ydpi="83.085457"><metadata
     id="metadata8"><rdf:RDF><cc:Work
         rdf:about=""><dc:format>image/svg+xml</dc:format><dc:type
           rdf:resource="http://purl.org/dc/dcmitype/StillImage" /><dc:title /></cc:Work></rdf:RDF></metadata><defs
     id="defs6" /><sodipodi:namedview
     pagecolor="#ffffff"
     bordercolor="#666666"
     borderopacity="1"
     objecttolerance="10"
     gridtolerance="10"
     guidetolerance="10"
     inkscape:pageopacity="0"
     inkscape:pageshadow="2"
     inkscape:window-width="1920"
     inkscape:window-height="1017"
     id="namedview4"
     showgrid="false"
     inkscape:zoom="0.65229037"
     inkscape:cx="-213.4462"
     inkscape:cy="-254.62101"
     inkscape:window-x="1912"
     inkscape:window-y="-8"
     inkscape:window-maximized="1"
     inkscape:current-layer="g10"
     showborder="false"
     fit-margin-top="0"
     fit-margin-left="0"
     fit-margin-right="0"
     fit-margin-bottom="0"
     showguides="true"
     inkscape:guide-bbox="true"><sodipodi:guide
       position="164.03737,187.03326"
       orientation="1,0"
       id="guide1439"
       inkscape:locked="false" /></sodipodi:namedview><g
     inkscape:groupmode="layer"
     id="layer1"
     inkscape:label="outline"
     style="display:none;opacity:0.125"
     transform="translate(260.19213,244.43772)"
     sodipodi:insensitive="true"><rect
       style="opacity:1;fill:none;fill-opacity:1;stroke:#000000;stroke-width:5.27622032;stroke-miterlimit:4;stroke-dasharray:none;stroke-opacity:1"
       id="rect208"
       width="1111.4683"
       height="133.37621"
       x="-257.55402"
       y="-241.79961" /><rect
       style="opacity:1;fill:none;fill-opacity:1;stroke:#000000;stroke-width:5.27622032;stroke-miterlimit:4;stroke-dasharray:none;stroke-opacity:1"
       id="rect1031"
       width="124.1778"
       height="107.31411"
       x="-243.75648"
       y="-230.30167" /><path
       style="fill:none;stroke:#000000;stroke-width:1px;stroke-linecap:butt;stroke-linejoin:miter;stroke-opacity:1"
       d="m -104.24805,-124.52054 938.23246,1.53306"
       id="path1033"
       inkscape:connector-curvature="0"
       sodipodi:nodetypes="cc" /></g><g
     id="g10"
     inkscape:groupmode="layer"
     inkscape:label="FYI"
     transform="matrix(1.3333333,0,0,-1.3333333,260.19213,1311.1044)"
     style="display:inline"><flowRoot
       xml:space="preserve"
       id="flowRoot1358"
       style="font-style:normal;font-weight:normal;font-size:40px;line-height:1.25;font-family:sans-serif;letter-spacing:0px;word-spacing:0px;fill:#000000;fill-opacity:1;stroke:none"><flowRegion
         id="flowRegion1360"><rect
           id="rect1362"
           width="364.67142"
           height="151.20522"
           x="85.386475"
           y="234.14859" /></flowRegion><flowPara
         id="flowPara1364" /></flowRoot><flowRoot
       xml:space="preserve"
       id="flowRoot1366"
       style="font-style:normal;font-weight:normal;font-size:40px;line-height:1.25;font-family:sans-serif;letter-spacing:0px;word-spacing:0px;fill:#000000;fill-opacity:1;stroke:none"><flowRegion
         id="flowRegion1368"><rect
           id="rect1370"
           width="663.52411"
           height="158.32076"
           x="78.270935"
           y="200.34978" /></flowRegion><flowPara
         id="flowPara1372" /></flowRoot><g
       aria-label="First Year Experience"
       transform="matrix(0.52193009,0,0,-0.52193009,-144.19278,1154.6167)"
       style="font-style:normal;font-weight:normal;font-size:40px;line-height:1.25;font-family:sans-serif;letter-spacing:0px;word-spacing:0px;fill:#000000;fill-opacity:1;stroke:none"
       id="flowRoot1382"><path
         d="m 141.25755,396.21152 h 6.87053 v 48.96938 h -6.87053 z m 3.3679,21.82404 h 23.74376 v 6.53375 h -23.74376 z m 0,-21.82404 h 27.44845 v 6.53374 h -27.44845 z"
         style="font-style:normal;font-variant:normal;font-weight:normal;font-stretch:normal;font-size:68.97475433px;font-family:Bahnschrift;-inkscape-font-specification:Bahnschrift"
         id="path842"
         inkscape:connector-curvature="0" /><path
         d="m 180.19056,396.21152 h 6.87054 v 6.87053 h -6.87054 z m 0,14.0105 h 6.87054 v 34.95888 h -6.87054 z"
         style="font-style:normal;font-variant:normal;font-weight:normal;font-stretch:normal;font-size:68.97475433px;font-family:Bahnschrift;-inkscape-font-specification:Bahnschrift"
         id="path844"
         inkscape:connector-curvature="0" /><path
         d="m 197.56897,410.22202 h 6.87053 v 34.95888 h -6.87053 z m 19.23075,8.28505 q -0.90934,-1.11141 -2.29018,-1.68395 -1.38084,-0.57255 -3.19951,-0.57255 -3.26687,0 -5.08554,1.81867 -1.78499,1.78499 -1.78499,4.98451 l -0.70726,-6.73582 q 1.61659,-3.13215 4.1762,-4.84979 2.55961,-1.75131 5.65809,-1.75131 2.39121,0 4.31092,0.70726 1.95339,0.67358 3.40159,2.02075 z"
         style="font-style:normal;font-variant:normal;font-weight:normal;font-stretch:normal;font-size:68.97475433px;font-family:Bahnschrift;-inkscape-font-specification:Bahnschrift"
         id="path846"
         inkscape:connector-curvature="0" /><path
         d="m 239.43206,445.68609 q -3.09847,0 -5.82648,-0.60623 -2.69432,-0.60622 -5.05186,-1.81867 -2.35753,-1.21244 -4.3446,-3.03111 v 0 l 4.07517,-5.01819 v 0 q 2.82904,2.15547 5.62441,3.2332 2.79536,1.07773 5.52336,1.07773 4.07517,0 6.09592,-1.24613 2.05442,-1.2798 2.05442,-3.80574 0,-1.68395 -1.11141,-2.52593 -1.11141,-0.84197 -2.76168,-1.11141 -1.65028,-0.30311 -4.64772,-0.53886 -0.26943,0 -0.57254,0 -0.30311,-0.0337 -0.57254,-0.0674 -0.13472,0 -0.26944,0 -0.13471,-0.0337 -0.26943,-0.0337 -3.40159,-0.26943 -5.75912,-0.97669 -2.35754,-0.74094 -3.94045,-2.72801 -1.54924,-1.98706 -1.54924,-5.69176 0,-3.7047 1.51556,-6.16327 1.51555,-2.45858 4.51299,-3.67102 2.99744,-1.24613 7.51044,-1.24613 2.728,0 5.18658,0.50519 2.49225,0.50518 4.74875,1.51556 2.25649,0.97669 4.3446,2.49225 v 0 l -4.14253,5.01818 v 0 q -2.62697,-1.68395 -5.18658,-2.52593 -2.52593,-0.84198 -4.95082,-0.84198 -3.50263,0 -5.25394,1.21245 -1.75131,1.17877 -1.75131,3.56998 0,1.41452 0.97669,2.12178 1.01037,0.70727 2.52593,0.94302 1.51556,0.23575 4.31093,0.40415 0.20207,0.0337 0.40414,0.0337 0.23576,0 0.47151,0.0337 0.10104,0 0.20208,0 0.10103,0 0.20207,0.0337 3.67102,0.23576 6.23063,0.9767 2.59329,0.74094 4.3446,2.93008 1.75131,2.18914 1.75131,6.33166 0,3.77206 -1.61659,6.26431 -1.6166,2.45858 -4.88347,3.7047 -3.23319,1.24613 -8.15034,1.24613 z"
         style="font-style:normal;font-variant:normal;font-weight:normal;font-stretch:normal;font-size:68.97475433px;font-family:Bahnschrift;-inkscape-font-specification:Bahnschrift"
         id="path848"
         inkscape:connector-curvature="0" /><path
         d="m 271.99973,445.3493 q -4.24356,0 -6.23062,-2.32386 -1.95339,-2.35753 -1.95339,-6.93789 v -36.03661 h 6.87053 v 36.10397 q 0,1.2798 0.50519,1.98706 0.50518,0.67359 1.48188,0.67359 h 3.30055 v 6.53374 z m -11.78767,-35.12728 h 15.76181 v 6.19695 h -15.76181 z"
         style="font-style:normal;font-variant:normal;font-weight:normal;font-stretch:normal;font-size:68.97475433px;font-family:Bahnschrift;-inkscape-font-specification:Bahnschrift"
         id="path850"
         inkscape:connector-curvature="0" /><path
         d="m 319.38619,425.27657 v 19.90433 h -6.87053 v -19.90433 l -14.91983,-29.06505 h 7.64515 l 10.70995,22.09348 10.70994,-22.09348 h 7.64516 z"
         style="font-style:normal;font-variant:normal;font-weight:normal;font-stretch:normal;font-size:68.97475433px;font-family:Bahnschrift;-inkscape-font-specification:Bahnschrift"
         id="path852"
         inkscape:connector-curvature="0" /><path
         d="m 350.10152,445.68609 q -4.84978,0 -8.28505,-1.81867 -3.43527,-1.81867 -5.25394,-5.3213 -1.78499,-3.5363 -1.78499,-8.5208 v -3.94046 q 0,-5.18657 1.71763,-8.85759 1.75132,-3.67102 5.05187,-5.59073 3.30055,-1.91971 7.94826,-1.91971 4.37828,0 7.47676,2.18914 3.09847,2.18914 4.71507,6.33167 1.65027,4.14253 1.65027,9.93533 v 2.29017 h -23.57535 v -5.52336 h 17.04161 v 0 q -0.30311,-4.27725 -2.22282,-6.63478 -1.88603,-2.39122 -5.08554,-2.39122 -3.90677,0 -6.06223,2.55961 -2.12179,2.55961 -2.12179,7.241 v 4.44564 q 0,4.3446 2.29018,6.66846 2.29018,2.32386 6.50006,2.32386 2.08811,0 4.14253,-0.84198 2.05442,-0.84198 3.67102,-2.35754 v 0 l 4.513,4.513 v 0 q -2.59329,2.49225 -5.82648,3.8731 -3.2332,1.34716 -6.50007,1.34716 z"
         style="font-style:normal;font-variant:normal;font-weight:normal;font-stretch:normal;font-size:68.97475433px;font-family:Bahnschrift;-inkscape-font-specification:Bahnschrift"
         id="path854"
         inkscape:connector-curvature="0" /><path
         d="m 392.57084,423.02007 q 0,-3.43527 -1.85235,-5.3213 -1.81867,-1.9197 -5.18658,-1.9197 -2.0881,0 -4.10885,0.6399 -1.98706,0.6399 -3.5363,1.78499 l -5.01818,-3.43527 q 1.98706,-2.39121 5.22025,-3.7047 3.26687,-1.34716 7.241,-1.34716 4.34461,0 7.44308,1.54924 3.09848,1.51556 4.71507,4.44564 1.6166,2.8964 1.6166,7.00525 v 22.46394 h -6.53374 z m -8.55449,22.66602 q -6.46638,0 -9.6659,-2.66065 -3.19951,-2.69433 -3.19951,-8.15034 0,-5.18657 2.93008,-7.77986 2.93008,-2.59329 8.8576,-2.59329 h 9.93533 l 0.47151,5.52337 H 382.9723 q -2.69433,0 -4.04149,1.21244 -1.31348,1.17877 -1.31348,3.63734 0,2.66065 1.75131,3.94046 1.78499,1.2798 5.38865,1.2798 3.94045,0 5.86016,-0.84198 1.95339,-0.84197 1.95339,-2.62696 l 0.70726,4.91714 q -0.90934,1.41452 -2.2565,2.32386 -1.31349,0.90933 -3.0648,1.34716 -1.75131,0.47151 -3.94045,0.47151 z"
         style="font-style:normal;font-variant:normal;font-weight:normal;font-stretch:normal;font-size:68.97475433px;font-family:Bahnschrift;-inkscape-font-specification:Bahnschrift"
         id="path856"
         inkscape:connector-curvature="0" /><path
         d="m 409.61244,410.22202 h 6.87053 v 34.95888 h -6.87053 z m 19.23075,8.28505 q -0.90933,-1.11141 -2.29018,-1.68395 -1.38084,-0.57255 -3.19951,-0.57255 -3.26687,0 -5.08554,1.81867 -1.78499,1.78499 -1.78499,4.98451 l -0.70726,-6.73582 q 1.6166,-3.13215 4.17621,-4.84979 2.55961,-1.75131 5.65808,-1.75131 2.39122,0 4.31092,0.70726 1.95339,0.67358 3.40159,2.02075 z"
         style="font-style:normal;font-variant:normal;font-weight:normal;font-stretch:normal;font-size:68.97475433px;font-family:Bahnschrift;-inkscape-font-specification:Bahnschrift"
         id="path858"
         inkscape:connector-curvature="0" /><path
         d="m 458.37977,396.21152 h 6.87053 v 48.96938 h -6.87053 z m 3.33423,42.43564 h 28.12203 v 6.53374 H 461.714 Z m 0,-21.04942 h 24.41733 v 6.53374 H 461.714 Z m 0,-21.38622 h 28.12203 v 6.53374 H 461.714 Z"
         style="font-style:normal;font-variant:normal;font-weight:normal;font-stretch:normal;font-size:68.97475433px;font-family:Bahnschrift;-inkscape-font-specification:Bahnschrift"
         id="path860"
         inkscape:connector-curvature="0" /><path
         d="m 508.96573,429.28438 -12.86541,-19.06236 h 7.64515 l 10.03637,15.66077 13.23588,19.29811 h -7.61148 z m -0.20208,-3.40159 3.30055,6.33167 -8.89127,12.96644 h -7.61147 z m 2.4249,-3.26687 7.64515,-12.3939 h 7.64515 l -12.3939,18.86028 z"
         style="font-style:normal;font-variant:normal;font-weight:normal;font-stretch:normal;font-size:68.97475433px;font-family:Bahnschrift;-inkscape-font-specification:Bahnschrift"
         id="path862"
         inkscape:connector-curvature="0" /><path
         d="m 534.62919,410.22202 h 6.87053 v 49.17145 h -6.87053 z m 15.66077,35.46407 q -3.26687,0 -5.69176,-1.54924 -2.42489,-1.58292 -3.56998,-4.44564 l 0.4715,-7.30836 q 0,2.2565 0.8083,3.83942 0.8083,1.58291 2.32386,2.42489 1.54924,0.84198 3.73838,0.84198 3.40158,0 5.25393,-2.05443 1.88603,-2.0881 1.88603,-5.86016 v -7.57779 q 0,-3.83941 -1.88603,-5.9612 -1.85235,-2.12178 -5.25393,-2.12178 -2.18914,0 -3.73838,0.8083 -1.51556,0.8083 -2.32386,2.39121 -0.8083,1.54924 -0.8083,3.73838 l -0.70726,-6.73581 q 1.58292,-3.0648 4.14253,-4.71507 2.55961,-1.68396 5.69176,-1.68396 3.7047,0 6.33167,1.68396 2.66065,1.65027 4.04149,4.84978 1.38084,3.19952 1.38084,7.71251 v 7.61147 q 0,4.44564 -1.41452,7.61148 -1.41452,3.16583 -4.14252,4.84978 -2.72801,1.65028 -6.53375,1.65028 z"
         style="font-style:normal;font-variant:normal;font-weight:normal;font-stretch:normal;font-size:68.97475433px;font-family:Bahnschrift;-inkscape-font-specification:Bahnschrift"
         id="path864"
         inkscape:connector-curvature="0" /><path
         d="m 586.52865,445.68609 q -4.84979,0 -8.28506,-1.81867 -3.43526,-1.81867 -5.25393,-5.3213 -1.78499,-3.5363 -1.78499,-8.5208 v -3.94046 q 0,-5.18657 1.71763,-8.85759 1.75131,-3.67102 5.05186,-5.59073 3.30055,-1.91971 7.94826,-1.91971 4.37828,0 7.47676,2.18914 3.09847,2.18914 4.71507,6.33167 1.65028,4.14253 1.65028,9.93533 v 2.29017 h -23.57536 v -5.52336 h 17.04161 v 0 q -0.30311,-4.27725 -2.22282,-6.63478 -1.88602,-2.39122 -5.08554,-2.39122 -3.90677,0 -6.06223,2.55961 -2.12178,2.55961 -2.12178,7.241 v 4.44564 q 0,4.3446 2.29017,6.66846 2.29018,2.32386 6.50007,2.32386 2.0881,0 4.14252,-0.84198 2.05443,-0.84198 3.67102,-2.35754 v 0 l 4.513,4.513 v 0 q -2.59329,2.49225 -5.82648,3.8731 -3.23319,1.34716 -6.50006,1.34716 z"
         style="font-style:normal;font-variant:normal;font-weight:normal;font-stretch:normal;font-size:68.97475433px;font-family:Bahnschrift;-inkscape-font-specification:Bahnschrift"
         id="path866"
         inkscape:connector-curvature="0" /><path
         d="m 609.26204,410.22202 h 6.87053 v 34.95888 h -6.87053 z m 19.23075,8.28505 q -0.90934,-1.11141 -2.29018,-1.68395 -1.38084,-0.57255 -3.19951,-0.57255 -3.26687,0 -5.08554,1.81867 -1.78499,1.78499 -1.78499,4.98451 l -0.70726,-6.73582 q 1.61659,-3.13215 4.1762,-4.84979 2.55961,-1.75131 5.65809,-1.75131 2.39121,0 4.31092,0.70726 1.95339,0.67358 3.40159,2.02075 z"
         style="font-style:normal;font-variant:normal;font-weight:normal;font-stretch:normal;font-size:68.97475433px;font-family:Bahnschrift;-inkscape-font-specification:Bahnschrift"
         id="path868"
         inkscape:connector-curvature="0" /><path
         d="m 638.7649,396.21152 h 6.87054 v 6.87053 h -6.87054 z m 0,14.0105 h 6.87054 v 34.95888 h -6.87054 z"
         style="font-style:normal;font-variant:normal;font-weight:normal;font-stretch:normal;font-size:68.97475433px;font-family:Bahnschrift;-inkscape-font-specification:Bahnschrift"
         id="path870"
         inkscape:connector-curvature="0" /><path
         d="m 670.4569,445.68609 q -4.84979,0 -8.28505,-1.81867 -3.43527,-1.81867 -5.25394,-5.3213 -1.78499,-3.5363 -1.78499,-8.5208 v -3.94046 q 0,-5.18657 1.71763,-8.85759 1.75131,-3.67102 5.05186,-5.59073 3.30055,-1.91971 7.94827,-1.91971 4.37828,0 7.47675,2.18914 3.09848,2.18914 4.71507,6.33167 1.65028,4.14253 1.65028,9.93533 v 2.29017 h -23.57536 v -5.52336 h 17.04162 v 0 q -0.30311,-4.27725 -2.22282,-6.63478 -1.88603,-2.39122 -5.08554,-2.39122 -3.90678,0 -6.06224,2.55961 -2.12178,2.55961 -2.12178,7.241 v 4.44564 q 0,4.3446 2.29018,6.66846 2.29018,2.32386 6.50006,2.32386 2.0881,0 4.14253,-0.84198 2.05442,-0.84198 3.67102,-2.35754 v 0 l 4.51299,4.513 v 0 q -2.59329,2.49225 -5.82648,3.8731 -3.23319,1.34716 -6.50006,1.34716 z"
         style="font-style:normal;font-variant:normal;font-weight:normal;font-stretch:normal;font-size:68.97475433px;font-family:Bahnschrift;-inkscape-font-specification:Bahnschrift"
         id="path872"
         inkscape:connector-curvature="0" /><path
         d="m 693.19029,410.22202 h 6.87053 v 34.95888 h -6.87053 z m 21.21782,13.77474 q 0,-3.7047 -1.91971,-5.72544 -1.91971,-2.02075 -5.38865,-2.02075 -3.36791,0 -5.22026,1.78499 -1.81867,1.785 -1.81867,5.01819 l -0.70726,-6.73582 q 1.6166,-3.16583 4.20988,-4.88347 2.62697,-1.71763 5.79281,-1.71763 5.69176,0 8.79024,3.73838 3.13215,3.7047 3.13215,10.50787 v 21.21782 h -6.87053 z"
         style="font-style:normal;font-variant:normal;font-weight:normal;font-stretch:normal;font-size:68.97475433px;font-family:Bahnschrift;-inkscape-font-specification:Bahnschrift"
         id="path874"
         inkscape:connector-curvature="0" /><path
         d="m 745.83069,445.68609 q -4.78243,0 -8.18401,-1.78499 -3.36791,-1.78499 -5.1529,-5.18658 -1.78499,-3.40159 -1.78499,-8.2177 v -5.75912 q 0,-4.74875 1.78499,-8.11666 1.78499,-3.3679 5.1529,-5.11922 3.40158,-1.78499 8.18401,-1.78499 2.72801,0 5.11922,0.67358 2.4249,0.63991 4.3446,1.88603 1.91971,1.24613 3.19952,3.03112 v 0 l -4.95083,4.44564 v 0 q -1.48188,-1.68396 -3.46894,-2.59329 -1.98707,-0.90934 -4.14253,-0.90934 -3.97413,0 -6.16327,2.22282 -2.18914,2.22282 -2.18914,6.26431 v 5.75912 q 0,4.14253 2.15546,6.39903 2.18914,2.2565 6.19695,2.2565 2.18914,0 4.17621,-0.9767 1.98706,-0.97669 3.43526,-2.76168 v 0 l 4.95083,4.78243 v 0 q -1.31349,1.75131 -3.2332,2.99744 -1.9197,1.21244 -4.3446,1.85235 -2.39121,0.6399 -5.08554,0.6399 z"
         style="font-style:normal;font-variant:normal;font-weight:normal;font-stretch:normal;font-size:68.97475433px;font-family:Bahnschrift;-inkscape-font-specification:Bahnschrift"
         id="path876"
         inkscape:connector-curvature="0" /><path
         d="m 780.38543,445.68609 q -4.84979,0 -8.28506,-1.81867 -3.43526,-1.81867 -5.25393,-5.3213 -1.78499,-3.5363 -1.78499,-8.5208 v -3.94046 q 0,-5.18657 1.71763,-8.85759 1.75131,-3.67102 5.05186,-5.59073 3.30055,-1.91971 7.94826,-1.91971 4.37828,0 7.47676,2.18914 3.09848,2.18914 4.71507,6.33167 1.65028,4.14253 1.65028,9.93533 v 2.29017 h -23.57536 v -5.52336 h 17.04161 v 0 q -0.30311,-4.27725 -2.22281,-6.63478 -1.88603,-2.39122 -5.08555,-2.39122 -3.90677,0 -6.06223,2.55961 -2.12178,2.55961 -2.12178,7.241 v 4.44564 q 0,4.3446 2.29018,6.66846 2.29017,2.32386 6.50006,2.32386 2.0881,0 4.14252,-0.84198 2.05443,-0.84198 3.67102,-2.35754 v 0 l 4.513,4.513 v 0 q -2.59329,2.49225 -5.82648,3.8731 -3.23319,1.34716 -6.50006,1.34716 z"
         style="font-style:normal;font-variant:normal;font-weight:normal;font-stretch:normal;font-size:68.97475433px;font-family:Bahnschrift;-inkscape-font-specification:Bahnschrift"
         id="path878"
         inkscape:connector-curvature="0" /></g><g
       transform="translate(-670.88723,701.12475)"
       id="g1383"><path
         d="m 519.783,224.64 h 20.578 v 17.397 c 0,8.221 -2.643,16.473 -7.443,23.237 l -1.527,1.876 c -0.048,0.049 -0.126,0.13 -0.208,0.205 -0.678,0.681 -1.745,0.659 -2.38,0.021 -0.095,-0.091 -0.178,-0.172 -0.253,-0.255 l -1.321,-1.85 c -4.871,-6.858 -7.446,-14.955 -7.446,-23.412 z m 21.229,-1.301 h -21.879 c -0.36,0 -0.651,0.291 -0.651,0.65 v 17.87 c 0,8.728 2.66,17.085 7.689,24.167 l 1.371,1.913 c 0.146,0.165 0.25,0.27 0.353,0.367 1.096,1.104 3.062,1.119 4.188,-0.014 0.086,-0.078 0.189,-0.183 0.288,-0.289 l 1.581,-1.942 c 4.981,-7.017 7.71,-15.537 7.71,-24.024 v -18.048 c 0,-0.359 -0.291,-0.65 -0.65,-0.65"
         style="fill:#100f0d;fill-opacity:1;fill-rule:nonzero;stroke:none;stroke-width:0.1"
         id="path588"
         inkscape:connector-curvature="0" /><path
         d="m 541.662,220.993 h 4.171 v 4.551 l -4.171,4.167 z m 4.821,-1.301 h -5.471 c -0.36,0 -0.651,0.291 -0.651,0.651 v 10.935 c 0,0.263 0.159,0.5 0.402,0.601 0.24,0.1 0.522,0.045 0.708,-0.141 l 5.471,-5.465 c 0.122,-0.122 0.192,-0.287 0.192,-0.46 v -5.47 c 0,-0.36 -0.291,-0.651 -0.651,-0.651"
         style="fill:#100f0d;fill-opacity:1;fill-rule:nonzero;stroke:none;stroke-width:0.1"
         id="path590"
         inkscape:connector-curvature="0" /><path
         d="m 523.453,211.877 h 13.229 c -0.085,0.825 -0.329,1.655 -0.72,2.431 l -0.832,1.741 h -10.115 l -0.827,-1.73 c -0.408,-0.678 -0.656,-1.518 -0.735,-2.442 z m 13.932,-1.301 c -0.005,-0.001 -0.012,0 -0.02,0 h -14.589 c -0.359,0 -0.65,0.291 -0.65,0.651 0,1.434 0.318,2.716 0.92,3.71 l 0.972,2.042 c 0.108,0.226 0.336,0.371 0.586,0.371 h 10.936 c 0.25,0 0.479,-0.145 0.587,-0.371 l 1.003,-2.099 c 0.551,-1.097 0.857,-2.302 0.884,-3.485 0.013,-0.054 0.021,-0.111 0.021,-0.168 0,-0.36 -0.291,-0.651 -0.65,-0.651"
         style="fill:#100f0d;fill-opacity:1;fill-rule:nonzero;stroke:none;stroke-width:0.1"
         id="path592"
         inkscape:connector-curvature="0" /><path
         d="m 514.319,220.993 h 4.163 v 8.716 l -4.163,-4.165 z m 4.814,-1.301 h -5.464 c -0.359,0 -0.65,0.291 -0.65,0.651 v 5.47 c 0,0.173 0.069,0.338 0.19,0.46 l 5.464,5.465 c 0.187,0.186 0.465,0.241 0.709,0.141 0.242,-0.101 0.401,-0.338 0.401,-0.601 v -10.935 c 0,-0.36 -0.291,-0.651 -0.65,-0.651"
         style="fill:#100f0d;fill-opacity:1;fill-rule:nonzero;stroke:none;stroke-width:0.1"
         id="path594"
         inkscape:connector-curvature="0" /><path
         d="m 530.072,243.644 c -0.84,0 -1.647,-0.345 -2.274,-0.97 -0.627,-0.625 -0.974,-1.432 -0.975,-2.271 -10e-4,-0.841 0.346,-1.653 0.976,-2.284 1.251,-1.248 3.293,-1.249 4.544,0.001 0.631,0.63 0.976,1.442 0.975,2.283 -10e-4,0.839 -0.346,1.646 -0.974,2.27 -0.626,0.626 -1.433,0.971 -2.272,0.971 z m 0,-7.793 c -1.187,0 -2.32,0.479 -3.192,1.349 -0.876,0.877 -1.358,2.016 -1.357,3.205 0.002,1.187 0.484,2.32 1.357,3.19 0.872,0.869 2.005,1.348 3.192,1.348 1.187,0 2.32,-0.479 3.191,-1.349 0.872,-0.869 1.354,-2.002 1.356,-3.189 10e-4,-1.189 -0.48,-2.328 -1.356,-3.204 -0.871,-0.871 -2.004,-1.35 -3.191,-1.35 z m 0.002,10.368 c -1.531,0 -2.987,-0.614 -4.1,-1.728 -2.295,-2.296 -2.295,-5.897 0,-8.198 1.113,-1.109 2.569,-1.722 4.1,-1.722 1.53,0 2.986,0.613 4.098,1.723 2.294,2.3 2.294,5.901 -10e-4,8.198 -1.111,1.113 -2.567,1.727 -4.097,1.727 z m 0,-12.948 c -1.878,0 -3.66,0.748 -5.019,2.103 -2.81,2.817 -2.81,7.226 -10e-4,10.036 1.359,1.361 3.142,2.109 5.02,2.109 1.878,0 3.66,-0.749 5.017,-2.109 2.808,-2.81 2.808,-7.219 0,-10.035 -1.358,-1.356 -3.139,-2.104 -5.017,-2.104"
         style="fill:#100f0d;fill-opacity:1;fill-rule:nonzero;stroke:none;stroke-width:0.1"
         id="path596"
         inkscape:connector-curvature="0" /><path
         d="m 519.783,223.339 v -5.366 c 0,-0.368 0.257,-0.623 0.624,-0.623 h 19.33 c 0.373,0 0.624,0.25 0.624,0.623 v 5.366 z m 19.954,-7.29 h -19.33 c -1.079,0 -1.925,0.846 -1.925,1.924 v 6.016 c 0,0.36 0.291,0.651 0.651,0.651 h 21.879 c 0.359,0 0.65,-0.291 0.65,-0.651 v -6.016 c 0,-1.097 -0.828,-1.924 -1.925,-1.924"
         style="fill:#100f0d;fill-opacity:1;fill-rule:nonzero;stroke:none;stroke-width:0.1"
         id="path598"
         inkscape:connector-curvature="0" /><path
         d="m 522.235,255.637 h 15.672 c -1.167,3.239 -2.807,6.405 -4.998,9.65 l -1.509,2.035 c -0.812,0.804 -1.856,0.794 -2.514,0.143 -0.053,-0.057 -0.125,-0.128 -0.199,-0.2 l -0.037,-0.036 -1.422,-1.96 c -2.077,-2.876 -3.714,-6.036 -4.993,-9.632 z m 16.585,-1.301 h -17.496 c -0.209,0 -0.405,0.101 -0.527,0.27 -0.122,0.169 -0.155,0.388 -0.089,0.585 1.36,4.083 3.148,7.628 5.466,10.84 l 1.456,2.005 c 0.021,0.028 0.044,0.056 0.069,0.08 l 0.078,0.077 c 0.061,0.06 0.12,0.117 0.176,0.177 1.181,1.173 3.106,1.122 4.313,-0.074 l 0.28,-0.283 1.431,-1.984 c 2.46,-3.644 4.243,-7.184 5.46,-10.838 0.066,-0.197 0.033,-0.416 -0.089,-0.585 -0.122,-0.169 -0.319,-0.27 -0.528,-0.27"
         style="fill:#100f0d;fill-opacity:1;fill-rule:nonzero;stroke:none;stroke-width:0.1"
         id="path600"
         inkscape:connector-curvature="0" /><path
         d="m 525.442,193.968 c -0.355,0 -0.645,0.286 -0.65,0.642 l -0.165,13.851 c -0.004,0.359 0.283,0.653 0.643,0.658 0.002,0 0.004,0 0.007,0 0.356,0 0.646,-0.286 0.651,-0.642 l 0.165,-13.851 c 0.004,-0.359 -0.283,-0.653 -0.643,-0.658 -0.003,0 -0.005,0 -0.008,0"
         style="fill:#100f0d;fill-opacity:1;fill-rule:nonzero;stroke:none;stroke-width:0.1"
         id="path602"
         inkscape:connector-curvature="0" /><path
         d="m 514.512,190.1 c -0.053,0 -0.108,0.006 -0.162,0.02 -0.348,0.09 -0.557,0.444 -0.468,0.792 l 5.014,19.495 c 0.09,0.346 0.437,0.557 0.792,0.468 0.348,-0.09 0.557,-0.444 0.468,-0.792 l -5.014,-19.495 c -0.077,-0.293 -0.34,-0.488 -0.63,-0.488"
         style="fill:#100f0d;fill-opacity:1;fill-rule:nonzero;stroke:none;stroke-width:0.1"
         id="path604"
         inkscape:connector-curvature="0" /><path
         d="m 545.803,190.1 c -0.29,0 -0.554,0.195 -0.63,0.488 l -5.007,19.495 c -0.089,0.348 0.12,0.702 0.468,0.792 0.353,0.09 0.702,-0.122 0.792,-0.468 l 5.007,-19.495 c 0.088,-0.348 -0.12,-0.702 -0.468,-0.792 -0.055,-0.014 -0.11,-0.02 -0.162,-0.02"
         style="fill:#100f0d;fill-opacity:1;fill-rule:nonzero;stroke:none;stroke-width:0.1"
         id="path606"
         inkscape:connector-curvature="0" /><path
         d="m 529.84,193.968 c -0.356,0 -0.646,0.286 -0.651,0.642 l -0.172,13.851 c -0.004,0.358 0.283,0.653 0.642,0.658 0.003,0 0.005,0 0.008,0 0.355,0 0.646,-0.286 0.65,-0.642 l 0.173,-13.851 c 0.004,-0.358 -0.283,-0.653 -0.642,-0.658 -0.003,0 -0.005,0 -0.008,0"
         style="fill:#100f0d;fill-opacity:1;fill-rule:nonzero;stroke:none;stroke-width:0.1"
         id="path608"
         inkscape:connector-curvature="0" /><path
         d="m 534.23,193.968 c -0.355,0 -0.645,0.286 -0.65,0.642 l -0.166,13.851 c -0.004,0.359 0.283,0.653 0.643,0.658 0.003,0 0.005,0 0.007,0 0.356,0 0.646,-0.286 0.651,-0.642 l 0.166,-13.851 c 0.004,-0.359 -0.283,-0.653 -0.643,-0.658 -0.003,0 -0.005,0 -0.008,0"
         style="fill:#100f0d;fill-opacity:1;fill-rule:nonzero;stroke:none;stroke-width:0.1"
         id="path610"
         inkscape:connector-curvature="0" /></g></g></svg>