<?xml version="1.0" encoding="UTF-8" standalone="no"?>
<svg
   xmlns:dc="http://purl.org/dc/elements/1.1/"
   xmlns:cc="http://creativecommons.org/ns#"
   xmlns:rdf="http://www.w3.org/1999/02/22-rdf-syntax-ns#"
   xmlns:svg="http://www.w3.org/2000/svg"
   xmlns="http://www.w3.org/2000/svg"
   xmlns:sodipodi="http://sodipodi.sourceforge.net/DTD/sodipodi-0.dtd"
   xmlns:inkscape="http://www.inkscape.org/namespaces/inkscape"
   version="1.1"
   id="svg2"
   xml:space="preserve"
   width="1116.7445"
   height="138.65242"
   viewBox="0 0 1116.7445 138.65241"
   sodipodi:docname="induction.svg"
   inkscape:version="0.92.2 (5c3e80d, 2017-08-06)"
   inkscape:export-filename="C:\xampp\htdocs\FTLS\FYI.png"
   inkscape:export-xdpi="83.085457"
   inkscape:export-ydpi="83.085457"><metadata
     id="metadata8"><rdf:RDF><cc:Work
         rdf:about=""><dc:format>image/svg+xml</dc:format><dc:type
           rdf:resource="http://purl.org/dc/dcmitype/StillImage" /><dc:title /></cc:Work></rdf:RDF></metadata><defs
     id="defs6" /><sodipodi:namedview
     pagecolor="#ffffff"
     bordercolor="#666666"
     borderopacity="1"
     objecttolerance="10"
     gridtolerance="10"
     guidetolerance="10"
     inkscape:pageopacity="0"
     inkscape:pageshadow="2"
     inkscape:window-width="1920"
     inkscape:window-height="1017"
     id="namedview4"
     showgrid="false"
     inkscape:zoom="1.0843875"
     inkscape:cx="472.20127"
     inkscape:cy="116.40643"
     inkscape:window-x="1912"
     inkscape:window-y="-8"
     inkscape:window-maximized="1"
     inkscape:current-layer="g10"
     showborder="true"
     fit-margin-top="0"
     fit-margin-left="0"
     fit-margin-right="0"
     fit-margin-bottom="0"
     showguides="true"
     inkscape:guide-bbox="true"><sodipodi:guide
       position="164.03737,187.03326"
       orientation="1,0"
       id="guide1439"
       inkscape:locked="false" /></sodipodi:namedview><g
     inkscape:groupmode="layer"
     id="layer1"
     inkscape:label="outline"
     style="display:none;opacity:0.125"
     transform="translate(260.19213,244.43772)"
     sodipodi:insensitive="true"><rect
       style="opacity:1;fill:none;fill-opacity:1;stroke:#000000;stroke-width:5.27622032;stroke-miterlimit:4;stroke-dasharray:none;stroke-opacity:1"
       id="rect208"
       width="1111.4683"
       height="133.37621"
       x="-257.55402"
       y="-241.79961" /><rect
       style="opacity:1;fill:none;fill-opacity:1;stroke:#000000;stroke-width:5.27622032;stroke-miterlimit:4;stroke-dasharray:none;stroke-opacity:1"
       id="rect1031"
       width="124.1778"
       height="107.31411"
       x="-243.75648"
       y="-230.30167" /><path
       style="fill:none;stroke:#000000;stroke-width:1px;stroke-linecap:butt;stroke-linejoin:miter;stroke-opacity:1"
       d="m -104.24805,-124.52054 938.23246,1.53306"
       id="path1033"
       inkscape:connector-curvature="0"
       sodipodi:nodetypes="cc" /></g><g
     id="g10"
     inkscape:groupmode="layer"
     inkscape:label="Academic Advising"
     transform="matrix(1.3333333,0,0,-1.3333333,260.19213,1311.1044)"
     style="display:inline"><flowRoot
       xml:space="preserve"
       id="flowRoot1358"
       style="font-style:normal;font-weight:normal;font-size:40px;line-height:1.25;font-family:sans-serif;letter-spacing:0px;word-spacing:0px;fill:#000000;fill-opacity:1;stroke:none"><flowRegion
         id="flowRegion1360"><rect
           id="rect1362"
           width="364.67142"
           height="151.20522"
           x="85.386475"
           y="234.14859" /></flowRegion><flowPara
         id="flowPara1364" /></flowRoot><flowRoot
       xml:space="preserve"
       id="flowRoot1366"
       style="font-style:normal;font-weight:normal;font-size:40px;line-height:1.25;font-family:sans-serif;letter-spacing:0px;word-spacing:0px;fill:#000000;fill-opacity:1;stroke:none"><flowRegion
         id="flowRegion1368"><rect
           id="rect1370"
           width="663.52411"
           height="158.32076"
           x="78.270935"
           y="200.34978" /></flowRegion><flowPara
         id="flowPara1372" /></flowRoot><g
       aria-label="Induction"
       transform="scale(1,-1)"
       style="font-style:normal;font-weight:normal;font-size:37.00810242px;line-height:1.25;font-family:sans-serif;letter-spacing:0px;word-spacing:0px;fill:#000000;fill-opacity:1;stroke:none;stroke-width:0.92520249"
       id="text1392"><path
         d="m -68.233619,-922.00031 h -3.686354 v -26.2743 h 3.686354 z"
         style="font-style:normal;font-variant:normal;font-weight:normal;font-stretch:normal;font-family:Bahnschrift;-inkscape-font-specification:Bahnschrift;stroke-width:0.92520249"
         id="path35" /><path
         d="m -62.089695,-940.75734 h 3.686354 v 18.75703 h -3.686354 z m 11.384328,7.39078 q 0,-1.98774 -1.03001,-3.07196 -1.030011,-1.08423 -2.891258,-1.08423 -1.807037,0 -2.800907,0.95773 -0.975799,0.95773 -0.975799,2.69249 l -0.379478,-3.61408 q 0.867378,-1.69861 2.258795,-2.6202 1.409489,-0.92159 3.108103,-0.92159 3.053891,0 4.716364,2.00581 1.680544,1.98774 1.680544,5.63796 v 11.38432 h -3.686354 z"
         style="font-style:normal;font-variant:normal;font-weight:normal;font-stretch:normal;font-family:Bahnschrift;-inkscape-font-specification:Bahnschrift;stroke-width:0.92520249"
         id="path37" /><path
         d="m -30.755686,-948.27461 h 3.686354 v 26.2743 h -3.686354 z m -4.716365,26.59957 q -2.060021,0 -3.523721,-0.88545 -1.445629,-0.90351 -2.204584,-2.6202 -0.758955,-1.71668 -0.758955,-4.12004 v -4.13811 q 0,-2.42143 0.740885,-4.13812 0.740885,-1.71668 2.150373,-2.60213 1.427558,-0.90352 3.415298,-0.90352 1.662474,0 3.035821,0.86738 1.391418,0.86738 2.240725,2.4395 l -0.379477,3.83092 q 0,-1.19265 -0.433689,-2.04196 -0.433689,-0.8493 -1.264926,-1.28299 -0.813166,-0.45176 -1.987739,-0.45176 -1.825107,0 -2.837047,1.13843 -0.99387,1.13844 -0.99387,3.19846 v 4.0839 q 0,2.04195 0.99387,3.16231 1.01194,1.10229 2.837047,1.10229 1.174573,0 1.987739,-0.45176 0.831237,-0.46982 1.264926,-1.3372 0.433689,-0.86738 0.433689,-2.07809 l 0.252985,3.95741 q -0.560182,1.39141 -1.843177,2.33107 -1.264926,0.93966 -3.126173,0.93966 z"
         style="font-style:normal;font-variant:normal;font-weight:normal;font-stretch:normal;font-family:Bahnschrift;-inkscape-font-specification:Bahnschrift;stroke-width:0.92520249"
         id="path39" /><path
         d="m -10.155475,-940.75734 h 3.6682836 v 18.75703 h -3.6682836 z m -7.625693,11.4024 q 0,1.96967 0.99387,3.05389 1.01194,1.06615 2.837047,1.06615 1.807036,0 2.800906,-0.95773 0.99387,-0.95773 0.99387,-2.72862 l 0.2529851,3.92126 q -0.5782521,1.39142 -1.8793181,2.33108 -1.301066,0.93966 -3.198454,0.93966 -3.108102,0 -4.806716,-1.98774 -1.680544,-2.00581 -1.680544,-5.63795 v -11.4024 h 3.686354 z"
         style="font-style:normal;font-variant:normal;font-weight:normal;font-stretch:normal;font-family:Bahnschrift;-inkscape-font-specification:Bahnschrift;stroke-width:0.92520249"
         id="path41" /><path
         d="m 6.7041797,-921.72925 q -2.5659915,0 -4.3910981,-0.95773 -1.80703623,-0.95773 -2.76476544,-2.78283 -0.95772926,-1.82511 -0.95772926,-4.40917 v -3.09004 q 0,-2.54792 0.95772926,-4.35495 0.95772921,-1.80704 2.76476544,-2.7467 1.8251066,-0.95773 4.3910981,-0.95773 1.4636994,0 2.7466951,0.36141 1.3010662,0.34334 2.3310772,1.01194 1.03001,0.6686 1.716684,1.62633 v 0 l -2.656343,2.38529 v 0 q -0.795096,-0.90352 -1.8612476,-1.39142 -1.0661514,-0.4879 -2.2226546,-0.4879 -2.1323028,0 -3.3068763,1.19265 -1.1745736,1.19264 -1.1745736,3.36108 v 3.09004 q 0,2.22265 1.1565032,3.43337 1.1745736,1.21071 3.3249467,1.21071 1.1745736,0 2.240725,-0.52404 1.0661512,-0.52404 1.8431772,-1.48177 v 0 l 2.656343,2.56599 v 0 q -0.704744,0.93966 -1.734755,1.60826 -1.03001,0.65054 -2.3310765,0.99387 -1.2829958,0.34334 -2.7286248,0.34334 z"
         style="font-style:normal;font-variant:normal;font-weight:normal;font-stretch:normal;font-family:Bahnschrift;-inkscape-font-specification:Bahnschrift;stroke-width:0.92520249"
         id="path43" /><path
         d="m 22.443458,-921.90995 q -2.276865,0 -3.343017,-1.24686 -1.048081,-1.26492 -1.048081,-3.72249 v -19.33529 h 3.686354 v 19.37143 q 0,0.68667 0.271056,1.06615 0.271055,0.36141 0.795096,0.36141 h 1.770895 v 3.50565 z m -6.324626,-18.84739 h 8.456929 v 3.32495 h -8.456929 z"
         style="font-style:normal;font-variant:normal;font-weight:normal;font-stretch:normal;font-family:Bahnschrift;-inkscape-font-specification:Bahnschrift;stroke-width:0.92520249"
         id="path45" /><path
         d="m 29.635467,-948.27461 h 3.686354 v 3.68635 h -3.686354 z m 0,7.51727 h 3.686354 v 18.75703 h -3.686354 z"
         style="font-style:normal;font-variant:normal;font-weight:normal;font-stretch:normal;font-family:Bahnschrift;-inkscape-font-specification:Bahnschrift;stroke-width:0.92520249"
         id="path47" /><path
         d="m 46.151774,-921.72925 q -2.439499,0 -4.174253,-0.95773 -1.734755,-0.95773 -2.656344,-2.78283 -0.903518,-1.84318 -0.903518,-4.42724 v -3.05389 q 0,-2.54793 0.903518,-4.35496 0.921589,-1.82511 2.656344,-2.76477 1.734754,-0.95773 4.174253,-0.95773 2.439499,0 4.174254,0.95773 1.734755,0.93966 2.638273,2.76477 0.921588,1.80703 0.921588,4.35496 v 3.1081 q 0,2.56599 -0.921588,4.3911 -0.903518,1.80703 -2.638273,2.76476 -1.734755,0.95773 -4.174254,0.95773 z m 0,-3.50565 q 1.933529,0 2.98161,-1.21071 1.066151,-1.21072 1.066151,-3.39723 v -3.1081 q 0,-2.18652 -1.066151,-3.37916 -1.048081,-1.19265 -2.98161,-1.19265 -1.933529,0 -2.99968,1.19265 -1.048081,1.19264 -1.048081,3.37916 v 3.1081 q 0,2.18651 1.048081,3.39723 1.066151,1.21071 2.99968,1.21071 z"
         style="font-style:normal;font-variant:normal;font-weight:normal;font-stretch:normal;font-family:Bahnschrift;-inkscape-font-specification:Bahnschrift;stroke-width:0.92520249"
         id="path49" /><path
         d="m 59.126304,-940.75734 h 3.686354 v 18.75703 h -3.686354 z m 11.384329,7.39078 q 0,-1.98774 -1.030011,-3.07196 -1.030011,-1.08423 -2.891258,-1.08423 -1.807036,0 -2.800906,0.95773 -0.9758,0.95773 -0.9758,2.69249 l -0.379477,-3.61408 q 0.867377,-1.69861 2.258795,-2.6202 1.409488,-0.92159 3.108102,-0.92159 3.053892,0 4.716365,2.00581 1.680544,1.98774 1.680544,5.63796 v 11.38432 h -3.686354 z"
         style="font-style:normal;font-variant:normal;font-weight:normal;font-stretch:normal;font-family:Bahnschrift;-inkscape-font-specification:Bahnschrift;stroke-width:0.92520249"
         id="path51" /></g><g
       style="display:inline"
       transform="translate(-452.47651,836.27898)"
       id="g1537"><path
         d="m 287.965,91.7211 5.178,-1.3711 3.797,13.986 -5.161,1.383 z m 5.773,-3.2461 c -0.072,0 -0.145,0.0102 -0.217,0.0281 l -6.81,1.8039 c -0.216,0.0578 -0.403,0.1989 -0.514,0.395 -0.113,0.1941 -0.143,0.425 -0.083,0.6421 l 4.257,15.6299 c 0.122,0.449 0.585,0.714 1.033,0.593 l 6.791,-1.82 c 0.217,-0.058 0.401,-0.2 0.513,-0.394 0.112,-0.194 0.141,-0.425 0.082,-0.642 l -4.238,-15.613 c -0.101,-0.375 -0.442,-0.623 -0.814,-0.623"
         style="fill:#000000;fill-opacity:1;fill-rule:nonzero;stroke:none;stroke-width:0.1"
         id="path200"
         inkscape:connector-curvature="0" /><path
         d="m 295.178,91.407 0.464,-0.1468 c 1.103,-0.3481 2.286,-0.1821 3.248,0.457 l 8.797,5.8367 c 1.444,0.959 3.321,0.975 4.782,0.0391 l 3.352,-2.1442 c 0.261,-0.1679 0.57,-0.2117 0.87,-0.125 0.299,0.0871 0.536,0.291 0.667,0.575 0.194,0.4203 0.095,0.9133 -0.246,1.225 l -5.76,5.2922 c -1.017,0.936 -2.468,1.265 -3.79,0.861 l -4.413,-1.35 c -1.312,-0.402 -2.705,-0.421 -4.03,-0.052 l -1.021,0.284 z m 1.618,-2.014 c -0.556,0 -1.117,0.0851 -1.663,0.2582 l -1.236,0.391 c -0.432,0.1367 -0.679,0.5887 -0.56,1.0258 l 3.355,12.352 c 0.058,0.217 0.201,0.402 0.396,0.513 0.197,0.111 0.427,0.142 0.644,0.079 l 1.838,-0.511 c 1.012,-0.28 2.08,-0.266 3.086,0.04 l 4.413,1.35 c 1.889,0.579 3.969,0.107 5.425,-1.231 l 5.759,-5.2909 c 0.885,-0.8121 1.141,-2.089 0.637,-3.1793 -0.333,-0.7218 -0.962,-1.2636 -1.726,-1.4867 -0.764,-0.223 -1.585,-0.1043 -2.253,0.3239 l -3.352,2.1441 c -0.897,0.5738 -2.051,0.566 -2.938,-0.0242 l -8.797,-5.8367 c -0.912,-0.6063 -1.964,-0.9172 -3.028,-0.9172"
         style="fill:#000000;fill-opacity:1;fill-rule:nonzero;stroke:none;stroke-width:0.1"
         id="path202"
         inkscape:connector-curvature="0" /><path
         d="m 328.196,88.5191 c -0.318,0 -0.621,0.1797 -0.765,0.486 -0.197,0.4219 -0.016,0.925 0.407,1.1219 l 3.383,1.5832 -4.055,10.0668 -2.468,-0.365 c -1.069,-0.159 -2.17,-0.045 -3.185,0.324 l -6.519,2.374 c -0.497,0.18 -1.04,0.171 -1.531,-0.026 l -2.481,-0.998 c -0.435,-0.173 -0.926,0.035 -1.099,0.467 -0.174,0.433 0.035,0.925 0.468,1.099 l 2.482,0.999 c 0.878,0.352 1.849,0.369 2.738,0.045 l 6.519,-2.374 c 0.752,-0.274 1.568,-0.358 2.362,-0.24 l 3.127,0.461 c 0.385,0.063 0.759,-0.157 0.906,-0.519 l 4.6,-11.424 c 0.168,-0.416 -0.018,-0.8898 -0.424,-1.0801 l -4.108,-1.9211 c -0.115,-0.0547 -0.237,-0.0797 -0.357,-0.0797"
         style="fill:#000000;fill-opacity:1;fill-rule:nonzero;stroke:none;stroke-width:0.1"
         id="path204"
         inkscape:connector-curvature="0" /><path
         d="m 326.121,90.373 c -0.125,0 -0.25,-0.0371 -0.361,-0.1152 l -0.539,-0.3816 c -0.282,-0.1992 -0.349,-0.5903 -0.149,-0.8731 l 1.527,-2.1562 c 0.2,-0.2821 0.592,-0.35 0.872,-0.15 l 0.54,0.3812 c 0.282,0.2008 0.35,0.5918 0.15,0.875 l -1.528,2.1559 c -0.122,0.173 -0.315,0.264 -0.512,0.264 z m 0.993,-5.4781 c -0.727,0 -1.443,0.3403 -1.893,0.9762 l -1.527,2.157 c -0.738,1.0418 -0.49,2.4899 0.552,3.2258 l 0.539,0.382 c 1.044,0.736 2.491,0.4891 3.226,-0.5519 l 1.527,-2.1559 c 0.738,-1.0429 0.49,-2.489 -0.552,-3.2261 l -0.538,-0.3821 c -0.407,-0.2879 -0.873,-0.425 -1.334,-0.425"
         style="fill:#000000;fill-opacity:1;fill-rule:nonzero;stroke:none;stroke-width:0.1"
         id="path206"
         inkscape:connector-curvature="0" /><path
         d="m 321.358,90.8262 c -0.137,0 -0.275,-0.041 -0.395,-0.1262 l -0.562,-0.398 c -0.149,-0.1051 -0.247,-0.2641 -0.279,-0.443 -0.03,-0.1809 0.011,-0.3629 0.117,-0.511 l 3.84,-5.4242 c 0.105,-0.1488 0.263,-0.2488 0.444,-0.2789 0.18,-0.0308 0.361,0.0102 0.51,0.1153 l 0.561,0.3976 c 0.15,0.1063 0.249,0.2633 0.279,0.4442 0.032,0.18 -0.009,0.3609 -0.116,0.5109 l -3.839,5.423 c -0.133,0.1891 -0.345,0.2903 -0.56,0.2903 z m 3.285,-8.8801 c -0.135,0 -0.271,0.0109 -0.405,0.034 -0.625,0.107 -1.171,0.4508 -1.537,0.9687 l -3.84,5.4223 c -0.366,0.518 -0.509,1.1469 -0.403,1.7719 0.108,0.6242 0.451,1.1711 0.968,1.5371 l 0.563,0.398 c 0.516,0.3668 1.148,0.5078 1.77,0.402 0.625,-0.1082 1.17,-0.4512 1.537,-0.968 l 3.84,-5.4242 c 0.365,-0.5168 0.509,-1.1457 0.402,-1.7707 -0.108,-0.625 -0.451,-1.1703 -0.968,-1.5371 l -0.561,-0.3973 c -0.406,-0.2879 -0.879,-0.4367 -1.366,-0.4367"
         style="fill:#000000;fill-opacity:1;fill-rule:nonzero;stroke:none;stroke-width:0.1"
         id="path208"
         inkscape:connector-curvature="0" /><path
         d="m 318.472,88.418 c -0.14,0 -0.277,-0.043 -0.393,-0.1258 l -0.563,-0.3981 c -0.149,-0.1062 -0.248,-0.2621 -0.279,-0.4421 -0.031,-0.1809 0.01,-0.3629 0.117,-0.5122 l 2.852,-4.0289 c 0.106,-0.15 0.263,-0.25 0.443,-0.2808 0.182,-0.0313 0.363,0.0121 0.512,0.1168 l 0.562,0.398 c 0.148,0.1051 0.248,0.2629 0.278,0.443 0.032,0.1812 -0.01,0.3621 -0.116,0.5121 l -2.852,4.0289 c -0.106,0.15 -0.264,0.2481 -0.444,0.2801 -0.039,0.0058 -0.078,0.009 -0.117,0.009 z m 2.298,-7.486 c -0.135,0 -0.27,0.0121 -0.405,0.034 -0.625,0.1078 -1.171,0.4512 -1.537,0.9692 l -2.853,4.0289 c -0.365,0.5191 -0.509,1.1468 -0.402,1.7718 0.107,0.625 0.451,1.1711 0.968,1.5371 l 0.562,0.3969 c 0.517,0.366 1.145,0.5102 1.77,0.4031 0.624,-0.1082 1.17,-0.4511 1.538,-0.9679 l 2.853,-4.0301 c 0.755,-1.0691 0.502,-2.5531 -0.566,-3.3078 l -0.563,-0.3981 C 321.731,81.082 321.256,80.932 320.77,80.932"
         style="fill:#000000;fill-opacity:1;fill-rule:nonzero;stroke:none;stroke-width:0.1"
         id="path210"
         inkscape:connector-curvature="0" /><path
         d="m 315.618,85.9219 c -0.154,0 -0.303,-0.0481 -0.43,-0.1367 l -0.585,-0.4153 c -0.336,-0.2371 -0.415,-0.7039 -0.178,-1.041 l 2.347,-3.3129 c 0.114,-0.1629 0.287,-0.2711 0.483,-0.3051 0.198,-0.0328 0.395,0.0121 0.557,0.1262 l 0.585,0.4141 c 0.163,0.116 0.27,0.2879 0.305,0.4847 0.033,0.1961 -0.012,0.3942 -0.126,0.5563 l -2.347,3.3137 c -0.116,0.164 -0.287,0.2722 -0.483,0.305 -0.043,0.0071 -0.085,0.011 -0.128,0.011 z m 1.766,-6.909 c -0.763,0 -1.515,0.357 -1.99,1.0269 l -2.347,3.3141 c -0.775,1.0973 -0.514,2.6191 0.58,3.3941 l 0.585,0.4141 c 0.531,0.375 1.177,0.5231 1.818,0.4141 0.64,-0.1102 1.201,-0.4633 1.577,-0.9953 l 2.346,-3.3129 c 0.376,-0.5309 0.522,-1.177 0.413,-1.8168 -0.111,-0.641 -0.463,-1.2024 -0.995,-1.5774 l -0.583,-0.4136 c -0.425,-0.3012 -0.917,-0.4473 -1.404,-0.4473"
         style="fill:#000000;fill-opacity:1;fill-rule:nonzero;stroke:none;stroke-width:0.1"
         id="path212"
         inkscape:connector-curvature="0" /><path
         d="m 309.482,80.1551 c -0.679,0 -1.339,0.323 -1.749,0.909 -0.35,0.5 -0.469,1.1257 -0.328,1.7179 0.14,0.5918 0.529,1.0969 1.064,1.3852 l 2.376,1.2777 c 0.411,0.2211 0.922,0.068 1.143,-0.3437 0.22,-0.4102 0.067,-0.9223 -0.344,-1.1434 l -2.375,-1.2769 c -0.153,-0.0821 -0.205,-0.2168 -0.222,-0.2887 -0.017,-0.0731 -0.032,-0.2184 0.069,-0.3602 0.122,-0.175 0.354,-0.239 0.548,-0.15 l 4.274,1.95 c 0.425,0.1942 0.925,0.0059 1.118,-0.4179 0.193,-0.4231 0.006,-0.9243 -0.418,-1.118 l -4.272,-1.9492 c -0.286,-0.1297 -0.587,-0.1918 -0.884,-0.1918"
         style="fill:#000000;fill-opacity:1;fill-rule:nonzero;stroke:none;stroke-width:0.1"
         id="path214"
         inkscape:connector-curvature="0" /><path
         d="m 306.091,81.4238 c -0.804,0 -1.595,0.3871 -2.072,1.0813 -0.395,0.573 -0.533,1.2898 -0.381,1.9679 0.152,0.679 0.585,1.2692 1.186,1.6168 l 6.893,4.0032 c 0.404,0.234 0.919,0.0968 1.154,-0.3071 0.234,-0.4031 0.097,-0.9187 -0.306,-1.1531 l -6.894,-4.0027 c -0.199,-0.1153 -0.336,-0.302 -0.386,-0.5262 -0.05,-0.2238 -0.006,-0.4519 0.124,-0.6418 0.227,-0.3301 0.669,-0.4449 1.029,-0.2699 l 2.345,1.143 c 0.421,0.2027 0.923,0.0296 1.129,-0.3891 0.203,-0.4191 0.029,-0.925 -0.39,-1.1289 l -2.344,-1.1434 c -0.347,-0.1687 -0.719,-0.25 -1.087,-0.25"
         style="fill:#000000;fill-opacity:1;fill-rule:nonzero;stroke:none;stroke-width:0.1"
         id="path216"
         inkscape:connector-curvature="0" /><path
         d="m 303.653,83.8398 c -0.234,0 -0.469,0.0321 -0.7,0.0961 -0.686,0.1891 -1.251,0.6371 -1.593,1.259 -0.675,1.2231 -0.271,2.7551 0.922,3.486 l 6.764,4.1492 c 0.397,0.2437 0.916,0.1211 1.16,-0.2781 0.245,-0.3961 0.121,-0.9161 -0.278,-1.1598 l -6.764,-4.1492 c -0.421,-0.259 -0.565,-0.8008 -0.326,-1.234 0.121,-0.2211 0.322,-0.3789 0.564,-0.4449 0.24,-0.0672 0.494,-0.034 0.712,0.0929 l 5.405,3.159 c 0.401,0.236 0.919,0.1 1.154,-0.3019 0.236,-0.402 0.1,-0.92 -0.302,-1.1551 l -5.405,-3.1602 c -0.406,-0.2379 -0.857,-0.359 -1.313,-0.359"
         style="fill:#000000;fill-opacity:1;fill-rule:nonzero;stroke:none;stroke-width:0.1"
         id="path218"
         inkscape:connector-curvature="0" /><path
         d="m 300.944,86.3551 c -0.243,0 -0.489,0.0289 -0.732,0.089 -0.811,0.1981 -1.491,0.7039 -1.912,1.425 -0.816,1.3969 -0.399,3.1911 0.948,4.0848 l 4.751,3.1543 c 0.39,0.2559 0.913,0.1508 1.171,-0.2383 0.257,-0.3867 0.152,-0.9121 -0.237,-1.1687 l -4.751,-3.1543 c -0.603,-0.3989 -0.79,-1.202 -0.425,-1.8258 0.189,-0.3223 0.492,-0.5492 0.856,-0.6383 0.362,-0.0879 0.736,-0.0258 1.052,0.1723 l 2.651,1.6738 c 0.393,0.2473 0.916,0.132 1.164,-0.2641 0.249,-0.3929 0.132,-0.9148 -0.263,-1.1636 l -2.651,-1.6731 c -0.494,-0.3121 -1.053,-0.473 -1.622,-0.473"
         style="fill:#000000;fill-opacity:1;fill-rule:nonzero;stroke:none;stroke-width:0.1"
         id="path220"
         inkscape:connector-curvature="0" /><path
         d="m 328.489,103.015 5.025,-12.4099 5.176,1.991 -5.216,13.5499 -5.371,-2.105 z m 4.572,-14.333 c -0.328,0 -0.639,0.1918 -0.775,0.5102 l -0.758,1.759 -4.61,11.4428 c -0.006,0.017 -0.689,1.832 -0.689,1.832 -0.163,0.433 0.053,0.915 0.482,1.083 l 6.938,2.718 c 0.209,0.083 0.442,0.078 0.648,-0.014 0.205,-0.091 0.366,-0.259 0.448,-0.469 l 5.825,-15.1299 c 0.08,-0.209 0.074,-0.4411 -0.017,-0.6461 -0.092,-0.2039 -0.26,-0.3641 -0.469,-0.4442 l -6.72,-2.5847 c -0.1,-0.0379 -0.202,-0.0571 -0.303,-0.0571"
         style="fill:#000000;fill-opacity:1;fill-rule:nonzero;stroke:none;stroke-width:0.1"
         id="path222"
         inkscape:connector-curvature="0" /></g></g></svg>