<?xml version="1.0" encoding="UTF-8" standalone="no"?>
<svg
   xmlns:dc="http://purl.org/dc/elements/1.1/"
   xmlns:cc="http://creativecommons.org/ns#"
   xmlns:rdf="http://www.w3.org/1999/02/22-rdf-syntax-ns#"
   xmlns:svg="http://www.w3.org/2000/svg"
   xmlns="http://www.w3.org/2000/svg"
   xmlns:sodipodi="http://sodipodi.sourceforge.net/DTD/sodipodi-0.dtd"
   xmlns:inkscape="http://www.inkscape.org/namespaces/inkscape"
   version="1.1"
   id="svg2"
   xml:space="preserve"
   width="1116.7445"
   height="138.65242"
   viewBox="0 0 1116.7445 138.65241"
   sodipodi:docname="induction.svg"
   inkscape:version="0.92.3 (2405546, 2018-03-11)"
   inkscape:export-filename="C:\xampp\htdocs\FTLS\FYI.png"
   inkscape:export-xdpi="83.085457"
   inkscape:export-ydpi="83.085457"><metadata
     id="metadata8"><rdf:RDF><cc:Work
         rdf:about=""><dc:format>image/svg+xml</dc:format><dc:type
           rdf:resource="http://purl.org/dc/dcmitype/StillImage" /><dc:title></dc:title></cc:Work></rdf:RDF></metadata><defs
     id="defs6" /><sodipodi:namedview
     pagecolor="#ffffff"
     bordercolor="#666666"
     borderopacity="1"
     objecttolerance="10"
     gridtolerance="10"
     guidetolerance="10"
     inkscape:pageopacity="0"
     inkscape:pageshadow="2"
     inkscape:window-width="726"
     inkscape:window-height="459"
     id="namedview4"
     showgrid="false"
     inkscape:zoom="1.0843875"
     inkscape:cx="665.85897"
     inkscape:cy="116.40643"
     inkscape:window-x="684"
     inkscape:window-y="308"
     inkscape:window-maximized="0"
     inkscape:current-layer="g10"
     showborder="true"
     fit-margin-top="0"
     fit-margin-left="0"
     fit-margin-right="0"
     fit-margin-bottom="0"
     showguides="true"
     inkscape:guide-bbox="true"><sodipodi:guide
       position="164.03737,187.03326"
       orientation="1,0"
       id="guide1439"
       inkscape:locked="false" /></sodipodi:namedview><g
     inkscape:groupmode="layer"
     id="layer1"
     inkscape:label="outline"
     style="display:inline;opacity:0.125"
     transform="translate(260.19213,244.43772)"
     sodipodi:insensitive="true"><rect
       style="opacity:1;fill:none;fill-opacity:1;stroke:#000000;stroke-width:5.27622032;stroke-miterlimit:4;stroke-dasharray:none;stroke-opacity:1"
       id="rect208"
       width="1111.4683"
       height="133.37621"
       x="-257.55402"
       y="-241.79961" /><rect
       style="opacity:1;fill:none;fill-opacity:1;stroke:#000000;stroke-width:5.27622032;stroke-miterlimit:4;stroke-dasharray:none;stroke-opacity:1"
       id="rect1031"
       width="124.1778"
       height="107.31411"
       x="-243.75648"
       y="-230.30167" /><path
       style="fill:none;stroke:#000000;stroke-width:1px;stroke-linecap:butt;stroke-linejoin:miter;stroke-opacity:1"
       d="m -104.24805,-124.52054 938.23246,1.53306"
       id="path1033"
       inkscape:connector-curvature="0"
       sodipodi:nodetypes="cc" /></g><g
     id="g10"
     inkscape:groupmode="layer"
     inkscape:label="Academic Advising"
     transform="matrix(1.3333333,0,0,-1.3333333,260.19213,1311.1044)"
     style="display:inline"><flowRoot
       xml:space="preserve"
       id="flowRoot1358"
       style="font-style:normal;font-weight:normal;font-size:40px;line-height:1.25;font-family:sans-serif;letter-spacing:0px;word-spacing:0px;fill:#000000;fill-opacity:1;stroke:none"><flowRegion
         id="flowRegion1360"><rect
           id="rect1362"
           width="364.67142"
           height="151.20522"
           x="85.386475"
           y="234.14859" /></flowRegion><flowPara
         id="flowPara1364" /></flowRoot><flowRoot
       xml:space="preserve"
       id="flowRoot1366"
       style="font-style:normal;font-weight:normal;font-size:40px;line-height:1.25;font-family:sans-serif;letter-spacing:0px;word-spacing:0px;fill:#000000;fill-opacity:1;stroke:none"><flowRegion
         id="flowRegion1368"><rect
           id="rect1370"
           width="663.52411"
           height="158.32076"
           x="78.270935"
           y="200.34978" /></flowRegion><flowPara
         id="flowPara1372" /></flowRoot><g
       transform="matrix(1.2003733,0,0,1.2003733,-341.13973,659.95094)"
       id="g1634"><path
         d="m 186.292,200.248 h -32.861 c -0.466,0 -0.844,0.378 -0.844,0.845 v 45.015 c 0,0.467 0.378,0.844 0.844,0.844 h 6.935 c 0.466,0 0.844,-0.377 0.844,-0.844 0,-0.466 -0.378,-0.844 -0.844,-0.844 h -6.091 v -43.328 h 31.173 v 43.328 h -6.091 c -0.466,0 -0.844,0.378 -0.844,0.844 0,0.467 0.378,0.844 0.844,0.844 h 6.935 c 0.467,0 0.844,-0.377 0.844,-0.844 v -45.015 c 0,-0.467 -0.377,-0.845 -0.844,-0.845"
         style="fill:#000000;fill-opacity:1;fill-rule:nonzero;stroke:none;stroke-width:0.1"
         id="path224"
         inkscape:connector-curvature="0" /><path
         d="m 165.818,244.492 h 8.117 v 3.192 c 0,2.238 -1.82,4.059 -4.058,4.059 -2.238,0 -4.059,-1.821 -4.059,-4.059 z m 8.961,-1.688 h -9.805 c -0.466,0 -0.844,0.378 -0.844,0.844 v 4.036 c 0,3.168 2.578,5.746 5.747,5.746 3.168,0 5.746,-2.578 5.746,-5.746 v -4.036 c 0,-0.466 -0.377,-0.844 -0.844,-0.844"
         style="fill:#000000;fill-opacity:1;fill-rule:nonzero;stroke:none;stroke-width:0.1"
         id="path226"
         inkscape:connector-curvature="0" /><path
         d="m 182.881,204.188 h -26.039 c -0.466,0 -0.844,0.377 -0.844,0.844 v 36.125 c 0,0.466 0.378,0.843 0.844,0.843 0.467,0 0.844,-0.377 0.844,-0.843 v -35.282 h 24.351 v 35.282 c 0,0.466 0.378,0.843 0.844,0.843 0.467,0 0.844,-0.377 0.844,-0.843 v -36.125 c 0,-0.467 -0.377,-0.844 -0.844,-0.844"
         style="fill:#000000;fill-opacity:1;fill-rule:nonzero;stroke:none;stroke-width:0.1"
         id="path228"
         inkscape:connector-curvature="0" /><path
         d="m 177.516,242.804 h -15.278 c -0.466,0 -0.844,0.378 -0.844,0.844 0,0.466 0.378,0.844 0.844,0.844 h 15.278 c 0.466,0 0.844,-0.378 0.844,-0.844 0,-0.466 -0.378,-0.844 -0.844,-0.844"
         style="fill:#000000;fill-opacity:1;fill-rule:nonzero;stroke:none;stroke-width:0.1"
         id="path230"
         inkscape:connector-curvature="0" /><path
         d="m 169.877,237.25 c -1.297,0 -2.352,-1.055 -2.352,-2.352 0,-1.296 1.055,-2.351 2.352,-2.351 1.297,0 2.352,1.055 2.352,2.351 0,1.297 -1.055,2.352 -2.352,2.352 z m 0,-6.391 c -2.228,0 -4.04,1.812 -4.04,4.039 0,2.228 1.812,4.04 4.04,4.04 2.227,0 4.04,-1.812 4.04,-4.04 0,-2.227 -1.813,-4.039 -4.04,-4.039"
         style="fill:#000000;fill-opacity:1;fill-rule:nonzero;stroke:none;stroke-width:0.1"
         id="path232"
         inkscape:connector-curvature="0" /><path
         d="m 166.404,229.296 -2.123,-0.821 c -0.306,-0.119 -0.511,-0.418 -0.511,-0.745 v -5.358 c 0,-0.613 0.499,-1.112 1.114,-1.112 h 9.986 c 0.614,0 1.113,0.499 1.113,1.112 v 5.358 c 0,0.327 -0.205,0.626 -0.51,0.744 l -2.123,0.822 -2.742,-4.756 c -0.301,-0.523 -1.161,-0.523 -1.462,0 z m 8.466,-9.725 h -9.986 c -1.545,0 -2.802,1.257 -2.802,2.801 v 5.358 c 0,1.019 0.639,1.951 1.589,2.318 l 2.799,1.084 c 0.389,0.15 0.828,-0.006 1.035,-0.366 l 2.372,-4.115 2.371,4.115 c 0.208,0.361 0.647,0.517 1.036,0.366 l 2.798,-1.084 c 0.951,-0.367 1.589,-1.299 1.589,-2.318 v -5.358 c 0,-1.544 -1.257,-2.801 -2.801,-2.801"
         style="fill:#000000;fill-opacity:1;fill-rule:nonzero;stroke:none;stroke-width:0.1"
         id="path234"
         inkscape:connector-curvature="0" /><path
         d="m 178.936,215.007 h -18.119 c -0.466,0 -0.844,0.378 -0.844,0.844 0,0.466 0.378,0.844 0.844,0.844 h 18.119 c 0.466,0 0.844,-0.378 0.844,-0.844 0,-0.466 -0.378,-0.844 -0.844,-0.844"
         style="fill:#000000;fill-opacity:1;fill-rule:nonzero;stroke:none;stroke-width:0.1"
         id="path236"
         inkscape:connector-curvature="0" /><path
         d="m 178.921,210.443 h -18.119 c -0.466,0 -0.844,0.377 -0.844,0.843 0,0.467 0.378,0.845 0.844,0.845 h 18.119 c 0.466,0 0.844,-0.378 0.844,-0.845 0,-0.466 -0.378,-0.843 -0.844,-0.843"
         style="fill:#000000;fill-opacity:1;fill-rule:nonzero;stroke:none;stroke-width:0.1"
         id="path238"
         inkscape:connector-curvature="0" /></g><text
       xml:space="preserve"
       style="font-style:normal;font-weight:normal;font-size:37.00810242px;line-height:1.25;font-family:sans-serif;letter-spacing:0px;word-spacing:0px;fill:#000000;fill-opacity:1;stroke:none;stroke-width:0.92520249"
       x="-75.172638"
       y="-922.00031"
       id="text1392"
       transform="scale(1,-1)"><tspan
         sodipodi:role="line"
         id="tspan1390"
         x="-75.172638"
         y="-922.00031"
         style="font-style:normal;font-variant:normal;font-weight:normal;font-stretch:normal;font-family:Bahnschrift;-inkscape-font-specification:Bahnschrift;stroke-width:0.92520249">Reading Development</tspan></text>
</g></svg>