<?xml version="1.0" encoding="UTF-8" standalone="no"?>
<svg
   xmlns:dc="http://purl.org/dc/elements/1.1/"
   xmlns:cc="http://creativecommons.org/ns#"
   xmlns:rdf="http://www.w3.org/1999/02/22-rdf-syntax-ns#"
   xmlns:svg="http://www.w3.org/2000/svg"
   xmlns="http://www.w3.org/2000/svg"
   xmlns:sodipodi="http://sodipodi.sourceforge.net/DTD/sodipodi-0.dtd"
   xmlns:inkscape="http://www.inkscape.org/namespaces/inkscape"
   version="1.1"
   id="svg2"
   xml:space="preserve"
   width="1116.7445"
   height="138.65242"
   viewBox="0 0 1116.7445 138.65241"
   sodipodi:docname="leads.svg"
   inkscape:version="0.92.2 (5c3e80d, 2017-08-06)"
   inkscape:export-filename="C:\xampp\htdocs\FTLS\FYI.png"
   inkscape:export-xdpi="83.085457"
   inkscape:export-ydpi="83.085457"><metadata
     id="metadata8"><rdf:RDF><cc:Work
         rdf:about=""><dc:format>image/svg+xml</dc:format><dc:type
           rdf:resource="http://purl.org/dc/dcmitype/StillImage" /><dc:title /></cc:Work></rdf:RDF></metadata><defs
     id="defs6" /><sodipodi:namedview
     pagecolor="#ffffff"
     bordercolor="#666666"
     borderopacity="1"
     objecttolerance="10"
     gridtolerance="10"
     guidetolerance="10"
     inkscape:pageopacity="0"
     inkscape:pageshadow="2"
     inkscape:window-width="1920"
     inkscape:window-height="1017"
     id="namedview4"
     showgrid="false"
     inkscape:zoom="1.0843875"
     inkscape:cx="375.37242"
     inkscape:cy="116.40643"
     inkscape:window-x="1912"
     inkscape:window-y="-8"
     inkscape:window-maximized="1"
     inkscape:current-layer="g10"
     showborder="true"
     fit-margin-top="0"
     fit-margin-left="0"
     fit-margin-right="0"
     fit-margin-bottom="0"
     showguides="true"
     inkscape:guide-bbox="true"><sodipodi:guide
       position="164.03737,187.03326"
       orientation="1,0"
       id="guide1439"
       inkscape:locked="false" /></sodipodi:namedview><g
     inkscape:groupmode="layer"
     id="layer1"
     inkscape:label="outline"
     style="display:none;opacity:0.125"
     transform="translate(260.19213,244.43772)"
     sodipodi:insensitive="true"><rect
       style="opacity:1;fill:none;fill-opacity:1;stroke:#000000;stroke-width:5.27622032;stroke-miterlimit:4;stroke-dasharray:none;stroke-opacity:1"
       id="rect208"
       width="1111.4683"
       height="133.37621"
       x="-257.55402"
       y="-241.79961" /><rect
       style="opacity:1;fill:none;fill-opacity:1;stroke:#000000;stroke-width:5.27622032;stroke-miterlimit:4;stroke-dasharray:none;stroke-opacity:1"
       id="rect1031"
       width="124.1778"
       height="107.31411"
       x="-243.75648"
       y="-230.30167" /><path
       style="fill:none;stroke:#000000;stroke-width:1px;stroke-linecap:butt;stroke-linejoin:miter;stroke-opacity:1"
       d="m -104.24805,-124.52054 938.23246,1.53306"
       id="path1033"
       inkscape:connector-curvature="0"
       sodipodi:nodetypes="cc" /></g><g
     id="g10"
     inkscape:groupmode="layer"
     inkscape:label="Academic Advising"
     transform="matrix(1.3333333,0,0,-1.3333333,260.19213,1311.1044)"
     style="display:inline"><flowRoot
       xml:space="preserve"
       id="flowRoot1358"
       style="font-style:normal;font-weight:normal;font-size:40px;line-height:1.25;font-family:sans-serif;letter-spacing:0px;word-spacing:0px;fill:#000000;fill-opacity:1;stroke:none"><flowRegion
         id="flowRegion1360"><rect
           id="rect1362"
           width="364.67142"
           height="151.20522"
           x="85.386475"
           y="234.14859" /></flowRegion><flowPara
         id="flowPara1364" /></flowRoot><flowRoot
       xml:space="preserve"
       id="flowRoot1366"
       style="font-style:normal;font-weight:normal;font-size:40px;line-height:1.25;font-family:sans-serif;letter-spacing:0px;word-spacing:0px;fill:#000000;fill-opacity:1;stroke:none"><flowRegion
         id="flowRegion1368"><rect
           id="rect1370"
           width="663.52411"
           height="158.32076"
           x="78.270935"
           y="200.34978" /></flowRegion><flowPara
         id="flowPara1372" /></flowRoot><g
       aria-label="CTL Faculty Leads"
       transform="scale(1,-1)"
       style="font-style:normal;font-weight:normal;font-size:37.00810242px;line-height:1.25;font-family:sans-serif;letter-spacing:0px;word-spacing:0px;fill:#000000;fill-opacity:1;stroke:none;stroke-width:0.92520249"
       id="text1392"><path
         d="m -63.31848,-921.72925 q -2.728625,0 -4.806717,-1.21071 -2.060021,-1.21072 -3.198454,-3.43337 -1.138433,-2.22266 -1.138433,-5.15006 v -7.21007 q 0,-2.9274 1.138433,-5.15005 1.138433,-2.22266 3.198454,-3.43337 2.078092,-1.22879 4.806717,-1.22879 2.258795,0 4.156183,0.9758 1.897388,0.95773 3.162314,2.72863 1.282995,1.77089 1.734754,4.10197 v 0 h -3.776705 v 0 q -0.343337,-1.22879 -1.156503,-2.18651 -0.795096,-0.9758 -1.879318,-1.49985 -1.084222,-0.52404 -2.240725,-0.52404 -1.608262,0 -2.818977,0.77703 -1.210714,0.77703 -1.879317,2.18651 -0.668604,1.39142 -0.668604,3.25267 v 7.21007 q 0,1.84318 0.668604,3.25267 0.668603,1.40949 1.879317,2.18651 1.210715,0.75896 2.818977,0.75896 1.174573,0 2.240725,-0.4879 1.084222,-0.4879 1.879318,-1.44563 0.813166,-0.95773 1.156503,-2.27687 v 0 h 3.776705 v 0 q -0.451759,2.33108 -1.734754,4.10198 -1.282996,1.77089 -3.180384,2.74669 -1.897388,0.95773 -4.138113,0.95773 z"
         style="font-style:normal;font-variant:normal;font-weight:normal;font-stretch:normal;font-family:Bahnschrift;-inkscape-font-specification:Bahnschrift;stroke-width:0.92520249"
         id="path31" /><path
         d="m -45.193907,-946.12424 h 3.686354 v 24.12393 h -3.686354 z m -7.426919,-2.15037 h 18.540192 v 3.50565 h -18.540192 z"
         style="font-style:normal;font-variant:normal;font-weight:normal;font-stretch:normal;font-family:Bahnschrift;-inkscape-font-specification:Bahnschrift;stroke-width:0.92520249"
         id="path33" /><path
         d="m -30.430421,-948.27461 h 3.686354 v 26.2743 h -3.686354 z m 1.843177,22.76865 h 15.034541 v 3.50565 h -15.034541 z"
         style="font-style:normal;font-variant:normal;font-weight:normal;font-stretch:normal;font-family:Bahnschrift;-inkscape-font-specification:Bahnschrift;stroke-width:0.92520249"
         id="path35" /><path
         d="M 0.79516098,-948.27461 H 4.4815149 v 26.2743 H 0.79516098 Z m 1.80703622,11.70959 H 15.341803 v 3.50565 H 2.6021972 Z m 0,-11.70959 H 17.329543 v 3.50565 H 2.6021972 Z"
         style="font-style:normal;font-variant:normal;font-weight:normal;font-stretch:normal;font-family:Bahnschrift;-inkscape-font-specification:Bahnschrift;stroke-width:0.92520249"
         id="path37" /><path
         d="m 31.695487,-933.8906 q 0,-1.84318 -0.99387,-2.85512 -0.9758,-1.03001 -2.782836,-1.03001 -1.120362,0 -2.204584,0.34334 -1.066152,0.34333 -1.897388,0.95772 l -2.692484,-1.84317 q 1.066151,-1.283 2.800906,-1.98774 1.752825,-0.72282 3.885128,-0.72282 2.331077,0 3.99355,0.83124 1.662473,0.81317 2.529851,2.38529 0.867377,1.55405 0.867377,3.75863 v 12.05293 h -3.50565 z m -4.589872,12.16135 q -3.46951,0 -5.186194,-1.42756 -1.716685,-1.44563 -1.716685,-4.37303 0,-2.78283 1.572122,-4.17425 1.572121,-1.39142 4.752505,-1.39142 h 5.330757 l 0.252985,2.96354 h -5.565672 q -1.445629,0 -2.168443,0.65053 -0.704744,0.63247 -0.704744,1.9516 0,1.42756 0.939659,2.11424 0.957729,0.68667 2.891258,0.68667 2.114232,0 3.144243,-0.45176 1.048081,-0.45176 1.048081,-1.40949 l 0.379477,2.63828 q -0.487899,0.75895 -1.210714,1.24685 -0.704744,0.4879 -1.644403,0.72282 -0.939659,0.25298 -2.114232,0.25298 z"
         style="font-style:normal;font-variant:normal;font-weight:normal;font-stretch:normal;font-family:Bahnschrift;-inkscape-font-specification:Bahnschrift;stroke-width:0.92520249"
         id="path39" /><path
         d="m 48.41057,-921.72925 q -2.565991,0 -4.391098,-0.95773 -1.807036,-0.95773 -2.764765,-2.78283 -0.95773,-1.82511 -0.95773,-4.40917 v -3.09004 q 0,-2.54792 0.95773,-4.35495 0.957729,-1.80704 2.764765,-2.7467 1.825107,-0.95773 4.391098,-0.95773 1.463699,0 2.746695,0.36141 1.301066,0.34334 2.331077,1.01194 1.030011,0.6686 1.716684,1.62633 v 0 l -2.656343,2.38529 v 0 q -0.795096,-0.90352 -1.861247,-1.39142 -1.066152,-0.4879 -2.222655,-0.4879 -2.132303,0 -3.306876,1.19265 -1.174574,1.19264 -1.174574,3.36108 v 3.09004 q 0,2.22265 1.156503,3.43337 1.174574,1.21071 3.324947,1.21071 1.174574,0 2.240725,-0.52404 1.066152,-0.52404 1.843177,-1.48177 v 0 l 2.656343,2.56599 v 0 q -0.704744,0.93966 -1.734754,1.60826 -1.030011,0.65054 -2.331077,0.99387 -1.282996,0.34334 -2.728625,0.34334 z"
         style="font-style:normal;font-variant:normal;font-weight:normal;font-stretch:normal;font-family:Bahnschrift;-inkscape-font-specification:Bahnschrift;stroke-width:0.92520249"
         id="path41" /><path
         d="m 70.149213,-940.75734 h 3.668283 v 18.75703 h -3.668283 z m -7.625693,11.4024 q 0,1.96967 0.993869,3.05389 1.011941,1.06615 2.837047,1.06615 1.807037,0 2.800907,-0.95773 0.99387,-0.95773 0.99387,-2.72862 l 0.252985,3.92126 q -0.578252,1.39142 -1.879318,2.33108 -1.301066,0.93966 -3.198454,0.93966 -3.108103,0 -4.806717,-1.98774 -1.680543,-2.00581 -1.680543,-5.63795 v -11.4024 h 3.686354 z"
         style="font-style:normal;font-variant:normal;font-weight:normal;font-stretch:normal;font-family:Bahnschrift;-inkscape-font-specification:Bahnschrift;stroke-width:0.92520249"
         id="path43" /><path
         d="m 83.123739,-926.84316 q 0,0.68667 0.289126,1.06615 0.307196,0.36141 0.849307,0.36141 h 1.734755 v 3.50565 h -2.168444 q -2.096162,0 -3.252665,-1.30107 -1.138433,-1.30107 -1.138433,-3.66828 v -21.39531 h 3.686354 z"
         style="font-style:normal;font-variant:normal;font-weight:normal;font-stretch:normal;font-family:Bahnschrift;-inkscape-font-specification:Bahnschrift;stroke-width:0.92520249"
         id="path45" /><path
         d="m 95.01403,-921.90995 q -2.276865,0 -3.343017,-1.24686 -1.048081,-1.26492 -1.048081,-3.72249 v -19.33529 h 3.686354 v 19.37143 q 0,0.68667 0.271056,1.06615 0.271055,0.36141 0.795096,0.36141 h 1.770895 v 3.50565 z m -6.324627,-18.84739 h 8.45693 v 3.32495 h -8.45693 z"
         style="font-style:normal;font-variant:normal;font-weight:normal;font-stretch:normal;font-family:Bahnschrift;-inkscape-font-specification:Bahnschrift;stroke-width:0.92520249"
         id="path47" /><path
         d="m 116.82497,-940.75734 -7.9871,23.14813 q -0.43369,1.283 -1.13843,2.02388 -0.70475,0.75896 -1.73476,1.08423 -1.03001,0.32526 -2.52985,0.32526 h -0.74088 v -3.54179 h 0.74088 q 1.03001,0 1.62633,-0.41562 0.6144,-0.41562 1.06616,-1.42756 l 6.93901,-21.19653 z m -16.60666,0 h 3.75863 l 5.76445,16.29947 -2.04195,3.99355 z"
         style="font-style:normal;font-variant:normal;font-weight:normal;font-stretch:normal;font-family:Bahnschrift;-inkscape-font-specification:Bahnschrift;stroke-width:0.92520249"
         id="path49" /><path
         d="m 130.39581,-948.27461 h 3.68635 v 26.2743 h -3.68635 z m 1.84317,22.76865 h 15.03455 v 3.50565 h -15.03455 z"
         style="font-style:normal;font-variant:normal;font-weight:normal;font-stretch:normal;font-family:Bahnschrift;-inkscape-font-specification:Bahnschrift;stroke-width:0.92520249"
         id="path51" /><path
         d="m 158.96505,-921.72925 q -2.60213,0 -4.44531,-0.9758 -1.84317,-0.9758 -2.81897,-2.85512 -0.95773,-1.89738 -0.95773,-4.5718 v -2.11423 q 0,-2.78284 0.92159,-4.75251 0.93965,-1.96967 2.71055,-2.99968 1.7709,-1.03001 4.26461,-1.03001 2.34914,0 4.01162,1.17458 1.66247,1.17457 2.52985,3.39722 0.88544,2.22266 0.88544,5.33076 v 1.22879 h -12.64925 v -2.96354 h 9.1436 v 0 q -0.16263,-2.29494 -1.19264,-3.55986 -1.01194,-1.283 -2.72862,-1.283 -2.09617,0 -3.25267,1.37335 -1.13843,1.37334 -1.13843,3.88513 v 2.38528 q 0,2.33108 1.22878,3.57793 1.22879,1.24686 3.48758,1.24686 1.12036,0 2.22266,-0.45176 1.10229,-0.45176 1.96967,-1.26492 v 0 l 2.42143,2.42142 v 0 q -1.39142,1.33721 -3.12618,2.0781 -1.73475,0.72281 -3.48758,0.72281 z"
         style="font-style:normal;font-variant:normal;font-weight:normal;font-stretch:normal;font-family:Bahnschrift;-inkscape-font-specification:Bahnschrift;stroke-width:0.92520249"
         id="path53" /><path
         d="m 181.75178,-933.8906 q 0,-1.84318 -0.99387,-2.85512 -0.9758,-1.03001 -2.78284,-1.03001 -1.12036,0 -2.20458,0.34334 -1.06615,0.34333 -1.89739,0.95772 l -2.69249,-1.84317 q 1.06616,-1.283 2.80091,-1.98774 1.75283,-0.72282 3.88513,-0.72282 2.33108,0 3.99355,0.83124 1.66247,0.81317 2.52985,2.38529 0.86738,1.55405 0.86738,3.75863 v 12.05293 h -3.50565 z m -4.58988,12.16135 q -3.46951,0 -5.18619,-1.42756 -1.71668,-1.44563 -1.71668,-4.37303 0,-2.78283 1.57212,-4.17425 1.57212,-1.39142 4.7525,-1.39142 h 5.33076 l 0.25298,2.96354 h -5.56567 q -1.44563,0 -2.16844,0.65053 -0.70474,0.63247 -0.70474,1.9516 0,1.42756 0.93965,2.11424 0.95773,0.68667 2.89126,0.68667 2.11423,0 3.14425,-0.45176 1.04808,-0.45176 1.04808,-1.40949 l 0.37947,2.63828 q -0.4879,0.75895 -1.21071,1.24685 -0.70474,0.4879 -1.6444,0.72282 -0.93966,0.25298 -2.11424,0.25298 z"
         style="font-style:normal;font-variant:normal;font-weight:normal;font-stretch:normal;font-family:Bahnschrift;-inkscape-font-specification:Bahnschrift;stroke-width:0.92520249"
         id="path55" /><path
         d="m 201.55689,-948.27461 h 3.68636 v 26.2743 h -3.68636 z m -4.71636,26.59957 q -2.06002,0 -3.52372,-0.88545 -1.44563,-0.90351 -2.20459,-2.6202 -0.75895,-1.71668 -0.75895,-4.12004 v -4.13811 q 0,-2.42143 0.74088,-4.13812 0.74089,-1.71668 2.15038,-2.60213 1.42755,-0.90352 3.41529,-0.90352 1.66248,0 3.03582,0.86738 1.39142,0.86738 2.24073,2.4395 l -0.37948,3.83092 q 0,-1.19265 -0.43369,-2.04196 -0.43369,-0.8493 -1.26492,-1.28299 -0.81317,-0.45176 -1.98774,-0.45176 -1.82511,0 -2.83705,1.13843 -0.99387,1.13844 -0.99387,3.19846 v 4.0839 q 0,2.04195 0.99387,3.16231 1.01194,1.10229 2.83705,1.10229 1.17457,0 1.98774,-0.45176 0.83123,-0.46982 1.26492,-1.3372 0.43369,-0.86738 0.43369,-2.07809 l 0.25299,3.95741 q -0.56018,1.39141 -1.84318,2.33107 -1.26493,0.93966 -3.12617,0.93966 z"
         style="font-style:normal;font-variant:normal;font-weight:normal;font-stretch:normal;font-family:Bahnschrift;-inkscape-font-specification:Bahnschrift;stroke-width:0.92520249"
         id="path57" /><path
         d="m 217.47688,-921.72925 q -1.66248,0 -3.12618,-0.32527 -1.44562,-0.32526 -2.71055,-0.9758 -1.26493,-0.65053 -2.33108,-1.62633 v 0 l 2.18652,-2.69248 v 0 q 1.51791,1.1565 3.01775,1.73475 1.49984,0.57825 2.96354,0.57825 2.18651,0 3.27073,-0.6686 1.1023,-0.68667 1.1023,-2.04195 0,-0.90352 -0.59633,-1.35528 -0.59632,-0.45176 -1.48177,-0.59632 -0.88544,-0.16263 -2.49371,-0.28913 -0.14456,0 -0.30719,0 -0.16264,-0.0181 -0.3072,-0.0361 -0.0723,0 -0.14456,0 -0.0723,-0.0181 -0.14456,-0.0181 -1.82511,-0.14456 -3.09004,-0.52404 -1.26492,-0.39754 -2.11423,-1.4637 -0.83124,-1.06615 -0.83124,-3.05389 0,-1.98774 0.81317,-3.30687 0.81317,-1.31914 2.42143,-1.96967 1.60826,-0.66861 4.02969,-0.66861 1.4637,0 2.78284,0.27106 1.3372,0.27105 2.54792,0.81316 1.21071,0.52405 2.33107,1.33721 v 0 l -2.22265,2.69249 v 0 q -1.40949,-0.90352 -2.78284,-1.35528 -1.35527,-0.45176 -2.65634,-0.45176 -1.87932,0 -2.81898,0.65053 -0.93966,0.63247 -0.93966,1.91546 0,0.75896 0.52405,1.13843 0.54211,0.37948 1.35527,0.50597 0.81317,0.1265 2.31301,0.21685 0.10842,0.0181 0.21684,0.0181 0.1265,0 0.25299,0.0181 0.0542,0 0.10842,0 0.0542,0 0.10842,0.0181 1.96967,0.12649 3.34302,0.52404 1.39142,0.39755 2.33108,1.57212 0.93966,1.17457 0.93966,3.39723 0,2.02388 -0.86738,3.36109 -0.86738,1.31913 -2.6202,1.98774 -1.73476,0.6686 -4.37303,0.6686 z"
         style="font-style:normal;font-variant:normal;font-weight:normal;font-stretch:normal;font-family:Bahnschrift;-inkscape-font-specification:Bahnschrift;stroke-width:0.92520249"
         id="path59" /></g><g
       transform="matrix(0.69726952,0,0,0.69726952,-600.13329,498.15493)"
       id="g548"><path
         d="m 652.467,653.474 c 11.037,-1.084 19.175,-10.999 18.1,-22.029 -1.076,-11.027 -10.989,-19.175 -22.018,-18.091 -11.037,1.076 -19.175,10.991 -18.102,22.008 1.085,11.039 10.99,19.176 22.02,18.112 z"
         style="fill:none;stroke:#100f0d;stroke-width:1.29999995;stroke-linecap:round;stroke-linejoin:round;stroke-miterlimit:10;stroke-dasharray:none;stroke-opacity:1"
         id="path1032"
         inkscape:connector-curvature="0" /><path
         d="m 648.062,608.334 c -13.882,1.357 -23.982,13.654 -22.626,27.527 1.358,13.871 13.647,23.972 27.518,22.614 13.871,-1.358 23.982,-13.647 22.623,-27.507 -1.348,-13.881 -13.645,-23.982 -27.515,-22.634 z m -17.615,27.028 c -1.073,-11.017 7.065,-20.932 18.102,-22.008 11.029,-1.084 20.942,7.064 22.018,18.091 1.075,11.03 -7.063,20.945 -18.1,22.029 -11.03,1.064 -20.935,-7.073 -22.02,-18.112 z"
         style="fill:none;stroke:#100f0d;stroke-width:1.29999995;stroke-linecap:round;stroke-linejoin:round;stroke-miterlimit:10;stroke-dasharray:none;stroke-opacity:1"
         id="path1034"
         inkscape:connector-curvature="0" /><path
         d="m 648.549,613.354 c -11.037,1.076 -19.175,10.991 -18.102,22.008 1.085,11.039 10.99,19.176 22.02,18.112 11.037,-1.084 19.175,-10.999 18.1,-22.029 -1.076,-11.027 -10.989,-19.175 -22.018,-18.091 z"
         style="fill:none;stroke:#100f0d;stroke-width:1.29999995;stroke-linecap:round;stroke-linejoin:round;stroke-miterlimit:10;stroke-dasharray:none;stroke-opacity:1"
         id="path1036"
         inkscape:connector-curvature="0" /><path
         d="m 652.954,658.475 c -13.871,1.358 -26.16,-8.743 -27.518,-22.614 -1.356,-13.873 8.744,-26.17 22.626,-27.527 13.87,-1.348 26.167,8.753 27.515,22.634 1.359,13.86 -8.752,26.149 -22.623,27.507 z"
         style="fill:none;stroke:#100f0d;stroke-width:1.29999995;stroke-linecap:round;stroke-linejoin:round;stroke-miterlimit:10;stroke-dasharray:none;stroke-opacity:1"
         id="path1038"
         inkscape:connector-curvature="0" /><path
         d="m 664.618,612.534 c 1.308,0.878 2.519,1.876 3.644,2.988 l 3.643,-4.443 -3.633,-2.988 z"
         style="fill:none;stroke:#100f0d;stroke-width:1.29999995;stroke-linecap:round;stroke-linejoin:round;stroke-miterlimit:10;stroke-dasharray:none;stroke-opacity:1"
         id="path1052"
         inkscape:connector-curvature="0" /><path
         d="M 684.223,583.034 667.5,605.257 c -0.606,0.731 -0.508,1.738 0.233,2.345 l 4.759,3.915 c 0.741,0.607 1.747,0.509 2.354,-0.225 l 18.54,-20.884 c 1.064,-1.113 1.572,-2.852 1.427,-4.356 -0.315,-3.175 -3.245,-5.587 -6.418,-5.274 -1.682,0.155 -3.109,0.976 -4.172,2.256 z"
         style="fill:none;stroke:#100f0d;stroke-width:1.29999995;stroke-linecap:round;stroke-linejoin:round;stroke-miterlimit:10;stroke-dasharray:none;stroke-opacity:1"
         id="path1054"
         inkscape:connector-curvature="0" /><path
         d="m 694.813,586.052 c -0.315,-3.175 -3.245,-5.587 -6.418,-5.274 -1.682,0.155 -3.109,0.976 -4.172,2.256 L 667.5,605.257 c -0.606,0.731 -0.508,1.738 0.233,2.345 l 4.759,3.915 c 0.741,0.607 1.747,0.509 2.354,-0.225 l 18.54,-20.884 c 1.064,-1.113 1.572,-2.852 1.427,-4.356 z"
         style="fill:none;stroke:#100f0d;stroke-width:1.29999995;stroke-linecap:round;stroke-linejoin:round;stroke-miterlimit:2.61313009;stroke-dasharray:none;stroke-opacity:1"
         id="path1056"
         inkscape:connector-curvature="0" /><path
         d="m 664.618,612.534 3.654,-4.443 3.633,2.988 -3.643,4.443 c -1.125,-1.112 -2.336,-2.11 -3.644,-2.988 z"
         style="fill:none;stroke:#100f0d;stroke-width:1.29999995;stroke-linecap:round;stroke-linejoin:round;stroke-miterlimit:2.61313009;stroke-dasharray:none;stroke-opacity:1"
         id="path1058"
         inkscape:connector-curvature="0" /></g></g></svg>