<?xml version="1.0" encoding="UTF-8" standalone="no"?>
<!-- Created with Inkscape (http://www.inkscape.org/) -->

<svg
   xmlns:dc="http://purl.org/dc/elements/1.1/"
   xmlns:cc="http://creativecommons.org/ns#"
   xmlns:rdf="http://www.w3.org/1999/02/22-rdf-syntax-ns#"
   xmlns:svg="http://www.w3.org/2000/svg"
   xmlns="http://www.w3.org/2000/svg"
   xmlns:xlink="http://www.w3.org/1999/xlink"
   xmlns:sodipodi="http://sodipodi.sourceforge.net/DTD/sodipodi-0.dtd"
   xmlns:inkscape="http://www.inkscape.org/namespaces/inkscape"
   width="297.5816mm"
   height="7.5221829mm"
   viewBox="0 0 297.5816 7.5221829"
   version="1.1"
   id="svg8"
   inkscape:version="0.92.2 (5c3e80d, 2017-08-06)"
   sodipodi:docname="lecturer_support.svg"
   inkscape:export-filename="C:\Users\Lucky Bogatsu\Pictures\ENGAGEMENT.png"
   inkscape:export-xdpi="97.393135"
   inkscape:export-ydpi="97.393135">
  <defs
     id="defs2">
    <linearGradient
       inkscape:collect="always"
       id="linearGradient838">
      <stop
         style="stop-color:#7c29f2;stop-opacity:1;"
         offset="0"
         id="stop834" />
      <stop
         style="stop-color:#7c29f2;stop-opacity:0;"
         offset="1"
         id="stop836" />
    </linearGradient>
    <linearGradient
       inkscape:collect="always"
       xlink:href="#linearGradient838"
       id="linearGradient840"
       x1="37.366661"
       y1="163.21864"
       x2="-40.910686"
       y2="163.41814"
       gradientUnits="userSpaceOnUse"
       gradientTransform="matrix(1,0,0,2.7855123,0,-291.35395)" />
    <linearGradient
       inkscape:collect="always"
       xlink:href="#linearGradient838"
       id="linearGradient844"
       gradientUnits="userSpaceOnUse"
       gradientTransform="matrix(0.62056435,0,0,1.7285896,7.5261971,-121.87312)"
       x1="19.885836"
       y1="163.47304"
       x2="-40.910686"
       y2="163.41814" />
    <linearGradient
       inkscape:collect="always"
       xlink:href="#linearGradient838"
       id="linearGradient850"
       gradientUnits="userSpaceOnUse"
       gradientTransform="matrix(0.62120394,0,0,0.2514517,7.6115286,124.82528)"
       x1="19.885836"
       y1="163.47304"
       x2="-40.910686"
       y2="163.41814" />
    <linearGradient
       inkscape:collect="always"
       xlink:href="#linearGradient838"
       id="linearGradient865"
       gradientUnits="userSpaceOnUse"
       gradientTransform="matrix(1,0,0,2.7855123,0,-291.35395)"
       x1="39.392406"
       y1="163.18536"
       x2="-40.910686"
       y2="163.41814" />
    <linearGradient
       inkscape:collect="always"
       xlink:href="#linearGradient838"
       id="linearGradient867"
       gradientUnits="userSpaceOnUse"
       gradientTransform="matrix(0.62056435,0,0,1.7285896,7.5261971,-121.87312)"
       x1="19.885836"
       y1="163.47304"
       x2="-40.910686"
       y2="163.41814" />
    <linearGradient
       inkscape:collect="always"
       xlink:href="#linearGradient838"
       id="linearGradient869"
       gradientUnits="userSpaceOnUse"
       gradientTransform="matrix(0.62120394,0,0,0.2514517,7.6115286,124.82528)"
       x1="19.885836"
       y1="163.47304"
       x2="-40.910686"
       y2="163.41814" />
  </defs>
  <sodipodi:namedview
     id="base"
     pagecolor="#ffffff"
     bordercolor="#666666"
     borderopacity="1.0"
     inkscape:pageopacity="0.0"
     inkscape:pageshadow="2"
     inkscape:zoom="1.0509771"
     inkscape:cx="436.17955"
     inkscape:cy="245.36591"
     inkscape:document-units="mm"
     inkscape:current-layer="layer1"
     showgrid="false"
     fit-margin-top="0"
     fit-margin-left="0"
     fit-margin-right="0"
     fit-margin-bottom="0"
     showguides="true"
     inkscape:guide-bbox="true"
     inkscape:snap-to-guides="false"
     inkscape:snap-grids="false"
     inkscape:snap-others="false"
     inkscape:window-width="1920"
     inkscape:window-height="1017"
     inkscape:window-x="1912"
     inkscape:window-y="-8"
     inkscape:window-maximized="1"
     inkscape:object-nodes="false"
     inkscape:snap-nodes="false"
     inkscape:snap-global="false">
    <sodipodi:guide
       position="0.062548438,87.501105"
       orientation="1,0"
       id="guide839"
       inkscape:locked="false" />
    <sodipodi:guide
       position="293.55057,68.526474"
       orientation="1,0"
       id="guide841"
       inkscape:locked="false" />
    <sodipodi:guide
       position="60.815357,12.341844"
       orientation="1,0"
       id="guide846"
       inkscape:locked="false" />
  </sodipodi:namedview>
  <metadata
     id="metadata5">
    <rdf:RDF>
      <cc:Work
         rdf:about="">
        <dc:format>image/svg+xml</dc:format>
        <dc:type
           rdf:resource="http://purl.org/dc/dcmitype/StillImage" />
        <dc:title></dc:title>
      </cc:Work>
    </rdf:RDF>
  </metadata>
  <g
     inkscape:label="Layer 1"
     inkscape:groupmode="layer"
     id="layer1"
     transform="translate(40.916797,-159.88478)">
    <g
       aria-label="Lecturer Support"
       transform="matrix(0.19763069,0,0,0.19763069,70.053534,203.52822)"
       style="font-style:normal;font-weight:normal;font-size:40px;line-height:1.25;font-family:sans-serif;letter-spacing:0px;word-spacing:0px;fill:#000000;fill-opacity:1;stroke:none"
       id="flowRoot15">
      <path
         d="m 40.1875,-219.41211 h 3.984375 v 28.39844 H 40.1875 Z m 1.992188,24.60938 h 16.25 v 3.78906 h -16.25 z"
         style="font-style:normal;font-variant:normal;font-weight:normal;font-stretch:normal;font-family:Bahnschrift;-inkscape-font-specification:Bahnschrift"
         id="path31"
         inkscape:connector-curvature="0" />
      <path
         d="m 71.066406,-190.7207 q -2.8125,0 -4.804687,-1.05469 -1.992188,-1.05469 -3.046875,-3.08594 -1.035156,-2.05078 -1.035156,-4.9414 v -2.28516 q 0,-3.00781 0.996093,-5.13672 1.015625,-2.12891 2.929688,-3.24219 1.914062,-1.11328 4.609375,-1.11328 2.539062,0 4.335937,1.26953 1.796875,1.26953 2.734375,3.67188 0.957032,2.40234 0.957032,5.76172 v 1.32812 H 65.070313 v -3.20312 h 9.882812 v 0 q -0.175781,-2.48047 -1.289062,-3.84766 -1.09375,-1.38672 -2.949219,-1.38672 -2.265625,0 -3.515625,1.48438 -1.230469,1.48437 -1.230469,4.19922 v 2.57812 q 0,2.51953 1.328125,3.86719 1.328125,1.34765 3.769531,1.34765 1.210938,0 2.402344,-0.48828 1.191406,-0.48828 2.128906,-1.36718 v 0 l 2.617188,2.61718 v 0 q -1.503906,1.44532 -3.378906,2.2461 -1.875,0.78125 -3.769532,0.78125 z"
         style="font-style:normal;font-variant:normal;font-weight:normal;font-stretch:normal;font-family:Bahnschrift;-inkscape-font-specification:Bahnschrift"
         id="path33"
         inkscape:connector-curvature="0" />
      <path
         d="m 92.433594,-190.7207 q -2.773438,0 -4.746094,-1.03516 -1.953125,-1.03516 -2.988281,-3.00781 -1.035156,-1.97266 -1.035156,-4.76563 v -3.33984 q 0,-2.75391 1.035156,-4.70703 1.035156,-1.95313 2.988281,-2.96875 1.972656,-1.03516 4.746094,-1.03516 1.582031,0 2.96875,0.39063 1.40625,0.37109 2.519531,1.09375 1.113281,0.72265 1.855469,1.75781 v 0 l -2.871094,2.57812 v 0 q -0.859375,-0.97656 -2.011719,-1.5039 -1.152343,-0.52735 -2.402343,-0.52735 -2.304688,0 -3.574219,1.28907 -1.269531,1.28906 -1.269531,3.63281 v 3.33984 q 0,2.40235 1.25,3.71094 1.269531,1.30859 3.59375,1.30859 1.269531,0 2.421875,-0.5664 1.152343,-0.56641 1.992187,-1.60156 v 0 l 2.871094,2.77343 v 0 q -0.761719,1.01563 -1.875,1.73828 -1.113281,0.70313 -2.519531,1.07422 -1.386719,0.3711 -2.949219,0.3711 z"
         style="font-style:normal;font-variant:normal;font-weight:normal;font-stretch:normal;font-family:Bahnschrift;-inkscape-font-specification:Bahnschrift"
         id="path35"
         inkscape:connector-curvature="0" />
      <path
         d="m 109.44531,-190.91602 q -2.46094,0 -3.61328,-1.34765 -1.13281,-1.36719 -1.13281,-4.02344 v -20.89844 h 3.98437 v 20.9375 q 0,0.74219 0.29297,1.15235 0.29297,0.39062 0.85938,0.39062 H 111.75 v 3.78906 z m -6.83594,-20.37109 H 111.75 v 3.59375 h -9.14063 z"
         style="font-style:normal;font-variant:normal;font-weight:normal;font-stretch:normal;font-family:Bahnschrift;-inkscape-font-specification:Bahnschrift"
         id="path37"
         inkscape:connector-curvature="0" />
      <path
         d="m 129.44531,-211.28711 h 3.96485 v 20.27344 h -3.96485 z m -8.24219,12.32422 q 0,2.12891 1.07422,3.30078 1.09375,1.15234 3.06641,1.15234 1.95312,0 3.02734,-1.03515 1.07422,-1.03516 1.07422,-2.94922 l 0.27344,4.23828 q -0.625,1.50391 -2.03125,2.51953 -1.40625,1.01563 -3.45703,1.01563 -3.35938,0 -5.19531,-2.14844 -1.81641,-2.16797 -1.81641,-6.09375 v -12.32422 h 3.98437 z"
         style="font-style:normal;font-variant:normal;font-weight:normal;font-stretch:normal;font-family:Bahnschrift;-inkscape-font-specification:Bahnschrift"
         id="path39"
         inkscape:connector-curvature="0" />
      <path
         d="m 139.48438,-211.28711 h 3.98437 v 20.27344 h -3.98437 z m 11.15234,4.80469 q -0.52734,-0.64453 -1.32813,-0.97656 -0.80078,-0.33204 -1.85546,-0.33204 -1.89454,0 -2.94922,1.05469 -1.03516,1.03516 -1.03516,2.89063 l -0.41016,-3.90625 q 0.9375,-1.81641 2.42188,-2.8125 1.48437,-1.01563 3.28125,-1.01563 1.38672,0 2.5,0.41016 1.13281,0.39062 1.97266,1.17187 z"
         style="font-style:normal;font-variant:normal;font-weight:normal;font-stretch:normal;font-family:Bahnschrift;-inkscape-font-specification:Bahnschrift"
         id="path41"
         inkscape:connector-curvature="0" />
      <path
         d="m 164.50391,-190.7207 q -2.8125,0 -4.80469,-1.05469 -1.99219,-1.05469 -3.04688,-3.08594 -1.03515,-2.05078 -1.03515,-4.9414 v -2.28516 q 0,-3.00781 0.99609,-5.13672 1.01563,-2.12891 2.92969,-3.24219 1.91406,-1.11328 4.60937,-1.11328 2.53907,0 4.33594,1.26953 1.79688,1.26953 2.73438,3.67188 0.95703,2.40234 0.95703,5.76172 v 1.32812 h -13.67188 v -3.20312 h 9.88282 v 0 q -0.17579,-2.48047 -1.28907,-3.84766 -1.09375,-1.38672 -2.94922,-1.38672 -2.26562,0 -3.51562,1.48438 -1.23047,1.48437 -1.23047,4.19922 v 2.57812 q 0,2.51953 1.32813,3.86719 1.32812,1.34765 3.76953,1.34765 1.21093,0 2.40234,-0.48828 1.19141,-0.48828 2.12891,-1.36718 v 0 l 2.61718,2.61718 v 0 q -1.5039,1.44532 -3.3789,2.2461 -1.875,0.78125 -3.76953,0.78125 z"
         style="font-style:normal;font-variant:normal;font-weight:normal;font-stretch:normal;font-family:Bahnschrift;-inkscape-font-specification:Bahnschrift"
         id="path43"
         inkscape:connector-curvature="0" />
      <path
         d="m 177.6875,-211.28711 h 3.98438 v 20.27344 h -3.98438 z m 11.15234,4.80469 q -0.52734,-0.64453 -1.32812,-0.97656 -0.80078,-0.33204 -1.85547,-0.33204 -1.89453,0 -2.94922,1.05469 -1.03515,1.03516 -1.03515,2.89063 l -0.41016,-3.90625 q 0.9375,-1.81641 2.42187,-2.8125 1.48438,-1.01563 3.28125,-1.01563 1.38672,0 2.5,0.41016 1.13282,0.39062 1.97266,1.17187 z"
         style="font-style:normal;font-variant:normal;font-weight:normal;font-stretch:normal;font-family:Bahnschrift;-inkscape-font-specification:Bahnschrift"
         id="path45"
         inkscape:connector-curvature="0" />
      <path
         d="m 214.50391,-190.7207 q -2.05078,0 -3.88672,-0.39063 -1.83594,-0.39062 -3.4375,-1.17187 -1.58203,-0.78125 -2.96875,-1.95313 v 0 l 2.48047,-3.04687 v 0 q 1.62109,1.40625 3.57422,2.10937 1.95312,0.70313 4.23828,0.70313 3.08593,0 4.78515,-1.13282 1.69922,-1.15234 1.69922,-3.24218 v -0.0195 q 0,-1.48438 -0.78125,-2.34375 -0.76172,-0.87891 -1.99219,-1.28907 -1.21093,-0.42968 -3.14453,-0.78125 -0.0586,-0.0195 -0.13672,-0.0195 -0.0586,0 -0.11718,-0.0195 l -0.29297,-0.0586 q -2.85156,-0.48828 -4.64844,-1.09375 -1.77734,-0.625 -3.04687,-2.2461 -1.26954,-1.64062 -1.26954,-4.64843 v -0.0195 q 0,-2.63671 1.17188,-4.49218 1.19141,-1.875 3.45703,-2.85157 2.26563,-0.97656 5.44922,-0.97656 1.52344,0 2.98828,0.33203 1.48438,0.33203 2.91016,0.9961 1.44531,0.64453 2.83203,1.64062 v 0 l -2.26563,3.16406 v 0 q -1.62109,-1.1914 -3.24218,-1.77734 -1.60157,-0.60547 -3.22266,-0.60547 -2.91016,0 -4.53125,1.17188 -1.60156,1.15234 -1.60156,3.28125 v 0.0195 q 0,1.46484 0.82031,2.30469 0.83984,0.83984 2.07031,1.25 1.25,0.39062 3.45703,0.82031 0.0781,0.0195 0.13672,0.0391 0.0781,0 0.15625,0.0195 0.0977,0.0195 0.21485,0.0391 0.11718,0.0195 0.21484,0.0391 2.57812,0.52734 4.29687,1.25 1.73829,0.72265 2.89063,2.34375 1.17187,1.60156 1.17187,4.39453 v 0.0391 q 0,2.59766 -1.23046,4.45313 -1.23047,1.83593 -3.57422,2.8125 -2.32422,0.95703 -5.625,0.95703 z"
         style="font-style:normal;font-variant:normal;font-weight:normal;font-stretch:normal;font-family:Bahnschrift;-inkscape-font-specification:Bahnschrift"
         id="path47"
         inkscape:connector-curvature="0" />
      <path
         d="m 242.41406,-211.28711 h 3.96485 v 20.27344 h -3.96485 z m -8.24218,12.32422 q 0,2.12891 1.07421,3.30078 1.09375,1.15234 3.06641,1.15234 1.95313,0 3.02734,-1.03515 1.07422,-1.03516 1.07422,-2.94922 l 0.27344,4.23828 q -0.625,1.50391 -2.03125,2.51953 -1.40625,1.01563 -3.45703,1.01563 -3.35938,0 -5.19531,-2.14844 -1.81641,-2.16797 -1.81641,-6.09375 v -12.32422 h 3.98438 z"
         style="font-style:normal;font-variant:normal;font-weight:normal;font-stretch:normal;font-family:Bahnschrift;-inkscape-font-specification:Bahnschrift"
         id="path49"
         inkscape:connector-curvature="0" />
      <path
         d="m 252.45313,-211.28711 h 3.98437 v 28.51563 h -3.98437 z m 9.08203,20.56641 q -1.89453,0 -3.30078,-0.89844 -1.40625,-0.91797 -2.07032,-2.57813 l 0.27344,-4.23828 q 0,1.3086 0.46875,2.22657 0.46875,0.91796 1.34766,1.40625 0.89843,0.48828 2.16797,0.48828 1.97265,0 3.04687,-1.19141 1.09375,-1.21094 1.09375,-3.39844 v -4.39453 q 0,-2.22656 -1.09375,-3.45703 -1.07422,-1.23047 -3.04687,-1.23047 -1.26954,0 -2.16797,0.46875 -0.87891,0.46875 -1.34766,1.38672 -0.46875,0.89844 -0.46875,2.16797 l -0.41016,-3.90625 q 0.91797,-1.77734 2.40235,-2.73438 1.48437,-0.97656 3.30078,-0.97656 2.14844,0 3.67187,0.97656 1.54297,0.95704 2.34375,2.8125 0.80079,1.85547 0.80079,4.47266 v 4.41406 q 0,2.57813 -0.82032,4.41407 -0.82031,1.83593 -2.40234,2.8125 -1.58203,0.95703 -3.78906,0.95703 z"
         style="font-style:normal;font-variant:normal;font-weight:normal;font-stretch:normal;font-family:Bahnschrift;-inkscape-font-specification:Bahnschrift"
         id="path51"
         inkscape:connector-curvature="0" />
      <path
         d="m 274.25,-211.28711 h 3.98438 v 28.51563 H 274.25 Z m 9.08203,20.56641 q -1.89453,0 -3.30078,-0.89844 -1.40625,-0.91797 -2.07031,-2.57813 l 0.27344,-4.23828 q 0,1.3086 0.46875,2.22657 0.46875,0.91796 1.34765,1.40625 0.89844,0.48828 2.16797,0.48828 1.97266,0 3.04688,-1.19141 1.09375,-1.21094 1.09375,-3.39844 v -4.39453 q 0,-2.22656 -1.09375,-3.45703 -1.07422,-1.23047 -3.04688,-1.23047 -1.26953,0 -2.16797,0.46875 -0.8789,0.46875 -1.34765,1.38672 -0.46875,0.89844 -0.46875,2.16797 l -0.41016,-3.90625 q 0.91797,-1.77734 2.40234,-2.73438 1.48438,-0.97656 3.30078,-0.97656 2.14844,0 3.67188,0.97656 1.54297,0.95704 2.34375,2.8125 0.80078,1.85547 0.80078,4.47266 v 4.41406 q 0,2.57813 -0.82031,4.41407 -0.82031,1.83593 -2.40235,2.8125 -1.58203,0.95703 -3.78906,0.95703 z"
         style="font-style:normal;font-variant:normal;font-weight:normal;font-stretch:normal;font-family:Bahnschrift;-inkscape-font-specification:Bahnschrift"
         id="path53"
         inkscape:connector-curvature="0" />
      <path
         d="m 303.82031,-190.7207 q -2.63672,0 -4.51172,-1.03516 -1.875,-1.03516 -2.87109,-3.00781 -0.97656,-1.99219 -0.97656,-4.78516 v -3.30078 q 0,-2.75391 0.97656,-4.70703 0.99609,-1.97266 2.87109,-2.98828 1.875,-1.03516 4.51172,-1.03516 2.63672,0 4.51172,1.03516 1.875,1.01562 2.85156,2.98828 0.9961,1.95312 0.9961,4.70703 v 3.35938 q 0,2.77343 -0.9961,4.74609 -0.97656,1.95312 -2.85156,2.98828 -1.875,1.03516 -4.51172,1.03516 z m 0,-3.78907 q 2.08985,0 3.22266,-1.30859 1.15234,-1.30859 1.15234,-3.67187 v -3.35938 q 0,-2.36328 -1.15234,-3.65234 -1.13281,-1.28907 -3.22266,-1.28907 -2.08984,0 -3.24218,1.28907 -1.13282,1.28906 -1.13282,3.65234 v 3.35938 q 0,2.36328 1.13282,3.67187 1.15234,1.30859 3.24218,1.30859 z"
         style="font-style:normal;font-variant:normal;font-weight:normal;font-stretch:normal;font-family:Bahnschrift;-inkscape-font-specification:Bahnschrift"
         id="path55"
         inkscape:connector-curvature="0" />
      <path
         d="m 317.84375,-211.28711 h 3.98438 v 20.27344 h -3.98438 z m 11.15234,4.80469 q -0.52734,-0.64453 -1.32812,-0.97656 -0.80078,-0.33204 -1.85547,-0.33204 -1.89453,0 -2.94922,1.05469 -1.03515,1.03516 -1.03515,2.89063 l -0.41016,-3.90625 q 0.9375,-1.81641 2.42187,-2.8125 1.48438,-1.01563 3.28125,-1.01563 1.38672,0 2.5,0.41016 1.13282,0.39062 1.97266,1.17187 z"
         style="font-style:normal;font-variant:normal;font-weight:normal;font-stretch:normal;font-family:Bahnschrift;-inkscape-font-specification:Bahnschrift"
         id="path57"
         inkscape:connector-curvature="0" />
      <path
         d="m 340.22656,-190.91602 q -2.46093,0 -3.61328,-1.34765 -1.13281,-1.36719 -1.13281,-4.02344 v -20.89844 h 3.98437 v 20.9375 q 0,0.74219 0.29297,1.15235 0.29297,0.39062 0.85938,0.39062 h 1.91406 v 3.78906 z m -6.83593,-20.37109 h 9.14062 v 3.59375 h -9.14062 z"
         style="font-style:normal;font-variant:normal;font-weight:normal;font-stretch:normal;font-family:Bahnschrift;-inkscape-font-specification:Bahnschrift"
         id="path59"
         inkscape:connector-curvature="0" />
    </g>
    <g
       id="g855">
      <path
         sodipodi:nodetypes="cc"
         inkscape:connector-curvature="0"
         id="path23"
         d="m -40.910686,163.84929 105.577715,-0.5523"
         style="fill:none;stroke:url(#linearGradient840);stroke-width:2.33657956;stroke-linecap:butt;stroke-linejoin:miter;stroke-miterlimit:4;stroke-dasharray:none;stroke-opacity:1" />
      <path
         style="fill:none;stroke:url(#linearGradient844);stroke-width:1.44999802;stroke-linecap:butt;stroke-linejoin:miter;stroke-miterlimit:4;stroke-dasharray:none;stroke-opacity:1"
         d="m -17.861516,160.60978 37.728153,0.0949"
         id="path842"
         inkscape:connector-curvature="0"
         sodipodi:nodetypes="cc" />
      <path
         sodipodi:nodetypes="cc"
         inkscape:connector-curvature="0"
         id="path848"
         d="m -17.802351,165.91705 37.767039,0.0138"
         style="fill:none;stroke:url(#linearGradient850);stroke-width:0.55331498;stroke-linecap:butt;stroke-linejoin:miter;stroke-miterlimit:4;stroke-dasharray:none;stroke-opacity:1" />
    </g>
    <g
       id="g863"
       transform="matrix(-1.0722873,0,0,0.99968877,212.78649,0.26020707)">
      <path
         style="fill:none;stroke:url(#linearGradient865);stroke-width:2.33657956;stroke-linecap:butt;stroke-linejoin:miter;stroke-miterlimit:4;stroke-dasharray:none;stroke-opacity:1"
         d="M -40.910686,163.84929 59.480025,163.02283"
         id="path857"
         inkscape:connector-curvature="0"
         sodipodi:nodetypes="cc" />
      <path
         sodipodi:nodetypes="cc"
         inkscape:connector-curvature="0"
         id="path859"
         d="m -17.861516,160.60978 37.728153,0.0949"
         style="fill:none;stroke:url(#linearGradient867);stroke-width:1.44999802;stroke-linecap:butt;stroke-linejoin:miter;stroke-miterlimit:4;stroke-dasharray:none;stroke-opacity:1" />
      <path
         style="fill:none;stroke:url(#linearGradient869);stroke-width:0.55331498;stroke-linecap:butt;stroke-linejoin:miter;stroke-miterlimit:4;stroke-dasharray:none;stroke-opacity:1"
         d="m -17.802351,165.91705 37.767039,0.0138"
         id="path861"
         inkscape:connector-curvature="0"
         sodipodi:nodetypes="cc" />
    </g>
  </g>
</svg>
