<?xml version="1.0" encoding="UTF-8" standalone="no"?>
<svg
   xmlns:dc="http://purl.org/dc/elements/1.1/"
   xmlns:cc="http://creativecommons.org/ns#"
   xmlns:rdf="http://www.w3.org/1999/02/22-rdf-syntax-ns#"
   xmlns:svg="http://www.w3.org/2000/svg"
   xmlns="http://www.w3.org/2000/svg"
   xmlns:sodipodi="http://sodipodi.sourceforge.net/DTD/sodipodi-0.dtd"
   xmlns:inkscape="http://www.inkscape.org/namespaces/inkscape"
   version="1.1"
   id="svg2"
   xml:space="preserve"
   width="1116.7445"
   height="138.65242"
   viewBox="0 0 1116.7445 138.65241"
   sodipodi:docname="msc.svg"
   inkscape:version="0.92.2 (5c3e80d, 2017-08-06)"
   inkscape:export-filename="C:\xampp\htdocs\FTLS\FYI.png"
   inkscape:export-xdpi="83.085457"
   inkscape:export-ydpi="83.085457"><metadata
     id="metadata8"><rdf:RDF><cc:Work
         rdf:about=""><dc:format>image/svg+xml</dc:format><dc:type
           rdf:resource="http://purl.org/dc/dcmitype/StillImage" /><dc:title /></cc:Work></rdf:RDF></metadata><defs
     id="defs6" /><sodipodi:namedview
     pagecolor="#ffffff"
     bordercolor="#666666"
     borderopacity="1"
     objecttolerance="10"
     gridtolerance="10"
     guidetolerance="10"
     inkscape:pageopacity="0"
     inkscape:pageshadow="2"
     inkscape:window-width="1920"
     inkscape:window-height="1017"
     id="namedview4"
     showgrid="false"
     inkscape:zoom="1.0843875"
     inkscape:cx="472.20127"
     inkscape:cy="116.40643"
     inkscape:window-x="1912"
     inkscape:window-y="-8"
     inkscape:window-maximized="1"
     inkscape:current-layer="g10"
     showborder="true"
     fit-margin-top="0"
     fit-margin-left="0"
     fit-margin-right="0"
     fit-margin-bottom="0"
     showguides="true"
     inkscape:guide-bbox="true"><sodipodi:guide
       position="164.03737,187.03326"
       orientation="1,0"
       id="guide1439"
       inkscape:locked="false" /></sodipodi:namedview><g
     inkscape:groupmode="layer"
     id="layer1"
     inkscape:label="outline"
     style="display:none;opacity:0.125"
     transform="translate(260.19213,244.43772)"
     sodipodi:insensitive="true"><rect
       style="opacity:1;fill:none;fill-opacity:1;stroke:#000000;stroke-width:5.27622032;stroke-miterlimit:4;stroke-dasharray:none;stroke-opacity:1"
       id="rect208"
       width="1111.4683"
       height="133.37621"
       x="-257.55402"
       y="-241.79961" /><rect
       style="opacity:1;fill:none;fill-opacity:1;stroke:#000000;stroke-width:5.27622032;stroke-miterlimit:4;stroke-dasharray:none;stroke-opacity:1"
       id="rect1031"
       width="124.1778"
       height="107.31411"
       x="-243.75648"
       y="-230.30167" /><path
       style="fill:none;stroke:#000000;stroke-width:1px;stroke-linecap:butt;stroke-linejoin:miter;stroke-opacity:1"
       d="m -104.24805,-124.52054 938.23246,1.53306"
       id="path1033"
       inkscape:connector-curvature="0"
       sodipodi:nodetypes="cc" /></g><g
     id="g10"
     inkscape:groupmode="layer"
     inkscape:label="Academic Advising"
     transform="matrix(1.3333333,0,0,-1.3333333,260.19213,1311.1044)"
     style="display:inline"><flowRoot
       xml:space="preserve"
       id="flowRoot1358"
       style="font-style:normal;font-weight:normal;font-size:40px;line-height:1.25;font-family:sans-serif;letter-spacing:0px;word-spacing:0px;fill:#000000;fill-opacity:1;stroke:none"><flowRegion
         id="flowRegion1360"><rect
           id="rect1362"
           width="364.67142"
           height="151.20522"
           x="85.386475"
           y="234.14859" /></flowRegion><flowPara
         id="flowPara1364" /></flowRoot><flowRoot
       xml:space="preserve"
       id="flowRoot1366"
       style="font-style:normal;font-weight:normal;font-size:40px;line-height:1.25;font-family:sans-serif;letter-spacing:0px;word-spacing:0px;fill:#000000;fill-opacity:1;stroke:none"><flowRegion
         id="flowRegion1368"><rect
           id="rect1370"
           width="663.52411"
           height="158.32076"
           x="78.270935"
           y="200.34978" /></flowRegion><flowPara
         id="flowPara1372" /></flowRoot><g
       aria-label="Maths and Stats Center"
       transform="scale(1,-1)"
       style="font-style:normal;font-weight:normal;font-size:37.00810242px;line-height:1.25;font-family:sans-serif;letter-spacing:0px;word-spacing:0px;fill:#000000;fill-opacity:1;stroke:none;stroke-width:0.92520249"
       id="text1392"><path
         d="m -53.036444,-948.27461 h 3.451439 v 26.2743 h -3.596002 v -19.67862 l 0.180704,1.1565 -6.46919,14.87191 h -2.565991 l -6.46919,-14.5105 0.180703,-1.51791 v 19.67862 h -3.596002 v -26.2743 h 3.45144 l 7.716044,17.34755 z"
         style="font-style:normal;font-variant:normal;font-weight:normal;font-stretch:normal;font-family:Bahnschrift;-inkscape-font-specification:Bahnschrift;stroke-width:0.92520249"
         id="path36" /><path
         d="m -32.85185,-933.8906 q 0,-1.84318 -0.99387,-2.85512 -0.975799,-1.03001 -2.782836,-1.03001 -1.120362,0 -2.204584,0.34334 -1.066151,0.34333 -1.897388,0.95772 l -2.692484,-1.84317 q 1.066152,-1.283 2.800906,-1.98774 1.752825,-0.72282 3.885128,-0.72282 2.331077,0 3.99355,0.83124 1.662474,0.81317 2.529851,2.38529 0.867378,1.55405 0.867378,3.75863 v 12.05293 h -3.505651 z m -4.589872,12.16135 q -3.469509,0 -5.186194,-1.42756 -1.716684,-1.44563 -1.716684,-4.37303 0,-2.78283 1.572121,-4.17425 1.572122,-1.39142 4.752506,-1.39142 h 5.330756 l 0.252986,2.96354 h -5.565672 q -1.445629,0 -2.168444,0.65053 -0.704744,0.63247 -0.704744,1.9516 0,1.42756 0.939659,2.11424 0.957729,0.68667 2.891258,0.68667 2.114233,0 3.144243,-0.45176 1.048081,-0.45176 1.048081,-1.40949 l 0.379478,2.63828 q -0.4879,0.75895 -1.210714,1.24685 -0.704745,0.4879 -1.644403,0.72282 -0.939659,0.25298 -2.114233,0.25298 z"
         style="font-style:normal;font-variant:normal;font-weight:normal;font-stretch:normal;font-family:Bahnschrift;-inkscape-font-specification:Bahnschrift;stroke-width:0.92520249"
         id="path38" /><path
         d="m -18.829247,-921.90995 q -2.276865,0 -3.343017,-1.24686 -1.048081,-1.26492 -1.048081,-3.72249 v -19.33529 h 3.686354 v 19.37143 q 0,0.68667 0.271056,1.06615 0.271055,0.36141 0.795096,0.36141 h 1.770895 v 3.50565 z m -6.324627,-18.84739 h 8.45693 v 3.32495 h -8.45693 z"
         style="font-style:normal;font-variant:normal;font-weight:normal;font-stretch:normal;font-family:Bahnschrift;-inkscape-font-specification:Bahnschrift;stroke-width:0.92520249"
         id="path40" /><path
         d="m -11.637245,-948.27461 h 3.6863535 v 26.2743 h -3.6863535 z m 11.38432796,14.90805 q 0,-1.98774 -1.03001066,-3.07196 -1.0300107,-1.08423 -2.891258,-1.08423 -1.8070363,0 -2.8009062,0.93966 -0.9757996,0.93966 -0.9757996,2.65635 l -0.3794776,-3.61408 q 0.8673774,-1.66247 2.2587953,-2.56599 1.4094883,-0.92159 3.1081024,-0.92159 3.05389125,0 4.7163646,2.00581 1.6805437,1.98774 1.6805437,5.63796 v 11.38432 h -3.68635394 z"
         style="font-style:normal;font-variant:normal;font-weight:normal;font-stretch:normal;font-family:Bahnschrift;-inkscape-font-specification:Bahnschrift;stroke-width:0.92520249"
         id="path42" /><path
         d="m 15.667071,-921.72925 q -1.662474,0 -3.126173,-0.32527 -1.445629,-0.32526 -2.7105545,-0.9758 -1.2649254,-0.65053 -2.3310767,-1.62633 v 0 l 2.1865138,-2.69248 v 0 q 1.5179104,1.1565 3.0177504,1.73475 1.49984,0.57825 2.96354,0.57825 2.186513,0 3.270735,-0.6686 1.102292,-0.68667 1.102292,-2.04195 0,-0.90352 -0.596322,-1.35528 -0.596322,-0.45176 -1.481769,-0.59632 -0.885448,-0.16263 -2.49371,-0.28913 -0.144563,0 -0.307197,0 -0.162633,-0.0181 -0.307196,-0.0361 -0.07228,0 -0.144563,0 -0.07228,-0.0181 -0.144563,-0.0181 -1.825106,-0.14456 -3.090031,-0.52404 -1.264926,-0.39754 -2.1142329,-1.4637 -0.8312367,-1.06615 -0.8312367,-3.05389 0,-1.98774 0.8131663,-3.30687 0.8131663,-1.31914 2.4214283,-1.96967 1.608263,-0.66861 4.029691,-0.66861 1.4637,0 2.782836,0.27106 1.337207,0.27105 2.547921,0.81316 1.210714,0.52405 2.331077,1.33721 v 0 l -2.222655,2.69249 v 0 q -1.409488,-0.90352 -2.782836,-1.35528 -1.355277,-0.45176 -2.656343,-0.45176 -1.879318,0 -2.818976,0.65053 -0.939659,0.63247 -0.939659,1.91546 0,0.75896 0.52404,1.13843 0.542111,0.37948 1.355277,0.50597 0.813167,0.1265 2.313007,0.21685 0.108422,0.0181 0.216844,0.0181 0.126493,0 0.252985,0.0181 0.05421,0 0.108422,0 0.05421,0 0.108423,0.0181 1.969669,0.12649 3.343017,0.52404 1.391418,0.39755 2.331076,1.57212 0.939659,1.17457 0.939659,3.39723 0,2.02388 -0.867377,3.36109 -0.867378,1.31913 -2.620203,1.98774 -1.734754,0.6686 -4.373027,0.6686 z"
         style="font-style:normal;font-variant:normal;font-weight:normal;font-stretch:normal;font-family:Bahnschrift;-inkscape-font-specification:Bahnschrift;stroke-width:0.92520249"
         id="path44" /><path
         d="m 48.826186,-933.8906 q 0,-1.84318 -0.99387,-2.85512 -0.9758,-1.03001 -2.782836,-1.03001 -1.120362,0 -2.204584,0.34334 -1.066151,0.34333 -1.897388,0.95772 l -2.692484,-1.84317 q 1.066151,-1.283 2.800906,-1.98774 1.752825,-0.72282 3.885128,-0.72282 2.331077,0 3.99355,0.83124 1.662473,0.81317 2.529851,2.38529 0.867377,1.55405 0.867377,3.75863 v 12.05293 h -3.50565 z m -4.589872,12.16135 q -3.46951,0 -5.186194,-1.42756 -1.716685,-1.44563 -1.716685,-4.37303 0,-2.78283 1.572122,-4.17425 1.572121,-1.39142 4.752505,-1.39142 h 5.330757 l 0.252985,2.96354 h -5.565671 q -1.445629,0 -2.168444,0.65053 -0.704744,0.63247 -0.704744,1.9516 0,1.42756 0.939659,2.11424 0.957729,0.68667 2.891258,0.68667 2.114232,0 3.144243,-0.45176 1.048081,-0.45176 1.048081,-1.40949 l 0.379478,2.63828 q -0.4879,0.75895 -1.210715,1.24685 -0.704744,0.4879 -1.644403,0.72282 -0.939659,0.25298 -2.114232,0.25298 z"
         style="font-style:normal;font-variant:normal;font-weight:normal;font-stretch:normal;font-family:Bahnschrift;-inkscape-font-specification:Bahnschrift;stroke-width:0.92520249"
         id="path46" /><path
         d="m 57.969795,-940.75734 h 3.686354 v 18.75703 h -3.686354 z m 11.384328,7.39078 q 0,-1.98774 -1.03001,-3.07196 -1.030011,-1.08423 -2.891258,-1.08423 -1.807037,0 -2.800906,0.95773 -0.9758,0.95773 -0.9758,2.69249 l -0.379478,-3.61408 q 0.867378,-1.69861 2.258796,-2.6202 1.409488,-0.92159 3.108102,-0.92159 3.053891,0 4.716365,2.00581 1.680543,1.98774 1.680543,5.63796 v 11.38432 h -3.686354 z"
         style="font-style:normal;font-variant:normal;font-weight:normal;font-stretch:normal;font-family:Bahnschrift;-inkscape-font-specification:Bahnschrift;stroke-width:0.92520249"
         id="path48" /><path
         d="m 89.303794,-948.27461 h 3.686354 v 26.2743 h -3.686354 z m -4.716364,26.59957 q -2.060022,0 -3.523721,-0.88545 -1.445629,-0.90351 -2.204584,-2.6202 -0.758956,-1.71668 -0.758956,-4.12004 v -4.13811 q 0,-2.42143 0.740885,-4.13812 0.740885,-1.71668 2.150373,-2.60213 1.427559,-0.90352 3.415299,-0.90352 1.662473,0 3.035821,0.86738 1.391418,0.86738 2.240725,2.4395 l -0.379478,3.83092 q 0,-1.19265 -0.433688,-2.04196 -0.433689,-0.8493 -1.264926,-1.28299 -0.813166,-0.45176 -1.98774,-0.45176 -1.825106,0 -2.837047,1.13843 -0.99387,1.13844 -0.99387,3.19846 v 4.0839 q 0,2.04195 0.99387,3.16231 1.011941,1.10229 2.837047,1.10229 1.174574,0 1.98774,-0.45176 0.831237,-0.46982 1.264926,-1.3372 0.433688,-0.86738 0.433688,-2.07809 l 0.252985,3.95741 q -0.560181,1.39141 -1.843177,2.33107 -1.264925,0.93966 -3.126172,0.93966 z"
         style="font-style:normal;font-variant:normal;font-weight:normal;font-stretch:normal;font-family:Bahnschrift;-inkscape-font-specification:Bahnschrift;stroke-width:0.92520249"
         id="path50" /><path
         d="m 116.82497,-921.72925 q -1.89739,0 -3.59601,-0.36141 -1.69861,-0.3614 -3.18038,-1.08422 -1.4637,-0.72281 -2.7467,-1.80703 v 0 l 2.29494,-2.81898 v 0 q 1.49984,1.30106 3.30688,1.9516 1.80703,0.65053 3.92127,0.65053 2.85511,0 4.42723,-1.04808 1.57213,-1.06615 1.57213,-2.99968 v -0.0181 q 0,-1.37335 -0.72282,-2.16844 -0.70474,-0.81317 -1.84318,-1.19265 -1.12036,-0.39755 -2.90932,-0.72281 -0.0542,-0.0181 -0.1265,-0.0181 -0.0542,0 -0.10842,-0.0181 l -0.27105,-0.0542 q -2.63828,-0.45176 -4.30075,-1.01194 -1.6444,-0.57826 -2.81898,-2.0781 -1.17457,-1.51791 -1.17457,-4.30074 v -0.0181 q 0,-2.4395 1.08422,-4.15619 1.10229,-1.73475 3.19846,-2.63827 2.09616,-0.90352 5.04163,-0.90352 1.40949,0 2.76476,0.3072 1.37335,0.30719 2.69249,0.92159 1.3372,0.59632 2.6202,1.51791 v 0 l -2.09616,2.9274 v 0 q -1.49984,-1.1023 -2.99968,-1.64441 -1.48177,-0.56018 -2.98161,-0.56018 -2.69249,0 -4.19233,1.08422 -1.48177,1.06616 -1.48177,3.03582 v 0.0181 q 0,1.35528 0.75896,2.13231 0.77702,0.77702 1.91546,1.1565 1.1565,0.36141 3.19845,0.75896 0.0723,0.0181 0.12649,0.0361 0.0723,0 0.14457,0.0181 0.0904,0.0181 0.19877,0.0361 0.10842,0.0181 0.19877,0.0361 2.38529,0.4879 3.97548,1.1565 1.60827,0.66861 2.67442,2.16845 1.08422,1.48177 1.08422,4.06583 v 0.0361 q 0,2.40336 -1.13843,4.12004 -1.13844,1.69861 -3.30688,2.60213 -2.15037,0.88545 -5.20426,0.88545 z"
         style="font-style:normal;font-variant:normal;font-weight:normal;font-stretch:normal;font-family:Bahnschrift;-inkscape-font-specification:Bahnschrift;stroke-width:0.92520249"
         id="path52" /><path
         d="m 136.21447,-921.90995 q -2.27687,0 -3.34302,-1.24686 -1.04808,-1.26492 -1.04808,-3.72249 v -19.33529 h 3.68636 v 19.37143 q 0,0.68667 0.27105,1.06615 0.27106,0.36141 0.7951,0.36141 h 1.77089 v 3.50565 z m -6.32463,-18.84739 h 8.45693 v 3.32495 h -8.45693 z"
         style="font-style:normal;font-variant:normal;font-weight:normal;font-stretch:normal;font-family:Bahnschrift;-inkscape-font-specification:Bahnschrift;stroke-width:0.92520249"
         id="path54" /><path
         d="m 153.9957,-933.8906 q 0,-1.84318 -0.99387,-2.85512 -0.9758,-1.03001 -2.78283,-1.03001 -1.12036,0 -2.20459,0.34334 -1.06615,0.34333 -1.89738,0.95772 l -2.69249,-1.84317 q 1.06615,-1.283 2.80091,-1.98774 1.75282,-0.72282 3.88513,-0.72282 2.33107,0 3.99355,0.83124 1.66247,0.81317 2.52985,2.38529 0.86737,1.55405 0.86737,3.75863 v 12.05293 h -3.50565 z m -4.58987,12.16135 q -3.46951,0 -5.18619,-1.42756 -1.71669,-1.44563 -1.71669,-4.37303 0,-2.78283 1.57212,-4.17425 1.57213,-1.39142 4.75251,-1.39142 h 5.33076 l 0.25298,2.96354 h -5.56567 q -1.44563,0 -2.16844,0.65053 -0.70475,0.63247 -0.70475,1.9516 0,1.42756 0.93966,2.11424 0.95773,0.68667 2.89126,0.68667 2.11423,0 3.14424,-0.45176 1.04808,-0.45176 1.04808,-1.40949 l 0.37948,2.63828 q -0.4879,0.75895 -1.21071,1.24685 -0.70475,0.4879 -1.64441,0.72282 -0.93966,0.25298 -2.11423,0.25298 z"
         style="font-style:normal;font-variant:normal;font-weight:normal;font-stretch:normal;font-family:Bahnschrift;-inkscape-font-specification:Bahnschrift;stroke-width:0.92520249"
         id="path56" /><path
         d="m 168.0183,-921.90995 q -2.27686,0 -3.34301,-1.24686 -1.04809,-1.26492 -1.04809,-3.72249 v -19.33529 h 3.68636 v 19.37143 q 0,0.68667 0.27105,1.06615 0.27106,0.36141 0.7951,0.36141 h 1.7709 v 3.50565 z m -6.32462,-18.84739 h 8.45693 v 3.32495 h -8.45693 z"
         style="font-style:normal;font-variant:normal;font-weight:normal;font-stretch:normal;font-family:Bahnschrift;-inkscape-font-specification:Bahnschrift;stroke-width:0.92520249"
         id="path58" /><path
         d="m 181.84213,-921.72925 q -1.66248,0 -3.12618,-0.32527 -1.44562,-0.32526 -2.71055,-0.9758 -1.26493,-0.65053 -2.33108,-1.62633 v 0 l 2.18652,-2.69248 v 0 q 1.51791,1.1565 3.01775,1.73475 1.49984,0.57825 2.96354,0.57825 2.18651,0 3.27073,-0.6686 1.10229,-0.68667 1.10229,-2.04195 0,-0.90352 -0.59632,-1.35528 -0.59632,-0.45176 -1.48177,-0.59632 -0.88544,-0.16263 -2.49371,-0.28913 -0.14456,0 -0.30719,0 -0.16264,-0.0181 -0.3072,-0.0361 -0.0723,0 -0.14456,0 -0.0723,-0.0181 -0.14457,-0.0181 -1.8251,-0.14456 -3.09003,-0.52404 -1.26492,-0.39754 -2.11423,-1.4637 -0.83124,-1.06615 -0.83124,-3.05389 0,-1.98774 0.81317,-3.30687 0.81317,-1.31914 2.42143,-1.96967 1.60826,-0.66861 4.02969,-0.66861 1.4637,0 2.78284,0.27106 1.3372,0.27105 2.54792,0.81316 1.21071,0.52405 2.33107,1.33721 v 0 l -2.22265,2.69249 v 0 q -1.40949,-0.90352 -2.78284,-1.35528 -1.35527,-0.45176 -2.65634,-0.45176 -1.87932,0 -2.81898,0.65053 -0.93966,0.63247 -0.93966,1.91546 0,0.75896 0.52404,1.13843 0.54212,0.37948 1.35528,0.50597 0.81317,0.1265 2.31301,0.21685 0.10842,0.0181 0.21684,0.0181 0.1265,0 0.25299,0.0181 0.0542,0 0.10842,0 0.0542,0 0.10842,0.0181 1.96967,0.12649 3.34302,0.52404 1.39142,0.39755 2.33108,1.57212 0.93965,1.17457 0.93965,3.39723 0,2.02388 -0.86737,3.36109 -0.86738,1.31913 -2.62021,1.98774 -1.73475,0.6686 -4.37302,0.6686 z"
         style="font-style:normal;font-variant:normal;font-weight:normal;font-stretch:normal;font-family:Bahnschrift;-inkscape-font-specification:Bahnschrift;stroke-width:0.92520249"
         id="path60" /><path
         d="m 213.37491,-921.72925 q -2.72862,0 -4.80672,-1.21071 -2.06002,-1.21072 -3.19845,-3.43337 -1.13843,-2.22266 -1.13843,-5.15006 v -7.21007 q 0,-2.9274 1.13843,-5.15005 1.13843,-2.22266 3.19845,-3.43337 2.0781,-1.22879 4.80672,-1.22879 2.2588,0 4.15618,0.9758 1.89739,0.95773 3.16232,2.72863 1.28299,1.77089 1.73475,4.10197 v 0 h -3.7767 v 0 q -0.34334,-1.22879 -1.15651,-2.18651 -0.79509,-0.9758 -1.87932,-1.49985 -1.08422,-0.52404 -2.24072,-0.52404 -1.60826,0 -2.81898,0.77703 -1.21071,0.77703 -1.87931,2.18651 -0.66861,1.39142 -0.66861,3.25267 v 7.21007 q 0,1.84318 0.66861,3.25267 0.6686,1.40949 1.87931,2.18651 1.21072,0.75896 2.81898,0.75896 1.17457,0 2.24072,-0.4879 1.08423,-0.4879 1.87932,-1.44563 0.81317,-0.95773 1.15651,-2.27687 v 0 h 3.7767 v 0 q -0.45176,2.33108 -1.73475,4.10198 -1.283,1.77089 -3.18039,2.74669 -1.89739,0.95773 -4.13811,0.95773 z"
         style="font-style:normal;font-variant:normal;font-weight:normal;font-stretch:normal;font-family:Bahnschrift;-inkscape-font-specification:Bahnschrift;stroke-width:0.92520249"
         id="path62" /><path
         d="m 235.00512,-921.72925 q -2.60213,0 -4.44531,-0.9758 -1.84317,-0.9758 -2.81897,-2.85512 -0.95773,-1.89738 -0.95773,-4.5718 v -2.11423 q 0,-2.78284 0.92159,-4.75251 0.93965,-1.96967 2.71055,-2.99968 1.7709,-1.03001 4.26461,-1.03001 2.34914,0 4.01162,1.17458 1.66247,1.17457 2.52985,3.39722 0.88544,2.22266 0.88544,5.33076 v 1.22879 h -12.64925 v -2.96354 h 9.1436 v 0 q -0.16263,-2.29494 -1.19264,-3.55986 -1.01194,-1.283 -2.72862,-1.283 -2.09617,0 -3.25267,1.37335 -1.13843,1.37334 -1.13843,3.88513 v 2.38528 q 0,2.33108 1.22878,3.57793 1.22879,1.24686 3.48758,1.24686 1.12036,0 2.22266,-0.45176 1.10229,-0.45176 1.96967,-1.26492 v 0 l 2.42142,2.42142 v 0 q -1.39141,1.33721 -3.12617,2.0781 -1.73475,0.72281 -3.48758,0.72281 z"
         style="font-style:normal;font-variant:normal;font-weight:normal;font-stretch:normal;font-family:Bahnschrift;-inkscape-font-specification:Bahnschrift;stroke-width:0.92520249"
         id="path64" /><path
         d="m 247.20263,-940.75734 h 3.68635 v 18.75703 h -3.68635 z m 11.38433,7.39078 q 0,-1.98774 -1.03001,-3.07196 -1.03001,-1.08423 -2.89126,-1.08423 -1.80704,0 -2.80091,0.95773 -0.9758,0.95773 -0.9758,2.69249 l -0.37947,-3.61408 q 0.86737,-1.69861 2.25879,-2.6202 1.40949,-0.92159 3.1081,-0.92159 3.05389,0 4.71637,2.00581 1.68054,1.98774 1.68054,5.63796 v 11.38432 h -3.68635 z"
         style="font-style:normal;font-variant:normal;font-weight:normal;font-stretch:normal;font-family:Bahnschrift;-inkscape-font-specification:Bahnschrift;stroke-width:0.92520249"
         id="path66" /><path
         d="m 272.75411,-921.90995 q -2.27686,0 -3.34301,-1.24686 -1.04809,-1.26492 -1.04809,-3.72249 v -19.33529 h 3.68636 v 19.37143 q 0,0.68667 0.27105,1.06615 0.27106,0.36141 0.7951,0.36141 h 1.77089 v 3.50565 z m -6.32462,-18.84739 h 8.45692 v 3.32495 h -8.45692 z"
         style="font-style:normal;font-variant:normal;font-weight:normal;font-stretch:normal;font-family:Bahnschrift;-inkscape-font-specification:Bahnschrift;stroke-width:0.92520249"
         id="path68" /><path
         d="m 287.62603,-921.72925 q -2.60213,0 -4.44531,-0.9758 -1.84317,-0.9758 -2.81897,-2.85512 -0.95773,-1.89738 -0.95773,-4.5718 v -2.11423 q 0,-2.78284 0.92159,-4.75251 0.93966,-1.96967 2.71055,-2.99968 1.7709,-1.03001 4.26461,-1.03001 2.34914,0 4.01162,1.17458 1.66247,1.17457 2.52985,3.39722 0.88545,2.22266 0.88545,5.33076 v 1.22879 h -12.64926 v -2.96354 h 9.1436 v 0 q -0.16263,-2.29494 -1.19264,-3.55986 -1.01194,-1.283 -2.72862,-1.283 -2.09617,0 -3.25267,1.37335 -1.13843,1.37334 -1.13843,3.88513 v 2.38528 q 0,2.33108 1.22878,3.57793 1.22879,1.24686 3.48758,1.24686 1.12037,0 2.22266,-0.45176 1.10229,-0.45176 1.96967,-1.26492 v 0 l 2.42143,2.42142 v 0 q -1.39142,1.33721 -3.12618,2.0781 -1.73475,0.72281 -3.48758,0.72281 z"
         style="font-style:normal;font-variant:normal;font-weight:normal;font-stretch:normal;font-family:Bahnschrift;-inkscape-font-specification:Bahnschrift;stroke-width:0.92520249"
         id="path70" /><path
         d="m 299.82354,-940.75734 h 3.68635 v 18.75703 h -3.68635 z m 10.31818,4.44531 q -0.4879,-0.59632 -1.22879,-0.90352 -0.74088,-0.3072 -1.71668,-0.3072 -1.75283,0 -2.72863,0.9758 -0.95773,0.95773 -0.95773,2.67442 l -0.37947,-3.61408 q 0.86737,-1.68054 2.24072,-2.60213 1.37335,-0.93966 3.03582,-0.93966 1.283,0 2.31301,0.37948 1.04808,0.36141 1.8251,1.08422 z"
         style="font-style:normal;font-variant:normal;font-weight:normal;font-stretch:normal;font-family:Bahnschrift;-inkscape-font-specification:Bahnschrift;stroke-width:0.92520249"
         id="path72" /></g><g
       transform="matrix(0.13993848,0,0,0.13993848,-336.42735,653.02051)"
       id="g300"><path
         d="m 1538.13,1835.14 c 0,-6.95 -5.65,-12.6 -12.59,-12.6 h -251.08 c -6.94,0 -12.59,5.65 -12.59,12.6 v 335.25 c 0,6.94 5.65,12.59 12.59,12.59 h 251.08 c 6.94,0 12.59,-5.65 12.59,-12.59 z m -12.59,362.1 h -251.08 c -14.8,0 -26.85,-12.05 -26.85,-26.85 v -335.25 c 0,-14.8 12.05,-26.85 26.85,-26.85 h 251.08 c 14.81,0 26.85,12.05 26.85,26.85 v 335.25 c 0,14.8 -12.04,26.85 -26.85,26.85"
         style="fill:#100f0d;fill-opacity:1;fill-rule:nonzero;stroke:none;stroke-width:0.1"
         id="path74"
         inkscape:connector-curvature="0" /><path
         d="m 1370.1,1976.21 h -72.79 v 72.8 h 72.79 z m 7.13,87.05 h -87.05 c -3.93,0 -7.13,-3.19 -7.13,-7.13 v -87.04 c 0,-3.94 3.2,-7.13 7.13,-7.13 h 87.05 c 3.93,0 7.13,3.19 7.13,7.13 v 87.04 c 0,3.94 -3.2,7.13 -7.13,7.13"
         style="fill:#100f0d;fill-opacity:1;fill-rule:nonzero;stroke:none;stroke-width:0.1"
         id="path76"
         inkscape:connector-curvature="0" /><path
         d="m 1502.69,2100.35 h -205.38 v 53.11 h 205.38 z m 7.13,67.36 h -219.64 c -3.93,0 -7.13,-3.19 -7.13,-7.13 v -67.35 c 0,-3.94 3.2,-7.13 7.13,-7.13 h 219.64 c 3.94,0 7.13,3.19 7.13,7.13 v 67.35 c 0,3.94 -3.19,7.13 -7.13,7.13"
         style="fill:#100f0d;fill-opacity:1;fill-rule:nonzero;stroke:none;stroke-width:0.1"
         id="path78"
         inkscape:connector-curvature="0" /><path
         d="m 1502.69,1976.21 h -72.79 v 72.8 h 72.79 z m 7.13,87.05 h -87.05 c -3.93,0 -7.12,-3.19 -7.12,-7.13 v -87.04 c 0,-3.94 3.19,-7.13 7.12,-7.13 h 87.05 c 3.94,0 7.13,3.19 7.13,7.13 v 87.04 c 0,3.94 -3.19,7.13 -7.13,7.13"
         style="fill:#100f0d;fill-opacity:1;fill-rule:nonzero;stroke:none;stroke-width:0.1"
         id="path80"
         inkscape:connector-curvature="0" /><path
         d="m 1370.1,1852.07 h -72.79 v 72.8 h 72.79 z m 7.13,87.05 h -87.05 c -3.93,0 -7.13,-3.19 -7.13,-7.13 v -87.05 c 0,-3.93 3.2,-7.12 7.13,-7.12 h 87.05 c 3.93,0 7.13,3.19 7.13,7.12 v 87.05 c 0,3.94 -3.2,7.13 -7.13,7.13"
         style="fill:#100f0d;fill-opacity:1;fill-rule:nonzero;stroke:none;stroke-width:0.1"
         id="path82"
         inkscape:connector-curvature="0" /><path
         d="m 1502.69,1852.07 h -72.79 v 72.8 h 72.79 z m 7.13,87.05 h -87.05 c -3.93,0 -7.12,-3.19 -7.12,-7.13 v -87.05 c 0,-3.93 3.19,-7.12 7.12,-7.12 h 87.05 c 3.94,0 7.13,3.19 7.13,7.12 v 87.05 c 0,3.94 -3.19,7.13 -7.13,7.13"
         style="fill:#100f0d;fill-opacity:1;fill-rule:nonzero;stroke:none;stroke-width:0.1"
         id="path84"
         inkscape:connector-curvature="0" /><path
         d="m 1313.34,2005.48 h 13.24 v -13.23 c 0,-3.94 3.19,-7.13 7.12,-7.13 3.94,0 7.13,3.19 7.13,7.13 v 13.23 h 13.24 c 3.93,0 7.13,3.19 7.13,7.13 0,3.93 -3.2,7.13 -7.13,7.13 h -13.24 v 13.23 c 0,3.94 -3.19,7.13 -7.13,7.13 -3.93,0 -7.12,-3.19 -7.12,-7.13 v -13.23 h -13.24 c -3.93,0 -7.13,-3.2 -7.13,-7.13 0,-3.94 3.2,-7.13 7.13,-7.13"
         style="fill:#100f0d;fill-opacity:1;fill-rule:nonzero;stroke:none;stroke-width:0.1"
         id="path86"
         inkscape:connector-curvature="0" /><path
         d="m 1332.31,1875.09 c -0.45,-0.09 -0.9,-0.21 -1.34,-0.41 -0.41,-0.16 -0.82,-0.41 -1.22,-0.65 -0.41,-0.25 -0.74,-0.57 -1.1,-0.9 -1.31,-1.3 -2.08,-3.14 -2.08,-5.01 0,-1.91 0.77,-3.75 2.08,-5.05 0.36,-0.33 0.69,-0.61 1.1,-0.9 0.4,-0.24 0.81,-0.48 1.22,-0.65 0.44,-0.16 0.89,-0.32 1.34,-0.4 0.45,-0.09 0.94,-0.13 1.38,-0.13 1.88,0 3.71,0.74 5.06,2.08 0.32,0.33 0.61,0.69 0.89,1.1 0.25,0.37 0.45,0.77 0.65,1.22 0.17,0.41 0.33,0.86 0.41,1.3 0.08,0.49 0.12,0.94 0.12,1.43 0,1.87 -0.73,3.71 -2.07,5.01 -1.67,1.67 -4.12,2.44 -6.44,1.96"
         style="fill:#100f0d;fill-opacity:1;fill-rule:nonzero;stroke:none;stroke-width:0.1"
         id="path88"
         inkscape:connector-curvature="0" /><path
         d="m 1313.34,1881.34 h 40.73 c 3.93,0 7.13,3.19 7.13,7.13 0,3.93 -3.2,7.13 -7.13,7.13 h -40.73 c -3.93,0 -7.13,-3.2 -7.13,-7.13 0,-3.94 3.2,-7.13 7.13,-7.13"
         style="fill:#100f0d;fill-opacity:1;fill-rule:nonzero;stroke:none;stroke-width:0.1"
         id="path90"
         inkscape:connector-curvature="0" /><path
         d="m 1445.93,1894.92 h 40.73 c 3.94,0 7.13,3.19 7.13,7.12 0,3.94 -3.19,7.13 -7.13,7.13 h -40.73 c -3.93,0 -7.12,-3.19 -7.12,-7.13 0,-3.93 3.19,-7.12 7.12,-7.12"
         style="fill:#100f0d;fill-opacity:1;fill-rule:nonzero;stroke:none;stroke-width:0.1"
         id="path92"
         inkscape:connector-curvature="0" /><path
         d="m 1445.93,1867.77 h 40.73 c 3.94,0 7.13,3.19 7.13,7.12 0,3.94 -3.19,7.13 -7.13,7.13 h -40.73 c -3.93,0 -7.12,-3.19 -7.12,-7.13 0,-3.93 3.19,-7.12 7.12,-7.12"
         style="fill:#100f0d;fill-opacity:1;fill-rule:nonzero;stroke:none;stroke-width:0.1"
         id="path94"
         inkscape:connector-curvature="0" /><path
         d="m 1446.86,1993.17 c 1.39,-1.39 3.21,-2.09 5.04,-2.09 1.82,0 3.64,0.7 5.03,2.09 l 9.36,9.36 9.37,-9.36 c 1.39,-1.39 3.21,-2.09 5.04,-2.09 1.82,0 3.64,0.7 5.03,2.09 2.79,2.78 2.79,7.3 0,10.08 l -9.36,9.36 9.36,9.36 c 2.79,2.78 2.79,7.3 0,10.08 -2.78,2.78 -7.29,2.78 -10.07,0 l -9.37,-9.36 -9.36,9.36 c -2.78,2.78 -7.29,2.78 -10.07,0 -2.79,-2.78 -2.79,-7.3 0,-10.08 l 9.36,-9.36 -9.36,-9.36 c -2.79,-2.78 -2.79,-7.3 0,-10.08"
         style="fill:#100f0d;fill-opacity:1;fill-rule:nonzero;stroke:none;stroke-width:0.1"
         id="path96"
         inkscape:connector-curvature="0" /><path
         d="m 1327.14,1906.12 c 0.16,-0.45 0.36,-0.86 0.65,-1.22 0.24,-0.41 0.53,-0.78 0.86,-1.1 0.36,-0.33 0.69,-0.61 1.1,-0.9 0.4,-0.24 0.81,-0.49 1.22,-0.65 0.44,-0.16 0.89,-0.33 1.34,-0.41 0.45,-0.08 0.94,-0.12 1.38,-0.12 1.88,0 3.71,0.73 5.06,2.08 0.32,0.32 0.61,0.69 0.89,1.1 0.25,0.36 0.45,0.77 0.65,1.22 0.17,0.41 0.33,0.85 0.41,1.3 0.08,0.49 0.12,0.94 0.12,1.43 0,1.87 -0.73,3.7 -2.07,5.01 -0.33,0.32 -0.7,0.65 -1.1,0.89 -0.37,0.25 -0.78,0.49 -1.23,0.66 -0.4,0.2 -0.85,0.32 -1.34,0.4 -0.9,0.21 -1.87,0.21 -2.77,0 -0.45,-0.08 -0.9,-0.2 -1.34,-0.4 -0.41,-0.17 -0.82,-0.41 -1.22,-0.66 -0.41,-0.24 -0.74,-0.57 -1.1,-0.89 -1.31,-1.31 -2.08,-3.14 -2.08,-5.01 0,-0.49 0.04,-0.94 0.16,-1.43 0.08,-0.45 0.21,-0.89 0.41,-1.3"
         style="fill:#100f0d;fill-opacity:1;fill-rule:nonzero;stroke:none;stroke-width:0.1"
         id="path98"
         inkscape:connector-curvature="0" /></g></g></svg>