<?xml version="1.0" encoding="UTF-8" standalone="no"?>
<svg
   xmlns:dc="http://purl.org/dc/elements/1.1/"
   xmlns:cc="http://creativecommons.org/ns#"
   xmlns:rdf="http://www.w3.org/1999/02/22-rdf-syntax-ns#"
   xmlns:svg="http://www.w3.org/2000/svg"
   xmlns="http://www.w3.org/2000/svg"
   xmlns:sodipodi="http://sodipodi.sourceforge.net/DTD/sodipodi-0.dtd"
   xmlns:inkscape="http://www.inkscape.org/namespaces/inkscape"
   version="1.1"
   id="svg2"
   xml:space="preserve"
   width="1116.7445"
   height="138.65242"
   viewBox="0 0 1116.7445 138.65241"
   sodipodi:docname="padagogy.svg"
   inkscape:version="0.92.2 (5c3e80d, 2017-08-06)"
   inkscape:export-filename="C:\xampp\htdocs\FTLS\FYI.png"
   inkscape:export-xdpi="83.085457"
   inkscape:export-ydpi="83.085457"><metadata
     id="metadata8"><rdf:RDF><cc:Work
         rdf:about=""><dc:format>image/svg+xml</dc:format><dc:type
           rdf:resource="http://purl.org/dc/dcmitype/StillImage" /><dc:title /></cc:Work></rdf:RDF></metadata><defs
     id="defs6" /><sodipodi:namedview
     pagecolor="#ffffff"
     bordercolor="#666666"
     borderopacity="1"
     objecttolerance="10"
     gridtolerance="10"
     guidetolerance="10"
     inkscape:pageopacity="0"
     inkscape:pageshadow="2"
     inkscape:window-width="1920"
     inkscape:window-height="1017"
     id="namedview4"
     showgrid="false"
     inkscape:zoom="1.0843875"
     inkscape:cx="472.20127"
     inkscape:cy="116.40643"
     inkscape:window-x="1912"
     inkscape:window-y="-8"
     inkscape:window-maximized="1"
     inkscape:current-layer="g10"
     showborder="true"
     fit-margin-top="0"
     fit-margin-left="0"
     fit-margin-right="0"
     fit-margin-bottom="0"
     showguides="true"
     inkscape:guide-bbox="true"><sodipodi:guide
       position="164.03737,187.03326"
       orientation="1,0"
       id="guide1439"
       inkscape:locked="false" /></sodipodi:namedview><g
     inkscape:groupmode="layer"
     id="layer1"
     inkscape:label="outline"
     style="display:none;opacity:0.125"
     transform="translate(260.19213,244.43772)"
     sodipodi:insensitive="true"><rect
       style="opacity:1;fill:none;fill-opacity:1;stroke:#000000;stroke-width:5.27622032;stroke-miterlimit:4;stroke-dasharray:none;stroke-opacity:1"
       id="rect208"
       width="1111.4683"
       height="133.37621"
       x="-257.55402"
       y="-241.79961" /><rect
       style="opacity:1;fill:none;fill-opacity:1;stroke:#000000;stroke-width:5.27622032;stroke-miterlimit:4;stroke-dasharray:none;stroke-opacity:1"
       id="rect1031"
       width="124.1778"
       height="107.31411"
       x="-243.75648"
       y="-230.30167" /><path
       style="fill:none;stroke:#000000;stroke-width:1px;stroke-linecap:butt;stroke-linejoin:miter;stroke-opacity:1"
       d="m -104.24805,-124.52054 938.23246,1.53306"
       id="path1033"
       inkscape:connector-curvature="0"
       sodipodi:nodetypes="cc" /></g><g
     id="g10"
     inkscape:groupmode="layer"
     inkscape:label="Academic Advising"
     transform="matrix(1.3333333,0,0,-1.3333333,260.19213,1311.1044)"
     style="display:inline"><flowRoot
       xml:space="preserve"
       id="flowRoot1358"
       style="font-style:normal;font-weight:normal;font-size:40px;line-height:1.25;font-family:sans-serif;letter-spacing:0px;word-spacing:0px;fill:#000000;fill-opacity:1;stroke:none"><flowRegion
         id="flowRegion1360"><rect
           id="rect1362"
           width="364.67142"
           height="151.20522"
           x="85.386475"
           y="234.14859" /></flowRegion><flowPara
         id="flowPara1364" /></flowRoot><flowRoot
       xml:space="preserve"
       id="flowRoot1366"
       style="font-style:normal;font-weight:normal;font-size:40px;line-height:1.25;font-family:sans-serif;letter-spacing:0px;word-spacing:0px;fill:#000000;fill-opacity:1;stroke:none"><flowRegion
         id="flowRegion1368"><rect
           id="rect1370"
           width="663.52411"
           height="158.32076"
           x="78.270935"
           y="200.34978" /></flowRegion><flowPara
         id="flowPara1372" /></flowRoot><g
       aria-label="Pedagogy"
       transform="scale(1,-1)"
       style="font-style:normal;font-weight:normal;font-size:37.00810242px;line-height:1.25;font-family:sans-serif;letter-spacing:0px;word-spacing:0px;fill:#000000;fill-opacity:1;stroke:none;stroke-width:0.92520249"
       id="text1392"><path
         d="m -70.022585,-935.69764 h 8.402719 q 1.192644,0 2.096162,-0.56018 0.903518,-0.56018 1.391418,-1.59019 0.50597,-1.03001 0.50597,-2.36722 v 0 q 0,-1.35528 -0.50597,-2.38529 -0.4879,-1.03001 -1.391418,-1.59019 -0.903518,-0.57825 -2.096162,-0.57825 h -8.402719 v -3.50565 h 8.276226 q 2.349148,0 4.138113,1.01194 1.788966,0.99387 2.764766,2.81897 0.99387,1.82511 0.99387,4.22847 v 0 q 0,2.40336 -0.99387,4.22846 -0.9758,1.80704 -2.764766,2.80091 -1.788965,0.99387 -4.138113,0.99387 h -8.276226 z m -1.897388,-12.57697 h 3.686354 v 26.2743 h -3.686354 z"
         style="font-style:normal;font-variant:normal;font-weight:normal;font-stretch:normal;font-family:Bahnschrift;-inkscape-font-specification:Bahnschrift;stroke-width:0.92520249"
         id="path30" /><path
         d="m -43.133886,-921.72925 q -2.602132,0 -4.445309,-0.9758 -1.843177,-0.9758 -2.818976,-2.85512 -0.957729,-1.89738 -0.957729,-4.5718 v -2.11423 q 0,-2.78284 0.921588,-4.75251 0.939659,-1.96967 2.710554,-2.99968 1.770896,-1.03001 4.264606,-1.03001 2.349147,0 4.01162,1.17458 1.662474,1.17457 2.529851,3.39722 0.885448,2.22266 0.885448,5.33076 v 1.22879 h -12.649254 v -2.96354 h 9.143604 v 0 q -0.162634,-2.29494 -1.192644,-3.55986 -1.011941,-1.283 -2.728625,-1.283 -2.096162,0 -3.252665,1.37335 -1.138433,1.37334 -1.138433,3.88513 v 2.38528 q 0,2.33108 1.228784,3.57793 1.228785,1.24686 3.48758,1.24686 1.120363,0 2.222655,-0.45176 1.102292,-0.45176 1.96967,-1.26492 v 0 l 2.421428,2.42142 v 0 q -1.391418,1.33721 -3.126173,2.0781 -1.734754,0.72281 -3.48758,0.72281 z"
         style="font-style:normal;font-variant:normal;font-weight:normal;font-stretch:normal;font-family:Bahnschrift;-inkscape-font-specification:Bahnschrift;stroke-width:0.92520249"
         id="path32" /><path
         d="m -20.274876,-948.27461 h 3.686354 v 26.2743 h -3.686354 z m -4.716365,26.59957 q -2.060021,0 -3.523721,-0.88545 -1.445629,-0.90351 -2.204584,-2.6202 -0.758955,-1.71668 -0.758955,-4.12004 v -4.13811 q 0,-2.42143 0.740885,-4.13812 0.740885,-1.71668 2.150373,-2.60213 1.427559,-0.90352 3.415298,-0.90352 1.662474,0 3.035821,0.86738 1.391418,0.86738 2.240725,2.4395 l -0.379477,3.83092 q 0,-1.19265 -0.433689,-2.04196 -0.433689,-0.8493 -1.264925,-1.28299 -0.813167,-0.45176 -1.98774,-0.45176 -1.825107,0 -2.837047,1.13843 -0.99387,1.13844 -0.99387,3.19846 v 4.0839 q 0,2.04195 0.99387,3.16231 1.01194,1.10229 2.837047,1.10229 1.174573,0 1.98774,-0.45176 0.831236,-0.46982 1.264925,-1.3372 0.433689,-0.86738 0.433689,-2.07809 l 0.252985,3.95741 q -0.560181,1.39141 -1.843177,2.33107 -1.264926,0.93966 -3.126173,0.93966 z"
         style="font-style:normal;font-variant:normal;font-weight:normal;font-stretch:normal;font-family:Bahnschrift;-inkscape-font-specification:Bahnschrift;stroke-width:0.92520249"
         id="path34" /><path
         d="m -0.3974774,-933.8906 q 0,-1.84318 -0.9938699,-2.85512 -0.9757996,-1.03001 -2.7828359,-1.03001 -1.1203624,0 -2.2045842,0.34334 -1.0661514,0.34333 -1.8973881,0.95772 l -2.6924835,-1.84317 q 1.0661509,-1.283 2.8009057,-1.98774 1.7528252,-0.72282 3.885128,-0.72282 2.3310767,0 3.99355007,0.83124 1.66247333,0.81317 2.52985073,2.38529 0.8673774,1.55405 0.8673774,3.75863 v 12.05293 h -3.5056503 z m -4.5898721,12.16135 q -3.4695096,0 -5.1861945,-1.42756 -1.716684,-1.44563 -1.716684,-4.37303 0,-2.78283 1.572122,-4.17425 1.5721211,-1.39142 4.7525049,-1.39142 h 5.33075696 l 0.25298507,2.96354 H -5.5475307 q -1.445629,0 -2.1684435,0.65053 -0.7047442,0.63247 -0.7047442,1.9516 0,1.42756 0.9396589,2.11424 0.9577292,0.68667 2.891258,0.68667 2.1142324,0 3.1442431,-0.45176 1.048081,-0.45176 1.048081,-1.40949 l 0.37947761,2.63828 q -0.48789979,0.75895 -1.21071431,1.24685 -0.7047441,0.4879 -1.644403,0.72282 -0.9396588,0.25298 -2.1142324,0.25298 z"
         style="font-style:normal;font-variant:normal;font-weight:normal;font-stretch:normal;font-family:Bahnschrift;-inkscape-font-specification:Bahnschrift;stroke-width:0.92520249"
         id="path36" /><path
         d="m 15.03461,-914.37461 q -2.114232,0 -3.794776,-0.7951 -1.6624733,-0.77702 -2.5840618,-2.20458 v 0 l 2.4937098,-2.2588 v 0 q 0.722815,0.99387 1.716685,1.53598 1.01194,0.54211 2.114232,0.54211 2.114233,0 3.270736,-1.17457 1.156503,-1.1565 1.156503,-3.28881 v -18.73896 h 3.686354 v 18.19685 q 0,2.58407 -0.957729,4.42724 -0.939659,1.84318 -2.746695,2.80091 -1.807037,0.95773 -4.354958,0.95773 z m -0.343337,-7.30043 q -2.060021,0 -3.52372,-0.88545 -1.4456294,-0.90351 -2.2045846,-2.6202 -0.7589552,-1.71668 -0.7589552,-4.12004 v -4.13811 q 0,-2.42143 0.7408848,-4.13812 0.7408849,-1.71668 2.150373,-2.60213 1.427559,-0.90352 3.415299,-0.90352 1.662473,0 3.035821,0.86738 1.391417,0.86738 2.240725,2.4395 l -0.379478,3.83092 q 0,-1.19265 -0.433689,-2.04196 -0.433688,-0.8493 -1.264925,-1.28299 -0.813166,-0.45176 -1.98774,-0.45176 -1.825107,0 -2.837047,1.13843 -0.99387,1.13844 -0.99387,3.19846 v 4.0839 q 0,2.04195 0.99387,3.16231 1.01194,1.10229 2.837047,1.10229 1.174574,0 1.98774,-0.45176 0.831237,-0.46982 1.264925,-1.3372 0.433689,-0.86738 0.433689,-2.07809 l 0.252985,3.95741 q -0.560181,1.39141 -1.843177,2.33107 -1.264925,0.93966 -3.126173,0.93966 z"
         style="font-style:normal;font-variant:normal;font-weight:normal;font-stretch:normal;font-family:Bahnschrift;-inkscape-font-specification:Bahnschrift;stroke-width:0.92520249"
         id="path38" /><path
         d="m 35.887812,-921.72925 q -2.439498,0 -4.174253,-0.95773 -1.734755,-0.95773 -2.656344,-2.78283 -0.903518,-1.84318 -0.903518,-4.42724 v -3.05389 q 0,-2.54793 0.903518,-4.35496 0.921589,-1.82511 2.656344,-2.76477 1.734755,-0.95773 4.174253,-0.95773 2.439499,0 4.174254,0.95773 1.734755,0.93966 2.638273,2.76477 0.921589,1.80703 0.921589,4.35496 v 3.1081 q 0,2.56599 -0.921589,4.3911 -0.903518,1.80703 -2.638273,2.76476 -1.734755,0.95773 -4.174254,0.95773 z m 0,-3.50565 q 1.933529,0 2.98161,-1.21071 1.066152,-1.21072 1.066152,-3.39723 v -3.1081 q 0,-2.18652 -1.066152,-3.37916 -1.048081,-1.19265 -2.98161,-1.19265 -1.933528,0 -2.99968,1.19265 -1.048081,1.19264 -1.048081,3.37916 v 3.1081 q 0,2.18651 1.048081,3.39723 1.066152,1.21071 2.99968,1.21071 z"
         style="font-style:normal;font-variant:normal;font-weight:normal;font-stretch:normal;font-family:Bahnschrift;-inkscape-font-specification:Bahnschrift;stroke-width:0.92520249"
         id="path40" /><path
         d="m 55.150813,-914.37461 q -2.114232,0 -3.794776,-0.7951 -1.662473,-0.77702 -2.584061,-2.20458 v 0 l 2.49371,-2.2588 v 0 q 0.722814,0.99387 1.716684,1.53598 1.01194,0.54211 2.114232,0.54211 2.114233,0 3.270736,-1.17457 1.156503,-1.1565 1.156503,-3.28881 v -18.73896 h 3.686354 v 18.19685 q 0,2.58407 -0.957729,4.42724 -0.939659,1.84318 -2.746695,2.80091 -1.807036,0.95773 -4.354958,0.95773 z m -0.343336,-7.30043 q -2.060022,0 -3.523721,-0.88545 -1.445629,-0.90351 -2.204584,-2.6202 -0.758956,-1.71668 -0.758956,-4.12004 v -4.13811 q 0,-2.42143 0.740885,-4.13812 0.740885,-1.71668 2.150373,-2.60213 1.427559,-0.90352 3.415299,-0.90352 1.662473,0 3.035821,0.86738 1.391418,0.86738 2.240725,2.4395 l -0.379478,3.83092 q 0,-1.19265 -0.433688,-2.04196 -0.433689,-0.8493 -1.264926,-1.28299 -0.813166,-0.45176 -1.98774,-0.45176 -1.825106,0 -2.837047,1.13843 -0.99387,1.13844 -0.99387,3.19846 v 4.0839 q 0,2.04195 0.99387,3.16231 1.011941,1.10229 2.837047,1.10229 1.174574,0 1.98774,-0.45176 0.831237,-0.46982 1.264926,-1.3372 0.433688,-0.86738 0.433688,-2.07809 l 0.252985,3.95741 q -0.560181,1.39141 -1.843177,2.33107 -1.264925,0.93966 -3.126172,0.93966 z"
         style="font-style:normal;font-variant:normal;font-weight:normal;font-stretch:normal;font-family:Bahnschrift;-inkscape-font-specification:Bahnschrift;stroke-width:0.92520249"
         id="path42" /><path
         d="m 82.924961,-940.75734 -7.9871,23.14813 q -0.433689,1.283 -1.138433,2.02388 -0.704744,0.75896 -1.734755,1.08423 -1.030011,0.32526 -2.529851,0.32526 h -0.740885 v -3.54179 h 0.740885 q 1.030011,0 1.626333,-0.41562 0.614392,-0.41562 1.066151,-1.42756 l 6.93902,-21.19653 z m -16.606663,0 h 3.758635 l 5.764446,16.29947 -2.041951,3.99355 z"
         style="font-style:normal;font-variant:normal;font-weight:normal;font-stretch:normal;font-family:Bahnschrift;-inkscape-font-specification:Bahnschrift;stroke-width:0.92520249"
         id="path44" /></g><g
       style="display:inline"
       transform="matrix(0.77261559,0,0,0.77261559,-453.01872,452.56349)"
       id="g1463"><path
         d="m 376.041,599.035 c -0.008,-0.019 -0.018,-0.038 -0.027,-0.057 -0.309,-0.568 -0.501,-1.213 -0.557,-1.865 l -1.259,-15.552 c -0.005,-0.058 0.027,-0.085 0.054,-0.1 l 0.124,-0.061 c 0.009,0 0.02,0.002 0.038,0.014 l 13.274,8.233 c 0.557,0.342 1.031,0.792 1.412,1.339 0.01,0.016 0.022,0.032 0.035,0.046 l 29.352,48.072 -13.094,7.991 z m -1.665,-18.934 c -0.286,0 -0.564,0.088 -0.805,0.254 -0.434,0.232 -0.719,0.764 -0.668,1.319 l 1.259,15.546 c 0.057,0.676 0.23,1.344 0.503,1.959 0.012,0.079 0.039,0.156 0.081,0.23 l 0.068,0.112 29.808,48.806 c 0.187,0.305 0.586,0.403 0.893,0.216 l 14.205,-8.669 c 0.306,-0.187 0.403,-0.587 0.216,-0.894 l -29.873,-48.92 c -0.047,-0.079 -0.11,-0.144 -0.181,-0.194 -0.429,-0.527 -0.936,-0.971 -1.51,-1.325 l -13.26,-8.224 c -0.213,-0.139 -0.471,-0.216 -0.736,-0.216"
         style="fill:#100f0d;fill-opacity:1;fill-rule:nonzero;stroke:none;stroke-width:0.1"
         id="path1078"
         inkscape:connector-curvature="0" /><path
         d="m 408.655,652.331 13.011,-7.945 2.367,3.87 c 1.043,1.709 0.501,3.957 -1.21,5.011 l -6.8,4.144 c -0.574,0.351 -1.229,0.537 -1.895,0.537 -1.279,0 -2.442,-0.654 -3.112,-1.749 z m 13.226,-9.488 c -0.115,0 -0.233,0.031 -0.338,0.095 l -14.12,8.622 c -0.307,0.187 -0.403,0.586 -0.216,0.893 l 2.699,4.423 c 0.908,1.486 2.487,2.372 4.222,2.372 0.905,0 1.795,-0.252 2.573,-0.728 l 6.801,-4.145 c 2.321,-1.429 3.057,-4.478 1.641,-6.797 l -2.706,-4.424 c -0.124,-0.2 -0.337,-0.311 -0.556,-0.311"
         style="fill:#100f0d;fill-opacity:1;fill-rule:nonzero;stroke:none;stroke-width:0.1"
         id="path1080"
         inkscape:connector-curvature="0" /><path
         d="m 406.081,648.204 13.083,-7.991 1.863,3.046 -13.089,7.991 z m 13.3,-9.535 c -0.118,0 -0.236,0.033 -0.339,0.096 l -14.193,8.669 c -0.307,0.187 -0.404,0.587 -0.216,0.893 l 2.534,4.155 c 0.089,0.148 0.234,0.253 0.401,0.294 0.169,0.041 0.346,0.013 0.493,-0.077 l 14.2,-8.67 c 0.147,-0.09 0.253,-0.235 0.293,-0.403 0.04,-0.167 0.012,-0.344 -0.078,-0.491 l -2.54,-4.154 c -0.09,-0.148 -0.235,-0.253 -0.402,-0.294 -0.051,-0.012 -0.102,-0.018 -0.153,-0.018"
         style="fill:#100f0d;fill-opacity:1;fill-rule:nonzero;stroke:none;stroke-width:0.1"
         id="path1082"
         inkscape:connector-curvature="0" /><path
         d="m 382.065,584.539 c -0.115,0 -0.232,0.03 -0.337,0.095 l -7.991,4.879 c -0.306,0.187 -0.403,0.587 -0.216,0.893 0.187,0.306 0.588,0.403 0.894,0.216 l 7.99,-4.879 c 0.307,-0.187 0.404,-0.587 0.216,-0.893 -0.122,-0.201 -0.336,-0.311 -0.556,-0.311"
         style="fill:#100f0d;fill-opacity:1;fill-rule:nonzero;stroke:none;stroke-width:0.1"
         id="path1084"
         inkscape:connector-curvature="0" /><path
         d="m 389.157,589.532 c -0.115,0 -0.231,0.03 -0.338,0.095 l -13.871,8.465 c -0.306,0.187 -0.403,0.587 -0.216,0.893 0.187,0.306 0.585,0.403 0.894,0.216 l 13.871,-8.465 c 0.307,-0.187 0.403,-0.587 0.216,-0.893 -0.122,-0.2 -0.336,-0.311 -0.556,-0.311"
         style="fill:#100f0d;fill-opacity:1;fill-rule:nonzero;stroke:none;stroke-width:0.1"
         id="path1086"
         inkscape:connector-curvature="0" /><path
         d="m 378.655,595.94 c -0.115,0 -0.232,0.031 -0.338,0.095 -0.306,0.187 -0.403,0.588 -0.215,0.894 l 30.078,49.229 c 0.186,0.306 0.588,0.403 0.893,0.216 0.307,-0.187 0.404,-0.587 0.216,-0.894 l -30.078,-49.229 c -0.122,-0.201 -0.336,-0.311 -0.556,-0.311"
         style="fill:#100f0d;fill-opacity:1;fill-rule:nonzero;stroke:none;stroke-width:0.1"
         id="path1088"
         inkscape:connector-curvature="0" /><path
         d="m 426.604,580.24 h -52.663 c -0.359,0 -0.65,0.291 -0.65,0.65 0,0.359 0.291,0.65 0.65,0.65 h 52.663 c 0.36,0 0.651,-0.291 0.651,-0.65 0,-0.359 -0.291,-0.65 -0.651,-0.65"
         style="fill:#100f0d;fill-opacity:1;fill-rule:nonzero;stroke:none;stroke-width:0.1"
         id="path1090"
         inkscape:connector-curvature="0" /></g></g></svg>