<?xml version="1.0" encoding="UTF-8" standalone="no"?>
<svg
   xmlns:dc="http://purl.org/dc/elements/1.1/"
   xmlns:cc="http://creativecommons.org/ns#"
   xmlns:rdf="http://www.w3.org/1999/02/22-rdf-syntax-ns#"
   xmlns:svg="http://www.w3.org/2000/svg"
   xmlns="http://www.w3.org/2000/svg"
   xmlns:sodipodi="http://sodipodi.sourceforge.net/DTD/sodipodi-0.dtd"
   xmlns:inkscape="http://www.inkscape.org/namespaces/inkscape"
   version="1.1"
   id="svg2"
   xml:space="preserve"
   width="1116.7445"
   height="138.65242"
   viewBox="0 0 1116.7445 138.65241"
   sodipodi:docname="peer.svg"
   inkscape:version="0.92.2 (5c3e80d, 2017-08-06)"
   inkscape:export-filename="C:\xampp\htdocs\FTLS\FYI.png"
   inkscape:export-xdpi="83.085457"
   inkscape:export-ydpi="83.085457"><metadata
     id="metadata8"><rdf:RDF><cc:Work
         rdf:about=""><dc:format>image/svg+xml</dc:format><dc:type
           rdf:resource="http://purl.org/dc/dcmitype/StillImage" /><dc:title /></cc:Work></rdf:RDF></metadata><defs
     id="defs6" /><sodipodi:namedview
     pagecolor="#ffffff"
     bordercolor="#666666"
     borderopacity="1"
     objecttolerance="10"
     gridtolerance="10"
     guidetolerance="10"
     inkscape:pageopacity="0"
     inkscape:pageshadow="2"
     inkscape:window-width="1920"
     inkscape:window-height="1017"
     id="namedview4"
     showgrid="false"
     inkscape:zoom="1.2894624"
     inkscape:cx="163.88229"
     inkscape:cy="69.32621"
     inkscape:window-x="1912"
     inkscape:window-y="-8"
     inkscape:window-maximized="1"
     inkscape:current-layer="g1437"
     showborder="false"
     fit-margin-top="0"
     fit-margin-left="0"
     fit-margin-right="0"
     fit-margin-bottom="0"
     showguides="true"
     inkscape:guide-bbox="true"><sodipodi:guide
       position="164.03737,187.03326"
       orientation="1,0"
       id="guide1439"
       inkscape:locked="false" /></sodipodi:namedview><g
     inkscape:groupmode="layer"
     id="layer1"
     inkscape:label="outline"
     style="display:inline;opacity:0"
     transform="translate(260.19213,244.43772)"
     sodipodi:insensitive="true"><rect
       style="opacity:1;fill:none;fill-opacity:1;stroke:#000000;stroke-width:5.27622032;stroke-miterlimit:4;stroke-dasharray:none;stroke-opacity:1"
       id="rect208"
       width="1111.4683"
       height="133.37621"
       x="-257.55402"
       y="-241.79961" /><rect
       style="opacity:1;fill:none;fill-opacity:1;stroke:#000000;stroke-width:5.27622032;stroke-miterlimit:4;stroke-dasharray:none;stroke-opacity:1"
       id="rect1031"
       width="124.1778"
       height="107.31411"
       x="-243.75648"
       y="-230.30167" /><path
       style="fill:none;stroke:#000000;stroke-width:1px;stroke-linecap:butt;stroke-linejoin:miter;stroke-opacity:1"
       d="m -104.24805,-124.52054 938.23246,1.53306"
       id="path1033"
       inkscape:connector-curvature="0"
       sodipodi:nodetypes="cc" /></g><g
     style="display:inline"
     transform="matrix(1.3333333,0,0,-1.3333333,260.19213,1311.1044)"
     inkscape:label="Peer mentor"
     inkscape:groupmode="layer"
     id="g1437"><flowRoot
       style="font-style:normal;font-weight:normal;font-size:40px;line-height:1.25;font-family:sans-serif;letter-spacing:0px;word-spacing:0px;fill:#000000;fill-opacity:1;stroke:none"
       id="flowRoot1053"
       xml:space="preserve"><flowRegion
         id="flowRegion1049"><rect
           y="234.14859"
           x="85.386475"
           height="151.20522"
           width="364.67142"
           id="rect1047" /></flowRegion><flowPara
         id="flowPara1051" /></flowRoot><flowRoot
       style="font-style:normal;font-weight:normal;font-size:40px;line-height:1.25;font-family:sans-serif;letter-spacing:0px;word-spacing:0px;fill:#000000;fill-opacity:1;stroke:none"
       id="flowRoot1061"
       xml:space="preserve"><flowRegion
         id="flowRegion1057"><rect
           y="200.34978"
           x="78.270935"
           height="158.32076"
           width="663.52411"
           id="rect1055" /></flowRegion><flowPara
         id="flowPara1059" /></flowRoot><g
       id="g1419"
       transform="matrix(1.7952273,0,0,1.7952273,-676.04351,351.62243)"><g
         transform="matrix(0.64752268,0,0,0.64752268,-49.790482,217.50256)"
         id="g1407"><path
           inkscape:connector-curvature="0"
           id="path1399"
           style="fill:#000000;fill-opacity:1;fill-rule:nonzero;stroke:none;stroke-width:0.1"
           d="m 517.98489,184.88776 c -1.898,0 -3.441,-1.544 -3.441,-3.441 0,-1.897 1.543,-3.441 3.441,-3.441 1.897,0 3.44,1.544 3.44,3.441 0,1.897 -1.543,3.441 -3.44,3.441 z m 0,-8.57 c -2.828,0 -5.128,2.301 -5.128,5.129 0,2.828 2.3,5.129 5.128,5.129 2.828,0 5.128,-2.301 5.128,-5.129 0,-2.828 -2.3,-5.129 -5.128,-5.129" /><path
           inkscape:connector-curvature="0"
           id="path1401"
           style="fill:#000000;fill-opacity:1;fill-rule:nonzero;stroke:none;stroke-width:0.1"
           d="m 512.733,157.03 c -0.466,0 -0.844,0.379 -0.844,0.845 v 11.76 c 0,0.467 0.378,0.844 0.844,0.844 0.467,0 0.845,-0.377 0.845,-0.844 v -11.76 c 0,-0.466 -0.378,-0.845 -0.845,-0.845" /><path
           inkscape:connector-curvature="0"
           id="path1403"
           style="fill:#000000;fill-opacity:1;fill-rule:nonzero;stroke:none;stroke-width:0.1"
           d="m 523.74789,131.74076 h -4.335 c -0.467,0 -0.844,0.378 -0.844,0.844 v 17.776 c 0,0.171 -0.076,0.334 -0.207,0.445 -0.077,0.066 -0.239,0.172 -0.482,0.13 -0.269,-0.043 -0.479,-0.33 -0.479,-0.652 v -17.699 c 0,-0.466 -0.377,-0.844 -0.844,-0.844 h -4.336 c -0.466,0 -0.844,0.378 -0.844,0.844 v 21.645 c -0.584,-0.262 -1.247,-0.323 -1.897,-0.16 -1.255,0.316 -2.132,1.485 -2.132,2.843 v 13.615 c 0,2.375 1.932,4.308 4.307,4.308 h 1.621 c 0.466,0 0.843,-0.377 0.843,-0.844 0,-0.466 -0.377,-0.844 -0.843,-0.844 h -1.621 c -1.444,0 -2.62,-1.175 -2.62,-2.62 v -13.615 c 0,-0.574 0.36,-1.081 0.856,-1.206 0.373,-0.094 0.742,-0.02 1.035,0.208 0.286,0.224 0.451,0.561 0.451,0.924 0,0.466 0.378,0.844 0.844,0.844 0.467,0 0.845,-0.378 0.845,-0.844 v -23.41 h 2.647 v 16.855 c 0,1.146 0.814,2.142 1.896,2.319 0.669,0.107 1.338,-0.079 1.846,-0.511 0.51,-0.432 0.802,-1.063 0.802,-1.731 v -16.932 h 2.647 v 35.171 c 0,0.337 0.202,0.642 0.511,0.775 0.309,0.133 0.669,0.07 0.914,-0.163 l 6.518,-6.182 c 0.287,-0.272 0.663,-0.422 1.059,-0.422 h 6.277 c 0.653,0 1.184,0.531 1.184,1.184 0,0.645 -0.525,1.177 -1.171,1.184 l -4.969,0.064 c -0.933,0.011 -1.816,0.425 -2.421,1.137 l -5.265,6.194 c -0.459,0.478 -1.149,0.773 -1.86,0.773 h -2.126 c -0.466,0 -0.844,0.377 -0.844,0.844 0,0.465 0.378,0.844 0.844,0.844 h 2.126 c 1.17,0 2.304,-0.485 3.113,-1.33 l 5.299,-6.232 c 0.288,-0.339 0.709,-0.537 1.155,-0.542 l 4.969,-0.064 c 1.564,-0.018 2.839,-1.306 2.839,-2.872 0,-1.584 -1.289,-2.872 -2.873,-2.872 h -6.277 c -0.831,0 -1.619,0.314 -2.221,0.885 l -5.092,4.831 v -34.051 c 0,-0.466 -0.378,-0.844 -0.845,-0.844" /><path
           inkscape:connector-curvature="0"
           id="path1405"
           style="fill:#000000;fill-opacity:1;fill-rule:nonzero;stroke:none;stroke-width:0.1"
           d="m 537.30889,131.74076 h -29.117 c -0.466,0 -0.844,0.378 -0.844,0.844 0,0.466 0.378,0.844 0.844,0.844 h 29.117 c 0.466,0 0.843,-0.378 0.843,-0.844 0,-0.466 -0.377,-0.844 -0.843,-0.844" /></g><g
         id="g1417"
         transform="matrix(-0.64752268,0,0,0.64752268,652.4016,217.00896)"><path
           d="m 518.497,185.924 c -1.898,0 -3.441,-1.544 -3.441,-3.441 0,-1.897 1.543,-3.441 3.441,-3.441 1.897,0 3.44,1.544 3.44,3.441 0,1.897 -1.543,3.441 -3.44,3.441 z m 0,-8.57 c -2.828,0 -5.128,2.301 -5.128,5.129 0,2.828 2.3,5.129 5.128,5.129 2.828,0 5.128,-2.301 5.128,-5.129 0,-2.828 -2.3,-5.129 -5.128,-5.129"
           style="fill:#000000;fill-opacity:1;fill-rule:nonzero;stroke:none;stroke-width:0.1"
           id="path1409"
           inkscape:connector-curvature="0" /><path
           d="m 512.733,157.03 c -0.466,0 -0.844,0.379 -0.844,0.845 v 11.76 c 0,0.467 0.378,0.844 0.844,0.844 0.467,0 0.845,-0.377 0.845,-0.844 v -11.76 c 0,-0.466 -0.378,-0.845 -0.845,-0.845"
           style="fill:#000000;fill-opacity:1;fill-rule:nonzero;stroke:none;stroke-width:0.1"
           id="path1411"
           inkscape:connector-curvature="0" /><path
           d="m 524.26,132.777 h -4.335 c -0.467,0 -0.844,0.378 -0.844,0.844 v 17.776 c 0,0.171 -0.076,0.334 -0.207,0.445 -0.077,0.066 -0.239,0.172 -0.482,0.13 -0.269,-0.043 -0.479,-0.33 -0.479,-0.652 v -17.699 c 0,-0.466 -0.377,-0.844 -0.844,-0.844 h -4.336 c -0.466,0 -0.844,0.378 -0.844,0.844 v 21.645 c -0.584,-0.262 -1.247,-0.323 -1.897,-0.16 -1.255,0.316 -2.132,1.485 -2.132,2.843 v 13.615 c 0,2.375 1.932,4.308 4.307,4.308 h 1.621 c 0.466,0 0.843,-0.377 0.843,-0.844 0,-0.466 -0.377,-0.844 -0.843,-0.844 h -1.621 c -1.444,0 -2.62,-1.175 -2.62,-2.62 v -13.615 c 0,-0.574 0.36,-1.081 0.856,-1.206 0.373,-0.094 0.742,-0.02 1.035,0.208 0.286,0.224 0.451,0.561 0.451,0.924 0,0.466 0.378,0.844 0.844,0.844 0.467,0 0.845,-0.378 0.845,-0.844 v -23.41 h 2.647 v 16.855 c 0,1.146 0.814,2.142 1.896,2.319 0.669,0.107 1.338,-0.079 1.846,-0.511 0.51,-0.432 0.802,-1.063 0.802,-1.731 v -16.932 h 2.647 v 35.171 c 0,0.337 0.202,0.642 0.511,0.775 0.309,0.133 0.669,0.07 0.914,-0.163 l 6.518,-6.182 c 0.287,-0.272 0.663,-0.422 1.059,-0.422 h 6.277 c 0.653,0 1.184,0.531 1.184,1.184 0,0.645 -0.525,1.177 -1.171,1.184 l -4.969,0.064 c -0.933,0.011 -1.816,0.425 -2.421,1.137 l -5.265,6.194 c -0.459,0.478 -1.149,0.773 -1.86,0.773 h -2.126 c -0.466,0 -0.844,0.377 -0.844,0.844 0,0.465 0.378,0.844 0.844,0.844 h 2.126 c 1.17,0 2.304,-0.485 3.113,-1.33 l 5.299,-6.232 c 0.288,-0.339 0.709,-0.537 1.155,-0.542 l 4.969,-0.064 c 1.564,-0.018 2.839,-1.306 2.839,-2.872 0,-1.584 -1.289,-2.872 -2.873,-2.872 h -6.277 c -0.831,0 -1.619,0.314 -2.221,0.885 l -5.092,4.831 v -34.051 c 0,-0.466 -0.378,-0.844 -0.845,-0.844"
           style="fill:#000000;fill-opacity:1;fill-rule:nonzero;stroke:none;stroke-width:0.1"
           id="path1413"
           inkscape:connector-curvature="0" /><path
           d="m 537.821,132.777 h -29.117 c -0.466,0 -0.844,0.378 -0.844,0.844 0,0.466 0.378,0.844 0.844,0.844 h 29.117 c 0.466,0 0.843,-0.378 0.843,-0.844 0,-0.466 -0.377,-0.844 -0.843,-0.844"
           style="fill:#000000;fill-opacity:1;fill-rule:nonzero;stroke:none;stroke-width:0.1"
           id="path1415"
           inkscape:connector-curvature="0" /></g></g><g
       aria-label="Academic Peer Mentoring"
       transform="scale(1,-1)"
       style="font-style:normal;font-weight:normal;font-size:30px;line-height:1.25;font-family:sans-serif;letter-spacing:0px;word-spacing:0px;fill:#000000;fill-opacity:1;stroke:none;stroke-width:0.75"
       id="text53"><path
         d="m -61.711899,-947.82196 h 3.058594 l 9.421875,25.55859 h -3.867188 l -7.083984,-20.61914 -7.083984,20.61914 h -3.867188 z m -5.080078,16.54102 h 13.447266 v 3.41015 h -13.447266 z"
         style="font-style:normal;font-variant:normal;font-weight:normal;font-stretch:normal;font-size:36px;font-family:Bahnschrift;-inkscape-font-specification:Bahnschrift;stroke-width:0.75"
         id="path55" /><path
         d="m -38.315414,-921.99969 q -2.496094,0 -4.271485,-0.93165 -1.757812,-0.93164 -2.689453,-2.70703 -0.931641,-1.77539 -0.931641,-4.28906 v -3.00586 q 0,-2.47851 0.931641,-4.23633 0.931641,-1.75781 2.689453,-2.67187 1.775391,-0.93164 4.271485,-0.93164 1.423828,0 2.671875,0.35156 1.265625,0.33398 2.267578,0.98438 1.001953,0.65039 1.669922,1.58203 v 0 l -2.583985,2.32031 v 0 q -0.773437,-0.87891 -1.810547,-1.35352 -1.037109,-0.47461 -2.162109,-0.47461 -2.074219,0 -3.216797,1.16016 -1.142578,1.16016 -1.142578,3.26953 v 3.00586 q 0,2.16211 1.125,3.33984 1.142578,1.17774 3.234375,1.17774 1.142578,0 2.179687,-0.50977 1.03711,-0.50976 1.792969,-1.4414 v 0 l 2.583985,2.49609 v 0 q -0.685547,0.91406 -1.6875,1.56445 -1.001954,0.63282 -2.267579,0.9668 -1.248046,0.33399 -2.654296,0.33399 z"
         style="font-style:normal;font-variant:normal;font-weight:normal;font-stretch:normal;font-size:36px;font-family:Bahnschrift;-inkscape-font-specification:Bahnschrift;stroke-width:0.75"
         id="path57" /><path
         d="m -17.45018,-933.82977 q 0,-1.79297 -0.966797,-2.77735 -0.949219,-1.00195 -2.707031,-1.00195 -1.089844,0 -2.144531,0.33398 -1.03711,0.33399 -1.845704,0.93165 l -2.61914,-1.79297 q 1.037109,-1.24805 2.724609,-1.9336 1.705078,-0.70312 3.779297,-0.70312 2.267578,0 3.884766,0.80859 1.617187,0.79102 2.460937,2.32031 0.84375,1.51172 0.84375,3.65625 v 11.72461 h -3.410156 z m -4.464844,11.83008 q -3.375,0 -5.044922,-1.38868 -1.669922,-1.40625 -1.669922,-4.2539 0,-2.70703 1.529297,-4.06055 1.529297,-1.35352 4.623047,-1.35352 h 5.185547 l 0.246094,2.88282 h -5.414063 q -1.40625,0 -2.109375,0.63281 -0.685547,0.61523 -0.685547,1.89844 0,1.38867 0.914063,2.05664 0.931641,0.66797 2.8125,0.66797 2.056641,0 3.058594,-0.43946 1.019531,-0.43945 1.019531,-1.37109 l 0.369141,2.56641 q -0.47461,0.73828 -1.177735,1.21289 -0.685547,0.47461 -1.599609,0.70312 -0.914063,0.2461 -2.056641,0.2461 z"
         style="font-style:normal;font-variant:normal;font-weight:normal;font-stretch:normal;font-size:36px;font-family:Bahnschrift;-inkscape-font-specification:Bahnschrift;stroke-width:0.75"
         id="path59" /><path
         d="m 1.8154449,-947.82196 h 3.5859375 v 25.55859 H 1.8154449 Z m -4.5878906,25.875 q -2.0039062,0 -3.4277344,-0.86133 -1.40625,-0.8789 -2.1445312,-2.54883 -0.7382813,-1.66992 -0.7382813,-4.00781 v -4.02539 q 0,-2.35547 0.7207032,-4.02539 0.7207031,-1.66992 2.0917968,-2.53125 1.3886719,-0.87891 3.3222657,-0.87891 1.6171875,0 2.95312497,0.84375 1.35351563,0.84375 2.17968753,2.37305 l -0.3691407,3.72656 q 0,-1.16015 -0.421875,-1.98633 -0.42187495,-0.82617 -1.2304687,-1.24804 -0.79101563,-0.43946 -1.9335938,-0.43946 -1.7753906,0 -2.7597656,1.10743 -0.9667969,1.10742 -0.9667969,3.11132 v 3.97266 q 0,1.98633 0.9667969,3.07617 0.984375,1.07227 2.7597656,1.07227 1.14257817,0 1.9335938,-0.43945 0.80859375,-0.45704 1.2304687,-1.30079 0.421875,-0.84375 0.421875,-2.02148 l 0.2460938,3.84961 q -0.5449219,1.35351 -1.79296875,2.26758 -1.23046875,0.91406 -3.04101565,0.91406 z"
         style="font-style:normal;font-variant:normal;font-weight:normal;font-stretch:normal;font-size:36px;font-family:Bahnschrift;-inkscape-font-specification:Bahnschrift;stroke-width:0.75"
         id="path61" /><path
         d="m 18.321304,-921.99969 q -2.53125,0 -4.324218,-0.94922 -1.792969,-0.94922 -2.742188,-2.77735 -0.931641,-1.8457 -0.931641,-4.44726 v -2.05664 q 0,-2.70703 0.896485,-4.62305 0.914062,-1.91602 2.636719,-2.91797 1.722656,-1.00195 4.148437,-1.00195 2.285156,0 3.902344,1.14258 1.617187,1.14257 2.460937,3.30468 0.861328,2.16211 0.861328,5.18555 v 1.19531 H 12.92482 v -2.88281 h 8.894531 v 0 q -0.158203,-2.23242 -1.160156,-3.46289 -0.984375,-1.24805 -2.654297,-1.24805 -2.039062,0 -3.164062,1.33594 -1.107422,1.33594 -1.107422,3.7793 v 2.32031 q 0,2.26758 1.195312,3.48047 1.195313,1.21289 3.392578,1.21289 1.089844,0 2.16211,-0.43945 1.072265,-0.43946 1.916015,-1.23047 v 0 l 2.355469,2.35547 v 0 q -1.353516,1.30078 -3.041016,2.02148 -1.6875,0.70313 -3.392578,0.70313 z"
         style="font-style:normal;font-variant:normal;font-weight:normal;font-stretch:normal;font-size:36px;font-family:Bahnschrift;-inkscape-font-specification:Bahnschrift;stroke-width:0.75"
         id="path63" /><path
         d="m 51.983414,-933.32001 q 0,-1.93359 -1.001953,-2.98828 -1.001954,-1.05469 -2.8125,-1.05469 -1.669922,0 -2.583985,1.01954 -0.914062,1.01953 -0.914062,2.88281 l -0.720703,-3.51563 q 0.861328,-1.81054 2.267578,-2.79492 1.423828,-1.00195 3.128906,-1.00195 1.96875,0 3.357422,0.8789 1.40625,0.86133 2.126953,2.53125 0.738281,1.66993 0.738281,4.02539 v 11.07422 h -3.585937 z m -21.796875,-7.18945 h 3.585937 v 18.24609 h -3.585937 z m 10.898437,7.18945 q 0,-1.93359 -0.949219,-2.98828 -0.949218,-1.05469 -2.689453,-1.05469 -1.757812,0 -2.724609,0.93164 -0.949219,0.93165 -0.949219,2.61915 l -0.36914,-3.51563 q 0.84375,-1.65234 2.197265,-2.54883 1.371094,-0.89648 3.023438,-0.89648 1.916015,0 3.269531,0.8789 1.353516,0.86133 2.056641,2.53125 0.720703,1.66993 0.720703,4.02539 v 11.07422 h -3.585938 z"
         style="font-style:normal;font-variant:normal;font-weight:normal;font-stretch:normal;font-size:36px;font-family:Bahnschrift;-inkscape-font-specification:Bahnschrift;stroke-width:0.75"
         id="path65" /><path
         d="m 61.053726,-947.82196 h 3.585938 v 3.58594 h -3.585938 z m 0,7.3125 h 3.585938 v 18.24609 h -3.585938 z"
         style="font-style:normal;font-variant:normal;font-weight:normal;font-stretch:normal;font-size:36px;font-family:Bahnschrift;-inkscape-font-specification:Bahnschrift;stroke-width:0.75"
         id="path67" /><path
         d="m 77.489273,-921.99969 q -2.496094,0 -4.271484,-0.93165 -1.757813,-0.93164 -2.689453,-2.70703 -0.931641,-1.77539 -0.931641,-4.28906 v -3.00586 q 0,-2.47851 0.931641,-4.23633 0.93164,-1.75781 2.689453,-2.67187 1.77539,-0.93164 4.271484,-0.93164 1.423828,0 2.671875,0.35156 1.265625,0.33398 2.267578,0.98438 1.001953,0.65039 1.669922,1.58203 v 0 l -2.583984,2.32031 v 0 q -0.773438,-0.87891 -1.810547,-1.35352 -1.03711,-0.47461 -2.16211,-0.47461 -2.074218,0 -3.216796,1.16016 -1.142579,1.16016 -1.142579,3.26953 v 3.00586 q 0,2.16211 1.125,3.33984 1.142579,1.17774 3.234375,1.17774 1.142579,0 2.179688,-0.50977 1.037109,-0.50976 1.792969,-1.4414 v 0 l 2.583984,2.49609 v 0 q -0.685547,0.91406 -1.6875,1.56445 -1.001953,0.63282 -2.267578,0.9668 -1.248047,0.33399 -2.654297,0.33399 z"
         style="font-style:normal;font-variant:normal;font-weight:normal;font-stretch:normal;font-size:36px;font-family:Bahnschrift;-inkscape-font-specification:Bahnschrift;stroke-width:0.75"
         id="path69" /><path
         d="m 99.954117,-935.58759 h 8.173823 q 1.16016,0 2.03907,-0.54492 0.8789,-0.54492 1.35351,-1.54687 0.49219,-1.00196 0.49219,-2.30274 v 0 q 0,-1.31836 -0.49219,-2.32031 -0.47461,-1.00195 -1.35351,-1.54687 -0.87891,-0.5625 -2.03907,-0.5625 h -8.173823 v -3.41016 h 8.050783 q 2.28515,0 4.02539,0.98437 1.74023,0.9668 2.68945,2.74219 0.9668,1.77539 0.9668,4.11328 v 0 q 0,2.33789 -0.9668,4.11328 -0.94922,1.75782 -2.68945,2.72461 -1.74024,0.9668 -4.02539,0.9668 h -8.050783 z m -1.845703,-12.23437 h 3.585936 v 25.55859 h -3.585936 z"
         style="font-style:normal;font-variant:normal;font-weight:normal;font-stretch:normal;font-size:36px;font-family:Bahnschrift;-inkscape-font-specification:Bahnschrift;stroke-width:0.75"
         id="path71" /><path
         d="m 126.11037,-921.99969 q -2.53125,0 -4.32422,-0.94922 -1.79297,-0.94922 -2.74219,-2.77735 -0.93164,-1.8457 -0.93164,-4.44726 v -2.05664 q 0,-2.70703 0.89648,-4.62305 0.91407,-1.91602 2.63672,-2.91797 1.72266,-1.00195 4.14844,-1.00195 2.28516,0 3.90234,1.14258 1.61719,1.14257 2.46094,3.30468 0.86133,2.16211 0.86133,5.18555 v 1.19531 h -12.30469 v -2.88281 h 8.89453 v 0 q -0.1582,-2.23242 -1.16015,-3.46289 -0.98438,-1.24805 -2.6543,-1.24805 -2.03906,0 -3.16406,1.33594 -1.10742,1.33594 -1.10742,3.7793 v 2.32031 q 0,2.26758 1.19531,3.48047 1.19531,1.21289 3.39258,1.21289 1.08984,0 2.16211,-0.43945 1.07226,-0.43946 1.91601,-1.23047 v 0 l 2.35547,2.35547 v 0 q -1.35352,1.30078 -3.04102,2.02148 -1.6875,0.70313 -3.39257,0.70313 z"
         style="font-style:normal;font-variant:normal;font-weight:normal;font-stretch:normal;font-size:36px;font-family:Bahnschrift;-inkscape-font-specification:Bahnschrift;stroke-width:0.75"
         id="path73" /><path
         d="m 145.4463,-921.99969 q -2.53125,0 -4.32421,-0.94922 -1.79297,-0.94922 -2.74219,-2.77735 -0.93164,-1.8457 -0.93164,-4.44726 v -2.05664 q 0,-2.70703 0.89648,-4.62305 0.91406,-1.91602 2.63672,-2.91797 1.72266,-1.00195 4.14844,-1.00195 2.28515,0 3.90234,1.14258 1.61719,1.14257 2.46094,3.30468 0.86133,2.16211 0.86133,5.18555 v 1.19531 h -12.30469 v -2.88281 h 8.89453 v 0 q -0.1582,-2.23242 -1.16016,-3.46289 -0.98437,-1.24805 -2.65429,-1.24805 -2.03906,0 -3.16406,1.33594 -1.10743,1.33594 -1.10743,3.7793 v 2.32031 q 0,2.26758 1.19532,3.48047 1.19531,1.21289 3.39257,1.21289 1.08985,0 2.16211,-0.43945 1.07227,-0.43946 1.91602,-1.23047 v 0 l 2.35547,2.35547 v 0 q -1.35352,1.30078 -3.04102,2.02148 -1.6875,0.70313 -3.39258,0.70313 z"
         style="font-style:normal;font-variant:normal;font-weight:normal;font-stretch:normal;font-size:36px;font-family:Bahnschrift;-inkscape-font-specification:Bahnschrift;stroke-width:0.75"
         id="path75" /><path
         d="m 157.31154,-940.50946 h 3.58594 v 18.24609 h -3.58594 z m 10.03711,4.32422 q -0.47461,-0.58008 -1.19531,-0.87891 -0.72071,-0.29883 -1.66993,-0.29883 -1.70507,0 -2.65429,0.94922 -0.93164,0.93164 -0.93164,2.60157 l -0.36914,-3.51563 q 0.84375,-1.63477 2.17968,-2.53125 1.33594,-0.91406 2.95313,-0.91406 1.24804,0 2.25,0.36914 1.01953,0.35156 1.77539,1.05469 z"
         style="font-style:normal;font-variant:normal;font-weight:normal;font-stretch:normal;font-size:36px;font-family:Bahnschrift;-inkscape-font-specification:Bahnschrift;stroke-width:0.75"
         id="path77" /><path
         d="m 201.1338,-947.82196 h 3.35743 v 25.55859 h -3.49805 v -19.14257 l 0.17578,1.125 -6.29297,14.46679 h -2.49609 l -6.29297,-14.11523 0.17578,-1.47656 v 19.14257 h -3.49805 v -25.55859 h 3.35743 l 7.50585,16.875 z"
         style="font-style:normal;font-variant:normal;font-weight:normal;font-stretch:normal;font-size:36px;font-family:Bahnschrift;-inkscape-font-specification:Bahnschrift;stroke-width:0.75"
         id="path79" /><path
         d="m 217.93849,-921.99969 q -2.53125,0 -4.32422,-0.94922 -1.79297,-0.94922 -2.74218,-2.77735 -0.93165,-1.8457 -0.93165,-4.44726 v -2.05664 q 0,-2.70703 0.89649,-4.62305 0.91406,-1.91602 2.63672,-2.91797 1.72265,-1.00195 4.14844,-1.00195 2.28515,0 3.90234,1.14258 1.61719,1.14257 2.46094,3.30468 0.86132,2.16211 0.86132,5.18555 v 1.19531 h -12.30468 v -2.88281 h 8.89453 v 0 q -0.1582,-2.23242 -1.16016,-3.46289 -0.98437,-1.24805 -2.65429,-1.24805 -2.03907,0 -3.16407,1.33594 -1.10742,1.33594 -1.10742,3.7793 v 2.32031 q 0,2.26758 1.19531,3.48047 1.19532,1.21289 3.39258,1.21289 1.08985,0 2.16211,-0.43945 1.07227,-0.43946 1.91602,-1.23047 v 0 l 2.35547,2.35547 v 0 q -1.35352,1.30078 -3.04102,2.02148 -1.6875,0.70313 -3.39258,0.70313 z"
         style="font-style:normal;font-variant:normal;font-weight:normal;font-stretch:normal;font-size:36px;font-family:Bahnschrift;-inkscape-font-specification:Bahnschrift;stroke-width:0.75"
         id="path81" /><path
         d="m 229.80373,-940.50946 h 3.58593 v 18.24609 h -3.58593 z m 11.07421,7.18945 q 0,-1.93359 -1.00195,-2.98828 -1.00195,-1.05469 -2.8125,-1.05469 -1.75781,0 -2.72461,0.93164 -0.94922,0.93165 -0.94922,2.61915 l -0.36914,-3.51563 q 0.84375,-1.65234 2.19727,-2.54883 1.37109,-0.89648 3.02344,-0.89648 2.9707,0 4.58789,1.95117 1.63476,1.93359 1.63476,5.48437 v 11.07422 h -3.58594 z"
         style="font-style:normal;font-variant:normal;font-weight:normal;font-stretch:normal;font-size:36px;font-family:Bahnschrift;-inkscape-font-specification:Bahnschrift;stroke-width:0.75"
         id="path83" /><path
         d="m 254.65919,-922.17548 q -2.21484,0 -3.25195,-1.21289 -1.01953,-1.23047 -1.01953,-3.62109 v -18.80859 h 3.58594 v 18.84375 q 0,0.66796 0.26367,1.03711 0.26367,0.35156 0.77344,0.35156 h 1.72265 v 3.41015 z m -6.15234,-18.33398 h 8.22656 v 3.23437 h -8.22656 z"
         style="font-style:normal;font-variant:normal;font-weight:normal;font-stretch:normal;font-size:36px;font-family:Bahnschrift;-inkscape-font-specification:Bahnschrift;stroke-width:0.75"
         id="path85" /><path
         d="m 268.65138,-921.99969 q -2.37304,0 -4.06054,-0.93165 -1.6875,-0.93164 -2.58399,-2.70703 -0.87891,-1.79297 -0.87891,-4.30664 v -2.9707 q 0,-2.47852 0.87891,-4.23633 0.89649,-1.77539 2.58399,-2.68945 1.6875,-0.93164 4.06054,-0.93164 2.37305,0 4.06055,0.93164 1.6875,0.91406 2.56641,2.68945 0.89648,1.75781 0.89648,4.23633 v 3.02344 q 0,2.49609 -0.89648,4.27148 -0.87891,1.75781 -2.56641,2.68945 -1.6875,0.93165 -4.06055,0.93165 z m 0,-3.41016 q 1.88086,0 2.90039,-1.17774 1.03711,-1.17773 1.03711,-3.30468 v -3.02344 q 0,-2.12695 -1.03711,-3.28711 -1.01953,-1.16016 -2.90039,-1.16016 -1.88086,0 -2.91797,1.16016 -1.01953,1.16016 -1.01953,3.28711 v 3.02344 q 0,2.12695 1.01953,3.30468 1.03711,1.17774 2.91797,1.17774 z"
         style="font-style:normal;font-variant:normal;font-weight:normal;font-stretch:normal;font-size:36px;font-family:Bahnschrift;-inkscape-font-specification:Bahnschrift;stroke-width:0.75"
         id="path87" /><path
         d="m 281.27248,-940.50946 h 3.58593 v 18.24609 h -3.58593 z m 10.03711,4.32422 q -0.47461,-0.58008 -1.19532,-0.87891 -0.7207,-0.29883 -1.66992,-0.29883 -1.70508,0 -2.6543,0.94922 -0.93164,0.93164 -0.93164,2.60157 l -0.36914,-3.51563 q 0.84375,-1.63477 2.17969,-2.53125 1.33594,-0.91406 2.95313,-0.91406 1.24804,0 2.25,0.36914 1.01953,0.35156 1.77539,1.05469 z"
         style="font-style:normal;font-variant:normal;font-weight:normal;font-stretch:normal;font-size:36px;font-family:Bahnschrift;-inkscape-font-specification:Bahnschrift;stroke-width:0.75"
         id="path89" /><path
         d="m 296.67091,-947.82196 h 3.58594 v 3.58594 h -3.58594 z m 0,7.3125 h 3.58594 v 18.24609 h -3.58594 z"
         style="font-style:normal;font-variant:normal;font-weight:normal;font-stretch:normal;font-size:36px;font-family:Bahnschrift;-inkscape-font-specification:Bahnschrift;stroke-width:0.75"
         id="path91" /><path
         d="m 305.74123,-940.50946 h 3.58593 v 18.24609 h -3.58593 z m 11.07421,7.18945 q 0,-1.93359 -1.00195,-2.98828 -1.00195,-1.05469 -2.8125,-1.05469 -1.75781,0 -2.72461,0.93164 -0.94922,0.93165 -0.94922,2.61915 l -0.36914,-3.51563 q 0.84375,-1.65234 2.19727,-2.54883 1.37109,-0.89648 3.02344,-0.89648 2.9707,0 4.58789,1.95117 1.63476,1.93359 1.63476,5.48437 v 11.07422 h -3.58594 z"
         style="font-style:normal;font-variant:normal;font-weight:normal;font-stretch:normal;font-size:36px;font-family:Bahnschrift;-inkscape-font-specification:Bahnschrift;stroke-width:0.75"
         id="path93" /><path
         d="m 331.96779,-914.8454 q -2.05664,0 -3.69141,-0.77344 -1.61719,-0.75585 -2.51367,-2.14453 v 0 l 2.42578,-2.19726 v 0 q 0.70313,0.96679 1.66992,1.49414 0.98438,0.52734 2.05664,0.52734 2.05664,0 3.18164,-1.14258 1.125,-1.125 1.125,-3.19921 v -18.22852 h 3.58594 v 17.70117 q 0,2.51367 -0.93164,4.30664 -0.91406,1.79297 -2.67187,2.72461 -1.75782,0.93164 -4.23633,0.93164 z m -0.33399,-7.10156 q -2.0039,0 -3.42773,-0.86133 -1.40625,-0.8789 -2.14453,-2.54883 -0.73828,-1.66992 -0.73828,-4.00781 v -4.02539 q 0,-2.35547 0.7207,-4.02539 0.7207,-1.66992 2.0918,-2.53125 1.38867,-0.87891 3.32226,-0.87891 1.61719,0 2.95313,0.84375 1.35351,0.84375 2.17969,2.37305 l -0.36915,3.72656 q 0,-1.16015 -0.42187,-1.98633 -0.42188,-0.82617 -1.23047,-1.24804 -0.79101,-0.43946 -1.93359,-0.43946 -1.77539,0 -2.75977,1.10743 -0.9668,1.10742 -0.9668,3.11132 v 3.97266 q 0,1.98633 0.9668,3.07617 0.98438,1.07227 2.75977,1.07227 1.14258,0 1.93359,-0.43945 0.80859,-0.45704 1.23047,-1.30079 0.42187,-0.84375 0.42187,-2.02148 l 0.2461,3.84961 q -0.54492,1.35351 -1.79297,2.26758 -1.23047,0.91406 -3.04102,0.91406 z"
         style="font-style:normal;font-variant:normal;font-weight:normal;font-stretch:normal;font-size:36px;font-family:Bahnschrift;-inkscape-font-specification:Bahnschrift;stroke-width:0.75"
         id="path95" /></g></g></svg>