<?xml version="1.0" encoding="UTF-8" standalone="no"?>
<svg
   xmlns:dc="http://purl.org/dc/elements/1.1/"
   xmlns:cc="http://creativecommons.org/ns#"
   xmlns:rdf="http://www.w3.org/1999/02/22-rdf-syntax-ns#"
   xmlns:svg="http://www.w3.org/2000/svg"
   xmlns="http://www.w3.org/2000/svg"
   xmlns:sodipodi="http://sodipodi.sourceforge.net/DTD/sodipodi-0.dtd"
   xmlns:inkscape="http://www.inkscape.org/namespaces/inkscape"
   version="1.1"
   id="svg2"
   xml:space="preserve"
   width="1116.7445"
   height="138.65242"
   viewBox="0 0 1116.7445 138.65241"
   sodipodi:docname="postgrad.svg"
   inkscape:version="0.92.2 (5c3e80d, 2017-08-06)"
   inkscape:export-filename="C:\xampp\htdocs\FTLS\FYI.png"
   inkscape:export-xdpi="83.085457"
   inkscape:export-ydpi="83.085457"><metadata
     id="metadata8"><rdf:RDF><cc:Work
         rdf:about=""><dc:format>image/svg+xml</dc:format><dc:type
           rdf:resource="http://purl.org/dc/dcmitype/StillImage" /><dc:title /></cc:Work></rdf:RDF></metadata><defs
     id="defs6" /><sodipodi:namedview
     pagecolor="#ffffff"
     bordercolor="#666666"
     borderopacity="1"
     objecttolerance="10"
     gridtolerance="10"
     guidetolerance="10"
     inkscape:pageopacity="0"
     inkscape:pageshadow="2"
     inkscape:window-width="1920"
     inkscape:window-height="1017"
     id="namedview4"
     showgrid="false"
     inkscape:zoom="1.0843875"
     inkscape:cx="322.34709"
     inkscape:cy="116.40643"
     inkscape:window-x="1912"
     inkscape:window-y="-8"
     inkscape:window-maximized="1"
     inkscape:current-layer="g10"
     showborder="true"
     fit-margin-top="0"
     fit-margin-left="0"
     fit-margin-right="0"
     fit-margin-bottom="0"
     showguides="true"
     inkscape:guide-bbox="true"><sodipodi:guide
       position="164.03737,187.03326"
       orientation="1,0"
       id="guide1439"
       inkscape:locked="false" /></sodipodi:namedview><g
     inkscape:groupmode="layer"
     id="layer1"
     inkscape:label="outline"
     style="display:none;opacity:0.125"
     transform="translate(260.19213,244.43772)"
     sodipodi:insensitive="true"><rect
       style="opacity:1;fill:none;fill-opacity:1;stroke:#000000;stroke-width:5.27622032;stroke-miterlimit:4;stroke-dasharray:none;stroke-opacity:1"
       id="rect208"
       width="1111.4683"
       height="133.37621"
       x="-257.55402"
       y="-241.79961" /><rect
       style="opacity:1;fill:none;fill-opacity:1;stroke:#000000;stroke-width:5.27622032;stroke-miterlimit:4;stroke-dasharray:none;stroke-opacity:1"
       id="rect1031"
       width="124.1778"
       height="107.31411"
       x="-243.75648"
       y="-230.30167" /><path
       style="fill:none;stroke:#000000;stroke-width:1px;stroke-linecap:butt;stroke-linejoin:miter;stroke-opacity:1"
       d="m -104.24805,-124.52054 938.23246,1.53306"
       id="path1033"
       inkscape:connector-curvature="0"
       sodipodi:nodetypes="cc" /></g><g
     id="g10"
     inkscape:groupmode="layer"
     inkscape:label="Academic Advising"
     transform="matrix(1.3333333,0,0,-1.3333333,260.19213,1311.1044)"
     style="display:inline"><flowRoot
       xml:space="preserve"
       id="flowRoot1358"
       style="font-style:normal;font-weight:normal;font-size:40px;line-height:1.25;font-family:sans-serif;letter-spacing:0px;word-spacing:0px;fill:#000000;fill-opacity:1;stroke:none"><flowRegion
         id="flowRegion1360"><rect
           id="rect1362"
           width="364.67142"
           height="151.20522"
           x="85.386475"
           y="234.14859" /></flowRegion><flowPara
         id="flowPara1364" /></flowRoot><flowRoot
       xml:space="preserve"
       id="flowRoot1366"
       style="font-style:normal;font-weight:normal;font-size:40px;line-height:1.25;font-family:sans-serif;letter-spacing:0px;word-spacing:0px;fill:#000000;fill-opacity:1;stroke:none"><flowRegion
         id="flowRegion1368"><rect
           id="rect1370"
           width="663.52411"
           height="158.32076"
           x="78.270935"
           y="200.34978" /></flowRegion><flowPara
         id="flowPara1372" /></flowRoot><g
       aria-label="Postgraduate Hub"
       transform="scale(1,-1)"
       style="font-style:normal;font-weight:normal;font-size:37.00810242px;line-height:1.25;font-family:sans-serif;letter-spacing:0px;word-spacing:0px;fill:#000000;fill-opacity:1;stroke:none;stroke-width:0.92520249"
       id="text1392"><path
         d="m -70.022585,-935.70667 h 8.402719 q 1.192644,0 2.096162,-0.56018 0.903518,-0.56019 1.391418,-1.5902 0.50597,-1.03001 0.50597,-2.36721 v 0 q 0,-1.35528 -0.50597,-2.38529 -0.4879,-1.03001 -1.391418,-1.59019 -0.903518,-0.57826 -2.096162,-0.57826 h -8.402719 v -3.50565 h 8.276226 q 2.349148,0 4.138113,1.01194 1.788966,0.99387 2.764766,2.81898 0.99387,1.82511 0.99387,4.22847 v 0 q 0,2.40335 -0.99387,4.22846 -0.9758,1.80704 -2.764766,2.80091 -1.788965,0.99387 -4.138113,0.99387 h -8.276226 z m -1.897388,-12.57698 h 3.686354 v 26.27431 h -3.686354 z"
         style="font-style:normal;font-variant:normal;font-weight:normal;font-stretch:normal;font-family:Bahnschrift;-inkscape-font-specification:Bahnschrift;stroke-width:0.92520249"
         id="path41" /><path
         d="m -43.621785,-921.73828 q -2.439499,0 -4.174254,-0.95773 -1.734755,-0.95773 -2.656343,-2.78284 -0.903518,-1.84317 -0.903518,-4.42724 v -3.05389 q 0,-2.54792 0.903518,-4.35496 0.921588,-1.8251 2.656343,-2.76476 1.734755,-0.95773 4.174254,-0.95773 2.439499,0 4.174253,0.95773 1.734755,0.93966 2.638273,2.76476 0.921589,1.80704 0.921589,4.35496 v 3.1081 q 0,2.566 -0.921589,4.3911 -0.903518,1.80704 -2.638273,2.76477 -1.734754,0.95773 -4.174253,0.95773 z m 0,-3.50565 q 1.933528,0 2.981609,-1.21072 1.066152,-1.21071 1.066152,-3.39723 v -3.1081 q 0,-2.18651 -1.066152,-3.37916 -1.048081,-1.19264 -2.981609,-1.19264 -1.933529,0 -2.999681,1.19264 -1.048081,1.19265 -1.048081,3.37916 v 3.1081 q 0,2.18652 1.048081,3.39723 1.066152,1.21072 2.999681,1.21072 z"
         style="font-style:normal;font-variant:normal;font-weight:normal;font-stretch:normal;font-family:Bahnschrift;-inkscape-font-specification:Bahnschrift;stroke-width:0.92520249"
         id="path43" /><path
         d="m -24.01544,-921.73828 q -1.662473,0 -3.126172,-0.32527 -1.445629,-0.32527 -2.710555,-0.9758 -1.264925,-0.65053 -2.331077,-1.62633 v 0 l 2.186514,-2.69249 v 0 q 1.517911,1.15651 3.017751,1.73476 1.49984,0.57825 2.963539,0.57825 2.186514,0 3.270736,-0.6686 1.102292,-0.68668 1.102292,-2.04195 0,-0.90352 -0.596322,-1.35528 -0.596322,-0.45176 -1.48177,-0.59632 -0.885447,-0.16264 -2.49371,-0.28913 -0.144563,0 -0.307196,0 -0.162633,-0.0181 -0.307196,-0.0361 -0.07228,0 -0.144563,0 -0.07228,-0.0181 -0.144563,-0.0181 -1.825106,-0.14456 -3.090032,-0.52404 -1.264925,-0.39755 -2.114232,-1.4637 -0.831237,-1.06615 -0.831237,-3.05389 0,-1.98774 0.813166,-3.30688 0.813167,-1.31913 2.421429,-1.96967 1.608262,-0.6686 4.029691,-0.6686 1.463699,0 2.782836,0.27106 1.337206,0.27105 2.547921,0.81316 1.210714,0.52404 2.331076,1.33721 v 0 l -2.222654,2.69248 v 0 q -1.409488,-0.90352 -2.782836,-1.35527 -1.355277,-0.45176 -2.656343,-0.45176 -1.879318,0 -2.818977,0.65053 -0.939659,0.63246 -0.939659,1.91546 0,0.75895 0.524041,1.13843 0.542111,0.37948 1.355277,0.50597 0.813166,0.12649 2.313006,0.21685 0.108423,0.0181 0.216845,0.0181 0.126492,0 0.252985,0.0181 0.05421,0 0.108422,0 0.05421,0 0.108422,0.0181 1.96967,0.12649 3.343017,0.52404 1.391418,0.39754 2.331077,1.57212 0.939659,1.17457 0.939659,3.39723 0,2.02388 -0.867377,3.36108 -0.867378,1.31914 -2.620203,1.98774 -1.734755,0.66861 -4.373028,0.66861 z"
         style="font-style:normal;font-variant:normal;font-weight:normal;font-stretch:normal;font-family:Bahnschrift;-inkscape-font-specification:Bahnschrift;stroke-width:0.92520249"
         id="path45" /><path
         d="m -6.5414011,-921.91899 q -2.2768656,0 -3.343017,-1.24685 -1.0480809,-1.26493 -1.0480809,-3.7225 v -19.33528 h 3.6863538 v 19.37142 q 0,0.68668 0.2710554,1.06616 0.2710555,0.3614 0.795096,0.3614 h 1.7708955 v 3.50565 z m -6.3246269,-18.84738 h 8.4569297 v 3.32494 h -8.4569297 z"
         style="font-style:normal;font-variant:normal;font-weight:normal;font-stretch:normal;font-family:Bahnschrift;-inkscape-font-specification:Bahnschrift;stroke-width:0.92520249"
         id="path47" /><path
         d="m 6.9390902,-914.38365 q -2.1142325,0 -3.7947762,-0.79509 -1.6624733,-0.77703 -2.5840618,-2.20459 v 0 l 2.49371,-2.25879 v 0 q 0.7228145,0.99387 1.7166845,1.53598 1.0119403,0.54211 2.1142324,0.54211 2.1142324,0 3.2707359,-1.17457 1.156503,-1.15651 1.156503,-3.28881 v -18.73896 h 3.686354 v 18.19685 q 0,2.58406 -0.957729,4.42724 -0.939659,1.84318 -2.746695,2.80091 -1.8070367,0.95772 -4.3549578,0.95772 z m -0.3433369,-7.30042 q -2.0600214,0 -3.5237207,-0.88545 -1.445629,-0.90352 -2.20458424,-2.6202 -0.75895523,-1.71669 -0.75895523,-4.12004 v -4.13812 q 0,-2.42143 0.74088487,-4.13811 0.7408849,-1.71669 2.1503731,-2.60213 1.4275587,-0.90352 3.4152985,-0.90352 1.6624734,0 3.035821,0.86738 1.3914174,0.86737 2.2407254,2.4395 l -0.379478,3.83091 q 0,-1.19264 -0.433689,-2.04195 -0.433689,-0.84931 -1.2649252,-1.28299 -0.8131663,-0.45176 -1.9877399,-0.45176 -1.8251066,0 -2.8370469,1.13843 -0.9938699,1.13843 -0.9938699,3.19845 v 4.08391 q 0,2.04195 0.9938699,3.16231 1.0119403,1.10229 2.8370469,1.10229 1.1745736,0 1.9877399,-0.45176 0.8312362,-0.46983 1.2649252,-1.33721 0.433689,-0.86737 0.433689,-2.07809 l 0.252985,3.95741 q -0.560181,1.39142 -1.843177,2.33108 -1.2649254,0.93966 -3.1261727,0.93966 z"
         style="font-style:normal;font-variant:normal;font-weight:normal;font-stretch:normal;font-family:Bahnschrift;-inkscape-font-specification:Bahnschrift;stroke-width:0.92520249"
         id="path49" /><path
         d="m 20.600281,-940.76637 h 3.686353 v 18.75703 h -3.686353 z m 10.318177,4.4453 q -0.4879,-0.59632 -1.228785,-0.90351 -0.740885,-0.3072 -1.716685,-0.3072 -1.752825,0 -2.728624,0.9758 -0.95773,0.95773 -0.95773,2.67441 l -0.379477,-3.61407 q 0.867377,-1.68054 2.240725,-2.60213 1.373347,-0.93966 3.035821,-0.93966 1.282995,0 2.313006,0.37948 1.048081,0.3614 1.825107,1.08422 z"
         style="font-style:normal;font-variant:normal;font-weight:normal;font-stretch:normal;font-family:Bahnschrift;-inkscape-font-specification:Bahnschrift;stroke-width:0.92520249"
         id="path51" /><path
         d="m 47.019156,-933.89964 q 0,-1.84317 -0.99387,-2.85511 -0.975799,-1.03001 -2.782836,-1.03001 -1.120362,0 -2.204584,0.34333 -1.066151,0.34334 -1.897388,0.95773 l -2.692484,-1.84318 q 1.066152,-1.28299 2.800906,-1.98774 1.752825,-0.72281 3.885128,-0.72281 2.331077,0 3.99355,0.83124 1.662474,0.81316 2.529851,2.38528 0.867378,1.55406 0.867378,3.75864 v 12.05293 h -3.505651 z m -4.589872,12.16136 q -3.469509,0 -5.186194,-1.42756 -1.716684,-1.44563 -1.716684,-4.37303 0,-2.78284 1.572121,-4.17425 1.572122,-1.39142 4.752506,-1.39142 h 5.330756 l 0.252986,2.96354 h -5.565672 q -1.445629,0 -2.168444,0.65053 -0.704744,0.63246 -0.704744,1.9516 0,1.42756 0.939659,2.11423 0.957729,0.68668 2.891258,0.68668 2.114233,0 3.144243,-0.45176 1.048081,-0.45176 1.048081,-1.40949 l 0.379478,2.63827 q -0.4879,0.75896 -1.210714,1.24686 -0.704745,0.4879 -1.644403,0.72281 -0.939659,0.25299 -2.114233,0.25299 z"
         style="font-style:normal;font-variant:normal;font-weight:normal;font-stretch:normal;font-family:Bahnschrift;-inkscape-font-specification:Bahnschrift;stroke-width:0.92520249"
         id="path53" /><path
         d="m 66.824272,-948.28365 h 3.686353 v 26.27431 h -3.686353 z m -4.716365,26.59958 q -2.060021,0 -3.523721,-0.88545 -1.445629,-0.90352 -2.204584,-2.6202 -0.758955,-1.71669 -0.758955,-4.12004 v -4.13812 q 0,-2.42143 0.740885,-4.13811 0.740884,-1.71669 2.150373,-2.60213 1.427558,-0.90352 3.415298,-0.90352 1.662474,0 3.035821,0.86738 1.391418,0.86737 2.240725,2.4395 l -0.379477,3.83091 q 0,-1.19264 -0.433689,-2.04195 -0.433689,-0.84931 -1.264926,-1.28299 -0.813166,-0.45176 -1.987739,-0.45176 -1.825107,0 -2.837047,1.13843 -0.99387,1.13843 -0.99387,3.19845 v 4.08391 q 0,2.04195 0.99387,3.16231 1.01194,1.10229 2.837047,1.10229 1.174573,0 1.987739,-0.45176 0.831237,-0.46983 1.264926,-1.33721 0.433689,-0.86737 0.433689,-2.07809 l 0.252985,3.95741 q -0.560182,1.39142 -1.843177,2.33108 -1.264926,0.93966 -3.126173,0.93966 z"
         style="font-style:normal;font-variant:normal;font-weight:normal;font-stretch:normal;font-family:Bahnschrift;-inkscape-font-specification:Bahnschrift;stroke-width:0.92520249"
         id="path55" /><path
         d="m 87.424481,-940.76637 h 3.668284 v 18.75703 h -3.668284 z m -7.625693,11.40239 q 0,1.96967 0.99387,3.0539 1.01194,1.06615 2.837047,1.06615 1.807036,0 2.800906,-0.95773 0.99387,-0.95773 0.99387,-2.72863 l 0.252985,3.92127 q -0.578251,1.39142 -1.879318,2.33108 -1.301066,0.93966 -3.198454,0.93966 -3.108102,0 -4.806716,-1.98774 -1.680544,-2.00581 -1.680544,-5.63796 v -11.40239 h 3.686354 z"
         style="font-style:normal;font-variant:normal;font-weight:normal;font-stretch:normal;font-family:Bahnschrift;-inkscape-font-specification:Bahnschrift;stroke-width:0.92520249"
         id="path57" /><path
         d="m 107.30189,-933.89964 q 0,-1.84317 -0.99387,-2.85511 -0.9758,-1.03001 -2.78284,-1.03001 -1.12036,0 -2.20458,0.34333 -1.06616,0.34334 -1.897392,0.95773 l -2.692484,-1.84318 q 1.066152,-1.28299 2.800906,-1.98774 1.75283,-0.72281 3.88513,-0.72281 2.33108,0 3.99355,0.83124 1.66247,0.81316 2.52985,2.38528 0.86738,1.55406 0.86738,3.75864 v 12.05293 h -3.50565 z m -4.58988,12.16136 q -3.469505,0 -5.18619,-1.42756 -1.716684,-1.44563 -1.716684,-4.37303 0,-2.78284 1.572121,-4.17425 1.572122,-1.39142 4.752503,-1.39142 h 5.33076 l 0.25298,2.96354 h -5.56567 q -1.44563,0 -2.168441,0.65053 -0.704744,0.63246 -0.704744,1.9516 0,1.42756 0.939655,2.11423 0.95773,0.68668 2.89126,0.68668 2.11423,0 3.14425,-0.45176 1.04808,-0.45176 1.04808,-1.40949 l 0.37947,2.63827 q -0.4879,0.75896 -1.21071,1.24686 -0.70474,0.4879 -1.6444,0.72281 -0.93966,0.25299 -2.11424,0.25299 z"
         style="font-style:normal;font-variant:normal;font-weight:normal;font-stretch:normal;font-family:Bahnschrift;-inkscape-font-specification:Bahnschrift;stroke-width:0.92520249"
         id="path59" /><path
         d="m 121.32449,-921.91899 q -2.27687,0 -3.34302,-1.24685 -1.04808,-1.26493 -1.04808,-3.7225 v -19.33528 h 3.68635 v 19.37142 q 0,0.68668 0.27106,1.06616 0.27105,0.3614 0.79509,0.3614 h 1.7709 v 3.50565 z m -6.32463,-18.84738 h 8.45693 v 3.32494 h -8.45693 z"
         style="font-style:normal;font-variant:normal;font-weight:normal;font-stretch:normal;font-family:Bahnschrift;-inkscape-font-specification:Bahnschrift;stroke-width:0.92520249"
         id="path61" /><path
         d="m 136.19639,-921.73828 q -2.60213,0 -4.44531,-0.9758 -1.84318,-0.9758 -2.81897,-2.85512 -0.95773,-1.89739 -0.95773,-4.5718 v -2.11423 q 0,-2.78284 0.92158,-4.75251 0.93966,-1.96967 2.71056,-2.99968 1.77089,-1.03001 4.2646,-1.03001 2.34915,0 4.01162,1.17457 1.66248,1.17458 2.52986,3.39723 0.88544,2.22266 0.88544,5.33076 v 1.22878 h -12.64925 v -2.96354 h 9.1436 v 0 q -0.16263,-2.29493 -1.19264,-3.55986 -1.01194,-1.28299 -2.72863,-1.28299 -2.09616,0 -3.25266,1.37334 -1.13843,1.37335 -1.13843,3.88513 v 2.38529 q 0,2.33108 1.22878,3.57793 1.22879,1.24686 3.48758,1.24686 1.12036,0 2.22266,-0.45176 1.10229,-0.45176 1.96967,-1.26493 v 0 l 2.42142,2.42143 v 0 q -1.39141,1.33721 -3.12617,2.07809 -1.73475,0.72282 -3.48758,0.72282 z"
         style="font-style:normal;font-variant:normal;font-weight:normal;font-stretch:normal;font-family:Bahnschrift;-inkscape-font-specification:Bahnschrift;stroke-width:0.92520249"
         id="path63" /><path
         d="m 173.65626,-948.28365 h 3.68636 v 26.27431 h -3.68636 z m -14.92612,0 h 3.68636 v 26.27431 h -3.68636 z m 2.29494,11.58311 h 14.58278 v 3.50565 h -14.58278 z"
         style="font-style:normal;font-variant:normal;font-weight:normal;font-stretch:normal;font-family:Bahnschrift;-inkscape-font-specification:Bahnschrift;stroke-width:0.92520249"
         id="path65" /><path
         d="m 194.83471,-940.76637 h 3.66829 v 18.75703 h -3.66829 z m -7.62569,11.40239 q 0,1.96967 0.99387,3.0539 1.01194,1.06615 2.83705,1.06615 1.80703,0 2.8009,-0.95773 0.99387,-0.95773 0.99387,-2.72863 l 0.25299,3.92127 q -0.57825,1.39142 -1.87932,2.33108 -1.30107,0.93966 -3.19845,0.93966 -3.10811,0 -4.80672,-1.98774 -1.68054,-2.00581 -1.68054,-5.63796 v -11.40239 h 3.68635 z"
         style="font-style:normal;font-variant:normal;font-weight:normal;font-stretch:normal;font-family:Bahnschrift;-inkscape-font-specification:Bahnschrift;stroke-width:0.92520249"
         id="path67" /><path
         d="m 212.5256,-921.73828 q -1.75282,0 -3.05389,-0.83124 -1.30106,-0.84931 -1.91545,-2.38529 l 0.25298,-3.92127 q 0,1.21072 0.43369,2.06003 0.43369,0.8493 1.24685,1.30106 0.83124,0.45176 2.00581,0.45176 1.82511,0 2.81898,-1.10229 1.01194,-1.12036 1.01194,-3.14424 v -4.06584 q 0,-2.06002 -1.01194,-3.19845 -0.99387,-1.13843 -2.81898,-1.13843 -1.17457,0 -2.00581,0.43369 -0.81316,0.43368 -1.24685,1.28299 -0.43369,0.83124 -0.43369,2.00581 l -0.37948,-3.61407 q 0.84931,-1.6444 2.22266,-2.52985 1.37334,-0.90352 3.05389,-0.90352 1.98774,0 3.39723,0.90352 1.42756,0.88545 2.16844,2.60213 0.74089,1.71668 0.74089,4.13811 v 4.08391 q 0,2.38528 -0.75896,4.0839 -0.75896,1.69861 -2.22265,2.60213 -1.4637,0.88545 -3.50566,0.88545 z m -8.40271,-26.54537 h 3.68635 v 26.27431 h -3.68635 z"
         style="font-style:normal;font-variant:normal;font-weight:normal;font-stretch:normal;font-family:Bahnschrift;-inkscape-font-specification:Bahnschrift;stroke-width:0.92520249"
         id="path69" /></g><g
       style="display:inline"
       transform="matrix(0.85144552,0,0,0.85144552,-256.68738,737.3858)"
       id="g1427"><path
         d="m 130.594,207.243 v -7.921 c 0,-4.368 3.553,-7.922 7.922,-7.922 h 3.129 c 4.368,0 7.922,3.554 7.922,7.922 v 7.921 z M 141.645,190.1 h -3.129 c -5.085,0 -9.222,4.137 -9.222,9.222 v 8.572 c 0,0.359 0.291,0.65 0.65,0.65 h 20.273 c 0.359,0 0.65,-0.291 0.65,-0.65 v -8.572 c 0,-5.085 -4.137,-9.222 -9.222,-9.222"
         style="fill:#100f0d;fill-opacity:1;fill-rule:nonzero;stroke:none;stroke-width:0.1"
         id="path684"
         inkscape:connector-curvature="0" /><path
         d="m 130.474,208.544 h 19.213 c 0.822,3.655 3.082,7.396 6.411,10.593 5.447,5.182 8.098,12.465 7.274,19.983 -1.221,11.06 -10.144,19.982 -21.216,21.213 -0.323,-0.005 -0.696,0.029 -1.063,0.063 -0.327,0.031 -0.655,0.062 -1.012,0.062 -0.75,0 -1.343,0 -2.049,-0.119 -11.086,-1.235 -20.008,-10.157 -21.252,-21.221 -0.823,-7.512 1.831,-14.794 7.281,-19.979 3.331,-3.199 5.591,-6.94 6.413,-10.595 z m 19.743,-1.301 h -20.273 c -0.313,0 -0.582,0.224 -0.639,0.531 -0.665,3.558 -2.847,7.26 -6.142,10.425 -5.745,5.465 -8.543,13.143 -7.675,21.062 1.311,11.664 10.717,21.069 22.363,22.365 0.777,0.133 1.451,0.133 2.23,0.133 0.4,0 0.766,-0.033 1.133,-0.068 0.328,-0.03 0.655,-0.061 1.014,-0.061 11.743,-1.303 21.148,-10.708 22.436,-22.368 0.868,-7.925 -1.927,-15.603 -7.668,-21.065 -3.294,-3.163 -5.475,-6.865 -6.14,-10.423 -0.058,-0.307 -0.326,-0.531 -0.639,-0.531"
         style="fill:#100f0d;fill-opacity:1;fill-rule:nonzero;stroke:none;stroke-width:0.1"
         id="path686"
         inkscape:connector-curvature="0" /><path
         d="m 152.65,202.965 h -25.14 c -0.359,0 -0.65,0.291 -0.65,0.65 0,0.36 0.291,0.651 0.65,0.651 h 25.14 c 0.359,0 0.65,-0.291 0.65,-0.651 0,-0.359 -0.291,-0.65 -0.65,-0.65"
         style="fill:#100f0d;fill-opacity:1;fill-rule:nonzero;stroke:none;stroke-width:0.1"
         id="path688"
         inkscape:connector-curvature="0" /><path
         d="m 152.65,198.597 h -25.14 c -0.359,0 -0.65,0.291 -0.65,0.65 0,0.359 0.291,0.65 0.65,0.65 h 25.14 c 0.359,0 0.65,-0.291 0.65,-0.65 0,-0.359 -0.291,-0.65 -0.65,-0.65"
         style="fill:#100f0d;fill-opacity:1;fill-rule:nonzero;stroke:none;stroke-width:0.1"
         id="path690"
         inkscape:connector-curvature="0" /><path
         d="m 152.65,194.238 h -25.14 c -0.359,0 -0.65,0.291 -0.65,0.651 0,0.359 0.291,0.65 0.65,0.65 h 25.14 c 0.359,0 0.65,-0.291 0.65,-0.65 0,-0.36 -0.291,-0.651 -0.65,-0.651"
         style="fill:#100f0d;fill-opacity:1;fill-rule:nonzero;stroke:none;stroke-width:0.1"
         id="path692"
         inkscape:connector-curvature="0" /><path
         d="m 133.425,229.408 c 0.116,0 0.232,-0.031 0.337,-0.095 1.142,-0.692 2.379,-1.192 3.676,-1.486 0.296,-0.066 0.506,-0.33 0.506,-0.634 v -2.723 c 0,-0.28 0.237,-0.515 0.517,-0.515 h 3.229 c 0.286,0 0.518,0.231 0.518,0.515 v 2.723 c 0,0.305 0.211,0.57 0.51,0.635 1.269,0.279 2.508,0.78 3.683,1.486 0.256,0.155 0.584,0.115 0.795,-0.097 l 1.889,-1.898 c 0.192,-0.188 0.542,-0.194 0.737,0.001 l 2.275,2.285 c 0.105,0.103 0.158,0.23 0.158,0.365 0.001,0.135 -0.053,0.263 -0.151,0.359 l -1.83,1.84 c -0.218,0.219 -0.252,0.56 -0.081,0.817 0.758,1.141 1.309,2.397 1.641,3.732 0.073,0.29 0.333,0.494 0.631,0.494 h 2.491 c 0.279,0 0.506,0.23 0.506,0.515 v 3.23 c 0,0.29 -0.222,0.517 -0.506,0.517 h -2.351 c -0.311,0 -0.578,0.219 -0.638,0.524 -0.279,1.417 -0.799,2.753 -1.546,3.97 -0.157,0.256 -0.119,0.585 0.093,0.798 l 1.583,1.592 c 0.105,0.102 0.157,0.225 0.158,0.358 0.001,0.139 -0.053,0.271 -0.153,0.369 l -2.281,2.291 c -0.184,0.18 -0.543,0.184 -0.745,-0.01 l -1.5,-1.508 c -0.218,-0.221 -0.561,-0.255 -0.819,-0.085 -1.239,0.818 -2.599,1.395 -4.04,1.714 -0.298,0.067 -0.509,0.33 -0.509,0.635 v 2.101 c 0,0.284 -0.232,0.515 -0.518,0.515 h -3.229 c -0.28,0 -0.517,-0.236 -0.517,-0.515 v -2.101 c 0,-0.305 -0.211,-0.568 -0.508,-0.635 -1.437,-0.32 -2.793,-0.896 -4.033,-1.714 -0.257,-0.169 -0.598,-0.134 -0.817,0.083 l -1.519,1.519 c -0.184,0.182 -0.538,0.186 -0.734,-0.005 l -2.279,-2.281 c -0.098,-0.098 -0.152,-0.231 -0.151,-0.373 10e-4,-0.136 0.052,-0.26 0.144,-0.351 l 1.599,-1.597 c 0.212,-0.213 0.251,-0.544 0.094,-0.8 -0.758,-1.235 -1.281,-2.57 -1.555,-3.969 -0.06,-0.305 -0.328,-0.525 -0.638,-0.525 h -2.342 c -0.285,0 -0.516,-0.232 -0.516,-0.517 v -3.23 c 0,-0.28 0.236,-0.515 0.516,-0.515 h 2.48 c 0.297,0 0.556,-0.202 0.63,-0.489 0.342,-1.342 0.898,-2.599 1.653,-3.737 0.17,-0.257 0.136,-0.6 -0.082,-0.819 l -1.832,-1.833 c -0.098,-0.097 -0.151,-0.227 -0.151,-0.364 0,-0.138 0.053,-0.266 0.149,-0.362 l 2.287,-2.289 c 0.192,-0.19 0.533,-0.193 0.728,0 l 1.898,1.899 c 0.125,0.125 0.292,0.19 0.46,0.19 z m 8.265,-6.754 h -3.229 c -1.002,0 -1.816,0.815 -1.816,1.816 v 2.215 c -1.086,0.289 -2.129,0.711 -3.114,1.259 l -1.545,-1.544 c -0.682,-0.683 -1.881,-0.683 -2.567,0 l -2.285,2.288 c -0.342,0.338 -0.53,0.794 -0.531,1.28 -10e-4,0.487 0.188,0.944 0.532,1.286 l 1.463,1.465 c -0.604,0.995 -1.076,2.065 -1.408,3.192 h -1.985 c -1.001,0 -1.816,0.815 -1.816,1.816 v 3.23 c 0,1.002 0.815,1.817 1.816,1.817 h 1.818 c 0.286,1.197 0.737,2.346 1.348,3.43 l -1.237,1.236 c -0.337,0.33 -0.528,0.781 -0.531,1.267 -0.003,0.492 0.185,0.954 0.53,1.301 l 2.286,2.287 c 0.695,0.678 1.88,0.674 2.563,0.004 l 1.156,-1.155 c 1.097,0.664 2.273,1.163 3.507,1.489 v 1.59 c 0,1.001 0.814,1.816 1.816,1.816 h 3.229 c 1.002,0 1.817,-0.815 1.817,-1.816 v -1.59 c 1.237,-0.325 2.416,-0.824 3.514,-1.488 l 1.143,1.148 c 0.712,0.687 1.889,0.673 2.572,0.007 l 2.282,-2.292 c 0.348,-0.343 0.541,-0.807 0.538,-1.301 -0.004,-0.488 -0.199,-0.941 -0.549,-1.276 l -1.218,-1.226 c 0.603,-1.073 1.052,-2.224 1.34,-3.431 h 1.827 c 0.996,0 1.806,-0.815 1.806,-1.817 v -3.23 c 0,-1.001 -0.81,-1.816 -1.806,-1.816 h -1.993 c -0.325,-1.126 -0.795,-2.196 -1.401,-3.194 l 1.457,-1.465 c 0.344,-0.336 0.537,-0.795 0.537,-1.284 -0.001,-0.489 -0.195,-0.946 -0.545,-1.286 l -2.268,-2.28 c -0.687,-0.685 -1.88,-0.687 -2.574,-0.006 l -1.541,1.548 c -1.004,-0.556 -2.05,-0.98 -3.121,-1.262 v -2.212 c 0,-1.001 -0.815,-1.816 -1.817,-1.816"
         style="fill:#100f0d;fill-opacity:1;fill-rule:nonzero;stroke:none;stroke-width:0.1"
         id="path694"
         inkscape:connector-curvature="0" /><path
         d="m 140.081,245.167 c -3.209,0 -5.821,-2.61 -5.821,-5.819 0,-3.215 2.612,-5.829 5.821,-5.829 3.209,0 5.819,2.614 5.819,5.829 0,3.209 -2.61,5.819 -5.819,5.819 z m 0,-12.949 c -3.926,0 -7.121,3.198 -7.121,7.13 0,3.925 3.195,7.12 7.121,7.12 3.926,0 7.119,-3.195 7.119,-7.12 0,-3.932 -3.193,-7.13 -7.119,-7.13"
         style="fill:#100f0d;fill-opacity:1;fill-rule:nonzero;stroke:none;stroke-width:0.1"
         id="path696"
         inkscape:connector-curvature="0" /><path
         d="m 139.006,207.233 c -0.09,0 -0.182,0.02 -0.27,0.06 -0.15,0.068 -0.261,0.186 -0.323,0.326 l -6.071,10.047 c -0.186,0.307 -0.088,0.707 0.22,0.893 0.307,0.185 0.706,0.087 0.892,-0.221 l 5.392,-8.922 2.61,8.771 c 0.103,0.344 0.466,0.54 0.809,0.438 0.344,-0.103 0.54,-0.465 0.437,-0.809 l -2.915,-9.775 -0.189,-0.429 c -0.11,-0.238 -0.346,-0.379 -0.592,-0.379"
         style="fill:#100f0d;fill-opacity:1;fill-rule:nonzero;stroke:none;stroke-width:0.1"
         id="path704"
         inkscape:connector-curvature="0" /><path
         d="m 137.101,218.53 c -0.614,0 -1.296,0.199 -2.031,0.775 -1.158,0.903 -2.381,0.459 -3.635,-0.123 -0.461,-0.214 -0.794,-0.37 -1.121,-0.37 -0.358,0 -0.649,0.292 -0.649,0.651 0,0.352 0.28,0.64 0.63,0.649 0.101,0.02 0.385,0.152 0.593,0.248 1.084,0.503 3.1,1.441 4.983,-0.032 1.091,-0.851 1.824,-0.464 2.754,0.031 0.512,0.273 1.042,0.554 1.632,0.578 1.444,0.063 4.018,-0.995 4.306,-1.117 0.331,-0.138 0.486,-0.52 0.347,-0.85 -0.139,-0.331 -0.52,-0.488 -0.851,-0.347 -0.71,0.298 -2.761,1.085 -3.743,1.016 -0.3,-0.012 -0.679,-0.214 -1.081,-0.428 -0.557,-0.296 -1.281,-0.681 -2.134,-0.681"
         style="fill:#100f0d;fill-opacity:1;fill-rule:nonzero;stroke:none;stroke-width:0.1"
         id="path706"
         inkscape:connector-curvature="0" /><path
         d="m 140.081,263.727 c -0.359,0 -0.65,0.291 -0.65,0.65 v 4.221 c 0,0.359 0.291,0.65 0.65,0.65 0.359,0 0.65,-0.291 0.65,-0.65 v -4.221 c 0,-0.359 -0.291,-0.65 -0.65,-0.65"
         style="fill:#100f0d;fill-opacity:1;fill-rule:nonzero;stroke:none;stroke-width:0.1"
         id="path708"
         inkscape:connector-curvature="0" /><path
         d="m 155.195,259.673 c -0.11,0 -0.222,0.028 -0.324,0.088 -0.311,0.178 -0.417,0.577 -0.238,0.887 l 2.111,3.657 c 0.18,0.31 0.577,0.418 0.888,0.237 0.311,-0.179 0.417,-0.577 0.238,-0.888 l -2.111,-3.656 c -0.121,-0.208 -0.339,-0.325 -0.564,-0.325"
         style="fill:#100f0d;fill-opacity:1;fill-rule:nonzero;stroke:none;stroke-width:0.1"
         id="path710"
         inkscape:connector-curvature="0" /><path
         d="m 166.259,248.609 c -0.224,0 -0.443,0.118 -0.563,0.326 -0.179,0.311 -0.073,0.709 0.238,0.887 l 3.656,2.111 c 0.31,0.18 0.708,0.073 0.888,-0.238 0.179,-0.311 0.073,-0.709 -0.238,-0.887 l -3.657,-2.111 c -0.102,-0.059 -0.213,-0.088 -0.324,-0.088"
         style="fill:#100f0d;fill-opacity:1;fill-rule:nonzero;stroke:none;stroke-width:0.1"
         id="path712"
         inkscape:connector-curvature="0" /><path
         d="m 174.533,233.495 h -4.221 c -0.359,0 -0.65,0.291 -0.65,0.651 0,0.359 0.291,0.65 0.65,0.65 h 4.221 c 0.359,0 0.65,-0.291 0.65,-0.65 0,-0.36 -0.291,-0.651 -0.65,-0.651"
         style="fill:#100f0d;fill-opacity:1;fill-rule:nonzero;stroke:none;stroke-width:0.1"
         id="path714"
         inkscape:connector-curvature="0" /><path
         d="m 169.915,216.259 c -0.111,0 -0.223,0.028 -0.325,0.087 l -3.656,2.109 c -0.311,0.18 -0.417,0.577 -0.238,0.889 0.179,0.309 0.577,0.416 0.887,0.238 l 3.657,-2.109 c 0.311,-0.18 0.417,-0.577 0.238,-0.889 -0.12,-0.208 -0.339,-0.325 -0.563,-0.325"
         style="fill:#100f0d;fill-opacity:1;fill-rule:nonzero;stroke:none;stroke-width:0.1"
         id="path716"
         inkscape:connector-curvature="0" /><path
         d="m 110.237,216.259 c -0.224,0 -0.443,0.117 -0.563,0.325 -0.179,0.312 -0.073,0.709 0.238,0.889 l 3.656,2.109 c 0.31,0.178 0.709,0.071 0.888,-0.238 0.179,-0.312 0.073,-0.709 -0.238,-0.889 l -3.656,-2.109 c -0.103,-0.059 -0.214,-0.087 -0.325,-0.087"
         style="fill:#100f0d;fill-opacity:1;fill-rule:nonzero;stroke:none;stroke-width:0.1"
         id="path718"
         inkscape:connector-curvature="0" /><path
         d="m 109.848,233.495 h -4.23 c -0.359,0 -0.65,0.291 -0.65,0.651 0,0.359 0.291,0.65 0.65,0.65 h 4.23 c 0.359,0 0.65,-0.291 0.65,-0.65 0,-0.36 -0.291,-0.651 -0.65,-0.651"
         style="fill:#100f0d;fill-opacity:1;fill-rule:nonzero;stroke:none;stroke-width:0.1"
         id="path720"
         inkscape:connector-curvature="0" /><path
         d="m 113.893,248.609 c -0.111,0 -0.223,0.029 -0.325,0.088 l -3.656,2.111 c -0.311,0.178 -0.417,0.576 -0.238,0.887 0.18,0.311 0.577,0.418 0.888,0.238 l 3.656,-2.111 c 0.311,-0.178 0.417,-0.576 0.238,-0.887 -0.121,-0.208 -0.339,-0.326 -0.563,-0.326"
         style="fill:#100f0d;fill-opacity:1;fill-rule:nonzero;stroke:none;stroke-width:0.1"
         id="path722"
         inkscape:connector-curvature="0" /><path
         d="m 124.965,259.673 c -0.224,0 -0.443,0.117 -0.563,0.325 l -2.111,3.656 c -0.18,0.311 -0.073,0.709 0.237,0.888 0.311,0.181 0.709,0.073 0.889,-0.237 l 2.111,-3.657 c 0.179,-0.31 0.073,-0.709 -0.238,-0.887 -0.102,-0.06 -0.214,-0.088 -0.325,-0.088"
         style="fill:#100f0d;fill-opacity:1;fill-rule:nonzero;stroke:none;stroke-width:0.1"
         id="path724"
         inkscape:connector-curvature="0" /></g></g></svg>