<?xml version="1.0" encoding="UTF-8" standalone="no"?>
<svg
   xmlns:dc="http://purl.org/dc/elements/1.1/"
   xmlns:cc="http://creativecommons.org/ns#"
   xmlns:rdf="http://www.w3.org/1999/02/22-rdf-syntax-ns#"
   xmlns:svg="http://www.w3.org/2000/svg"
   xmlns="http://www.w3.org/2000/svg"
   xmlns:sodipodi="http://sodipodi.sourceforge.net/DTD/sodipodi-0.dtd"
   xmlns:inkscape="http://www.inkscape.org/namespaces/inkscape"
   version="1.1"
   id="svg2"
   xml:space="preserve"
   width="1116.7445"
   height="138.65242"
   viewBox="0 0 1116.7445 138.65241"
   sodipodi:docname="reading.svg"
   inkscape:version="0.92.2 (5c3e80d, 2017-08-06)"
   inkscape:export-filename="C:\xampp\htdocs\FTLS\FYI.png"
   inkscape:export-xdpi="83.085457"
   inkscape:export-ydpi="83.085457"><metadata
     id="metadata8"><rdf:RDF><cc:Work
         rdf:about=""><dc:format>image/svg+xml</dc:format><dc:type
           rdf:resource="http://purl.org/dc/dcmitype/StillImage" /><dc:title /></cc:Work></rdf:RDF></metadata><defs
     id="defs6" /><sodipodi:namedview
     pagecolor="#ffffff"
     bordercolor="#666666"
     borderopacity="1"
     objecttolerance="10"
     gridtolerance="10"
     guidetolerance="10"
     inkscape:pageopacity="0"
     inkscape:pageshadow="2"
     inkscape:window-width="1920"
     inkscape:window-height="1017"
     id="namedview4"
     showgrid="false"
     inkscape:zoom="1.0843875"
     inkscape:cx="367.99497"
     inkscape:cy="116.40643"
     inkscape:window-x="1912"
     inkscape:window-y="-8"
     inkscape:window-maximized="1"
     inkscape:current-layer="g10"
     showborder="true"
     fit-margin-top="0"
     fit-margin-left="0"
     fit-margin-right="0"
     fit-margin-bottom="0"
     showguides="true"
     inkscape:guide-bbox="true"><sodipodi:guide
       position="164.03737,187.03326"
       orientation="1,0"
       id="guide1439"
       inkscape:locked="false" /></sodipodi:namedview><g
     inkscape:groupmode="layer"
     id="layer1"
     inkscape:label="outline"
     style="display:none;opacity:0.125"
     transform="translate(260.19213,244.43772)"
     sodipodi:insensitive="true"><rect
       style="opacity:1;fill:none;fill-opacity:1;stroke:#000000;stroke-width:5.27622032;stroke-miterlimit:4;stroke-dasharray:none;stroke-opacity:1"
       id="rect208"
       width="1111.4683"
       height="133.37621"
       x="-257.55402"
       y="-241.79961" /><rect
       style="opacity:1;fill:none;fill-opacity:1;stroke:#000000;stroke-width:5.27622032;stroke-miterlimit:4;stroke-dasharray:none;stroke-opacity:1"
       id="rect1031"
       width="124.1778"
       height="107.31411"
       x="-243.75648"
       y="-230.30167" /><path
       style="fill:none;stroke:#000000;stroke-width:1px;stroke-linecap:butt;stroke-linejoin:miter;stroke-opacity:1"
       d="m -104.24805,-124.52054 938.23246,1.53306"
       id="path1033"
       inkscape:connector-curvature="0"
       sodipodi:nodetypes="cc" /></g><g
     id="g10"
     inkscape:groupmode="layer"
     inkscape:label="Academic Advising"
     transform="matrix(1.3333333,0,0,-1.3333333,260.19213,1311.1044)"
     style="display:inline"><flowRoot
       xml:space="preserve"
       id="flowRoot1358"
       style="font-style:normal;font-weight:normal;font-size:40px;line-height:1.25;font-family:sans-serif;letter-spacing:0px;word-spacing:0px;fill:#000000;fill-opacity:1;stroke:none"><flowRegion
         id="flowRegion1360"><rect
           id="rect1362"
           width="364.67142"
           height="151.20522"
           x="85.386475"
           y="234.14859" /></flowRegion><flowPara
         id="flowPara1364" /></flowRoot><flowRoot
       xml:space="preserve"
       id="flowRoot1366"
       style="font-style:normal;font-weight:normal;font-size:40px;line-height:1.25;font-family:sans-serif;letter-spacing:0px;word-spacing:0px;fill:#000000;fill-opacity:1;stroke:none"><flowRegion
         id="flowRegion1368"><rect
           id="rect1370"
           width="663.52411"
           height="158.32076"
           x="78.270935"
           y="200.34978" /></flowRegion><flowPara
         id="flowPara1372" /></flowRoot><g
       transform="matrix(1.2003733,0,0,1.2003733,-341.13973,659.95094)"
       id="g1634"><path
         d="m 186.292,200.248 h -32.861 c -0.466,0 -0.844,0.378 -0.844,0.845 v 45.015 c 0,0.467 0.378,0.844 0.844,0.844 h 6.935 c 0.466,0 0.844,-0.377 0.844,-0.844 0,-0.466 -0.378,-0.844 -0.844,-0.844 h -6.091 v -43.328 h 31.173 v 43.328 h -6.091 c -0.466,0 -0.844,0.378 -0.844,0.844 0,0.467 0.378,0.844 0.844,0.844 h 6.935 c 0.467,0 0.844,-0.377 0.844,-0.844 v -45.015 c 0,-0.467 -0.377,-0.845 -0.844,-0.845"
         style="fill:#000000;fill-opacity:1;fill-rule:nonzero;stroke:none;stroke-width:0.1"
         id="path224"
         inkscape:connector-curvature="0" /><path
         d="m 165.818,244.492 h 8.117 v 3.192 c 0,2.238 -1.82,4.059 -4.058,4.059 -2.238,0 -4.059,-1.821 -4.059,-4.059 z m 8.961,-1.688 h -9.805 c -0.466,0 -0.844,0.378 -0.844,0.844 v 4.036 c 0,3.168 2.578,5.746 5.747,5.746 3.168,0 5.746,-2.578 5.746,-5.746 v -4.036 c 0,-0.466 -0.377,-0.844 -0.844,-0.844"
         style="fill:#000000;fill-opacity:1;fill-rule:nonzero;stroke:none;stroke-width:0.1"
         id="path226"
         inkscape:connector-curvature="0" /><path
         d="m 182.881,204.188 h -26.039 c -0.466,0 -0.844,0.377 -0.844,0.844 v 36.125 c 0,0.466 0.378,0.843 0.844,0.843 0.467,0 0.844,-0.377 0.844,-0.843 v -35.282 h 24.351 v 35.282 c 0,0.466 0.378,0.843 0.844,0.843 0.467,0 0.844,-0.377 0.844,-0.843 v -36.125 c 0,-0.467 -0.377,-0.844 -0.844,-0.844"
         style="fill:#000000;fill-opacity:1;fill-rule:nonzero;stroke:none;stroke-width:0.1"
         id="path228"
         inkscape:connector-curvature="0" /><path
         d="m 177.516,242.804 h -15.278 c -0.466,0 -0.844,0.378 -0.844,0.844 0,0.466 0.378,0.844 0.844,0.844 h 15.278 c 0.466,0 0.844,-0.378 0.844,-0.844 0,-0.466 -0.378,-0.844 -0.844,-0.844"
         style="fill:#000000;fill-opacity:1;fill-rule:nonzero;stroke:none;stroke-width:0.1"
         id="path230"
         inkscape:connector-curvature="0" /><path
         d="m 169.877,237.25 c -1.297,0 -2.352,-1.055 -2.352,-2.352 0,-1.296 1.055,-2.351 2.352,-2.351 1.297,0 2.352,1.055 2.352,2.351 0,1.297 -1.055,2.352 -2.352,2.352 z m 0,-6.391 c -2.228,0 -4.04,1.812 -4.04,4.039 0,2.228 1.812,4.04 4.04,4.04 2.227,0 4.04,-1.812 4.04,-4.04 0,-2.227 -1.813,-4.039 -4.04,-4.039"
         style="fill:#000000;fill-opacity:1;fill-rule:nonzero;stroke:none;stroke-width:0.1"
         id="path232"
         inkscape:connector-curvature="0" /><path
         d="m 166.404,229.296 -2.123,-0.821 c -0.306,-0.119 -0.511,-0.418 -0.511,-0.745 v -5.358 c 0,-0.613 0.499,-1.112 1.114,-1.112 h 9.986 c 0.614,0 1.113,0.499 1.113,1.112 v 5.358 c 0,0.327 -0.205,0.626 -0.51,0.744 l -2.123,0.822 -2.742,-4.756 c -0.301,-0.523 -1.161,-0.523 -1.462,0 z m 8.466,-9.725 h -9.986 c -1.545,0 -2.802,1.257 -2.802,2.801 v 5.358 c 0,1.019 0.639,1.951 1.589,2.318 l 2.799,1.084 c 0.389,0.15 0.828,-0.006 1.035,-0.366 l 2.372,-4.115 2.371,4.115 c 0.208,0.361 0.647,0.517 1.036,0.366 l 2.798,-1.084 c 0.951,-0.367 1.589,-1.299 1.589,-2.318 v -5.358 c 0,-1.544 -1.257,-2.801 -2.801,-2.801"
         style="fill:#000000;fill-opacity:1;fill-rule:nonzero;stroke:none;stroke-width:0.1"
         id="path234"
         inkscape:connector-curvature="0" /><path
         d="m 178.936,215.007 h -18.119 c -0.466,0 -0.844,0.378 -0.844,0.844 0,0.466 0.378,0.844 0.844,0.844 h 18.119 c 0.466,0 0.844,-0.378 0.844,-0.844 0,-0.466 -0.378,-0.844 -0.844,-0.844"
         style="fill:#000000;fill-opacity:1;fill-rule:nonzero;stroke:none;stroke-width:0.1"
         id="path236"
         inkscape:connector-curvature="0" /><path
         d="m 178.921,210.443 h -18.119 c -0.466,0 -0.844,0.377 -0.844,0.843 0,0.467 0.378,0.845 0.844,0.845 h 18.119 c 0.466,0 0.844,-0.378 0.844,-0.845 0,-0.466 -0.378,-0.843 -0.844,-0.843"
         style="fill:#000000;fill-opacity:1;fill-rule:nonzero;stroke:none;stroke-width:0.1"
         id="path238"
         inkscape:connector-curvature="0" /></g><g
       aria-label="Reading Development"
       transform="scale(1,-1)"
       style="font-style:normal;font-weight:normal;font-size:37.00810242px;line-height:1.25;font-family:sans-serif;letter-spacing:0px;word-spacing:0px;fill:#000000;fill-opacity:1;stroke:none;stroke-width:0.92520249"
       id="text1392"><path
         d="m -70.31171,-936.61923 h 8.962899 q 1.048081,0 1.861248,-0.50597 0.813166,-0.50597 1.246855,-1.42756 0.451759,-0.93966 0.451759,-2.15037 v 0 q 0,-1.21071 -0.451759,-2.1323 -0.433689,-0.93966 -1.246855,-1.44563 -0.795096,-0.50597 -1.861248,-0.50597 h -8.962899 v -3.50565 h 8.818336 q 2.276866,0 3.993551,0.93966 1.734754,0.93966 2.674413,2.67441 0.957729,1.71668 0.957729,3.97548 v 0 q 0,2.25879 -0.957729,3.99355 -0.957729,1.71668 -2.692484,2.65634 -1.716684,0.93966 -3.97548,0.93966 h -8.818336 z m -1.608263,-11.67345 h 3.686354 v 26.29237 h -3.686354 z m 8.764126,14.36594 3.668284,-0.83124 6.722175,12.75767 h -4.373028 z"
         style="font-style:normal;font-variant:normal;font-weight:normal;font-stretch:normal;font-family:Bahnschrift;-inkscape-font-specification:Bahnschrift;stroke-width:0.92520249"
         id="path836" /><path
         d="m -41.182286,-921.72925 q -2.602133,0 -4.44531,-0.9758 -1.843177,-0.9758 -2.818976,-2.85512 -0.957729,-1.89738 -0.957729,-4.5718 v -2.11423 q 0,-2.78284 0.921588,-4.75251 0.939659,-1.96967 2.710555,-2.99968 1.770895,-1.03001 4.264605,-1.03001 2.349147,0 4.011621,1.17458 1.662473,1.17457 2.52985,3.39722 0.885448,2.22266 0.885448,5.33076 v 1.22879 h -12.649254 v -2.96354 h 9.143604 v 0 q -0.162634,-2.29494 -1.192644,-3.55986 -1.011941,-1.283 -2.728625,-1.283 -2.096162,0 -3.252665,1.37335 -1.138433,1.37334 -1.138433,3.88513 v 2.38528 q 0,2.33108 1.228785,3.57793 1.228784,1.24686 3.48758,1.24686 1.120362,0 2.222654,-0.45176 1.102292,-0.45176 1.96967,-1.26492 v 0 l 2.421428,2.42142 v 0 q -1.391418,1.33721 -3.126172,2.0781 -1.734755,0.72281 -3.48758,0.72281 z"
         style="font-style:normal;font-variant:normal;font-weight:normal;font-stretch:normal;font-family:Bahnschrift;-inkscape-font-specification:Bahnschrift;stroke-width:0.92520249"
         id="path838" /><path
         d="m -18.395559,-933.8906 q 0,-1.84318 -0.99387,-2.85512 -0.975799,-1.03001 -2.782835,-1.03001 -1.120363,0 -2.204585,0.34334 -1.066151,0.34333 -1.897388,0.95772 l -2.692484,-1.84317 q 1.066152,-1.283 2.800907,-1.98774 1.752825,-0.72282 3.885127,-0.72282 2.331077,0 3.993551,0.83124 1.662473,0.81317 2.52985,2.38529 0.867378,1.55405 0.867378,3.75863 v 12.05293 h -3.505651 z m -4.589872,12.16135 q -3.469509,0 -5.186194,-1.42756 -1.716684,-1.44563 -1.716684,-4.37303 0,-2.78283 1.572121,-4.17425 1.572122,-1.39142 4.752506,-1.39142 h 5.330757 l 0.252985,2.96354 h -5.565672 q -1.445629,0 -2.168443,0.65053 -0.704745,0.63247 -0.704745,1.9516 0,1.42756 0.939659,2.11424 0.957729,0.68667 2.891258,0.68667 2.114233,0 3.144243,-0.45176 1.048081,-0.45176 1.048081,-1.40949 l 0.379478,2.63828 q -0.4879,0.75895 -1.210714,1.24685 -0.704744,0.4879 -1.644403,0.72282 -0.939659,0.25298 -2.114233,0.25298 z"
         style="font-style:normal;font-variant:normal;font-weight:normal;font-stretch:normal;font-family:Bahnschrift;-inkscape-font-specification:Bahnschrift;stroke-width:0.92520249"
         id="path840" /><path
         d="m 1.4095605,-948.27461 h 3.686354 v 26.2743 h -3.686354 z m -4.7163646,26.59957 q -2.0600213,0 -3.5237207,-0.88545 -1.445629,-0.90351 -2.2045842,-2.6202 -0.7589552,-1.71668 -0.7589552,-4.12004 v -4.13811 q 0,-2.42143 0.7408848,-4.13812 0.7408849,-1.71668 2.1503732,-2.60213 1.4275586,-0.90352 3.4152985,-0.90352 1.6624733,0 3.03582088,0.86738 1.39141791,0.86738 2.24072492,2.4395 l -0.3794776,3.83092 q 0,-1.19265 -0.43368868,-2.04196 -0.4336887,-0.8493 -1.26492538,-1.28299 -0.81316634,-0.45176 -1.98773984,-0.45176 -1.8251066,0 -2.8370469,1.13843 -0.99387,1.13844 -0.99387,3.19846 v 4.0839 q 0,2.04195 0.99387,3.16231 1.0119403,1.10229 2.8370469,1.10229 1.1745735,0 1.98773984,-0.45176 0.83123668,-0.46982 1.26492538,-1.3372 0.43368868,-0.86738 0.43368868,-2.07809 l 0.2529851,3.95741 q -0.5601812,1.39141 -1.84317698,2.33107 -1.26492542,0.93966 -3.12617272,0.93966 z"
         style="font-style:normal;font-variant:normal;font-weight:normal;font-stretch:normal;font-family:Bahnschrift;-inkscape-font-specification:Bahnschrift;stroke-width:0.92520249"
         id="path842" /><path
         d="m 10.697723,-948.27461 h 3.686354 v 3.68635 h -3.686354 z m 0,7.51727 h 3.686354 v 18.75703 h -3.686354 z"
         style="font-style:normal;font-variant:normal;font-weight:normal;font-stretch:normal;font-family:Bahnschrift;-inkscape-font-specification:Bahnschrift;stroke-width:0.92520249"
         id="path844" /><path
         d="m 20.022033,-940.75734 h 3.686354 v 18.75703 h -3.686354 z m 11.384329,7.39078 q 0,-1.98774 -1.030011,-3.07196 -1.03001,-1.08423 -2.891258,-1.08423 -1.807036,0 -2.800906,0.95773 -0.9758,0.95773 -0.9758,2.69249 l -0.379477,-3.61408 q 0.867377,-1.69861 2.258795,-2.6202 1.409488,-0.92159 3.108102,-0.92159 3.053892,0 4.716365,2.00581 1.680544,1.98774 1.680544,5.63796 v 11.38432 h -3.686354 z"
         style="font-style:normal;font-variant:normal;font-weight:normal;font-stretch:normal;font-family:Bahnschrift;-inkscape-font-specification:Bahnschrift;stroke-width:0.92520249"
         id="path846" /><path
         d="m 46.983013,-914.37461 q -2.114233,0 -3.794777,-0.7951 -1.662473,-0.77702 -2.584061,-2.20458 v 0 l 2.49371,-2.2588 v 0 q 0.722814,0.99387 1.716684,1.53598 1.01194,0.54211 2.114232,0.54211 2.114233,0 3.270736,-1.17457 1.156503,-1.1565 1.156503,-3.28881 v -18.73896 h 3.686354 v 18.19685 q 0,2.58407 -0.957729,4.42724 -0.939659,1.84318 -2.746695,2.80091 -1.807036,0.95773 -4.354957,0.95773 z m -0.343337,-7.30043 q -2.060022,0 -3.523721,-0.88545 -1.445629,-0.90351 -2.204584,-2.6202 -0.758955,-1.71668 -0.758955,-4.12004 v -4.13811 q 0,-2.42143 0.740884,-4.13812 0.740885,-1.71668 2.150374,-2.60213 1.427558,-0.90352 3.415298,-0.90352 1.662473,0 3.035821,0.86738 1.391418,0.86738 2.240725,2.4395 l -0.379478,3.83092 q 0,-1.19265 -0.433688,-2.04196 -0.433689,-0.8493 -1.264926,-1.28299 -0.813166,-0.45176 -1.98774,-0.45176 -1.825106,0 -2.837047,1.13843 -0.993869,1.13844 -0.993869,3.19846 v 4.0839 q 0,2.04195 0.993869,3.16231 1.011941,1.10229 2.837047,1.10229 1.174574,0 1.98774,-0.45176 0.831237,-0.46982 1.264926,-1.3372 0.433688,-0.86738 0.433688,-2.07809 l 0.252985,3.95741 q -0.560181,1.39141 -1.843177,2.33107 -1.264925,0.93966 -3.126172,0.93966 z"
         style="font-style:normal;font-variant:normal;font-weight:normal;font-stretch:normal;font-family:Bahnschrift;-inkscape-font-specification:Bahnschrift;stroke-width:0.92520249"
         id="path848" /><path
         d="m 73.474158,-925.50596 h 5.94515 q 2.909328,0 4.49952,-1.49984 1.608262,-1.51791 1.608262,-4.2646 v -7.73412 q 0,-2.74669 -1.608262,-4.24653 -1.590192,-1.51791 -4.49952,-1.51791 h -5.94515 v -3.50565 h 5.836728 q 3.162313,0 5.403038,1.10229 2.240725,1.10229 3.415298,3.21652 1.174574,2.11424 1.174574,5.09585 v 7.44499 q 0,2.98161 -1.174574,5.09584 -1.174573,2.11423 -3.433368,3.21652 -2.240725,1.10229 -5.403039,1.10229 h -5.818657 z m -2.49371,-22.76865 h 3.686354 v 26.2743 h -3.686354 z"
         style="font-style:normal;font-variant:normal;font-weight:normal;font-stretch:normal;font-family:Bahnschrift;-inkscape-font-specification:Bahnschrift;stroke-width:0.92520249"
         id="path850" /><path
         d="m 102.58552,-921.72925 q -2.602132,0 -4.445309,-0.9758 -1.843177,-0.9758 -2.818976,-2.85512 -0.957729,-1.89738 -0.957729,-4.5718 v -2.11423 q 0,-2.78284 0.921588,-4.75251 0.939659,-1.96967 2.710555,-2.99968 1.770895,-1.03001 4.264601,-1.03001 2.34915,0 4.01162,1.17458 1.66248,1.17457 2.52986,3.39722 0.88544,2.22266 0.88544,5.33076 v 1.22879 H 97.037919 v -2.96354 h 9.143601 v 0 q -0.16263,-2.29494 -1.19264,-3.55986 -1.01194,-1.283 -2.72863,-1.283 -2.09616,0 -3.252661,1.37335 -1.138433,1.37334 -1.138433,3.88513 v 2.38528 q 0,2.33108 1.228785,3.57793 1.228789,1.24686 3.487579,1.24686 1.12036,0 2.22266,-0.45176 1.10229,-0.45176 1.96966,-1.26492 v 0 l 2.42143,2.42142 v 0 q -1.39141,1.33721 -3.12617,2.0781 -1.73475,0.72281 -3.48758,0.72281 z"
         style="font-style:normal;font-variant:normal;font-weight:normal;font-stretch:normal;font-family:Bahnschrift;-inkscape-font-specification:Bahnschrift;stroke-width:0.92520249"
         id="path852" /><path
         d="m 125.10119,-940.75734 h 3.84899 l -7.04744,18.75703 h -2.78284 l -7.04744,-18.75703 h 3.84899 l 4.58987,13.39014 z"
         style="font-style:normal;font-variant:normal;font-weight:normal;font-stretch:normal;font-family:Bahnschrift;-inkscape-font-specification:Bahnschrift;stroke-width:0.92520249"
         id="path854" /><path
         d="m 139.88275,-921.72925 q -2.60214,0 -4.44531,-0.9758 -1.84318,-0.9758 -2.81898,-2.85512 -0.95773,-1.89738 -0.95773,-4.5718 v -2.11423 q 0,-2.78284 0.92159,-4.75251 0.93966,-1.96967 2.71055,-2.99968 1.7709,-1.03001 4.26461,-1.03001 2.34915,0 4.01162,1.17458 1.66247,1.17457 2.52985,3.39722 0.88545,2.22266 0.88545,5.33076 v 1.22879 h -12.64925 v -2.96354 h 9.1436 v 0 q -0.16263,-2.29494 -1.19265,-3.55986 -1.01194,-1.283 -2.72862,-1.283 -2.09616,0 -3.25267,1.37335 -1.13843,1.37334 -1.13843,3.88513 v 2.38528 q 0,2.33108 1.22879,3.57793 1.22878,1.24686 3.48758,1.24686 1.12036,0 2.22265,-0.45176 1.10229,-0.45176 1.96967,-1.26492 v 0 l 2.42143,2.42142 v 0 q -1.39142,1.33721 -3.12617,2.0781 -1.73476,0.72281 -3.48758,0.72281 z"
         style="font-style:normal;font-variant:normal;font-weight:normal;font-stretch:normal;font-family:Bahnschrift;-inkscape-font-specification:Bahnschrift;stroke-width:0.92520249"
         id="path856" /><path
         d="m 155.76659,-926.84316 q 0,0.68667 0.28913,1.06615 0.30719,0.36141 0.8493,0.36141 h 1.73476 v 3.50565 h -2.16844 q -2.09617,0 -3.25267,-1.30107 -1.13843,-1.30107 -1.13843,-3.66828 v -21.39531 h 3.68635 z"
         style="font-style:normal;font-variant:normal;font-weight:normal;font-stretch:normal;font-family:Bahnschrift;-inkscape-font-specification:Bahnschrift;stroke-width:0.92520249"
         id="path858" /><path
         d="m 169.9699,-921.72925 q -2.43949,0 -4.17425,-0.95773 -1.73475,-0.95773 -2.65634,-2.78283 -0.90352,-1.84318 -0.90352,-4.42724 v -3.05389 q 0,-2.54793 0.90352,-4.35496 0.92159,-1.82511 2.65634,-2.76477 1.73476,-0.95773 4.17425,-0.95773 2.4395,0 4.17426,0.95773 1.73475,0.93966 2.63827,2.76477 0.92159,1.80703 0.92159,4.35496 v 3.1081 q 0,2.56599 -0.92159,4.3911 -0.90352,1.80703 -2.63827,2.76476 -1.73476,0.95773 -4.17426,0.95773 z m 0,-3.50565 q 1.93353,0 2.98161,-1.21071 1.06616,-1.21072 1.06616,-3.39723 v -3.1081 q 0,-2.18652 -1.06616,-3.37916 -1.04808,-1.19265 -2.98161,-1.19265 -1.93352,0 -2.99968,1.19265 -1.04808,1.19264 -1.04808,3.37916 v 3.1081 q 0,2.18651 1.04808,3.39723 1.06616,1.21071 2.99968,1.21071 z"
         style="font-style:normal;font-variant:normal;font-weight:normal;font-stretch:normal;font-family:Bahnschrift;-inkscape-font-specification:Bahnschrift;stroke-width:0.92520249"
         id="path860" /><path
         d="m 182.94442,-940.75734 h 3.68635 v 26.38273 h -3.68635 z m 8.40272,19.02809 q -1.75283,0 -3.05389,-0.83124 -1.30107,-0.8493 -1.91546,-2.38528 l 0.25298,-3.92127 q 0,1.21071 0.43369,2.06002 0.43369,0.84931 1.24686,1.30106 0.83123,0.45176 2.00581,0.45176 1.8251,0 2.81897,-1.10229 1.01194,-1.12036 1.01194,-3.14424 v -4.06583 q 0,-2.06002 -1.01194,-3.19846 -0.99387,-1.13843 -2.81897,-1.13843 -1.17458,0 -2.00581,0.43369 -0.81317,0.43369 -1.24686,1.28299 -0.43369,0.83124 -0.43369,2.00581 l -0.37947,-3.61407 q 0.8493,-1.6444 2.22265,-2.52985 1.37335,-0.90352 3.05389,-0.90352 1.98774,0 3.39723,0.90352 1.42756,0.88545 2.16844,2.60213 0.74089,1.71669 0.74089,4.13812 v 4.0839 q 0,2.38529 -0.75896,4.0839 -0.75895,1.69861 -2.22265,2.60213 -1.4637,0.88545 -3.50565,0.88545 z"
         style="font-style:normal;font-variant:normal;font-weight:normal;font-stretch:normal;font-family:Bahnschrift;-inkscape-font-specification:Bahnschrift;stroke-width:0.92520249"
         id="path862" /><path
         d="m 225.5182,-933.36656 q 0,-1.98774 -1.03001,-3.07196 -1.03001,-1.08423 -2.89126,-1.08423 -1.71668,0 -2.65634,1.04808 -0.93966,1.04809 -0.93966,2.96354 l -0.74088,-3.61407 q 0.88545,-1.86125 2.33107,-2.87319 1.4637,-1.03001 3.21653,-1.03001 2.02388,0 3.45144,0.90352 1.44563,0.88545 2.18651,2.60213 0.75896,1.71669 0.75896,4.13812 v 11.38432 h -3.68636 z m -22.40725,-7.39078 h 3.68636 v 18.75703 h -3.68636 z m 11.20363,7.39078 q 0,-1.98774 -0.9758,-3.07196 -0.9758,-1.08423 -2.76477,-1.08423 -1.80703,0 -2.8009,0.95773 -0.9758,0.95773 -0.9758,2.69249 l -0.37948,-3.61408 q 0.86738,-1.69861 2.2588,-2.6202 1.40948,-0.92159 3.1081,-0.92159 1.96967,0 3.36109,0.90352 1.39141,0.88545 2.11423,2.60213 0.74088,1.71669 0.74088,4.13812 v 11.38432 h -3.68635 z"
         style="font-style:normal;font-variant:normal;font-weight:normal;font-stretch:normal;font-family:Bahnschrift;-inkscape-font-specification:Bahnschrift;stroke-width:0.92520249"
         id="path864" /><path
         d="m 242.52239,-921.72925 q -2.60213,0 -4.4453,-0.9758 -1.84318,-0.9758 -2.81898,-2.85512 -0.95773,-1.89738 -0.95773,-4.5718 v -2.11423 q 0,-2.78284 0.92159,-4.75251 0.93966,-1.96967 2.71055,-2.99968 1.7709,-1.03001 4.26461,-1.03001 2.34915,0 4.01162,1.17458 1.66247,1.17457 2.52985,3.39722 0.88545,2.22266 0.88545,5.33076 v 1.22879 h -12.64926 v -2.96354 h 9.14361 v 0 q -0.16264,-2.29494 -1.19265,-3.55986 -1.01194,-1.283 -2.72862,-1.283 -2.09616,0 -3.25267,1.37335 -1.13843,1.37334 -1.13843,3.88513 v 2.38528 q 0,2.33108 1.22879,3.57793 1.22878,1.24686 3.48757,1.24686 1.12037,0 2.22266,-0.45176 1.10229,-0.45176 1.96967,-1.26492 v 0 l 2.42143,2.42142 v 0 q -1.39142,1.33721 -3.12618,2.0781 -1.73475,0.72281 -3.48758,0.72281 z"
         style="font-style:normal;font-variant:normal;font-weight:normal;font-stretch:normal;font-family:Bahnschrift;-inkscape-font-specification:Bahnschrift;stroke-width:0.92520249"
         id="path866" /><path
         d="m 254.7199,-940.75734 h 3.68636 v 18.75703 h -3.68636 z m 11.38433,7.39078 q 0,-1.98774 -1.03001,-3.07196 -1.03001,-1.08423 -2.89126,-1.08423 -1.80703,0 -2.8009,0.95773 -0.9758,0.95773 -0.9758,2.69249 l -0.37948,-3.61408 q 0.86738,-1.69861 2.25879,-2.6202 1.40949,-0.92159 3.10811,-0.92159 3.05389,0 4.71636,2.00581 1.68054,1.98774 1.68054,5.63796 v 11.38432 h -3.68635 z"
         style="font-style:normal;font-variant:normal;font-weight:normal;font-stretch:normal;font-family:Bahnschrift;-inkscape-font-specification:Bahnschrift;stroke-width:0.92520249"
         id="path868" /><path
         d="m 280.27139,-921.90995 q -2.27687,0 -3.34302,-1.24686 -1.04808,-1.26492 -1.04808,-3.72249 v -19.33529 h 3.68635 v 19.37143 q 0,0.68667 0.27106,1.06615 0.27105,0.36141 0.79509,0.36141 h 1.7709 v 3.50565 z m -6.32463,-18.84739 h 8.45693 v 3.32495 h -8.45693 z"
         style="font-style:normal;font-variant:normal;font-weight:normal;font-stretch:normal;font-family:Bahnschrift;-inkscape-font-specification:Bahnschrift;stroke-width:0.92520249"
         id="path870" /></g></g></svg>