<?xml version="1.0" encoding="UTF-8" standalone="no"?>
<svg
   xmlns:dc="http://purl.org/dc/elements/1.1/"
   xmlns:cc="http://creativecommons.org/ns#"
   xmlns:rdf="http://www.w3.org/1999/02/22-rdf-syntax-ns#"
   xmlns:svg="http://www.w3.org/2000/svg"
   xmlns="http://www.w3.org/2000/svg"
   xmlns:sodipodi="http://sodipodi.sourceforge.net/DTD/sodipodi-0.dtd"
   xmlns:inkscape="http://www.inkscape.org/namespaces/inkscape"
   version="1.1"
   id="svg2"
   xml:space="preserve"
   width="1116.7445"
   height="138.65242"
   viewBox="0 0 1116.7445 138.65241"
   sodipodi:docname="si.svg"
   inkscape:version="0.92.2 (5c3e80d, 2017-08-06)"
   inkscape:export-filename="C:\xampp\htdocs\FTLS\FYI.png"
   inkscape:export-xdpi="83.085457"
   inkscape:export-ydpi="83.085457"><metadata
     id="metadata8"><rdf:RDF><cc:Work
         rdf:about=""><dc:format>image/svg+xml</dc:format><dc:type
           rdf:resource="http://purl.org/dc/dcmitype/StillImage" /><dc:title /></cc:Work></rdf:RDF></metadata><defs
     id="defs6" /><sodipodi:namedview
     pagecolor="#ffffff"
     bordercolor="#666666"
     borderopacity="1"
     objecttolerance="10"
     gridtolerance="10"
     guidetolerance="10"
     inkscape:pageopacity="0"
     inkscape:pageshadow="2"
     inkscape:window-width="1920"
     inkscape:window-height="1017"
     id="namedview4"
     showgrid="false"
     inkscape:zoom="1.0843875"
     inkscape:cx="322.34709"
     inkscape:cy="116.40643"
     inkscape:window-x="1912"
     inkscape:window-y="-8"
     inkscape:window-maximized="1"
     inkscape:current-layer="g10"
     showborder="true"
     fit-margin-top="0"
     fit-margin-left="0"
     fit-margin-right="0"
     fit-margin-bottom="0"
     showguides="true"
     inkscape:guide-bbox="true"><sodipodi:guide
       position="164.03737,187.03326"
       orientation="1,0"
       id="guide1439"
       inkscape:locked="false" /></sodipodi:namedview><g
     inkscape:groupmode="layer"
     id="layer1"
     inkscape:label="outline"
     style="display:none;opacity:0.125"
     transform="translate(260.19213,244.43772)"
     sodipodi:insensitive="true"><rect
       style="opacity:1;fill:none;fill-opacity:1;stroke:#000000;stroke-width:5.27622032;stroke-miterlimit:4;stroke-dasharray:none;stroke-opacity:1"
       id="rect208"
       width="1111.4683"
       height="133.37621"
       x="-257.55402"
       y="-241.79961" /><rect
       style="opacity:1;fill:none;fill-opacity:1;stroke:#000000;stroke-width:5.27622032;stroke-miterlimit:4;stroke-dasharray:none;stroke-opacity:1"
       id="rect1031"
       width="124.1778"
       height="107.31411"
       x="-243.75648"
       y="-230.30167" /><path
       style="fill:none;stroke:#000000;stroke-width:1px;stroke-linecap:butt;stroke-linejoin:miter;stroke-opacity:1"
       d="m -104.24805,-124.52054 938.23246,1.53306"
       id="path1033"
       inkscape:connector-curvature="0"
       sodipodi:nodetypes="cc" /></g><g
     id="g10"
     inkscape:groupmode="layer"
     inkscape:label="Academic Advising"
     transform="matrix(1.3333333,0,0,-1.3333333,260.19213,1311.1044)"
     style="display:inline"><flowRoot
       xml:space="preserve"
       id="flowRoot1358"
       style="font-style:normal;font-weight:normal;font-size:40px;line-height:1.25;font-family:sans-serif;letter-spacing:0px;word-spacing:0px;fill:#000000;fill-opacity:1;stroke:none"><flowRegion
         id="flowRegion1360"><rect
           id="rect1362"
           width="364.67142"
           height="151.20522"
           x="85.386475"
           y="234.14859" /></flowRegion><flowPara
         id="flowPara1364" /></flowRoot><flowRoot
       xml:space="preserve"
       id="flowRoot1366"
       style="font-style:normal;font-weight:normal;font-size:40px;line-height:1.25;font-family:sans-serif;letter-spacing:0px;word-spacing:0px;fill:#000000;fill-opacity:1;stroke:none"><flowRegion
         id="flowRegion1368"><rect
           id="rect1370"
           width="663.52411"
           height="158.32076"
           x="78.270935"
           y="200.34978" /></flowRegion><flowPara
         id="flowPara1372" /></flowRoot><g
       aria-label="Supplemental Instruction"
       transform="scale(1,-1)"
       style="font-style:normal;font-weight:normal;font-size:37.00810242px;line-height:1.25;font-family:sans-serif;letter-spacing:0px;word-spacing:0px;fill:#000000;fill-opacity:1;stroke:none;stroke-width:0.92520249"
       id="text1392"><path
         d="m -64.023224,-921.60278 q -1.897388,0 -3.596002,-0.36141 -1.698614,-0.36141 -3.180384,-1.08422 -1.4637,-0.72282 -2.746695,-1.80704 v 0 l 2.294936,-2.81898 v 0 q 1.49984,1.30107 3.306876,1.9516 1.807036,0.65054 3.921269,0.65054 2.855117,0 4.427239,-1.04809 1.572121,-1.06615 1.572121,-2.99968 v -0.0181 q 0,-1.37334 -0.722814,-2.16844 -0.704745,-0.81317 -1.843177,-1.19264 -1.120363,-0.39755 -2.909329,-0.72282 -0.05421,-0.0181 -0.126492,-0.0181 -0.05421,0 -0.108422,-0.0181 l -0.271056,-0.0542 q -2.638273,-0.45176 -4.300746,-1.01194 -1.644403,-0.57825 -2.818977,-2.07809 -1.174573,-1.51791 -1.174573,-4.30075 v -0.0181 q 0,-2.4395 1.084221,-4.15618 1.102293,-1.73476 3.198455,-2.63827 2.096162,-0.90352 5.041631,-0.90352 1.409488,0 2.764765,0.30719 1.373348,0.3072 2.692484,0.92159 1.337207,0.59632 2.620203,1.51791 v 0 l -2.096162,2.9274 v 0 q -1.49984,-1.10229 -2.99968,-1.6444 -1.48177,-0.56018 -2.98161,-0.56018 -2.692484,0 -4.192324,1.08422 -1.48177,1.06615 -1.48177,3.03582 v 0.0181 q 0,1.35528 0.758955,2.1323 0.777026,0.77703 1.915459,1.15651 1.156503,0.3614 3.198454,0.75895 0.07228,0.0181 0.126492,0.0361 0.07228,0 0.144563,0.0181 0.09035,0.0181 0.198774,0.0361 0.108422,0.0181 0.198774,0.0361 2.385288,0.4879 3.97548,1.15651 1.608262,0.6686 2.674414,2.16844 1.084221,1.48177 1.084221,4.06583 v 0.0361 q 0,2.40336 -1.138433,4.12005 -1.138432,1.69861 -3.306876,2.60213 -2.150373,0.88545 -5.204264,0.88545 z"
         style="font-style:normal;font-variant:normal;font-weight:normal;font-stretch:normal;font-family:Bahnschrift;-inkscape-font-specification:Bahnschrift;stroke-width:0.92520249"
         id="path30" /><path
         d="m -38.200675,-940.63088 h 3.668283 v 18.75704 h -3.668283 z m -7.625693,11.4024 q 0,1.96967 0.99387,3.05389 1.01194,1.06615 2.837047,1.06615 1.807036,0 2.800906,-0.95772 0.99387,-0.95773 0.99387,-2.72863 l 0.252985,3.92127 q -0.578252,1.39142 -1.879318,2.33108 -1.301066,0.93966 -3.198454,0.93966 -3.108102,0 -4.806717,-1.98774 -1.680543,-2.00582 -1.680543,-5.63796 v -11.4024 h 3.686354 z"
         style="font-style:normal;font-variant:normal;font-weight:normal;font-stretch:normal;font-family:Bahnschrift;-inkscape-font-specification:Bahnschrift;stroke-width:0.92520249"
         id="path32" /><path
         d="m -28.912506,-940.63088 h 3.686354 v 26.38273 h -3.686354 z m 8.402718,19.0281 q -1.752825,0 -3.053891,-0.83124 -1.301066,-0.84931 -1.915458,-2.38529 l 0.252985,-3.92127 q 0,1.21072 0.433688,2.06002 0.433689,0.84931 1.246855,1.30107 0.831237,0.45176 2.005811,0.45176 1.825106,0 2.818976,-1.10229 1.01194,-1.12037 1.01194,-3.14425 v -4.06583 q 0,-2.06002 -1.01194,-3.19845 -0.99387,-1.13844 -2.818976,-1.13844 -1.174574,0 -2.005811,0.43369 -0.813166,0.43369 -1.246855,1.283 -0.433688,0.83124 -0.433688,2.00581 l -0.379478,-3.61407 q 0.849307,-1.64441 2.222655,-2.52985 1.373347,-0.90352 3.053891,-0.90352 1.98774,0 3.397228,0.90352 1.427559,0.88544 2.168444,2.60213 0.740884,1.71668 0.740884,4.13811 v 4.0839 q 0,2.38529 -0.758955,4.08391 -0.758955,1.69861 -2.222654,2.60213 -1.4637,0.88545 -3.505651,0.88545 z"
         style="font-style:normal;font-variant:normal;font-weight:normal;font-stretch:normal;font-family:Bahnschrift;-inkscape-font-specification:Bahnschrift;stroke-width:0.92520249"
         id="path34" /><path
         d="m -8.7459834,-940.63088 h 3.686354 v 26.38273 h -3.686354 z m 8.4027186,19.0281 q -1.7528252,0 -3.0538913,-0.83124 -1.3010661,-0.84931 -1.9154584,-2.38529 l 0.2529851,-3.92127 q 0,1.21072 0.4336887,2.06002 0.4336887,0.84931 1.246855,1.30107 0.8312367,0.45176 2.0058102,0.45176 1.82510665,0 2.8189766,-1.10229 1.0119403,-1.12037 1.0119403,-3.14425 v -4.06583 q 0,-2.06002 -1.0119403,-3.19845 -0.99386995,-1.13844 -2.8189766,-1.13844 -1.1745735,0 -2.0058102,0.43369 -0.8131663,0.43369 -1.246855,1.283 -0.4336887,0.83124 -0.4336887,2.00581 l -0.3794776,-3.61407 q 0.849307,-1.64441 2.2226546,-2.52985 1.3733475,-0.90352 3.05389123,-0.90352 1.98773987,0 3.39722817,0.90352 1.4275586,0.88544 2.1684435,2.60213 0.7408848,1.71668 0.7408848,4.13811 v 4.0839 q 0,2.38529 -0.7589552,4.08391 -0.7589552,1.69861 -2.2226546,2.60213 -1.4636993,0.88545 -3.5056503,0.88545 z"
         style="font-style:normal;font-variant:normal;font-weight:normal;font-stretch:normal;font-family:Bahnschrift;-inkscape-font-specification:Bahnschrift;stroke-width:0.92520249"
         id="path36" /><path
         d="m 15.106894,-926.7167 q 0,0.68668 0.289125,1.06615 0.307197,0.36141 0.849307,0.36141 h 1.734755 v 3.50565 h -2.168443 q -2.096162,0 -3.252666,-1.30106 -1.138432,-1.30107 -1.138432,-3.66829 v -21.39531 h 3.686354 z"
         style="font-style:normal;font-variant:normal;font-weight:normal;font-stretch:normal;font-family:Bahnschrift;-inkscape-font-specification:Bahnschrift;stroke-width:0.92520249"
         id="path38" /><path
         d="m 29.798098,-921.60278 q -2.602132,0 -4.445309,-0.9758 -1.843177,-0.9758 -2.818976,-2.85512 -0.95773,-1.89739 -0.95773,-4.5718 v -2.11424 q 0,-2.78283 0.921589,-4.7525 0.939659,-1.96967 2.710554,-2.99968 1.770896,-1.03001 4.264606,-1.03001 2.349147,0 4.01162,1.17457 1.662474,1.17458 2.529851,3.39723 0.885448,2.22265 0.885448,5.33076 v 1.22878 H 24.250497 v -2.96354 h 9.143604 v 0 q -0.162634,-2.29493 -1.192644,-3.55986 -1.011941,-1.283 -2.728625,-1.283 -2.096162,0 -3.252665,1.37335 -1.138433,1.37335 -1.138433,3.88513 v 2.38529 q 0,2.33107 1.228784,3.57793 1.228785,1.24685 3.48758,1.24685 1.120363,0 2.222655,-0.45175 1.102292,-0.45176 1.96967,-1.26493 v 0 l 2.421428,2.42143 v 0 q -1.391418,1.33721 -3.126173,2.07809 -1.734754,0.72282 -3.48758,0.72282 z"
         style="font-style:normal;font-variant:normal;font-weight:normal;font-stretch:normal;font-family:Bahnschrift;-inkscape-font-specification:Bahnschrift;stroke-width:0.92520249"
         id="path40" /><path
         d="m 64.402847,-933.2401 q 0,-1.98774 -1.030011,-3.07196 -1.03001,-1.08422 -2.891258,-1.08422 -1.716684,0 -2.656343,1.04808 -0.939659,1.04808 -0.939659,2.96354 l -0.740885,-3.61407 q 0.885448,-1.86125 2.331077,-2.87319 1.4637,-1.03001 3.216525,-1.03001 2.02388,0 3.451439,0.90352 1.445629,0.88544 2.186514,2.60213 0.758955,1.71668 0.758955,4.13811 v 11.38433 h -3.686354 z m -22.407249,-7.39078 h 3.686354 v 18.75704 h -3.686354 z m 11.203624,7.39078 q 0,-1.98774 -0.975799,-3.07196 -0.9758,-1.08422 -2.764766,-1.08422 -1.807036,0 -2.800906,0.95773 -0.975799,0.95773 -0.975799,2.69248 l -0.379478,-3.61407 q 0.867377,-1.69862 2.258795,-2.6202 1.409489,-0.92159 3.108103,-0.92159 1.969669,0 3.361087,0.90352 1.391418,0.88544 2.114232,2.60213 0.740885,1.71668 0.740885,4.13811 v 11.38433 h -3.686354 z"
         style="font-style:normal;font-variant:normal;font-weight:normal;font-stretch:normal;font-family:Bahnschrift;-inkscape-font-specification:Bahnschrift;stroke-width:0.92520249"
         id="path42" /><path
         d="m 81.407054,-921.60278 q -2.602132,0 -4.445309,-0.9758 -1.843177,-0.9758 -2.818977,-2.85512 -0.957729,-1.89739 -0.957729,-4.5718 v -2.11424 q 0,-2.78283 0.921588,-4.7525 0.939659,-1.96967 2.710555,-2.99968 1.770895,-1.03001 4.264605,-1.03001 2.349147,0 4.011621,1.17457 1.662473,1.17458 2.52985,3.39723 0.885448,2.22265 0.885448,5.33076 v 1.22878 H 75.859453 v -2.96354 h 9.143603 v 0 q -0.162633,-2.29493 -1.192644,-3.55986 -1.01194,-1.283 -2.728625,-1.283 -2.096162,0 -3.252665,1.37335 -1.138433,1.37335 -1.138433,3.88513 v 2.38529 q 0,2.33107 1.228785,3.57793 1.228784,1.24685 3.48758,1.24685 1.120362,0 2.222654,-0.45175 1.102292,-0.45176 1.96967,-1.26493 v 0 l 2.421428,2.42143 v 0 q -1.391417,1.33721 -3.126172,2.07809 -1.734755,0.72282 -3.48758,0.72282 z"
         style="font-style:normal;font-variant:normal;font-weight:normal;font-stretch:normal;font-family:Bahnschrift;-inkscape-font-specification:Bahnschrift;stroke-width:0.92520249"
         id="path44" /><path
         d="m 93.604545,-940.63088 h 3.686354 v 18.75704 h -3.686354 z m 11.384325,7.39078 q 0,-1.98774 -1.03001,-3.07196 -1.03001,-1.08422 -2.89125,-1.08422 -1.807041,0 -2.800911,0.95773 -0.9758,0.95773 -0.9758,2.69248 l -0.379477,-3.61407 q 0.867377,-1.69862 2.258795,-2.6202 1.409493,-0.92159 3.108103,-0.92159 3.05389,0 4.71636,2.00581 1.68055,1.98774 1.68055,5.63795 v 11.38433 h -3.68636 z"
         style="font-style:normal;font-variant:normal;font-weight:normal;font-stretch:normal;font-family:Bahnschrift;-inkscape-font-specification:Bahnschrift;stroke-width:0.92520249"
         id="path46" /><path
         d="m 119.15604,-921.78349 q -2.27686,0 -3.34301,-1.24685 -1.04808,-1.26493 -1.04808,-3.7225 v -19.33529 h 3.68635 v 19.37143 q 0,0.68668 0.27106,1.06615 0.27105,0.36141 0.79509,0.36141 h 1.7709 v 3.50565 z m -6.32462,-18.84739 h 8.45693 v 3.32495 h -8.45693 z"
         style="font-style:normal;font-variant:normal;font-weight:normal;font-stretch:normal;font-family:Bahnschrift;-inkscape-font-specification:Bahnschrift;stroke-width:0.92520249"
         id="path48" /><path
         d="m 136.93728,-933.76414 q 0,-1.84318 -0.99387,-2.85512 -0.9758,-1.03001 -2.78284,-1.03001 -1.12036,0 -2.20458,0.34334 -1.06615,0.34334 -1.89739,0.95773 l -2.69248,-1.84318 q 1.06615,-1.28299 2.8009,-1.98774 1.75283,-0.72281 3.88513,-0.72281 2.33108,0 3.99355,0.83123 1.66247,0.81317 2.52985,2.38529 0.86738,1.55405 0.86738,3.75864 v 12.05293 h -3.50565 z m -4.58987,12.16136 q -3.46951,0 -5.1862,-1.42756 -1.71668,-1.44563 -1.71668,-4.37303 0,-2.78284 1.57212,-4.17425 1.57212,-1.39142 4.7525,-1.39142 h 5.33076 l 0.25299,2.96354 h -5.56568 q -1.44562,0 -2.16844,0.65053 -0.70474,0.63246 -0.70474,1.9516 0,1.42756 0.93966,2.11423 0.95772,0.68667 2.89125,0.68667 2.11424,0 3.14425,-0.45175 1.04808,-0.45176 1.04808,-1.40949 l 0.37948,2.63827 q -0.4879,0.75896 -1.21072,1.24686 -0.70474,0.4879 -1.6444,0.72281 -0.93966,0.25299 -2.11423,0.25299 z"
         style="font-style:normal;font-variant:normal;font-weight:normal;font-stretch:normal;font-family:Bahnschrift;-inkscape-font-specification:Bahnschrift;stroke-width:0.92520249"
         id="path50" /><path
         d="m 149.76723,-926.7167 q 0,0.68668 0.28913,1.06615 0.30719,0.36141 0.84931,0.36141 h 1.73475 v 3.50565 h -2.16844 q -2.09616,0 -3.25267,-1.30106 -1.13843,-1.30107 -1.13843,-3.66829 v -21.39531 h 3.68635 z"
         style="font-style:normal;font-variant:normal;font-weight:normal;font-stretch:normal;font-family:Bahnschrift;-inkscape-font-specification:Bahnschrift;stroke-width:0.92520249"
         id="path52" /><path
         d="m 170.80114,-921.87384 h -3.68635 v -26.27431 h 3.68635 z"
         style="font-style:normal;font-variant:normal;font-weight:normal;font-stretch:normal;font-family:Bahnschrift;-inkscape-font-specification:Bahnschrift;stroke-width:0.92520249"
         id="path54" /><path
         d="m 176.94506,-940.63088 h 3.68635 v 18.75704 h -3.68635 z m 11.38433,7.39078 q 0,-1.98774 -1.03001,-3.07196 -1.03001,-1.08422 -2.89126,-1.08422 -1.80704,0 -2.80091,0.95773 -0.9758,0.95773 -0.9758,2.69248 l -0.37947,-3.61407 q 0.86737,-1.69862 2.25879,-2.6202 1.40949,-0.92159 3.1081,-0.92159 3.0539,0 4.71637,2.00581 1.68054,1.98774 1.68054,5.63795 v 11.38433 h -3.68635 z"
         style="font-style:normal;font-variant:normal;font-weight:normal;font-stretch:normal;font-family:Bahnschrift;-inkscape-font-specification:Bahnschrift;stroke-width:0.92520249"
         id="path56" /><path
         d="m 204.24937,-921.60278 q -1.66247,0 -3.12617,-0.32527 -1.44563,-0.32527 -2.71056,-0.9758 -1.26492,-0.65053 -2.33107,-1.62633 v 0 l 2.18651,-2.69249 v 0 q 1.51791,1.15651 3.01775,1.73476 1.49984,0.57825 2.96354,0.57825 2.18651,0 3.27073,-0.6686 1.1023,-0.68668 1.1023,-2.04196 0,-0.90351 -0.59633,-1.35527 -0.59632,-0.45176 -1.48177,-0.59632 -0.88544,-0.16264 -2.49371,-0.28913 -0.14456,0 -0.30719,0 -0.16263,-0.0181 -0.3072,-0.0361 -0.0723,0 -0.14456,0 -0.0723,-0.0181 -0.14456,-0.0181 -1.82511,-0.14456 -3.09004,-0.52404 -1.26492,-0.39755 -2.11423,-1.4637 -0.83123,-1.06615 -0.83123,-3.05389 0,-1.98774 0.81316,-3.30688 0.81317,-1.31914 2.42143,-1.96967 1.60826,-0.6686 4.02969,-0.6686 1.4637,0 2.78284,0.27105 1.3372,0.27106 2.54792,0.81317 1.21071,0.52404 2.33108,1.33721 v 0 l -2.22266,2.69248 v 0 q -1.40949,-0.90352 -2.78284,-1.35528 -1.35527,-0.45176 -2.65634,-0.45176 -1.87932,0 -2.81898,0.65054 -0.93965,0.63246 -0.93965,1.91546 0,0.75895 0.52404,1.13843 0.54211,0.37948 1.35527,0.50597 0.81317,0.12649 2.31301,0.21684 0.10842,0.0181 0.21684,0.0181 0.1265,0 0.25299,0.0181 0.0542,0 0.10842,0 0.0542,0 0.10842,0.0181 1.96967,0.1265 3.34302,0.52404 1.39142,0.39755 2.33108,1.57213 0.93966,1.17457 0.93966,3.39722 0,2.02388 -0.86738,3.36109 -0.86738,1.31914 -2.6202,1.98774 -1.73476,0.66861 -4.37303,0.66861 z"
         style="font-style:normal;font-variant:normal;font-weight:normal;font-stretch:normal;font-family:Bahnschrift;-inkscape-font-specification:Bahnschrift;stroke-width:0.92520249"
         id="path58" /><path
         d="m 221.72341,-921.78349 q -2.27686,0 -3.34302,-1.24685 -1.04808,-1.26493 -1.04808,-3.7225 v -19.33529 h 3.68636 v 19.37143 q 0,0.68668 0.27105,1.06615 0.27106,0.36141 0.7951,0.36141 h 1.77089 v 3.50565 z m -6.32463,-18.84739 h 8.45693 v 3.32495 h -8.45693 z"
         style="font-style:normal;font-variant:normal;font-weight:normal;font-stretch:normal;font-family:Bahnschrift;-inkscape-font-specification:Bahnschrift;stroke-width:0.92520249"
         id="path60" /><path
         d="m 228.91543,-940.63088 h 3.68635 v 18.75704 h -3.68635 z m 10.31817,4.44531 q -0.48789,-0.59632 -1.22878,-0.90352 -0.74088,-0.30719 -1.71668,-0.30719 -1.75283,0 -2.72863,0.9758 -0.95773,0.95773 -0.95773,2.67441 l -0.37948,-3.61407 q 0.86738,-1.68054 2.24073,-2.60213 1.37335,-0.93966 3.03582,-0.93966 1.283,0 2.31301,0.37948 1.04808,0.3614 1.8251,1.08422 z"
         style="font-style:normal;font-variant:normal;font-weight:normal;font-stretch:normal;font-family:Bahnschrift;-inkscape-font-specification:Bahnschrift;stroke-width:0.92520249"
         id="path62" /><path
         d="m 256.0571,-940.63088 h 3.66828 v 18.75704 h -3.66828 z m -7.6257,11.4024 q 0,1.96967 0.99387,3.05389 1.01194,1.06615 2.83705,1.06615 1.80704,0 2.80091,-0.95772 0.99387,-0.95773 0.99387,-2.72863 l 0.25298,3.92127 q -0.57825,1.39142 -1.87932,2.33108 -1.30106,0.93966 -3.19845,0.93966 -3.1081,0 -4.80672,-1.98774 -1.68054,-2.00582 -1.68054,-5.63796 v -11.4024 h 3.68635 z"
         style="font-style:normal;font-variant:normal;font-weight:normal;font-stretch:normal;font-family:Bahnschrift;-inkscape-font-specification:Bahnschrift;stroke-width:0.92520249"
         id="path64" /><path
         d="m 272.91675,-921.60278 q -2.56599,0 -4.3911,-0.95773 -1.80703,-0.95773 -2.76476,-2.78284 -0.95773,-1.82511 -0.95773,-4.40917 v -3.09003 q 0,-2.54792 0.95773,-4.35496 0.95773,-1.80703 2.76476,-2.74669 1.82511,-0.95773 4.3911,-0.95773 1.4637,0 2.7467,0.36141 1.30106,0.34333 2.33107,1.01194 1.03001,0.6686 1.71669,1.62633 v 0 l -2.65635,2.38529 v 0 q -0.79509,-0.90352 -1.86124,-1.39142 -1.06616,-0.4879 -2.22266,-0.4879 -2.1323,0 -3.30688,1.19264 -1.17457,1.19265 -1.17457,3.36109 v 3.09003 q 0,2.22266 1.1565,3.43337 1.17458,1.21071 3.32495,1.21071 1.17457,0 2.24073,-0.52404 1.06615,-0.52404 1.84317,-1.48177 v 0 l 2.65635,2.566 v 0 q -0.70475,0.93965 -1.73476,1.60826 -1.03001,0.65053 -2.33108,0.99387 -1.28299,0.34334 -2.72862,0.34334 z"
         style="font-style:normal;font-variant:normal;font-weight:normal;font-stretch:normal;font-family:Bahnschrift;-inkscape-font-specification:Bahnschrift;stroke-width:0.92520249"
         id="path66" /><path
         d="m 288.65606,-921.78349 q -2.27687,0 -3.34302,-1.24685 -1.04808,-1.26493 -1.04808,-3.7225 v -19.33529 h 3.68635 v 19.37143 q 0,0.68668 0.27106,1.06615 0.27106,0.36141 0.7951,0.36141 h 1.77089 v 3.50565 z m -6.32463,-18.84739 h 8.45693 v 3.32495 h -8.45693 z"
         style="font-style:normal;font-variant:normal;font-weight:normal;font-stretch:normal;font-family:Bahnschrift;-inkscape-font-specification:Bahnschrift;stroke-width:0.92520249"
         id="path68" /><path
         d="m 295.84805,-948.14815 h 3.68635 v 3.68636 h -3.68635 z m 0,7.51727 h 3.68635 v 18.75704 h -3.68635 z"
         style="font-style:normal;font-variant:normal;font-weight:normal;font-stretch:normal;font-family:Bahnschrift;-inkscape-font-specification:Bahnschrift;stroke-width:0.92520249"
         id="path70" /><path
         d="m 312.36436,-921.60278 q -2.4395,0 -4.17425,-0.95773 -1.73476,-0.95773 -2.65635,-2.78284 -0.90352,-1.84318 -0.90352,-4.42724 v -3.05389 q 0,-2.54792 0.90352,-4.35496 0.92159,-1.8251 2.65635,-2.76476 1.73475,-0.95773 4.17425,-0.95773 2.4395,0 4.17425,0.95773 1.73476,0.93966 2.63828,2.76476 0.92158,1.80704 0.92158,4.35496 v 3.1081 q 0,2.56599 -0.92158,4.3911 -0.90352,1.80704 -2.63828,2.76477 -1.73475,0.95773 -4.17425,0.95773 z m 0,-3.50566 q 1.93353,0 2.98161,-1.21071 1.06615,-1.21071 1.06615,-3.39723 v -3.1081 q 0,-2.18651 -1.06615,-3.37916 -1.04808,-1.19264 -2.98161,-1.19264 -1.93353,0 -2.99968,1.19264 -1.04808,1.19265 -1.04808,3.37916 v 3.1081 q 0,2.18652 1.04808,3.39723 1.06615,1.21071 2.99968,1.21071 z"
         style="font-style:normal;font-variant:normal;font-weight:normal;font-stretch:normal;font-family:Bahnschrift;-inkscape-font-specification:Bahnschrift;stroke-width:0.92520249"
         id="path72" /><path
         d="m 325.33889,-940.63088 h 3.68635 v 18.75704 h -3.68635 z m 11.38433,7.39078 q 0,-1.98774 -1.03001,-3.07196 -1.03001,-1.08422 -2.89126,-1.08422 -1.80704,0 -2.80091,0.95773 -0.9758,0.95773 -0.9758,2.69248 l -0.37947,-3.61407 q 0.86737,-1.69862 2.25879,-2.6202 1.40949,-0.92159 3.1081,-0.92159 3.0539,0 4.71637,2.00581 1.68054,1.98774 1.68054,5.63795 v 11.38433 h -3.68635 z"
         style="font-style:normal;font-variant:normal;font-weight:normal;font-stretch:normal;font-family:Bahnschrift;-inkscape-font-specification:Bahnschrift;stroke-width:0.92520249"
         id="path74" /></g><g
       style="display:inline"
       id="g1814"
       transform="matrix(-1,0,0,1,-41.800996,907.07501)"><path
         inkscape:connector-curvature="0"
         id="path1800"
         style="fill:#000000;fill-opacity:1;fill-rule:nonzero;stroke:none;stroke-width:0.1"
         d="m 98.4,49.898 c -2.1441,0 -3.8883,-1.7441 -3.8883,-3.889 0,-2.143 1.7442,-3.8879 3.8883,-3.8879 2.144,0 3.888,1.7449 3.888,3.8879 0,2.1449 -1.744,3.889 -3.888,3.889 z m 0,-9.4648 c -3.0754,0 -5.577,2.502 -5.577,5.5758 0,3.075 2.5016,5.5762 5.577,5.5762 3.075,0 5.576,-2.5012 5.576,-5.5762 0,-3.0738 -2.501,-5.5758 -5.576,-5.5758" /><path
         inkscape:connector-curvature="0"
         id="path1802"
         style="fill:#000000;fill-opacity:1;fill-rule:nonzero;stroke:none;stroke-width:0.1"
         d="m 93.4355,39.218 -3.4687,-1.343 c -0.6066,-0.234 -1.0145,-0.8301 -1.0145,-1.4801 v -7.9328 c 0,-1.1332 0.9215,-2.0531 2.054,-2.0531 h 14.7867 c 1.133,0 2.054,0.9199 2.054,2.0531 v 7.9328 c 0,0.65 -0.408,1.2461 -1.014,1.4801 l -3.469,1.343 -4.2331,-7.3442 c -0.3012,-0.5226 -1.1614,-0.5226 -1.4625,0 z M 105.793,24.7199 H 91.0063 c -2.0629,0 -3.7418,1.6801 -3.7418,3.7422 v 7.9328 c 0,1.343 0.8414,2.5711 2.0933,3.0551 l 4.1426,1.6031 c 0.3891,0.1489 0.8285,-0.0051 1.0359,-0.3652 l 3.8637,-6.702 3.863,6.702 c 0.208,0.3609 0.647,0.5152 1.036,0.3652 l 4.143,-1.6031 c 1.252,-0.484 2.093,-1.7121 2.093,-3.0551 v -7.9328 c 0,-2.0621 -1.679,-3.7422 -3.742,-3.7422" /><path
         inkscape:connector-curvature="0"
         id="path1804"
         style="fill:#000000;fill-opacity:1;fill-rule:nonzero;stroke:none;stroke-width:0.1"
         d="m 106.21,14.057 c -0.023,0 -0.045,0.0012 -0.068,0.0032 l -5.954,0.4699 c -0.4646,0.0371 -0.8114,0.4418 -0.7751,0.9078 0.0367,0.4641 0.4512,0.816 0.9081,0.7742 l 5.954,-0.4691 c 0.465,-0.0379 0.812,-0.4442 0.775,-0.909 -0.035,-0.441 -0.405,-0.777 -0.84,-0.777" /><path
         inkscape:connector-curvature="0"
         id="path1806"
         style="fill:#000000;fill-opacity:1;fill-rule:nonzero;stroke:none;stroke-width:0.1"
         d="M 103.226,4.63711 H 80.1816 c -0.4664,0 -0.8441,0.37773 -0.8441,0.84375 0,0.46719 0.3777,0.84414 0.8441,0.84414 h 23.0444 c 1.169,0 2.29,0.35898 3.24,1.03984 l 9.571,6.84996 c 0.465,0.3332 0.925,0.7082 1.365,1.1141 0.184,0.1699 0.371,0.3371 0.559,0.5031 0.527,0.47 1.026,0.9129 1.471,1.443 0.729,0.8691 1.21,1.9809 1.318,3.0531 0.035,0.3348 -0.114,0.6457 -0.387,0.809 -0.718,0.4277 -1.604,0.4188 -2.314,-0.0211 l -10.97,-6.8012 c -0.586,-0.3628 -1.33,-0.3418 -1.894,0.0563 -0.564,0.3988 -0.833,1.0918 -0.686,1.7668 0.033,0.1961 0.323,2.2242 -1.477,2.5723 l -9.8115,1.3039 c -1.6023,0.2109 -2.8492,0.25 -4.1101,-0.1993 l -8.6352,-3.0839 c -0.4379,-0.1559 -0.9222,0.0711 -1.0785,0.5101 -0.1566,0.4391 0.0719,0.9219 0.5113,1.0789 l 8.6352,3.084 c 1.5746,0.5633 3.0973,0.5199 4.8984,0.2832 l 9.8624,-1.3121 c 2.825,-0.5449 3.102,-3.2238 2.861,-4.566 l 0.022,-0.066 10.982,6.807 c 1.248,0.7762 2.807,0.7898 4.069,0.0359 0.843,-0.5027 1.303,-1.4328 1.202,-2.4281 -0.143,-1.4008 -0.765,-2.8469 -1.705,-3.968 -0.524,-0.6238 -1.093,-1.1296 -1.642,-1.6179 -0.18,-0.161 -0.359,-0.3207 -0.536,-0.4828 -0.491,-0.4539 -1.006,-0.8731 -1.528,-1.2469 l -9.571,-6.85001 c -1.239,-0.88633 -2.699,-1.35508 -4.222,-1.35508" /><path
         inkscape:connector-curvature="0"
         id="path1808"
         style="fill:#000000;fill-opacity:1;fill-rule:nonzero;stroke:none;stroke-width:0.1"
         d="m 106.21,14.057 c -0.023,0 -0.045,0.0012 -0.068,0.0032 l -5.954,0.4699 c -0.4646,0.0371 -0.8114,0.4418 -0.7751,0.9078 0.0367,0.4641 0.4512,0.816 0.9081,0.7742 l 5.954,-0.4691 c 0.465,-0.0379 0.812,-0.4442 0.775,-0.909 -0.035,-0.441 -0.405,-0.777 -0.84,-0.777" /><path
         inkscape:connector-curvature="0"
         id="path1810"
         style="fill:#000000;fill-opacity:1;fill-rule:nonzero;stroke:none;stroke-width:0.1"
         d="m 80.1816,2.22109 c -0.4664,0 -0.8441,0.37774 -0.8441,0.84493 V 20.3691 c 0,0.4649 0.3777,0.843 0.8441,0.843 0.4664,0 0.8438,-0.3781 0.8438,-0.843 V 3.06602 c 0,-0.46719 -0.3774,-0.84493 -0.8438,-0.84493" /><path
         inkscape:connector-curvature="0"
         id="path1812"
         style="fill:#000000;fill-opacity:1;fill-rule:nonzero;stroke:none;stroke-width:0.1"
         d="m 74.4246,2.22109 c -0.466,0 -0.8437,0.37774 -0.8437,0.84493 V 20.3691 c 0,0.4649 0.3777,0.843 0.8437,0.843 0.4664,0 0.8445,-0.3781 0.8445,-0.843 V 3.06602 c 0,-0.46719 -0.3781,-0.84493 -0.8445,-0.84493" /></g></g></svg>