<?xml version="1.0" encoding="UTF-8" standalone="no"?>
<svg
   xmlns:dc="http://purl.org/dc/elements/1.1/"
   xmlns:cc="http://creativecommons.org/ns#"
   xmlns:rdf="http://www.w3.org/1999/02/22-rdf-syntax-ns#"
   xmlns:svg="http://www.w3.org/2000/svg"
   xmlns="http://www.w3.org/2000/svg"
   xmlns:sodipodi="http://sodipodi.sourceforge.net/DTD/sodipodi-0.dtd"
   xmlns:inkscape="http://www.inkscape.org/namespaces/inkscape"
   version="1.1"
   id="svg2"
   xml:space="preserve"
   width="1116.7445"
   height="138.65242"
   viewBox="0 0 1116.7445 138.65241"
   sodipodi:docname="sociallearning.svg"
   inkscape:version="0.92.2 (5c3e80d, 2017-08-06)"
   inkscape:export-filename="C:\xampp\htdocs\FTLS\FYI.png"
   inkscape:export-xdpi="83.085457"
   inkscape:export-ydpi="83.085457"><metadata
     id="metadata8"><rdf:RDF><cc:Work
         rdf:about=""><dc:format>image/svg+xml</dc:format><dc:type
           rdf:resource="http://purl.org/dc/dcmitype/StillImage" /><dc:title /></cc:Work></rdf:RDF></metadata><defs
     id="defs6" /><sodipodi:namedview
     pagecolor="#ffffff"
     bordercolor="#666666"
     borderopacity="1"
     objecttolerance="10"
     gridtolerance="10"
     guidetolerance="10"
     inkscape:pageopacity="0"
     inkscape:pageshadow="2"
     inkscape:window-width="1920"
     inkscape:window-height="1017"
     id="namedview4"
     showgrid="false"
     inkscape:zoom="1.0843875"
     inkscape:cx="122.14581"
     inkscape:cy="116.40643"
     inkscape:window-x="1912"
     inkscape:window-y="-8"
     inkscape:window-maximized="1"
     inkscape:current-layer="g10"
     showborder="true"
     fit-margin-top="0"
     fit-margin-left="0"
     fit-margin-right="0"
     fit-margin-bottom="0"
     showguides="true"
     inkscape:guide-bbox="true"><sodipodi:guide
       position="164.03737,187.03326"
       orientation="1,0"
       id="guide1439"
       inkscape:locked="false" /></sodipodi:namedview><g
     inkscape:groupmode="layer"
     id="layer1"
     inkscape:label="outline"
     style="display:none;opacity:0.125"
     transform="translate(260.19213,244.43772)"
     sodipodi:insensitive="true"><rect
       style="opacity:1;fill:none;fill-opacity:1;stroke:#000000;stroke-width:5.27622032;stroke-miterlimit:4;stroke-dasharray:none;stroke-opacity:1"
       id="rect208"
       width="1111.4683"
       height="133.37621"
       x="-257.55402"
       y="-241.79961" /><rect
       style="opacity:1;fill:none;fill-opacity:1;stroke:#000000;stroke-width:5.27622032;stroke-miterlimit:4;stroke-dasharray:none;stroke-opacity:1"
       id="rect1031"
       width="124.1778"
       height="107.31411"
       x="-243.75648"
       y="-230.30167" /><path
       style="fill:none;stroke:#000000;stroke-width:1px;stroke-linecap:butt;stroke-linejoin:miter;stroke-opacity:1"
       d="m -104.24805,-124.52054 938.23246,1.53306"
       id="path1033"
       inkscape:connector-curvature="0"
       sodipodi:nodetypes="cc" /></g><g
     id="g10"
     inkscape:groupmode="layer"
     inkscape:label="Academic Advising"
     transform="matrix(1.3333333,0,0,-1.3333333,260.19213,1311.1044)"
     style="display:inline"><flowRoot
       xml:space="preserve"
       id="flowRoot1358"
       style="font-style:normal;font-weight:normal;font-size:40px;line-height:1.25;font-family:sans-serif;letter-spacing:0px;word-spacing:0px;fill:#000000;fill-opacity:1;stroke:none"><flowRegion
         id="flowRegion1360"><rect
           id="rect1362"
           width="364.67142"
           height="151.20522"
           x="85.386475"
           y="234.14859" /></flowRegion><flowPara
         id="flowPara1364" /></flowRoot><flowRoot
       xml:space="preserve"
       id="flowRoot1366"
       style="font-style:normal;font-weight:normal;font-size:40px;line-height:1.25;font-family:sans-serif;letter-spacing:0px;word-spacing:0px;fill:#000000;fill-opacity:1;stroke:none"><flowRegion
         id="flowRegion1368"><rect
           id="rect1370"
           width="663.52411"
           height="158.32076"
           x="78.270935"
           y="200.34978" /></flowRegion><flowPara
         id="flowPara1372" /></flowRoot><g
       aria-label="Social Learning Theories"
       transform="scale(1,-1)"
       style="font-style:normal;font-weight:normal;font-size:37.00810242px;line-height:1.25;font-family:sans-serif;letter-spacing:0px;word-spacing:0px;fill:#000000;fill-opacity:1;stroke:none;stroke-width:0.92520249"
       id="text1392"><path
         d="m -64.023224,-921.72925 q -1.897388,0 -3.596002,-0.36141 -1.698614,-0.3614 -3.180384,-1.08422 -1.4637,-0.72281 -2.746695,-1.80703 v 0 l 2.294936,-2.81898 v 0 q 1.49984,1.30106 3.306876,1.9516 1.807036,0.65053 3.921269,0.65053 2.855117,0 4.427239,-1.04808 1.572121,-1.06615 1.572121,-2.99968 v -0.0181 q 0,-1.37335 -0.722814,-2.16844 -0.704745,-0.81317 -1.843177,-1.19265 -1.120363,-0.39755 -2.909329,-0.72281 -0.05421,-0.0181 -0.126492,-0.0181 -0.05421,0 -0.108422,-0.0181 l -0.271056,-0.0542 q -2.638273,-0.45176 -4.300746,-1.01194 -1.644403,-0.57826 -2.818977,-2.0781 -1.174573,-1.51791 -1.174573,-4.30074 v -0.0181 q 0,-2.4395 1.084221,-4.15619 1.102293,-1.73475 3.198455,-2.63827 2.096162,-0.90352 5.041631,-0.90352 1.409488,0 2.764765,0.3072 1.373348,0.30719 2.692484,0.92159 1.337207,0.59632 2.620203,1.51791 v 0 l -2.096162,2.9274 v 0 q -1.49984,-1.1023 -2.99968,-1.64441 -1.48177,-0.56018 -2.98161,-0.56018 -2.692484,0 -4.192324,1.08422 -1.48177,1.06616 -1.48177,3.03582 v 0.0181 q 0,1.35528 0.758955,2.13231 0.777026,0.77702 1.915459,1.1565 1.156503,0.36141 3.198454,0.75896 0.07228,0.0181 0.126492,0.0361 0.07228,0 0.144563,0.0181 0.09035,0.0181 0.198774,0.0361 0.108422,0.0181 0.198774,0.0361 2.385288,0.4879 3.97548,1.1565 1.608262,0.66861 2.674414,2.16845 1.084221,1.48177 1.084221,4.06583 v 0.0361 q 0,2.40336 -1.138433,4.12004 -1.138432,1.69861 -3.306876,2.60213 -2.150373,0.88545 -5.204264,0.88545 z"
         style="font-style:normal;font-variant:normal;font-weight:normal;font-stretch:normal;font-family:Bahnschrift;-inkscape-font-specification:Bahnschrift;stroke-width:0.92520249"
         id="path37" /><path
         d="m -42.320718,-921.72925 q -2.439499,0 -4.174254,-0.95773 -1.734755,-0.95773 -2.656343,-2.78283 -0.903518,-1.84318 -0.903518,-4.42724 v -3.05389 q 0,-2.54793 0.903518,-4.35496 0.921588,-1.82511 2.656343,-2.76477 1.734755,-0.95773 4.174254,-0.95773 2.439499,0 4.174254,0.95773 1.734755,0.93966 2.638273,2.76477 0.921588,1.80703 0.921588,4.35496 v 3.1081 q 0,2.56599 -0.921588,4.3911 -0.903518,1.80703 -2.638273,2.76476 -1.734755,0.95773 -4.174254,0.95773 z m 0,-3.50565 q 1.933529,0 2.98161,-1.21071 1.066151,-1.21072 1.066151,-3.39723 v -3.1081 q 0,-2.18652 -1.066151,-3.37916 -1.048081,-1.19265 -2.98161,-1.19265 -1.933529,0 -2.99968,1.19265 -1.048081,1.19264 -1.048081,3.37916 v 3.1081 q 0,2.18651 1.048081,3.39723 1.066151,1.21071 2.99968,1.21071 z"
         style="font-style:normal;font-variant:normal;font-weight:normal;font-stretch:normal;font-family:Bahnschrift;-inkscape-font-specification:Bahnschrift;stroke-width:0.92520249"
         id="path39" /><path
         d="m -21.774717,-921.72925 q -2.565992,0 -4.391098,-0.95773 -1.807037,-0.95773 -2.764766,-2.78283 -0.957729,-1.82511 -0.957729,-4.40917 v -3.09004 q 0,-2.54792 0.957729,-4.35495 0.957729,-1.80704 2.764766,-2.7467 1.825106,-0.95773 4.391098,-0.95773 1.463699,0 2.746695,0.36141 1.301066,0.34334 2.331076,1.01194 1.030011,0.6686 1.716685,1.62633 v 0 l -2.656343,2.38529 v 0 q -0.795096,-0.90352 -1.861248,-1.39142 -1.066151,-0.4879 -2.222654,-0.4879 -2.132303,0 -3.306877,1.19265 -1.174573,1.19264 -1.174573,3.36108 v 3.09004 q 0,2.22265 1.156503,3.43337 1.174574,1.21071 3.324947,1.21071 1.174573,0 2.240725,-0.52404 1.066151,-0.52404 1.843177,-1.48177 v 0 l 2.656343,2.56599 v 0 q -0.704744,0.93966 -1.734755,1.60826 -1.030011,0.65054 -2.331077,0.99387 -1.282995,0.34334 -2.728624,0.34334 z"
         style="font-style:normal;font-variant:normal;font-weight:normal;font-stretch:normal;font-family:Bahnschrift;-inkscape-font-specification:Bahnschrift;stroke-width:0.92520249"
         id="path41" /><path
         d="m -10.914429,-948.27461 h 3.686354 v 3.68635 h -3.686354 z m 0,7.51727 h 3.686354 v 18.75703 h -3.686354 z"
         style="font-style:normal;font-variant:normal;font-weight:normal;font-stretch:normal;font-family:Bahnschrift;-inkscape-font-specification:Bahnschrift;stroke-width:0.92520249"
         id="path43" /><path
         d="m 8.9991138,-933.8906 q 0,-1.84318 -0.99387,-2.85512 -0.9757995,-1.03001 -2.7828358,-1.03001 -1.1203625,0 -2.2045842,0.34334 -1.0661514,0.34333 -1.8973881,0.95772 l -2.692484,-1.84317 q 1.0661514,-1.283 2.8009062,-1.98774 1.7528252,-0.72282 3.8851279,-0.72282 2.3310768,0 3.9935502,0.83124 1.662473,0.81317 2.529851,2.38529 0.867377,1.55405 0.867377,3.75863 v 12.05293 H 8.9991138 Z m -4.5898721,12.16135 q -3.4695096,0 -5.18619403,-1.42756 -1.71668447,-1.44563 -1.71668447,-4.37303 0,-2.78283 1.57212157,-4.17425 1.57212153,-1.39142 4.75250533,-1.39142 H 9.161747 l 0.2529851,2.96354 H 3.8490605 q -1.445629,0 -2.1684435,0.65053 -0.70474417,0.63247 -0.70474417,1.9516 0,1.42756 0.93965887,2.11424 0.9577292,0.68667 2.891258,0.68667 2.1142324,0 3.1442431,-0.45176 1.048081,-0.45176 1.048081,-1.40949 l 0.3794776,2.63828 q -0.4878998,0.75895 -1.2107143,1.24685 -0.7047441,0.4879 -1.644403,0.72282 -0.9396588,0.25298 -2.1142324,0.25298 z"
         style="font-style:normal;font-variant:normal;font-weight:normal;font-stretch:normal;font-family:Bahnschrift;-inkscape-font-specification:Bahnschrift;stroke-width:0.92520249"
         id="path45" /><path
         d="m 21.829069,-926.84316 q 0,0.68667 0.289126,1.06615 0.307196,0.36141 0.849307,0.36141 h 1.734755 v 3.50565 h -2.168444 q -2.096162,0 -3.252665,-1.30107 -1.138433,-1.30107 -1.138433,-3.66828 v -21.39531 h 3.686354 z"
         style="font-style:normal;font-variant:normal;font-weight:normal;font-stretch:normal;font-family:Bahnschrift;-inkscape-font-specification:Bahnschrift;stroke-width:0.92520249"
         id="path47" /><path
         d="m 39.176615,-948.27461 h 3.686354 v 26.2743 h -3.686354 z m 1.843177,22.76865 h 15.034542 v 3.50565 H 41.019792 Z"
         style="font-style:normal;font-variant:normal;font-weight:normal;font-stretch:normal;font-family:Bahnschrift;-inkscape-font-specification:Bahnschrift;stroke-width:0.92520249"
         id="path49" /><path
         d="m 67.74586,-921.72925 q -2.602132,0 -4.445309,-0.9758 -1.843177,-0.9758 -2.818977,-2.85512 -0.957729,-1.89738 -0.957729,-4.5718 v -2.11423 q 0,-2.78284 0.921588,-4.75251 0.939659,-1.96967 2.710555,-2.99968 1.770895,-1.03001 4.264605,-1.03001 2.349148,0 4.011621,1.17458 1.662473,1.17457 2.529851,3.39722 0.885447,2.22266 0.885447,5.33076 v 1.22879 H 62.198259 v -2.96354 h 9.143603 v 0 q -0.162633,-2.29494 -1.192644,-3.55986 -1.01194,-1.283 -2.728625,-1.283 -2.096162,0 -3.252665,1.37335 -1.138433,1.37334 -1.138433,3.88513 v 2.38528 q 0,2.33108 1.228785,3.57793 1.228785,1.24686 3.48758,1.24686 1.120362,0 2.222655,-0.45176 1.102292,-0.45176 1.969669,-1.26492 v 0 l 2.421429,2.42142 v 0 q -1.391418,1.33721 -3.126173,2.0781 -1.734755,0.72281 -3.48758,0.72281 z"
         style="font-style:normal;font-variant:normal;font-weight:normal;font-stretch:normal;font-family:Bahnschrift;-inkscape-font-specification:Bahnschrift;stroke-width:0.92520249"
         id="path51" /><path
         d="m 90.532584,-933.8906 q 0,-1.84318 -0.99387,-2.85512 -0.9758,-1.03001 -2.782836,-1.03001 -1.120362,0 -2.204584,0.34334 -1.066151,0.34333 -1.897388,0.95772 l -2.692484,-1.84317 q 1.066151,-1.283 2.800906,-1.98774 1.752825,-0.72282 3.885128,-0.72282 2.331077,0 3.99355,0.83124 1.662473,0.81317 2.529851,2.38529 0.867377,1.55405 0.867377,3.75863 v 12.05293 h -3.50565 z m -4.589872,12.16135 q -3.46951,0 -5.186194,-1.42756 -1.716685,-1.44563 -1.716685,-4.37303 0,-2.78283 1.572122,-4.17425 1.572121,-1.39142 4.752505,-1.39142 h 5.330757 l 0.252985,2.96354 h -5.565671 q -1.445629,0 -2.168444,0.65053 -0.704744,0.63247 -0.704744,1.9516 0,1.42756 0.939659,2.11424 0.957729,0.68667 2.891258,0.68667 2.114232,0 3.144243,-0.45176 1.048081,-0.45176 1.048081,-1.40949 l 0.379478,2.63828 q -0.4879,0.75895 -1.210715,1.24685 -0.704744,0.4879 -1.644403,0.72282 -0.939659,0.25298 -2.114232,0.25298 z"
         style="font-style:normal;font-variant:normal;font-weight:normal;font-stretch:normal;font-family:Bahnschrift;-inkscape-font-specification:Bahnschrift;stroke-width:0.92520249"
         id="path53" /><path
         d="m 99.676185,-940.75734 h 3.686355 v 18.75703 h -3.686355 z m 10.318175,4.44531 q -0.4879,-0.59632 -1.22878,-0.90352 -0.74089,-0.3072 -1.71669,-0.3072 -1.75282,0 -2.72862,0.9758 -0.95773,0.95773 -0.95773,2.67442 l -0.37948,-3.61408 q 0.86738,-1.68054 2.24073,-2.60213 1.37334,-0.93966 3.03582,-0.93966 1.28299,0 2.313,0.37948 1.04808,0.36141 1.82511,1.08422 z"
         style="font-style:normal;font-variant:normal;font-weight:normal;font-stretch:normal;font-family:Bahnschrift;-inkscape-font-specification:Bahnschrift;stroke-width:0.92520249"
         id="path55" /><path
         d="m 115.50584,-940.75734 h 3.68635 v 18.75703 h -3.68635 z m 11.38432,7.39078 q 0,-1.98774 -1.03001,-3.07196 -1.03001,-1.08423 -2.89125,-1.08423 -1.80704,0 -2.80091,0.95773 -0.9758,0.95773 -0.9758,2.69249 l -0.37948,-3.61408 q 0.86738,-1.69861 2.2588,-2.6202 1.40949,-0.92159 3.1081,-0.92159 3.05389,0 4.71636,2.00581 1.68055,1.98774 1.68055,5.63796 v 11.38432 h -3.68636 z"
         style="font-style:normal;font-variant:normal;font-weight:normal;font-stretch:normal;font-family:Bahnschrift;-inkscape-font-specification:Bahnschrift;stroke-width:0.92520249"
         id="path57" /><path
         d="m 136.17832,-948.27461 h 3.68636 v 3.68635 h -3.68636 z m 0,7.51727 h 3.68636 v 18.75703 h -3.68636 z"
         style="font-style:normal;font-variant:normal;font-weight:normal;font-stretch:normal;font-family:Bahnschrift;-inkscape-font-specification:Bahnschrift;stroke-width:0.92520249"
         id="path59" /><path
         d="m 145.50263,-940.75734 h 3.68636 v 18.75703 h -3.68636 z m 11.38433,7.39078 q 0,-1.98774 -1.03001,-3.07196 -1.03001,-1.08423 -2.89126,-1.08423 -1.80703,0 -2.8009,0.95773 -0.9758,0.95773 -0.9758,2.69249 l -0.37948,-3.61408 q 0.86738,-1.69861 2.25879,-2.6202 1.40949,-0.92159 3.10811,-0.92159 3.05389,0 4.71636,2.00581 1.68054,1.98774 1.68054,5.63796 v 11.38432 h -3.68635 z"
         style="font-style:normal;font-variant:normal;font-weight:normal;font-stretch:normal;font-family:Bahnschrift;-inkscape-font-specification:Bahnschrift;stroke-width:0.92520249"
         id="path61" /><path
         d="m 172.46362,-914.37461 q -2.11423,0 -3.79478,-0.7951 -1.66247,-0.77702 -2.58406,-2.20458 v 0 l 2.49371,-2.2588 v 0 q 0.72282,0.99387 1.71669,1.53598 1.01194,0.54211 2.11423,0.54211 2.11423,0 3.27073,-1.17457 1.15651,-1.1565 1.15651,-3.28881 v -18.73896 h 3.68635 v 18.19685 q 0,2.58407 -0.95773,4.42724 -0.93966,1.84318 -2.74669,2.80091 -1.80704,0.95773 -4.35496,0.95773 z m -0.34334,-7.30043 q -2.06002,0 -3.52372,-0.88545 -1.44563,-0.90351 -2.20458,-2.6202 -0.75896,-1.71668 -0.75896,-4.12004 v -4.13811 q 0,-2.42143 0.74089,-4.13812 0.74088,-1.71668 2.15037,-2.60213 1.42756,-0.90352 3.4153,-0.90352 1.66247,0 3.03582,0.86738 1.39142,0.86738 2.24072,2.4395 l -0.37947,3.83092 q 0,-1.19265 -0.43369,-2.04196 -0.43369,-0.8493 -1.26493,-1.28299 -0.81316,-0.45176 -1.98774,-0.45176 -1.8251,0 -2.83704,1.13843 -0.99387,1.13844 -0.99387,3.19846 v 4.0839 q 0,2.04195 0.99387,3.16231 1.01194,1.10229 2.83704,1.10229 1.17458,0 1.98774,-0.45176 0.83124,-0.46982 1.26493,-1.3372 0.43369,-0.86738 0.43369,-2.07809 l 0.25298,3.95741 q -0.56018,1.39141 -1.84318,2.33107 -1.26492,0.93966 -3.12617,0.93966 z"
         style="font-style:normal;font-variant:normal;font-weight:normal;font-stretch:normal;font-family:Bahnschrift;-inkscape-font-specification:Bahnschrift;stroke-width:0.92520249"
         id="path63" /><path
         d="m 200.27392,-946.12424 h 3.68635 v 24.12393 h -3.68635 z m -7.42692,-2.15037 h 18.54019 v 3.50565 H 192.847 Z"
         style="font-style:normal;font-variant:normal;font-weight:normal;font-stretch:normal;font-family:Bahnschrift;-inkscape-font-specification:Bahnschrift;stroke-width:0.92520249"
         id="path65" /><path
         d="m 213.95318,-948.27461 h 3.68635 v 26.2743 h -3.68635 z m 11.38433,14.90805 q 0,-1.98774 -1.03001,-3.07196 -1.03001,-1.08423 -2.89126,-1.08423 -1.80704,0 -2.80091,0.93966 -0.9758,0.93966 -0.9758,2.65635 l -0.37948,-3.61408 q 0.86738,-1.66247 2.2588,-2.56599 1.40949,-0.92159 3.1081,-0.92159 3.05389,0 4.71637,2.00581 1.68054,1.98774 1.68054,5.63796 v 11.38432 h -3.68635 z"
         style="font-style:normal;font-variant:normal;font-weight:normal;font-stretch:normal;font-family:Bahnschrift;-inkscape-font-specification:Bahnschrift;stroke-width:0.92520249"
         id="path67" /><path
         d="m 242.30557,-921.72925 q -2.60213,0 -4.44531,-0.9758 -1.84318,-0.9758 -2.81898,-2.85512 -0.95773,-1.89738 -0.95773,-4.5718 v -2.11423 q 0,-2.78284 0.92159,-4.75251 0.93966,-1.96967 2.71056,-2.99968 1.77089,-1.03001 4.2646,-1.03001 2.34915,0 4.01162,1.17458 1.66247,1.17457 2.52985,3.39722 0.88545,2.22266 0.88545,5.33076 v 1.22879 h -12.64925 v -2.96354 h 9.1436 v 0 q -0.16263,-2.29494 -1.19264,-3.55986 -1.01194,-1.283 -2.72863,-1.283 -2.09616,0 -3.25266,1.37335 -1.13844,1.37334 -1.13844,3.88513 v 2.38528 q 0,2.33108 1.22879,3.57793 1.22878,1.24686 3.48758,1.24686 1.12036,0 2.22265,-0.45176 1.10229,-0.45176 1.96967,-1.26492 v 0 l 2.42143,2.42142 v 0 q -1.39142,1.33721 -3.12617,2.0781 -1.73476,0.72281 -3.48758,0.72281 z"
         style="font-style:normal;font-variant:normal;font-weight:normal;font-stretch:normal;font-family:Bahnschrift;-inkscape-font-specification:Bahnschrift;stroke-width:0.92520249"
         id="path69" /><path
         d="m 261.69505,-921.72925 q -2.4395,0 -4.17426,-0.95773 -1.73475,-0.95773 -2.65634,-2.78283 -0.90352,-1.84318 -0.90352,-4.42724 v -3.05389 q 0,-2.54793 0.90352,-4.35496 0.92159,-1.82511 2.65634,-2.76477 1.73476,-0.95773 4.17426,-0.95773 2.4395,0 4.17425,0.95773 1.73476,0.93966 2.63827,2.76477 0.92159,1.80703 0.92159,4.35496 v 3.1081 q 0,2.56599 -0.92159,4.3911 -0.90351,1.80703 -2.63827,2.76476 -1.73475,0.95773 -4.17425,0.95773 z m 0,-3.50565 q 1.93353,0 2.98161,-1.21071 1.06615,-1.21072 1.06615,-3.39723 v -3.1081 q 0,-2.18652 -1.06615,-3.37916 -1.04808,-1.19265 -2.98161,-1.19265 -1.93353,0 -2.99968,1.19265 -1.04808,1.19264 -1.04808,3.37916 v 3.1081 q 0,2.18651 1.04808,3.39723 1.06615,1.21071 2.99968,1.21071 z"
         style="font-style:normal;font-variant:normal;font-weight:normal;font-stretch:normal;font-family:Bahnschrift;-inkscape-font-specification:Bahnschrift;stroke-width:0.92520249"
         id="path71" /><path
         d="m 274.66958,-940.75734 h 3.68635 v 18.75703 h -3.68635 z m 10.31818,4.44531 q -0.4879,-0.59632 -1.22879,-0.90352 -0.74088,-0.3072 -1.71668,-0.3072 -1.75283,0 -2.72863,0.9758 -0.95773,0.95773 -0.95773,2.67442 l -0.37948,-3.61408 q 0.86738,-1.68054 2.24073,-2.60213 1.37335,-0.93966 3.03582,-0.93966 1.283,0 2.31301,0.37948 1.04808,0.36141 1.8251,1.08422 z"
         style="font-style:normal;font-variant:normal;font-weight:normal;font-stretch:normal;font-family:Bahnschrift;-inkscape-font-specification:Bahnschrift;stroke-width:0.92520249"
         id="path73" /><path
         d="m 290.49923,-948.27461 h 3.68635 v 3.68635 h -3.68635 z m 0,7.51727 h 3.68635 v 18.75703 h -3.68635 z"
         style="font-style:normal;font-variant:normal;font-weight:normal;font-stretch:normal;font-family:Bahnschrift;-inkscape-font-specification:Bahnschrift;stroke-width:0.92520249"
         id="path75" /><path
         d="m 307.50344,-921.72925 q -2.60213,0 -4.44531,-0.9758 -1.84317,-0.9758 -2.81897,-2.85512 -0.95773,-1.89738 -0.95773,-4.5718 v -2.11423 q 0,-2.78284 0.92159,-4.75251 0.93966,-1.96967 2.71055,-2.99968 1.7709,-1.03001 4.26461,-1.03001 2.34914,0 4.01162,1.17458 1.66247,1.17457 2.52985,3.39722 0.88545,2.22266 0.88545,5.33076 v 1.22879 h -12.64926 v -2.96354 h 9.14361 v 0 q -0.16264,-2.29494 -1.19265,-3.55986 -1.01194,-1.283 -2.72862,-1.283 -2.09617,0 -3.25267,1.37335 -1.13843,1.37334 -1.13843,3.88513 v 2.38528 q 0,2.33108 1.22878,3.57793 1.22879,1.24686 3.48758,1.24686 1.12037,0 2.22266,-0.45176 1.10229,-0.45176 1.96967,-1.26492 v 0 l 2.42143,2.42142 v 0 q -1.39142,1.33721 -3.12618,2.0781 -1.73475,0.72281 -3.48758,0.72281 z"
         style="font-style:normal;font-variant:normal;font-weight:normal;font-stretch:normal;font-family:Bahnschrift;-inkscape-font-specification:Bahnschrift;stroke-width:0.92520249"
         id="path77" /><path
         d="m 326.33274,-921.72925 q -1.66247,0 -3.12617,-0.32527 -1.44563,-0.32526 -2.71055,-0.9758 -1.26493,-0.65053 -2.33108,-1.62633 v 0 l 2.18651,-2.69248 v 0 q 1.51791,1.1565 3.01775,1.73475 1.49984,0.57825 2.96354,0.57825 2.18652,0 3.27074,-0.6686 1.10229,-0.68667 1.10229,-2.04195 0,-0.90352 -0.59632,-1.35528 -0.59632,-0.45176 -1.48177,-0.59632 -0.88545,-0.16263 -2.49371,-0.28913 -0.14456,0 -0.3072,0 -0.16263,-0.0181 -0.30719,-0.0361 -0.0723,0 -0.14457,0 -0.0723,-0.0181 -0.14456,-0.0181 -1.82511,-0.14456 -3.09003,-0.52404 -1.26493,-0.39754 -2.11423,-1.4637 -0.83124,-1.06615 -0.83124,-3.05389 0,-1.98774 0.81317,-3.30687 0.81316,-1.31914 2.42142,-1.96967 1.60827,-0.66861 4.0297,-0.66861 1.46369,0 2.78283,0.27106 1.33721,0.27105 2.54792,0.81316 1.21072,0.52405 2.33108,1.33721 v 0 l -2.22266,2.69249 v 0 q -1.40948,-0.90352 -2.78283,-1.35528 -1.35528,-0.45176 -2.65634,-0.45176 -1.87932,0 -2.81898,0.65053 -0.93966,0.63247 -0.93966,1.91546 0,0.75896 0.52404,1.13843 0.54211,0.37948 1.35528,0.50597 0.81316,0.1265 2.313,0.21685 0.10843,0.0181 0.21685,0.0181 0.12649,0 0.25298,0.0181 0.0542,0 0.10843,0 0.0542,0 0.10842,0.0181 1.96967,0.12649 3.34301,0.52404 1.39142,0.39755 2.33108,1.57212 0.93966,1.17457 0.93966,3.39723 0,2.02388 -0.86738,3.36109 -0.86737,1.31913 -2.6202,1.98774 -1.73475,0.6686 -4.37303,0.6686 z"
         style="font-style:normal;font-variant:normal;font-weight:normal;font-stretch:normal;font-family:Bahnschrift;-inkscape-font-specification:Bahnschrift;stroke-width:0.92520249"
         id="path79" /></g><g
       style="display:inline"
       id="g1704"
       transform="translate(-593.75994,904.45971)"><g
         id="g1688"><g
           id="g1663"
           transform="matrix(0.64752268,0,0,0.64752268,140.20654,-80.782187)"><path
             d="m 518.497,185.924 c -1.898,0 -3.441,-1.544 -3.441,-3.441 0,-1.897 1.543,-3.441 3.441,-3.441 1.897,0 3.44,1.544 3.44,3.441 0,1.897 -1.543,3.441 -3.44,3.441 z m 0,-8.57 c -2.828,0 -5.128,2.301 -5.128,5.129 0,2.828 2.3,5.129 5.128,5.129 2.828,0 5.128,-2.301 5.128,-5.129 0,-2.828 -2.3,-5.129 -5.128,-5.129"
             style="fill:#000000;fill-opacity:1;fill-rule:nonzero;stroke:none;stroke-width:0.1"
             id="path664"
             inkscape:connector-curvature="0" /><path
             d="m 512.733,157.03 c -0.466,0 -0.844,0.379 -0.844,0.845 v 11.76 c 0,0.467 0.378,0.844 0.844,0.844 0.467,0 0.845,-0.377 0.845,-0.844 v -11.76 c 0,-0.466 -0.378,-0.845 -0.845,-0.845"
             style="fill:#000000;fill-opacity:1;fill-rule:nonzero;stroke:none;stroke-width:0.1"
             id="path666"
             inkscape:connector-curvature="0" /><path
             d="m 524.26,132.777 h -4.335 c -0.467,0 -0.844,0.378 -0.844,0.844 v 17.776 c 0,0.171 -0.076,0.334 -0.207,0.445 -0.077,0.066 -0.239,0.172 -0.482,0.13 -0.269,-0.043 -0.479,-0.33 -0.479,-0.652 v -17.699 c 0,-0.466 -0.377,-0.844 -0.844,-0.844 h -4.336 c -0.466,0 -0.844,0.378 -0.844,0.844 v 21.645 c -0.584,-0.262 -1.247,-0.323 -1.897,-0.16 -1.255,0.316 -2.132,1.485 -2.132,2.843 v 13.615 c 0,2.375 1.932,4.308 4.307,4.308 h 1.621 c 0.466,0 0.843,-0.377 0.843,-0.844 0,-0.466 -0.377,-0.844 -0.843,-0.844 h -1.621 c -1.444,0 -2.62,-1.175 -2.62,-2.62 v -13.615 c 0,-0.574 0.36,-1.081 0.856,-1.206 0.373,-0.094 0.742,-0.02 1.035,0.208 0.286,0.224 0.451,0.561 0.451,0.924 0,0.466 0.378,0.844 0.844,0.844 0.467,0 0.845,-0.378 0.845,-0.844 v -23.41 h 2.647 v 16.855 c 0,1.146 0.814,2.142 1.896,2.319 0.669,0.107 1.338,-0.079 1.846,-0.511 0.51,-0.432 0.802,-1.063 0.802,-1.731 v -16.932 h 2.647 v 35.171 c 0,0.337 0.202,0.642 0.511,0.775 0.309,0.133 0.669,0.07 0.914,-0.163 l 6.518,-6.182 c 0.287,-0.272 0.663,-0.422 1.059,-0.422 h 6.277 c 0.653,0 1.184,0.531 1.184,1.184 0,0.645 -0.525,1.177 -1.171,1.184 l -4.969,0.064 c -0.933,0.011 -1.816,0.425 -2.421,1.137 l -5.265,6.194 c -0.459,0.478 -1.149,0.773 -1.86,0.773 h -2.126 c -0.466,0 -0.844,0.377 -0.844,0.844 0,0.465 0.378,0.844 0.844,0.844 h 2.126 c 1.17,0 2.304,-0.485 3.113,-1.33 l 5.299,-6.232 c 0.288,-0.339 0.709,-0.537 1.155,-0.542 l 4.969,-0.064 c 1.564,-0.018 2.839,-1.306 2.839,-2.872 0,-1.584 -1.289,-2.872 -2.873,-2.872 h -6.277 c -0.831,0 -1.619,0.314 -2.221,0.885 l -5.092,4.831 v -34.051 c 0,-0.466 -0.378,-0.844 -0.845,-0.844"
             style="fill:#000000;fill-opacity:1;fill-rule:nonzero;stroke:none;stroke-width:0.1"
             id="path668"
             inkscape:connector-curvature="0" /><path
             d="m 537.821,132.777 h -29.117 c -0.466,0 -0.844,0.378 -0.844,0.844 0,0.466 0.378,0.844 0.844,0.844 h 29.117 c 0.466,0 0.843,-0.378 0.843,-0.844 0,-0.466 -0.377,-0.844 -0.843,-0.844"
             style="fill:#000000;fill-opacity:1;fill-rule:nonzero;stroke:none;stroke-width:0.1"
             id="path674"
             inkscape:connector-curvature="0" /></g><path
           inkscape:connector-curvature="0"
           id="path676"
           style="fill:#000000;fill-opacity:1;fill-rule:nonzero;stroke:none;stroke-width:0.1"
           d="m 457.054,46.9602 c -1.513,0 -2.742,-1.2293 -2.742,-2.7411 0,-1.5132 1.229,-2.7421 2.742,-2.7421 1.512,0 2.741,1.2289 2.741,2.7421 0,1.5118 -1.229,2.7411 -2.741,2.7411 z m 0,-7.1723 c -2.442,0 -4.431,1.9883 -4.431,4.4312 0,2.4418 1.989,4.4297 4.431,4.4297 2.442,0 4.43,-1.9879 4.43,-4.4297 0,-2.4429 -1.988,-4.4312 -4.43,-4.4312" /><path
           inkscape:connector-curvature="0"
           id="path678"
           style="fill:#000000;fill-opacity:1;fill-rule:nonzero;stroke:none;stroke-width:0.1"
           d="m 454.058,5.16016 c -0.626,0 -1.233,0.21289 -1.721,0.61679 -0.623,0.51289 -0.98,1.27188 -0.98,2.08008 V 33.473 c 0,0.336 -0.128,0.652 -0.361,0.8942 l -8.593,8.893 c -1.294,1.2507 -0.91,2.6777 -0.331,3.3257 0.383,0.4891 1.007,0.8121 1.677,0.8473 0.667,0.0457 1.326,-0.2184 1.795,-0.6992 l 6.633,-6.7828 c 0.241,-0.2473 0.576,-0.3883 0.92,-0.3883 h 1.188 c 0.465,0 0.843,-0.3777 0.843,-0.8438 0,-0.466 -0.378,-0.8441 -0.843,-0.8441 h -1.188 c -0.796,0 -1.57,0.327 -2.126,0.8949 l -6.634,6.7832 c -0.178,0.1828 -0.387,0.2028 -0.498,0.1938 -0.109,-0.0047 -0.316,-0.0438 -0.474,-0.2457 -0.181,-0.2242 -0.266,-0.5653 0.232,-1.0481 l 8.612,-8.914 c 0.538,-0.5559 0.835,-1.2911 0.835,-2.0661 l 0.001,-25.61597 c 0,-0.30312 0.134,-0.58594 0.368,-0.7789 0.236,-0.1961 0.536,-0.26797 0.85,-0.21094 0.457,0.08672 0.802,0.54297 0.802,1.05781 v 11.7641 c 0,1.0691 0.854,1.9441 1.918,1.982 0.047,0.0039 0.095,0.0039 0.142,0 1.064,-0.0391 1.918,-0.9129 1.918,-1.982 V 7.925 c 0,-0.51484 0.344,-0.97109 0.801,-1.05781 0.314,-0.05703 0.614,0.01484 0.852,0.21094 0.233,0.19296 0.367,0.47695 0.367,0.7789 V 33.473 c 0,0.775 0.297,1.5102 0.836,2.0668 l 8.591,8.8922 c 0.519,0.5039 0.433,0.845 0.272,1.0461 -0.177,0.225 -0.384,0.2641 -0.494,0.2688 -0.115,0.009 -0.32,-0.011 -0.498,-0.1938 l -6.633,-6.7832 C 462.581,38.202 461.806,37.875 461.01,37.875 h -1.186 c -0.467,0 -0.845,0.3781 -0.845,0.8441 0,0.4661 0.378,0.8438 0.845,0.8438 h 1.186 c 0.345,0 0.68,0.141 0.92,0.3883 l 6.633,6.7828 c 0.47,0.4801 1.126,0.7441 1.795,0.6992 0.671,-0.0352 1.295,-0.3582 1.711,-0.8863 0.546,-0.609 0.929,-2.036 -0.385,-3.3071 l -8.571,-8.8718 c -0.234,-0.243 -0.362,-0.559 -0.362,-0.895 V 7.85703 c 0,-0.80703 -0.357,-1.56601 -0.98,-2.08008 -0.623,-0.51484 -1.442,-0.72304 -2.244,-0.56797 -1.259,0.24219 -2.172,1.38399 -2.172,2.71602 v 11.7641 c 0,0.1629 -0.135,0.2949 -0.301,0.2949 -0.169,0 -0.301,-0.1301 -0.301,-0.2949 V 7.925 c 0,-1.33203 -0.913,-2.47383 -2.172,-2.71602 -0.174,-0.03398 -0.349,-0.04882 -0.523,-0.04882" /><path
           inkscape:connector-curvature="0"
           id="path692-7"
           style="fill:#000000;fill-opacity:1;fill-rule:nonzero;stroke:none;stroke-width:0.1"
           d="m 470.363,5.15898 h -26.618 c -0.466,0 -0.844,0.37696 -0.844,0.84297 0,0.46719 0.378,0.84493 0.844,0.84493 h 26.618 c 0.466,0 0.843,-0.37774 0.843,-0.84493 0,-0.46601 -0.377,-0.84297 -0.843,-0.84297" /><g
           transform="matrix(-0.64752268,0,0,0.64752268,774.60302,-80.877001)"
           id="g1673"><path
             inkscape:connector-curvature="0"
             id="path1665"
             style="fill:#000000;fill-opacity:1;fill-rule:nonzero;stroke:none;stroke-width:0.1"
             d="m 518.497,185.924 c -1.898,0 -3.441,-1.544 -3.441,-3.441 0,-1.897 1.543,-3.441 3.441,-3.441 1.897,0 3.44,1.544 3.44,3.441 0,1.897 -1.543,3.441 -3.44,3.441 z m 0,-8.57 c -2.828,0 -5.128,2.301 -5.128,5.129 0,2.828 2.3,5.129 5.128,5.129 2.828,0 5.128,-2.301 5.128,-5.129 0,-2.828 -2.3,-5.129 -5.128,-5.129" /><path
             inkscape:connector-curvature="0"
             id="path1667"
             style="fill:#000000;fill-opacity:1;fill-rule:nonzero;stroke:none;stroke-width:0.1"
             d="m 512.733,157.03 c -0.466,0 -0.844,0.379 -0.844,0.845 v 11.76 c 0,0.467 0.378,0.844 0.844,0.844 0.467,0 0.845,-0.377 0.845,-0.844 v -11.76 c 0,-0.466 -0.378,-0.845 -0.845,-0.845" /><path
             inkscape:connector-curvature="0"
             id="path1669"
             style="fill:#000000;fill-opacity:1;fill-rule:nonzero;stroke:none;stroke-width:0.1"
             d="m 524.26,132.777 h -4.335 c -0.467,0 -0.844,0.378 -0.844,0.844 v 17.776 c 0,0.171 -0.076,0.334 -0.207,0.445 -0.077,0.066 -0.239,0.172 -0.482,0.13 -0.269,-0.043 -0.479,-0.33 -0.479,-0.652 v -17.699 c 0,-0.466 -0.377,-0.844 -0.844,-0.844 h -4.336 c -0.466,0 -0.844,0.378 -0.844,0.844 v 21.645 c -0.584,-0.262 -1.247,-0.323 -1.897,-0.16 -1.255,0.316 -2.132,1.485 -2.132,2.843 v 13.615 c 0,2.375 1.932,4.308 4.307,4.308 h 1.621 c 0.466,0 0.843,-0.377 0.843,-0.844 0,-0.466 -0.377,-0.844 -0.843,-0.844 h -1.621 c -1.444,0 -2.62,-1.175 -2.62,-2.62 v -13.615 c 0,-0.574 0.36,-1.081 0.856,-1.206 0.373,-0.094 0.742,-0.02 1.035,0.208 0.286,0.224 0.451,0.561 0.451,0.924 0,0.466 0.378,0.844 0.844,0.844 0.467,0 0.845,-0.378 0.845,-0.844 v -23.41 h 2.647 v 16.855 c 0,1.146 0.814,2.142 1.896,2.319 0.669,0.107 1.338,-0.079 1.846,-0.511 0.51,-0.432 0.802,-1.063 0.802,-1.731 v -16.932 h 2.647 v 35.171 c 0,0.337 0.202,0.642 0.511,0.775 0.309,0.133 0.669,0.07 0.914,-0.163 l 6.518,-6.182 c 0.287,-0.272 0.663,-0.422 1.059,-0.422 h 6.277 c 0.653,0 1.184,0.531 1.184,1.184 0,0.645 -0.525,1.177 -1.171,1.184 l -4.969,0.064 c -0.933,0.011 -1.816,0.425 -2.421,1.137 l -5.265,6.194 c -0.459,0.478 -1.149,0.773 -1.86,0.773 h -2.126 c -0.466,0 -0.844,0.377 -0.844,0.844 0,0.465 0.378,0.844 0.844,0.844 h 2.126 c 1.17,0 2.304,-0.485 3.113,-1.33 l 5.299,-6.232 c 0.288,-0.339 0.709,-0.537 1.155,-0.542 l 4.969,-0.064 c 1.564,-0.018 2.839,-1.306 2.839,-2.872 0,-1.584 -1.289,-2.872 -2.873,-2.872 h -6.277 c -0.831,0 -1.619,0.314 -2.221,0.885 l -5.092,4.831 v -34.051 c 0,-0.466 -0.378,-0.844 -0.845,-0.844" /><path
             inkscape:connector-curvature="0"
             id="path1671"
             style="fill:#000000;fill-opacity:1;fill-rule:nonzero;stroke:none;stroke-width:0.1"
             d="m 537.821,132.777 h -29.117 c -0.466,0 -0.844,0.378 -0.844,0.844 0,0.466 0.378,0.844 0.844,0.844 h 29.117 c 0.466,0 0.843,-0.378 0.843,-0.844 0,-0.466 -0.377,-0.844 -0.843,-0.844" /></g></g></g></g></svg>